<svg width="12" height="12" viewBox="0 0 12 12" fill="none" xmlns="http://www.w3.org/2000/svg">
<path fill-rule="evenodd" clip-rule="evenodd" d="M5.99991 10.5C3.51745 10.5 1.49998 8.4825 1.49998 6C1.49998 4.6725 2.08497 3.48 2.99995 2.655V3.75C2.99995 4.1625 3.33745 4.5 3.74994 4.5C4.16244 4.5 4.49993 4.1625 4.49993 3.75V0.75C4.49993 0.3375 4.16244 0 3.74994 0H0.749988C0.337495 0 0 0.3375 0 0.75C0 1.1625 0.337495 1.5 0.749988 1.5H2.05497C0.802488 2.595 0 4.2 0 6C0 9.315 2.68496 12 5.99991 12C6.4124 12 6.7499 11.6625 6.7499 11.25C6.7499 10.8375 6.4124 10.5 5.99991 10.5ZM6.00007 1.5C6.81006 1.5 7.56005 1.7325 8.21254 2.1075L9.31502 1.005C8.36254 0.3675 7.23005 0 6.00007 0C5.58758 0 5.25008 0.3375 5.25008 0.75C5.25008 1.1625 5.58758 1.5 6.00007 1.5ZM8.03246 6.5325L11.7824 2.7825C11.9174 2.6475 11.9999 2.46 11.9999 2.25C11.9999 1.8375 11.6624 1.5 11.2499 1.5C11.0399 1.5 10.8524 1.5825 10.7174 1.7175L7.49997 4.9425L6.53248 3.9675C6.39748 3.8325 6.20999 3.75 5.99999 3.75C5.58749 3.75 5.25 4.0875 5.25 4.5C5.25 4.71 5.3325 4.8975 5.4675 5.0325L6.96747 6.5325C7.10247 6.6675 7.28997 6.75 7.49997 6.75C7.70996 6.75 7.89746 6.6675 8.03246 6.5325ZM11.9999 5.99932C11.9999 5.58682 11.9549 5.18932 11.8799 4.79932L10.4775 6.20182C10.4175 7.44682 9.86996 8.55682 8.99998 9.33682V8.24932C8.99998 7.83682 8.66248 7.49932 8.24999 7.49932C7.83749 7.49932 7.5 7.83682 7.5 8.24932V11.2493C7.5 11.6618 7.83749 11.9993 8.24999 11.9993H11.2499C11.6624 11.9993 11.9999 11.6618 11.9999 11.2493C11.9999 10.8368 11.6624 10.4993 11.2499 10.4993H9.94496C11.1974 9.40432 11.9999 7.79932 11.9999 5.99932Z" fill="white"/>
</svg>
