<svg width="12" height="12" viewBox="0 0 12 12" fill="none" xmlns="http://www.w3.org/2000/svg">
<path fill-rule="evenodd" clip-rule="evenodd" d="M8.25 0C6.18 0 4.5 1.68 4.5 3.75C4.5 4.515 4.7325 5.22 5.1225 5.8125L0.2175 10.7175C0.0825 10.8525 0 11.04 0 11.25C0 11.6625 0.3375 12 0.75 12C0.96 12 1.1475 11.9175 1.2825 11.7825L2.25 10.8075L3.2175 11.775C3.3525 11.9175 3.54 12 3.75 12C3.96 12 4.1475 11.9175 4.2825 11.7825L5.7825 10.2825C5.9175 10.1475 6 9.96 6 9.75C6 9.54 5.9175 9.3525 5.7825 9.2175L4.8075 8.25L6.18 6.8775C6.78 7.2675 7.485 7.5 8.25 7.5C10.32 7.5 12 5.82 12 3.75C12 1.68 10.32 0 8.25 0ZM8.25 6C8.0775 6 7.9125 5.9775 7.755 5.94C7.7475 5.94 7.74 5.9325 7.7325 5.9325C7.575 5.895 7.425 5.8425 7.2825 5.775C6.8175 5.55 6.45 5.1825 6.225 4.7175C6.1575 4.575 6.105 4.425 6.0675 4.275C6.0675 4.2675 6.06 4.26 6.06 4.2525C6.0225 4.0875 6 3.9225 6 3.75C6 2.505 7.005 1.5 8.25 1.5C9.495 1.5 10.5 2.505 10.5 3.75C10.5 4.995 9.495 6 8.25 6Z" fill="white"/>
</svg>
