<svg width="12" height="12" viewBox="0 0 12 12" fill="none" xmlns="http://www.w3.org/2000/svg">
<path fill-rule="evenodd" clip-rule="evenodd" d="M11.3929 4.8H10.0062C9.9238 4.5225 9.80387 4.2675 9.66896 4.02L10.6883 3C10.9207 2.7675 10.9207 2.385 10.6883 2.1525L9.84135 1.305C9.60899 1.0725 9.22673 1.0725 8.99438 1.305L7.97502 2.325C7.72767 2.1975 7.47283 2.0775 7.1955 1.995V0.6C7.1955 0.27 6.92567 0 6.59588 0H5.39663C5.06683 0 4.797 0.27 4.797 0.6V1.995C4.50468 2.085 4.23485 2.205 3.97252 2.3475L2.99813 1.3725C2.77327 1.1475 2.406 1.1475 2.18114 1.3725L1.37164 2.19C1.14678 2.415 1.14678 2.7825 1.37164 3.0075L2.34603 3.9825C2.19613 4.2375 2.0762 4.5075 1.98626 4.8H0.599625C0.269831 4.8 0 5.07 0 5.4V6.6C0 6.93 0.269831 7.2 0.599625 7.2H1.98626C2.06871 7.4775 2.18863 7.7325 2.32355 7.98L1.30418 9C1.07183 9.2325 1.07183 9.615 1.30418 9.8475L2.15116 10.695C2.38351 10.9275 2.76577 10.9275 2.99813 10.695L4.01749 9.675C4.26483 9.81 4.51968 9.9225 4.797 10.005V11.4C4.797 11.73 5.06683 12 5.39663 12H6.59588C6.92567 12 7.1955 11.73 7.1955 11.4V10.005C7.48782 9.915 7.75765 9.795 8.01999 9.6525L8.99438 10.6275C9.21924 10.8525 9.58651 10.8525 9.81137 10.6275L10.6284 9.81C10.8532 9.585 10.8532 9.2175 10.6284 8.9925L9.65397 8.0175C9.79638 7.755 9.9238 7.485 10.0137 7.1925H11.4004C11.7302 7.1925 12 6.9225 12 6.5925V5.3925C11.9925 5.07 11.7227 4.8 11.3929 4.8ZM5.99664 8.25025C4.75242 8.25025 3.74805 7.24524 3.74805 6.00024C3.74805 4.75524 4.75242 3.75024 5.99664 3.75024C7.24086 3.75024 8.24524 4.75524 8.24524 6.00024C8.24524 7.24524 7.24086 8.25025 5.99664 8.25025Z" fill="white"/>
</svg>
