<svg width="12" height="12" viewBox="0 0 12 12" fill="none" xmlns="http://www.w3.org/2000/svg">
<path d="M7.6 3.2C7.92 3.2 8.24 3.12 8.48 2.96C9.6 3.6 10.32 4.8 10.4 6.08C10.4 6.48 10.8 6.8 11.2 6.8C11.68 6.8 12 6.48 12 6C12 5.92 12 5.92 12 5.84C11.84 3.92 10.8 2.32 9.2 1.44C9.12 0.64 8.48 0 7.6 0C6.72 0 6 0.72 6 1.6C6 2.48 6.72 3.2 7.6 3.2ZM3.2 6.8C3.2 6.24 2.88 5.76 2.48 5.44C2.72 4.32 3.44 3.36 4.48 2.8C4.72 2.72 4.96 2.48 4.96 2.08C4.96 1.68 4.64 1.28 4.16 1.28C4 1.28 3.92 1.28 3.76 1.36C2.24 2.16 1.2 3.6 0.88 5.36C0.32 5.68 0 6.24 0 6.8C0 7.68 0.72 8.4 1.6 8.4C2.48 8.4 3.2 7.68 3.2 6.8ZM10.24 7.76C9.36 7.76 8.64 8.48 8.64 9.36C8.64 9.44 8.64 9.52 8.64 9.6C8 10.08 7.2 10.32 6.4 10.32C5.44 10.32 4.56 10 3.84 9.44C3.68 9.28 3.52 9.2 3.28 9.2C2.8 9.2 2.48 9.52 2.48 10C2.48 10.24 2.56 10.48 2.72 10.64C3.68 11.52 4.96 12 6.4 12C7.6 12 8.8 11.6 9.68 10.96C9.84 11.04 10.08 11.04 10.24 11.04C11.12 11.04 11.84 10.32 11.84 9.44C11.84 8.56 11.12 7.76 10.24 7.76Z" fill="white"/>
</svg>
