<svg width="16" height="12" viewBox="0 0 16 12" fill="none" xmlns="http://www.w3.org/2000/svg">
<path fill-rule="evenodd" clip-rule="evenodd" d="M15.71 5.29L12.71 2.29C12.53 2.11 12.28 2 12 2C11.45 2 11 2.45 11 3C11 3.28 11.11 3.53 11.29 3.71L13.59 6L11.3 8.29C11.11 8.47 11 8.72 11 9C11 9.55 11.45 10 12 10C12.28 10 12.53 9.89 12.71 9.71L15.71 6.71C15.89 6.53 16 6.28 16 6C16 5.72 15.89 5.47 15.71 5.29ZM5 3C5 2.45 4.55 2 4 2C3.72 2 3.47 2.11 3.29 2.29L0.29 5.29C0.11 5.47 0 5.72 0 6C0 6.28 0.11 6.53 0.29 6.71L3.29 9.71C3.47 9.89 3.72 10 4 10C4.55 10 5 9.55 5 9C5 8.72 4.89 8.47 4.71 8.29L2.41 6L4.7 3.71C4.89 3.53 5 3.28 5 3ZM9 0C8.52 0 8.13 0.35 8.04 0.81L6.04 10.81C6.03 10.87 6 10.93 6 11C6 11.55 6.45 12 7 12C7.48 12 7.87 11.65 7.96 11.19L9.96 1.19C9.97 1.13 10 1.07 10 1C10 0.45 9.55 0 9 0Z" fill="white"/>
</svg>
