<svg width="9" height="12" viewBox="0 0 9 12" fill="none" xmlns="http://www.w3.org/2000/svg">
<path fill-rule="evenodd" clip-rule="evenodd" d="M4.5 3C6.9825 3 9 2.325 9 1.5C9 0.675 6.9825 0 4.5 0C2.01 0 0 0.675 0 1.5C0 2.325 2.01 3 4.5 3ZM0 2.64V6C0 6.825 2.0175 7.5 4.5 7.5C6.9825 7.5 9 6.825 9 6V2.64C8.085 3.3 6.42 3.75 4.5 3.75C2.58 3.75 0.915 3.3 0 2.64ZM0 7.14V10.5C0 11.325 2.0175 12 4.5 12C6.9825 12 9 11.325 9 10.5V7.14C8.085 7.8 6.42 8.25 4.5 8.25C2.58 8.25 0.915 7.8 0 7.14Z" fill="white"/>
</svg>
