<svg width="1440" height="444" viewBox="0 0 1440 444" fill="none" xmlns="http://www.w3.org/2000/svg">
<g clip-path="url(#clip0_270_33459)">
<rect width="1440" height="444" fill="#0F1117"/>
<g clip-path="url(#clip1_270_33459)">
<path d="M536.609 375.374C533.912 375.215 531.183 374.988 528.461 374.627C470.328 367.565 430.163 324.198 391.305 282.247C351.45 239.2 313.797 198.523 258.634 193.809C239.058 192.124 219.843 195.509 199.519 199.098C179.528 202.605 158.906 206.276 137.978 204.578C75.1521 199.58 30.0763 150.173 1.66421 113.417C-2.99361 107.424 -7.57268 101.335 -12.1862 95.2112C-39.494 58.9555 -67.7537 21.4733 -109.422 1.19708C-159.232 -23.0361 -227.92 -20.3842 -297.822 8.5187C-329.718 21.6948 -360.199 38.8005 -389.659 55.3306C-415.98 70.1054 -443.207 85.362 -471.557 97.9438C-544.628 130.373 -614.867 136.379 -669.334 114.849L-665.064 105.668C-595.623 133.128 -517.069 106.975 -476.403 88.9295C-448.54 76.5531 -421.54 61.4169 -395.447 46.796C-365.686 30.1163 -334.902 12.8278 -302.407 -0.580664C-259.492 -18.3267 -176.685 -42.792 -104.334 -7.60127C-60.2843 13.8517 -31.2432 52.3498 -3.15398 89.6213C1.42508 95.7102 6.00609 101.766 10.6294 107.723C53.7964 163.474 94.5215 191.086 138.892 194.631C158.186 196.133 177.286 192.841 197.426 189.275C217.639 185.714 238.516 182.058 259.621 183.867C319.297 188.946 360.182 233.124 399.726 275.852C437.209 316.318 475.962 358.196 529.883 364.744C586.93 371.642 639.238 335.952 678.452 304.042C681.985 301.172 685.52 298.27 689.055 295.367C729.477 262.189 771.279 227.922 825.124 220.217C872.331 213.459 918.154 228.996 962.436 244.008C985.455 251.816 1009.23 259.869 1032.86 264.67C1114.43 281.271 1209.9 260.193 1294.81 206.819C1371.94 158.34 1432.81 91.346 1491.66 26.5741L1500.09 33.0233C1440.78 98.3029 1379.43 165.838 1301.06 215.08C1213.68 270.014 1115.1 291.645 1030.57 274.435C1006.21 269.492 982.046 261.282 958.703 253.387C913.741 238.135 871.286 223.766 826.885 230.087C776.174 237.341 735.599 270.643 696.368 302.854C692.794 305.788 689.259 308.691 685.726 311.56C646.591 343.375 594.772 378.826 536.644 375.409L536.609 375.374Z" fill="#001920"/>
<path d="M526.643 373.818C524.092 373.668 521.545 373.452 519.004 373.135C469.367 367.107 433.789 334.68 395.757 296.088C392.236 292.536 388.751 288.987 385.302 285.439C356.428 255.915 329.139 228.055 296.209 212.173C280.703 204.706 265.184 200.583 248.751 199.55C230.456 198.474 212.429 201.562 193.329 204.854C183.54 206.52 173.417 208.266 163.368 209.381C149.898 210.83 138.662 210.973 128.05 209.847C97.4849 206.613 68.9855 192.495 40.9591 166.599C26.5655 153.278 12.4251 136.894 -2.213 116.534C-6.10236 111.155 -9.94943 105.678 -13.7945 100.167C-21.3871 89.3524 -29.2152 78.1894 -37.4371 67.5049C-61.7926 35.7708 -83.993 15.9031 -109.457 3.03459C-129.56 -7.11065 -152.548 -12.9437 -177.519 -14.3111C-224.468 -16.9035 -268.956 -3.53102 -297.982 8.10801C-312.028 13.771 -326.911 20.5889 -343.383 28.9522C-360.309 37.5565 -377.207 46.9317 -393.573 55.9702C-419.013 70.0609 -445.359 84.6335 -472.592 96.8796C-524.164 120.037 -600.05 142.501 -668.749 117.96L-664.872 108.622C-599.863 131.842 -527.092 110.132 -477.511 87.861C-450.692 75.8246 -424.571 61.3392 -399.321 47.371C-382.878 38.2702 -365.905 28.8659 -348.792 20.1724C-332.016 11.6262 -316.868 4.65663 -302.488 -1.08706C-272.339 -13.1618 -226.104 -27.0336 -177.004 -24.3148C-150.388 -22.951 -125.857 -16.5925 -104.262 -5.724C-69.6337 11.7637 -45.5957 39.5658 -28.5083 61.8087C-20.1869 72.6662 -12.2898 83.9002 -4.62827 94.7858C-0.781227 100.263 3.03134 105.705 6.88426 111.082C21.1164 130.883 34.8105 146.772 48.6848 159.595C74.8737 183.777 101.199 196.931 129.185 199.88C138.924 200.921 149.317 200.796 161.941 199.431C171.622 198.361 181.559 196.671 191.2 195.03C210.114 191.794 229.694 188.429 249.374 189.586C267.373 190.711 284.333 195.219 301.224 203.37C335.897 220.091 363.842 248.624 393.407 278.825C396.856 282.373 400.341 285.922 403.825 289.472C440.411 326.54 474.383 357.669 520.317 363.245C543.012 365.984 567.028 361.81 593.663 350.398C624.723 337.14 653.418 316.818 672.276 302.709C675.605 300.195 678.971 297.684 682.339 295.139L690.451 289.027C722.398 265.017 754.184 242.503 791.904 230.405C802.079 227.157 812.423 224.755 822.599 223.346C849.331 219.633 877.296 221.678 913.303 230.016C929.071 233.652 944.751 238.152 959.928 242.489C979.961 248.215 1000.64 254.147 1021.55 258.085C1024.29 258.614 1027.08 259.112 1029.84 259.542C1071.92 266.431 1118.64 264.996 1164.95 255.41C1210.45 245.976 1256.1 228.391 1296.92 204.502C1375.46 158.648 1439.65 90.2091 1497.35 23.0956L1505.98 29.3556C1447.72 97.1723 1382.77 166.335 1302.9 212.98C1260.41 237.809 1214.83 255.365 1167.48 265.191C1119.8 275.098 1071.55 276.543 1028.05 269.404C1025.19 268.935 1022.33 268.432 1019.47 267.896C998.058 263.862 977.055 257.844 956.807 252.039C941.773 247.743 926.237 243.285 910.794 239.735C876.266 231.752 849.614 229.75 824.431 233.254C814.918 234.568 805.242 236.808 795.701 239.86C759.66 251.387 728.709 273.382 697.528 296.801L689.415 302.914C686.048 305.458 682.68 308.003 679.351 310.516C660.033 324.967 630.651 345.783 598.467 359.511C572.772 370.476 549.235 375.213 526.712 373.889L526.643 373.818Z" fill="#001C24"/>
<path d="M516.935 372.277C514.457 372.132 512.019 371.922 509.587 371.611C459.004 365.494 422.747 330.318 387.665 296.281L380.917 289.764C349.917 259.713 320.644 231.369 285.954 216.185C270.48 209.423 255.076 205.841 238.909 205.259C221.83 204.657 204.948 207.544 187.033 210.571C175.988 212.464 164.574 214.402 153.214 215.407C140.163 216.579 128.688 216.44 118.13 215.017C88.2332 210.985 60.759 196.226 34.1488 169.878C20.6397 156.441 7.49112 139.982 -6.11675 119.515C-9.23961 114.783 -12.3605 110.018 -15.5139 105.183C-23.027 93.6373 -30.81 81.7077 -39.0962 70.2502C-61.8254 38.8458 -84.1896 18.032 -109.521 4.7699C-129.533 -5.67104 -152.32 -11.8267 -177.27 -13.5274C-214.351 -16.0414 -256.212 -8.76906 -298.167 7.56179C-312.352 13.0829 -327.301 19.7965 -343.877 28.0534C-362.035 37.087 -380.173 47.0247 -397.706 56.6301C-422.192 70.0411 -447.545 83.9028 -473.584 95.7508C-525.024 119.15 -600.526 142.54 -668.161 121.038L-664.679 111.577C-600.634 131.931 -528.104 109.336 -478.544 86.7967C-452.842 75.0961 -427.715 61.3548 -403.381 48.0353C-385.735 38.3696 -367.522 28.4028 -349.174 19.2467C-332.297 10.8402 -317.048 4.01043 -302.526 -1.65803C-258.999 -18.5989 -215.438 -26.1727 -176.573 -23.5204C-149.983 -21.7233 -125.612 -15.14 -104.145 -3.94465C-77.2532 10.145 -53.6682 31.9671 -29.9606 64.7668C-21.5403 76.4329 -13.6902 88.4668 -6.11019 100.117C-2.99126 104.916 0.0931935 109.679 3.21801 114.378C16.4219 134.252 29.1625 150.186 42.1523 163.124C66.9654 187.694 92.2695 201.423 119.59 205.102C129.241 206.405 139.842 206.493 152.008 205.436C162.89 204.47 174.083 202.552 184.906 200.714C202.6 197.707 220.887 194.567 239.205 195.243C256.943 195.85 273.719 199.746 290.583 207.126C327.127 223.121 357.091 252.141 388.817 282.903L395.563 289.454C429.296 322.174 464.205 356.034 510.902 361.688C533.415 364.416 557.078 360.021 585.325 347.935C616.387 334.643 644.907 316.05 666.25 301.351L685.006 288.372C716.296 266.833 750.101 244.805 788.996 233.244C799.345 230.14 809.828 227.88 820.15 226.48C854.102 221.853 886.887 226.523 911.594 231.119C927.152 233.973 942.449 237.515 957.206 240.924C977.012 245.533 997.505 250.283 1018.54 253.292C1021.29 253.688 1024.09 254.053 1026.88 254.418C1070.01 259.796 1117.55 258.041 1164.39 249.39C1212.41 240.54 1257.74 224.641 1299.11 202.222C1388.02 154.068 1458.1 74.9716 1503.07 19.6526L1511.9 25.69C1466.37 81.6789 1395.36 161.79 1304.74 210.848C1262.32 233.841 1215.87 250.141 1166.63 259.221C1118.6 268.104 1069.79 269.884 1025.49 264.37C1022.63 264.001 1019.76 263.632 1016.93 263.232C995.39 260.126 974.644 255.328 954.585 250.67C939.938 247.267 924.821 243.77 909.516 240.964C885.64 236.55 854.126 232.022 821.833 236.412C812.1 237.746 802.211 239.874 792.42 242.811C755.087 253.928 722.119 275.403 691.552 296.45L672.797 309.429C650.999 324.402 621.908 343.362 589.945 357.07C562.709 368.747 539.235 373.655 516.822 372.338L516.935 372.277Z" fill="#002028"/>
<path d="M507.007 370.724C504.747 370.591 502.455 370.39 500.131 370.119C452.308 364.331 417.606 331.922 384.014 300.548C381.345 298.05 378.676 295.552 376.005 293.087C344.997 264.407 312.913 234.761 275.699 220.198C260.328 214.177 245.035 211.171 228.991 210.998C213.13 210.835 197.356 213.52 180.658 216.384C168.358 218.471 155.685 220.669 143.018 221.53C130.094 222.409 118.707 222.008 108.13 220.282C78.9346 215.523 52.4855 200.121 27.2954 173.255C14.7072 159.705 2.47757 143.166 -10.0656 122.628C-12.5332 118.57 -14.9645 114.514 -17.4282 110.389C-24.8252 98.1139 -32.4519 85.3907 -40.7984 73.0935C-62.2422 41.5975 -84.1112 20.4448 -109.592 6.60539C-129.474 -4.16244 -152.171 -10.6138 -177.067 -12.6123C-214.191 -15.6306 -256.1 -8.79583 -298.363 7.18244C-312.726 12.6261 -327.777 19.2 -344.38 27.2881C-363.883 36.8112 -383.372 47.3385 -402.183 57.5377C-425.64 70.2399 -449.851 83.3326 -474.658 94.7513C-525.966 118.392 -601.046 142.676 -667.615 124.214L-664.528 114.629C-601.449 132.117 -529.158 108.606 -479.654 85.795C-455.184 74.5236 -431.123 61.4891 -407.818 48.8783C-388.894 38.6189 -369.328 28.0292 -349.6 18.419C-332.694 10.1481 -317.344 3.45797 -302.645 -2.09978C-258.774 -18.6859 -215.058 -25.7824 -176.225 -22.5967C-149.69 -20.4685 -125.448 -13.5583 -104.112 -2.00273C-77.0003 12.7019 -53.9491 34.8939 -31.5307 67.852C-23.0156 80.3933 -15.3219 93.2207 -7.85787 105.6C-5.39218 109.691 -2.961 113.748 -0.527841 117.77C11.6477 137.718 23.4695 153.731 35.5768 166.751C59.0101 191.775 83.3314 206.048 109.919 210.387C119.554 211.957 130.064 212.34 142.035 211.505C154.117 210.644 166.529 208.53 178.497 206.491C194.973 203.68 212.003 200.768 228.962 200.928C246.467 201.121 263.135 204.375 279.863 210.944C319.042 226.291 351.926 256.654 383.698 286.014C386.367 288.512 389.073 291.012 391.742 293.511C423.981 323.634 457.365 354.829 501.376 360.125C529.956 363.544 556.733 354.081 576.879 345.432C608.094 332.015 637.782 314.093 660.151 299.989L666.306 296.07C670.711 293.285 675.119 290.467 679.523 287.716C711.385 267.648 745.831 247.163 786.09 236.05C796.611 233.124 807.271 230.941 817.739 229.549C850.836 225.173 882.902 228.396 909.925 232.158C925.163 234.225 939.894 236.83 954.157 239.307C973.847 242.772 994.263 246.347 1015.61 248.437C1018.37 248.7 1021.17 248.965 1023.97 249.197C1067.82 252.945 1117.5 250.814 1163.87 243.272C1213.94 235.144 1260.18 220.504 1301.33 199.811C1372.78 163.975 1442.6 102.156 1508.88 16.0474L1517.87 21.86C1450.64 109.184 1379.58 172.034 1306.67 208.586C1264.5 229.788 1217.1 244.795 1165.89 253.124C1117.89 260.938 1068.47 263.017 1023.06 259.177C1020.18 258.941 1017.35 258.674 1014.51 258.373C992.695 256.222 972.099 252.603 952.154 249.123C938 246.652 923.377 244.087 908.394 242.035C882.132 238.384 851.048 235.253 819.388 239.446C809.437 240.767 799.331 242.849 789.331 245.606C750.56 256.304 716.908 276.334 685.768 295.943C681.363 298.728 676.993 301.514 672.587 304.299L666.433 308.218C643.72 322.57 613.541 340.763 581.612 354.506C561.727 363.07 535.617 372.372 506.936 370.686L507.007 370.724Z" fill="#00232C"/>
<path d="M497.259 369.214C495.072 369.086 492.889 368.891 490.674 368.627C445.174 363.143 411.772 332.884 379.52 303.595C375.077 299.555 370.631 295.547 366.147 291.571C334.126 263.333 302.327 236.914 265.48 224.213C250.175 218.932 234.997 216.468 219.148 216.707C204.433 216.946 189.803 219.464 174.323 222.133C160.801 224.482 146.837 226.872 132.898 227.591C120.135 228.212 108.801 227.546 98.2068 225.485C69.9309 220.01 43.7996 203.557 20.5203 176.535C8.77617 162.935 -2.15714 146.739 -13.8997 125.647C-15.7525 122.327 -17.5688 119.009 -19.4197 115.656C-26.5875 102.592 -34.0194 89.0444 -42.3899 75.9097C-62.2803 44.7391 -84.2786 22.6758 -109.59 8.44492C-129.382 -2.6186 -151.984 -9.43234 -176.754 -11.7244C-213.85 -15.2093 -255.916 -8.81857 -298.449 6.77591C-312.952 12.1111 -328.104 18.5452 -344.736 26.4978C-365.693 36.504 -386.574 47.6853 -406.775 58.5052C-429.053 70.4405 -452.123 82.7975 -475.549 93.7289C-526.724 117.612 -601.454 142.786 -666.886 127.367L-664.267 117.655C-602.191 132.307 -530.139 107.879 -480.619 84.8016C-457.457 73.9886 -434.538 61.723 -412.411 49.8791C-392.097 38.999 -371.103 27.7575 -349.883 17.633C-332.914 9.53297 -317.46 2.94932 -302.585 -2.49772C-258.407 -18.6979 -214.5 -25.3149 -175.696 -21.6293C-149.254 -19.172 -125.106 -11.8995 -103.863 -0.0148811C-76.9224 15.1145 -53.7132 38.3527 -32.8502 71.0186C-24.3151 84.4641 -16.7798 98.1184 -9.5469 111.32C-7.69607 114.673 -5.87971 117.991 -4.0614 121.275C7.35003 141.78 17.9138 157.418 29.1771 170.489C50.8149 195.574 74.7858 210.83 100.459 215.784C110.077 217.654 120.5 218.267 132.275 217.654C145.479 216.992 159.113 214.616 172.266 212.346C187.525 209.697 203.3 206.979 218.93 206.727C236.206 206.471 252.69 209.113 269.32 214.873C308.139 228.259 340.881 255.436 373.772 284.427C378.29 288.439 382.77 292.481 387.248 296.557C418.218 324.633 450.229 353.673 492.062 358.708C519.841 362.046 546.357 352.668 568.644 343.074C599.523 329.772 629.242 313.19 654.264 298.74L657.368 296.949C662.973 293.666 668.613 290.419 674.253 287.172C705.137 269.421 741.591 249.623 783.357 239C794.05 236.251 804.851 234.176 815.464 232.793C848.262 228.534 880.599 230.869 908.391 233.372C922.688 234.647 936.344 236.253 949.565 237.799C970.63 240.275 990.496 242.613 1012.81 243.791C1015.58 243.954 1018.39 244.085 1021.23 244.219C1067 246.341 1117.54 243.893 1163.53 237.365C1216.52 229.877 1262.41 216.888 1303.73 197.644C1399 153.442 1471.14 72.6946 1514.86 12.686L1524 18.3071C1479.57 79.2772 1406.13 161.42 1308.76 206.569C1266.39 226.287 1219.45 239.615 1165.29 247.235C1118.6 253.856 1067.26 256.323 1020.75 254.192C1017.91 254.058 1015.06 253.924 1012.26 253.759C989.619 252.562 968.59 250.089 948.287 247.725C935.139 246.183 921.59 244.617 907.441 243.317C880.305 240.852 848.695 238.593 817.113 242.69C806.98 244.001 796.622 246.001 786.374 248.643C746.018 258.914 710.355 278.323 680.116 295.677C674.515 298.893 668.909 302.176 663.306 305.426L660.202 307.216C634.913 321.851 604.818 338.612 573.413 352.151C551.426 361.628 525.43 370.87 497.368 369.221L497.259 369.214Z" fill="#002631"/>
<path d="M487.877 367.693C485.69 367.564 483.471 367.367 481.219 367.101C437.643 361.864 405.455 333.349 374.344 305.8C368.435 300.569 362.353 295.161 356.29 290.055C321.199 260.533 290.593 238.7 255.262 228.195C240.024 223.653 224.958 221.764 209.268 222.414C195.705 222.955 182.179 225.37 167.877 227.908C153.168 230.522 137.944 233.206 122.739 233.683C110.099 234.077 98.8211 233.08 88.2449 230.719C60.5606 224.51 35.491 207.417 13.6682 179.879C2.91204 166.269 -7.10432 150.027 -17.8453 128.693L-21.6723 121.009C-28.5725 107.125 -35.7388 92.7897 -44.0908 78.7195C-62.7343 47.4884 -84.2008 25.0885 -109.695 10.2448C-129.359 -1.14562 -151.87 -8.25506 -176.586 -10.845C-213.616 -14.8277 -255.839 -8.88096 -298.715 6.32546C-313.357 11.552 -328.613 17.8798 -345.31 25.6948C-367.833 36.2109 -390.257 48.1377 -411.961 59.6385C-432.985 70.7779 -454.691 82.3121 -476.694 92.6916C-527.772 116.781 -602.12 142.914 -666.375 130.508L-664.226 120.701C-603.154 132.518 -531.302 107.142 -481.803 83.7955C-460.063 73.5344 -438.434 62.0626 -417.523 50.9834C-395.706 39.4223 -373.169 27.4354 -350.382 16.8009C-333.348 8.83849 -317.791 2.36124 -302.776 -2.97724C-258.255 -18.7894 -214.229 -24.9311 -175.455 -20.7456C-149.106 -17.9593 -125.051 -10.3577 -103.936 1.85379C-76.7776 17.6314 -54.1022 41.2396 -34.5284 74.064C-25.9753 88.447 -18.7479 102.986 -11.7462 117.01L-7.91722 124.661C2.49651 145.341 12.1778 161.061 22.4916 174.109C42.7131 199.647 65.6647 215.445 90.714 221.065C100.316 223.201 110.614 224.074 122.226 223.753C136.588 223.293 151.37 220.683 165.671 218.146C179.75 215.662 194.275 213.071 208.645 212.477C225.692 211.773 242.027 213.837 258.523 218.754C295.758 229.839 327.457 252.372 363.628 282.794C369.795 288.006 375.911 293.45 381.855 298.716C411.68 325.119 442.548 352.453 482.493 357.242C508.023 360.281 532.013 352.828 560.116 340.7C591.41 327.188 621.928 311.322 648.083 297.507C654.916 293.862 661.786 290.219 668.652 286.642C702.155 269.145 738.876 251.637 780.259 241.929C791.125 239.356 802.104 237.359 812.863 235.985C845.101 231.927 876.8 233.288 904.778 234.498L906.527 234.601C919.114 235.106 930.995 235.805 942.513 236.448C964.673 237.717 985.631 238.916 1009.65 239.09L1018.09 239.151C1067.29 239.502 1118.69 236.736 1162.78 231.368C1218.17 224.69 1264.94 212.923 1305.76 195.389C1384.62 161.627 1460.87 95.5372 1520.47 9.23651L1529.74 14.6641C1469.06 102.54 1391.19 169.94 1310.46 204.461C1268.63 222.438 1220.82 234.478 1164.32 241.291C1119.75 246.699 1067.8 249.499 1018.12 249.154L1009.64 249.09C985.336 248.899 964.27 247.694 941.928 246.414C930.448 245.74 918.601 245.077 906.089 244.542L904.34 244.439C876.836 243.257 845.683 241.928 814.439 245.878C804.087 247.176 793.551 249.098 783.055 251.592C742.897 261.004 706.962 278.191 674.103 295.324C667.273 298.903 660.442 302.515 653.608 306.16C627.265 320.064 596.484 336.048 564.851 349.741C537.348 361.604 513.42 369.261 487.8 367.755L487.877 367.693Z" fill="#002935"/>
<path d="M478.016 366.177C475.975 366.057 473.902 365.869 471.796 365.611C429.927 360.575 398.75 333.523 368.618 307.37C361.38 301.091 353.899 294.598 346.427 288.573C307.035 256.958 276.722 240.092 245.077 232.212C229.866 228.441 214.951 227.096 199.383 228.155C186.973 228.997 174.554 231.244 161.43 233.65C145.497 236.56 129.046 239.573 112.578 239.776C100.063 239.91 88.837 238.648 78.2804 235.954C51.1514 229.008 27.1452 211.241 6.85195 183.191C-3.09071 169.429 -11.922 153.558 -21.7205 131.743L-24.1098 126.352C-30.6713 111.684 -37.4222 96.5041 -45.7194 81.5006C-62.8844 50.624 -84.4398 27.2488 -109.731 12.0492C-129.301 0.329795 -151.686 -7.0732 -176.309 -9.99215C-213.347 -14.477 -255.689 -8.97213 -298.837 5.88384C-313.62 11.0019 -328.977 17.1898 -345.739 24.8672C-369.978 35.9515 -394.054 48.6173 -417.338 60.8614C-436.961 71.1801 -457.227 81.8624 -477.658 91.6319C-551.819 127.041 -615.076 141.183 -665.681 133.593L-664.039 123.689C-616.477 130.799 -553.842 116.654 -482.804 82.7337C-462.599 73.0847 -442.409 62.4648 -422.861 52.1751C-399.463 39.8374 -375.237 27.1135 -350.696 15.8798C-333.597 8.05498 -317.902 1.71964 -302.783 -3.51243C-257.956 -18.9386 -213.776 -24.603 -174.992 -19.9487C-148.735 -16.8334 -124.736 -8.90067 -103.789 3.66894C-76.8383 19.8692 -54.0434 44.5547 -35.9846 77.0224C-27.4883 92.372 -20.6399 107.759 -13.9807 122.632L-11.5894 127.991C-2.04528 149.155 6.45097 164.504 15.9876 177.707C34.7565 203.695 56.6525 220.033 81.1524 226.289C90.7003 228.723 100.91 229.859 112.364 229.729C127.844 229.535 143.779 226.592 159.23 223.788C172.095 221.433 185.439 219.007 198.548 218.105C215.363 216.986 231.48 218.402 247.914 222.512C281.289 230.829 312.919 248.307 353.672 281.039C361.282 287.205 368.832 293.77 376.177 300.088C406.344 326.277 434.84 351.03 473.187 355.625C500.896 358.926 527.273 348.804 551.89 338.143C581.347 325.392 611.193 310.992 637.573 298.328L642.203 296.092C649.243 292.659 656.318 289.262 663.352 285.929C697.093 269.985 734.238 253.974 777.499 244.677C788.537 242.282 799.694 240.362 810.597 239.03C838.667 235.562 866.496 235.593 891.068 235.632C895.785 235.642 900.429 235.647 904.966 235.613L921.206 235.564C950.467 235.478 975.74 235.425 1006.86 234.277L1015.36 233.974C1057.09 232.648 1111.52 230.462 1162.44 225.294C1221.23 219.385 1267.51 209.128 1308.17 193.022C1390.12 160.746 1469.68 92.4765 1526.49 5.67761L1535.92 10.8805C1477.98 99.4193 1396.61 169.155 1312.64 202.215C1271 218.698 1223.69 229.195 1163.79 235.24C1112.47 240.452 1057.78 242.655 1015.9 243.973L1007.48 244.247C976.179 245.384 950.794 245.464 921.424 245.544L905.22 245.595C900.647 245.627 896.003 245.622 891.25 245.61C867.041 245.592 839.58 245.55 812.246 248.926C801.71 250.247 790.923 252.088 780.218 254.402C738.105 263.466 701.672 279.185 668.571 294.832C661.573 298.167 654.536 301.532 647.498 304.932L642.832 307.166C616.375 319.892 586.417 334.32 556.772 347.16C532.455 357.704 506.45 367.715 478.206 366.055L478.016 366.177Z" fill="#002D39"/>
<path d="M468.565 364.651C466.524 364.531 464.45 364.342 462.381 364.087C421.927 359.234 391.704 333.376 362.455 308.378C354.027 301.194 345.358 293.761 336.612 287.025C299.201 258.404 267.868 242.715 234.938 236.164C219.793 233.133 204.952 232.395 189.545 233.83C178.22 234.87 166.938 237.05 154.956 239.323C137.868 242.599 120.155 245.94 102.424 245.834C89.9963 245.739 78.8608 244.182 68.3238 241.154C41.7501 233.471 18.769 215.063 0.0436396 186.469C-11.4309 168.904 -19.6959 149.622 -25.6242 134.757L-26.8348 131.709C-32.9465 116.232 -39.2475 100.243 -47.4169 84.3101C-63.3714 53.3708 -84.397 29.6924 -109.833 13.8488C-129.277 1.83576 -151.569 -5.89627 -176.138 -9.11306C-213.112 -14.0624 -255.647 -9.00369 -299.064 5.43516C-313.984 10.4113 -329.445 16.4928 -346.272 24.0326C-372.374 35.7097 -398.218 49.2081 -423.196 62.2891C-441.268 71.7291 -459.981 81.4992 -478.726 90.5652C-552.799 126.347 -615.514 141.859 -665.091 136.671L-663.956 126.703C-616.56 131.663 -556.025 116.525 -483.908 81.6649C-465.315 72.6904 -446.713 62.9471 -428.716 53.5362C-403.551 40.3992 -377.556 26.8094 -351.152 14.9828C-333.988 7.29562 -318.189 1.06668 -302.894 -4.05467C-257.76 -19.0949 -213.389 -24.2799 -174.635 -19.1256C-148.434 -15.6791 -124.564 -7.41947 -103.709 5.47916C-76.5789 22.3589 -54.3176 47.4143 -37.4732 80.0113C-29.0722 96.3588 -22.6755 112.588 -16.5046 128.303L-15.2942 131.351C-9.55903 145.769 -1.55413 164.501 9.45327 181.303C26.735 207.705 47.6461 224.62 71.5582 231.544C81.0521 234.276 91.1366 235.672 102.431 235.767C118.991 235.871 136.116 232.596 152.647 229.454C164.37 227.233 176.466 224.901 188.343 223.793C204.89 222.257 220.86 223.062 237.161 226.328C271.898 233.253 304.728 249.598 343.575 279.307C352.53 286.222 361.341 293.73 369.872 301.021C399.122 326.019 426.769 349.652 463.663 354.095C490.791 357.328 515.824 347.662 543.445 335.673C560.858 328.101 578.32 320.331 595.254 312.831C609.259 306.63 622.93 300.51 636.104 294.763C643.349 291.576 650.631 288.392 657.871 285.306C690.014 271.642 729.014 256.442 774.52 247.511C785.769 245.262 797.066 243.451 808.079 242.125C831.909 239.245 854.81 238.484 876.939 237.778C886.099 237.48 894.784 237.188 903.184 236.745C936.6 235.03 962.58 232.912 995.506 230.198L1003.77 229.513C1006.6 229.278 1009.43 229.077 1012.3 228.877C1030.77 227.588 1050.4 226.434 1071.17 225.247C1101.22 223.501 1132.26 221.714 1161.77 219.268C1203.81 215.852 1258.64 209.509 1310.24 190.735C1394.95 160.127 1477.9 89.6476 1532.15 2.19666L1541.69 7.20596C1486.27 96.5613 1401.32 168.662 1314.38 200.075C1261.46 219.307 1205.6 225.791 1162.87 229.266C1133.21 231.703 1102.1 233.52 1071.97 235.261C1051.24 236.45 1031.64 237.606 1013.24 238.9C1010.42 239.101 1007.59 239.303 1004.83 239.542L996.562 240.227C963.527 242.934 937.472 245.082 903.872 246.82C895.362 247.256 886.642 247.546 877.409 247.839C855.534 248.56 832.89 249.303 809.576 252.114C798.857 253.423 787.856 255.185 776.904 257.351C732.432 266.108 694.108 281.014 662.527 294.443C655.326 297.498 648.119 300.653 640.873 303.839C627.699 309.587 614.03 315.673 600.062 321.876C583.126 329.41 565.627 337.177 548.177 344.748C521.006 356.562 496.048 366.2 468.496 364.58L468.565 364.651Z" fill="#00303D"/>
<path d="M458.669 363.1C456.774 362.989 454.846 362.809 452.92 362.595C413.845 357.924 384.509 333.155 356.147 309.246C346.6 301.192 336.741 292.853 326.748 285.543C290.878 259.32 259.446 245.331 224.787 240.184C209.67 237.924 194.908 237.725 179.698 239.54C169.495 240.78 159.32 242.791 148.514 244.965C130.232 248.64 111.323 252.412 92.2984 251.929C79.9568 251.605 68.8735 249.783 58.3599 246.355C32.3071 237.9 10.3876 218.852 -6.73545 189.75C-16.9442 172.427 -23.9286 153.755 -29.4623 137.777L-29.7414 136.924C-35.2978 120.71 -41.0051 103.953 -48.9759 87.1288C-63.5651 56.6042 -84.5664 31.8904 -109.798 15.6908C-129.113 3.35096 -151.349 -4.71224 -175.791 -8.22258C-212.774 -13.6407 -255.392 -9.05505 -299.153 5.02907C-314.213 9.89663 -329.741 15.8739 -346.669 23.2739C-374.747 35.5708 -402.546 49.9911 -429.405 63.9649C-445.815 72.4992 -462.753 81.3034 -479.659 89.5744C-553.68 125.727 -615.82 142.644 -664.363 139.791L-663.776 129.792C-617.309 132.523 -557.131 115.992 -484.915 80.7031C-468.122 72.4924 -451.223 63.7193 -434.889 55.2141C-407.841 41.151 -379.89 26.6393 -351.475 14.1951C-334.209 6.64763 -318.343 0.522987 -302.911 -4.45648C-257.47 -19.1108 -212.944 -23.8184 -174.22 -18.1641C-148.109 -14.4219 -124.333 -5.79998 -103.61 7.45887C-76.7216 24.7257 -54.3812 50.923 -38.9789 83.1677C-30.7804 100.473 -24.943 117.506 -19.3293 133.991L-19.0503 134.843C-13.7079 150.342 -6.91073 168.468 2.8654 185.064C18.66 211.88 38.5154 229.335 61.9126 236.931C71.314 239.992 81.3119 241.617 92.4833 241.939C110.158 242.376 128.401 238.732 146.053 235.188C156.6 233.065 167.479 230.895 178.16 229.616C194.439 227.663 210.224 227.889 226.43 230.28C263.083 235.712 296.122 250.363 333.533 277.748C343.805 285.275 353.841 293.725 363.526 301.92C391.852 325.827 418.609 348.437 454.198 352.67C482.78 356.055 509.35 344.506 535.057 333.341C569.773 318.223 601.717 304.849 630.061 293.605C637.55 290.634 645 287.694 652.445 284.853C697.147 267.814 733.901 257.232 771.599 250.484C783.021 248.413 794.459 246.677 805.654 245.362C825.282 243.037 844.401 241.92 862.825 240.795C876.477 239.992 889.395 239.213 901.46 238.016C923.678 235.81 942.193 233.152 961.816 230.292C974.024 228.534 986.639 226.7 1000.79 224.89C1003.63 224.522 1006.46 224.186 1009.37 223.889C1042.82 220.237 1081.9 217.985 1119.74 215.794C1133.75 214.979 1147.66 214.191 1161.24 213.317C1210.39 210.219 1262.7 205.099 1312.45 188.524C1401.03 159.247 1485.32 88.3119 1537.95 -1.24175L1547.61 3.57399C1493.77 95.2299 1407.29 167.876 1316.29 197.947C1265.26 214.916 1212.04 220.182 1162.12 223.302C1148.54 224.176 1134.56 224.96 1120.54 225.775C1082.89 227.943 1043.96 230.203 1010.8 233.806C1007.96 234.108 1005.16 234.445 1002.4 234.784C988.363 236.568 975.784 238.404 963.649 240.166C943.917 243.02 925.253 245.736 902.778 247.96C890.455 249.175 877.464 249.95 863.665 250.778C845.388 251.878 826.452 253.006 807.155 255.283C796.218 256.58 785.002 258.262 773.802 260.279C736.806 266.901 700.723 277.289 656.694 294.067C649.324 296.878 641.912 299.787 634.46 302.761C606.227 313.978 574.396 327.292 539.794 342.349C515.511 352.929 488.154 364.8 458.598 363.062L458.669 363.1Z" fill="#003341"/>
<path d="M449.177 361.606C447.281 361.494 445.39 361.316 443.465 361.103C405.479 356.562 376.896 332.674 349.256 309.543C338.764 300.765 327.958 291.735 316.892 284.027C282.287 259.919 250.755 247.63 214.609 244.134C199.482 242.676 184.834 243.019 169.819 245.247C160.707 246.585 151.636 248.493 142.007 250.536C122.567 254.644 102.422 258.912 82.1411 258.021C69.8516 257.433 58.8568 255.348 48.3993 251.589C23.1893 242.482 1.74121 222.257 -13.5459 193.029C-22.4889 175.948 -28.3346 157.81 -33.3318 140.793C-37.8282 125.211 -42.936 107.585 -50.6372 89.9076C-64.0523 59.3183 -84.5219 34.2678 -109.864 17.4597C-129.05 4.79291 -151.196 -3.56598 -175.582 -7.40749C-212.537 -13.2922 -255.31 -9.18396 -299.343 4.54971C-314.543 9.30871 -330.173 15.1462 -347.166 22.4087C-377.476 35.3769 -407.349 50.846 -436.241 65.8041C-450.762 73.3122 -465.774 81.0924 -480.726 88.4748C-554.737 125.063 -616.301 143.385 -663.737 142.838L-663.732 132.804C-618.195 133.307 -558.412 115.415 -486.021 79.6347C-471.182 72.3126 -456.209 64.5635 -441.724 57.0533C-412.644 42.0059 -382.583 26.4475 -351.896 13.3007C-334.565 5.8909 -318.598 -0.0939851 -302.989 -4.96275C-257.245 -19.1978 -212.561 -23.4614 -173.83 -17.305C-147.775 -13.2316 -124.131 -4.24947 -103.499 9.33841C-76.4682 27.2826 -54.698 53.8477 -40.4736 86.2239C-32.5142 104.485 -27.3147 122.417 -22.7227 138.24C-17.8802 154.779 -12.1835 172.339 -3.63664 188.695C10.6343 215.923 29.4705 233.921 52.3528 242.189C61.6637 245.546 71.5365 247.431 82.5869 247.946C101.335 248.781 120.703 244.668 139.439 240.719C148.809 238.728 158.51 236.689 167.99 235.307C183.962 232.968 199.565 232.547 215.673 234.129C253.928 237.816 287.178 250.741 323.467 276.052C334.921 284.017 345.936 293.227 356.602 302.148C384.21 325.21 410.283 347.011 444.781 351.146C472.636 354.456 499.17 342.904 524.806 331.702L526.683 330.875C557.76 317.317 591.42 303.977 624.032 292.314C631.727 289.556 639.382 286.862 646.995 284.266C690.464 269.562 729.111 259.726 768.689 253.357C780.321 251.431 791.973 249.808 803.238 248.531C818.738 246.766 833.988 245.522 848.721 244.348C866.983 242.879 884.214 241.517 899.818 239.224C919.849 236.287 936.331 232.741 953.811 229.019C967.441 226.074 981.552 223.057 997.918 220.239C1000.76 219.771 1003.6 219.303 1006.52 218.872C1050.34 212.417 1105.16 209.92 1153.57 207.681L1160.75 207.368C1210.99 205.136 1264.25 201.645 1314.74 186.318C1405.73 158.922 1493.48 85.7481 1543.85 -4.67385L1553.64 -0.0516664C1502.04 92.6058 1411.84 167.676 1318.28 195.824C1266.49 211.543 1212.41 215.087 1161.45 217.342L1154.26 217.656C1106.15 219.845 1051.62 222.359 1008.43 228.717C1005.59 229.152 1002.82 229.591 1000.08 230.066C984.012 232.834 970.011 235.857 956.492 238.775C938.862 242.555 922.194 246.158 901.759 249.137C885.787 251.476 868.371 252.861 849.889 254.35C835.265 255.531 820.128 256.715 804.811 258.49C793.727 259.778 782.296 261.381 770.813 263.248C731.9 269.523 693.847 279.193 651.012 293.7C643.437 296.264 635.857 298.929 628.236 301.659C595.886 313.236 562.487 326.491 531.634 339.963L529.757 340.789C504.348 351.871 478.15 363.309 449.322 361.614L449.177 361.606Z" fill="#003645"/>
<path d="M439.613 360.073C437.754 359.964 435.936 359.79 434.047 359.579C397.041 355.163 369.111 331.982 342.124 309.558C330.828 300.165 319.111 290.446 307.109 282.482C271.382 258.809 239.824 248.191 204.799 248.039C192.405 247.979 176.975 247.942 160.016 250.892C151.998 252.294 144.031 254.066 135.581 255.978C114.939 260.618 93.6307 265.385 72.0597 264.051C59.8568 263.233 48.8796 260.849 38.5166 256.728C7.21453 244.252 -10.7087 216.943 -20.2439 196.247C-27.994 179.403 -32.9129 161.053 -37.0907 143.783C-41.1612 126.553 -45.4009 109.714 -52.1898 92.6925C-60.7727 71.3508 -77.7277 41.2558 -109.824 19.2679C-128.917 6.27213 -150.934 -2.41365 -175.231 -6.51753C-212.157 -12.9023 -255.088 -9.20465 -299.426 4.10976C-314.766 8.7602 -330.497 14.458 -347.521 21.6183C-380.215 35.316 -412.385 51.921 -443.498 67.9527C-455.98 74.3765 -468.842 81.0456 -481.614 87.419C-556.743 124.978 -616.05 144.102 -662.928 145.895L-663.511 135.894C-618.355 134.167 -560.606 115.42 -486.948 78.6101C-474.251 72.2658 -461.39 65.63 -448.944 59.204C-417.642 43.0497 -385.245 26.3243 -352.14 12.4834C-334.744 5.21122 -318.637 -0.665114 -302.925 -5.42745C-256.874 -19.2766 -212.036 -23.0628 -173.333 -16.4065C-147.335 -12.0019 -123.783 -2.69074 -103.317 11.2219C-69.005 34.7113 -50.9877 66.6414 -41.8962 89.284C-34.8874 106.921 -30.5599 124.133 -26.3977 141.669C-22.3402 158.497 -17.5702 176.27 -10.1434 192.393C-1.3869 211.403 14.8819 236.374 42.8247 247.515C52.0451 251.168 61.8294 253.315 72.7587 254.024C92.6207 255.192 113.073 250.675 132.9 246.221C141.127 244.363 149.614 242.454 157.889 241.034C175.883 237.911 191.898 237.949 204.767 238.003C242.244 238.132 275.813 249.37 313.511 274.363C326.042 282.658 337.967 292.557 349.509 302.132C376.427 324.485 401.881 345.614 435.438 349.593C462.821 352.842 487.599 341.923 513.876 330.39L518.455 328.385C549.346 314.882 582.891 302.271 618.112 290.996C626.909 288.169 634.619 285.779 641.693 283.653C683.977 271.054 723.436 262.336 765.891 256.169C777.769 254.425 789.562 252.877 800.937 251.606C812.348 250.337 823.711 249.266 834.706 248.24C857.653 246.076 879.349 244.041 898.25 240.402C917.374 236.71 932.85 232.235 949.219 227.511C963.281 223.454 977.79 219.257 995.053 215.489C997.904 214.887 1000.79 214.287 1003.71 213.757C1050.67 205.044 1109.17 202.764 1160.31 201.288C1219.35 199.675 1268.38 197.406 1317.04 184.011C1410.21 158.583 1501.57 83.1462 1549.77 -8.20633L1559.64 -3.77987C1510.17 89.9394 1416.24 167.432 1320.28 193.599C1270.35 207.355 1220.59 209.681 1160.74 211.314C1110.04 212.749 1052.09 214.995 1005.99 223.556C1003.18 224.094 1000.4 224.633 997.661 225.241C980.805 228.933 966.445 233.072 952.608 237.042C935.978 241.85 920.243 246.377 900.638 250.175C881.144 253.946 859.191 256 835.95 258.179C825.029 259.21 813.704 260.25 802.402 261.525C791.175 262.772 779.529 264.295 767.76 266.045C725.86 272.111 686.919 280.725 645.23 293.159C638.231 295.256 630.596 297.616 621.874 300.415C586.986 311.609 553.818 324.042 523.301 337.399L518.758 339.406C493.833 350.35 468.118 361.648 439.764 359.982L439.613 360.073Z" fill="#003A4A"/>
<path d="M430.046 358.575C428.26 358.47 426.442 358.296 424.626 358.089C388.491 353.791 361.147 331.213 334.71 309.39C322.643 299.416 310.156 289.116 297.249 281C255.848 254.919 222.026 251.727 194.399 252.01C179.175 252.185 164.679 253.675 150.097 256.63C143.213 258.032 136.351 259.669 129.081 261.415C107.271 266.622 84.7156 272.086 61.8985 270.176C49.7438 269.161 38.8227 266.445 28.554 261.962C-2.21547 248.514 -18.6763 220.588 -27.0197 199.528C-33.9348 182.165 -37.6914 163.95 -40.962 146.8C-43.9901 130.501 -47.4658 113.105 -53.8185 95.5066C-64.842 65.292 -84.7191 38.8715 -109.859 21.1054C-128.824 7.78274 -150.75 -1.19873 -174.991 -5.63378C-211.89 -12.4851 -254.976 -9.26489 -299.585 3.69907C-315.063 8.20761 -330.898 13.7989 -347.986 20.8216C-383.321 35.2673 -417.981 53.1641 -451.508 70.4586C-461.879 75.8025 -472.25 81.1464 -482.617 86.4236C-557.922 124.508 -616.65 144.97 -662.198 149.015L-663.367 139.047C-619.327 135.147 -561.937 115.04 -487.989 77.6459C-477.624 72.402 -467.289 67.056 -456.957 61.7433C-423.203 44.3283 -388.319 26.3443 -352.533 11.6911C-335.07 4.52316 -318.863 -1.18008 -302.975 -5.83172C-256.617 -19.295 -211.622 -22.6371 -172.915 -15.4454C-147.37 -10.7999 -123.267 -0.887765 -103.214 13.2013C-68.7691 37.5347 -51.6825 69.7446 -43.3986 92.44C-36.7935 110.722 -33.2321 128.524 -30.1162 145.196C-26.9275 161.873 -23.2872 179.579 -16.6935 196.189C-9.04993 215.468 5.83511 240.96 33.2533 252.94C42.3448 256.919 52.006 259.293 62.8506 260.198C83.7805 261.863 105.402 256.746 126.286 251.719C133.334 250.026 140.641 248.281 147.709 246.857C162.994 243.776 178.227 242.196 194.219 241.999C235.825 241.568 268.491 250.746 303.437 272.768C316.979 281.29 329.709 291.804 342.056 301.995C368.388 323.745 393.256 344.271 425.977 348.168C452.851 351.353 477.294 340.548 503.127 329.089L510.035 326.05C540.891 312.512 575.214 300.348 612.036 289.836C620.777 287.34 628.694 285.163 636.232 283.231C676.562 272.758 716.799 265.123 762.935 259.172C775.096 257.579 787.032 256.107 798.441 254.871C805.839 254.068 813.162 253.295 820.446 252.552C848.224 249.703 874.419 247.029 896.528 241.706C915.113 237.213 929.912 231.828 945.572 226.092C959.698 220.936 974.31 215.607 992.068 210.898C994.927 210.163 997.82 209.464 1000.75 208.766C1049.11 197.929 1111.11 195.921 1159.7 195.366L1163.69 195.333C1217.88 194.805 1269.08 194.269 1319.18 181.829C1415.91 158.048 1508.66 82.0909 1555.53 -11.6138L1565.48 -7.38305C1517.32 88.9218 1421.82 166.958 1322.12 191.5C1270.72 204.266 1218.83 204.795 1163.91 205.346L1159.92 205.379C1111.91 205.935 1050.72 207.924 1003.43 218.49C1000.62 219.127 997.871 219.802 995.123 220.51C977.888 225.049 963.537 230.292 949.635 235.362C934.385 240.954 918.578 246.714 899.363 251.338C876.511 256.851 849.875 259.566 821.729 262.461C814.517 263.208 807.196 263.948 799.835 264.753C788.499 265.993 776.638 267.436 764.549 269.033C718.93 274.914 679.136 282.475 639.289 292.81C631.825 294.745 624.018 296.895 615.353 299.363C579.014 309.736 545.177 321.728 514.808 335.06L507.937 338.101C483.381 348.966 458.035 360.22 430.082 358.577L430.046 358.575Z" fill="#003D4E"/>
<path d="M420.482 357.042C418.732 356.939 416.95 356.768 415.171 356.563C379.799 352.343 353.007 330.333 327.126 309.011C314.394 298.53 301.207 287.687 287.429 279.452C247.225 255.416 214.107 253.937 184.333 255.9C168.988 256.904 154.566 259 140.294 262.275C134.51 263.607 128.792 265.077 122.704 266.626C99.7216 272.5 75.922 278.593 51.7819 276.17C39.6409 274.922 28.8084 271.944 18.5997 267.062C-11.6698 252.574 -26.5971 224.069 -33.7873 202.676C-39.5154 185.649 -42.2386 167.896 -44.7906 149.719C-46.8817 134.277 -49.5932 116.324 -55.4408 98.2207C-65.3651 67.9703 -84.7105 41.2133 -109.888 22.8429C-128.444 9.41045 -150.883 -0.169787 -174.746 -4.81674C-211.654 -12.1369 -254.86 -9.35849 -299.74 3.22169C-315.322 7.62381 -331.259 13.1087 -348.448 19.9583C-386.686 35.2701 -424.098 54.5772 -460.23 73.2571C-468.036 77.28 -475.845 81.3363 -483.649 85.326C-560.301 124.535 -616.839 145.695 -661.532 151.998L-663.29 142.095C-619.888 135.983 -564.54 115.155 -489.06 76.5795C-481.255 72.5898 -473.485 68.5647 -465.679 64.5417C-429.284 45.7435 -391.643 26.2827 -352.919 10.7987C-335.355 3.77055 -319.045 -1.82627 -303.054 -6.33815C-256.354 -19.4133 -211.243 -22.247 -172.527 -14.5864C-147.037 -9.60974 -123.028 0.631383 -103.14 15.0452C-76.172 34.6914 -55.5072 63.2652 -44.9312 95.4938C-38.7987 114.35 -36.0073 132.809 -33.9013 148.62C-31.4332 166.358 -28.7554 183.64 -23.3103 199.88C-17.9243 215.883 -4.6988 244.722 23.6152 258.26C32.5797 262.533 42.1524 265.169 52.9124 266.27C74.9447 268.468 97.6677 262.646 119.685 257.017C125.551 255.522 131.641 253.94 137.572 252.583C152.475 249.144 167.486 246.983 183.494 245.917C215.212 243.835 250.483 245.406 293.442 271.11C307.925 279.787 321.426 290.883 334.508 301.619C360.287 322.834 384.635 342.861 416.595 346.646C443.141 349.812 467.253 339.021 492.719 327.608C495.722 326.279 498.728 324.917 501.693 323.62C532.738 309.992 567.843 298.209 606.039 288.581C614.874 286.357 622.996 284.427 630.851 282.681C668.611 274.264 708.444 267.91 760.059 262.047C771.732 260.693 783.807 259.329 796.062 258.009L806.182 256.931C838.86 253.467 869.735 250.198 894.882 242.947C913.112 237.663 927.382 231.311 942.477 224.606C956.523 218.341 971.056 211.871 989.157 206.279C992.024 205.41 994.926 204.578 997.898 203.782C1036.15 193.756 1088.94 189.066 1159.21 189.417L1173.25 189.539C1224.75 189.958 1273.37 190.34 1321.46 179.655C1420.16 157.93 1516.59 79.6807 1561.43 -15.0461L1571.47 -10.9777C1525.33 86.4492 1425.96 166.967 1324.11 189.376C1274.71 200.387 1225.44 199.966 1173.24 199.54L1159.25 199.419C1090.04 199.064 1038.28 203.647 1001.03 213.398C998.24 214.137 995.452 214.91 992.769 215.756C975.337 221.153 961.106 227.474 947.36 233.623C932.6 240.214 917.317 247.008 898.306 252.513C872.153 260.073 840.801 263.381 807.57 266.913L797.487 267.993C785.268 269.315 773.229 270.681 761.557 272.035C710.348 277.821 670.884 284.131 633.569 292.44C625.825 294.159 617.812 296.096 609.053 298.29C571.489 307.722 536.981 319.306 506.535 332.701C503.57 333.998 500.603 335.329 497.636 336.66C473.372 347.542 448.321 358.746 420.623 357.118L420.482 357.042Z" fill="#004052"/>
<path d="M410.952 355.546C409.203 355.443 407.494 355.276 405.714 355.071C371.031 350.958 344.763 329.38 319.329 308.519C305.969 297.533 292.152 286.219 277.572 277.936C240.483 256.893 209.409 255.468 174.195 259.786C158.612 261.713 144.303 264.384 130.416 267.949C125.774 269.148 121.054 270.442 116.295 271.768C92.134 278.409 67.1173 285.3 41.6237 282.263C29.4964 280.781 18.7179 277.505 8.6401 272.263C-22.7282 255.937 -35.6444 223.705 -40.5621 205.957C-45.1436 189.332 -46.8746 172.741 -48.6244 152.738C-49.9196 137.444 -51.7219 119.578 -57.0684 101.035C-65.9319 70.78 -84.707 43.6551 -109.959 24.6783C-128.386 10.919 -150.735 1.04308 -174.505 -3.93289C-211.386 -11.7197 -254.747 -9.41865 -299.933 2.77561C-315.652 7.03584 -331.693 12.4143 -348.949 19.1597C-390.458 35.3829 -430.819 56.3227 -469.898 76.6021L-484.722 84.2931C-537.411 111.532 -605.01 144.183 -660.906 155.045L-663.292 145.239C-608.246 134.527 -538.144 100.351 -490.207 75.5756L-475.421 67.9158C-436.116 47.516 -395.452 26.3933 -353.382 9.96888C-335.752 3.07831 -319.339 -2.4121 -303.172 -6.81328C-256.165 -19.5025 -210.899 -21.8588 -172.212 -13.6983C-146.779 -8.39045 -122.862 2.1797 -103.105 16.9537C-76.0671 37.273 -55.9764 66.2814 -46.5016 98.579C-40.9106 117.939 -39.0303 136.344 -37.6877 152.076C-35.9813 171.575 -34.2997 187.762 -29.9283 203.605C-25.4672 219.788 -13.8057 249.103 13.9778 263.58C22.7769 268.178 32.2629 271.043 42.9383 272.339C66.1074 275.106 89.9728 268.515 113.019 262.177C117.814 260.853 122.609 259.53 127.324 258.335C141.731 254.633 156.522 251.857 172.62 249.86C210.193 245.246 243.381 246.795 283.266 269.408C298.661 278.139 312.859 289.81 326.607 301.054C351.9 321.806 375.762 341.403 407.031 345.114C433.361 348.234 457.145 337.424 482.355 325.995C485.961 324.368 489.606 322.709 493.211 321.115C524.558 307.304 560.444 295.935 599.899 287.283C608.716 285.36 617.268 283.588 625.328 282.089C669.147 273.861 712.643 269.26 757.041 264.88C768.888 263.67 781.139 262.416 793.54 261.105C828.682 257.418 865.001 253.599 893.132 244.115C911.152 238.05 924.93 230.732 939.535 223.029C953.425 215.684 967.806 208.067 986.144 201.553C989.019 200.551 991.928 199.585 994.907 198.69C1033.73 187.058 1088.82 181.901 1158.54 183.357C1166.07 183.532 1173.55 183.738 1180.96 183.939C1230.37 185.271 1277.03 186.542 1323.54 177.335C1425.68 157.351 1523.56 78.619 1567.13 -18.5912L1577.25 -14.7185C1532.38 85.3918 1431.4 166.484 1325.92 187.142C1278.12 196.607 1230.8 195.33 1180.74 193.96C1173.33 193.758 1165.88 193.555 1158.39 193.382C1089.91 191.932 1036.08 196.929 998.405 208.227C995.613 209.066 992.854 209.974 990.165 210.92C972.611 217.146 958.608 224.551 945.059 231.715C930.716 239.3 915.846 247.156 897.003 253.54C867.639 263.454 830.661 267.3 794.894 271.051C782.456 272.36 770.203 273.647 758.32 274.855C714.181 279.184 670.979 283.769 627.603 291.922C619.688 293.43 611.25 295.141 602.544 297.038C563.829 305.532 528.688 316.678 498.055 330.162C494.45 331.757 490.882 333.353 487.312 334.983C463.267 345.878 438.471 357.096 410.991 355.515L410.952 355.546Z" fill="#004356"/>
<path d="M401.419 354.049C399.706 353.948 397.995 353.814 396.29 353.58C362.225 349.538 336.409 328.354 311.427 307.888C297.507 296.467 283.098 284.65 267.747 276.423C227.262 254.678 194.324 258.227 164.089 263.674C153.888 265.516 138.313 268.547 120.533 273.656C117.036 274.655 113.5 275.718 109.965 276.748C84.5831 284.253 58.3798 292.044 31.5001 288.324C19.3866 286.608 8.66218 283.035 -1.28475 277.433C-32.1471 259.966 -43.3478 227.166 -47.2639 209.175C-51.033 191.796 -51.7146 173.527 -52.395 155.861C-52.9272 139.408 -54.0892 121.847 -58.6613 103.818C-66.4621 73.5251 -84.669 46.0657 -109.993 26.4492C-128.291 12.363 -150.511 2.16017 -174.266 -3.08245C-211.117 -11.3692 -254.636 -9.47887 -300.092 2.3316C-315.952 6.48327 -332.095 11.722 -349.415 18.3297C-394.53 35.5451 -438.258 58.3942 -480.515 80.4935L-485.721 83.1977C-542.313 112.749 -607.279 144.785 -660.205 157.996L-663.184 148.322C-611.446 135.409 -547.232 103.731 -491.243 74.4781L-486.037 71.7739C-443.478 49.5251 -399.486 26.5243 -353.733 9.04539C-336.036 2.25909 -319.485 -3.08942 -303.217 -7.35084C-255.94 -19.6563 -210.481 -21.5665 -171.789 -12.8705C-146.41 -7.26479 -122.625 3.69891 -102.995 18.7665C-75.8872 39.7588 -56.3686 69.1683 -48.0333 101.566C-43.2207 120.479 -42.0575 138.642 -41.4719 155.433C-40.7845 173.601 -40.1417 190.663 -36.5442 207.23C-32.9715 223.595 -22.9103 253.385 4.37699 268.836C13.0491 273.727 22.4102 276.852 33.0374 278.347C57.3433 281.682 82.3529 274.288 106.507 267.146C110.08 266.085 113.653 265.024 117.186 264.028C135.45 258.78 151.431 255.672 161.891 253.778C192.794 248.17 229.452 244.17 273.269 267.717C289.577 276.468 304.405 288.611 318.743 300.391C343.548 320.746 366.994 339.952 397.645 343.593C423.722 346.664 447.361 335.845 472.354 324.371C476.563 322.444 480.736 320.515 484.939 318.689C516.627 304.698 553.292 293.742 593.934 286.063C602.773 284.375 611.528 282.883 619.943 281.572C657.734 275.732 695.621 272.608 735.75 269.314L754.161 267.788C765.923 266.773 778.353 265.597 791.157 264.276C826.587 260.64 863.529 256.188 891.554 245.394C909.366 238.514 922.76 230.271 936.914 221.537C950.613 213.077 964.803 204.346 983.304 196.938C986.112 195.832 989.065 194.735 992.088 193.708C1031.79 180.322 1087.62 174.841 1158.05 177.408C1167.97 177.791 1177.82 178.236 1187.6 178.71C1235.33 180.948 1280.45 183.064 1325.78 175.127C1429.71 157.254 1531.38 76.1691 1573.03 -22.0567L1583.24 -18.3464C1540.28 82.8795 1435.31 166.513 1327.91 184.984C1281.28 193.114 1235.55 190.994 1187.12 188.716C1177.38 188.277 1167.57 187.801 1157.68 187.421C1088.68 184.903 1034.28 190.168 995.925 203.098C993.088 204.068 990.323 205.076 987.701 206.126C970.098 213.186 956.361 221.676 943.044 229.857C929.08 238.469 914.623 247.385 895.838 254.643C866.502 265.962 828.676 270.529 792.435 274.252C779.559 275.568 767.054 276.773 755.219 277.783L736.771 279.308C696.864 282.581 659.159 285.716 621.811 291.481C613.544 292.768 604.898 294.267 596.172 295.894C556.382 303.389 520.57 314.127 489.674 327.73C485.543 329.561 481.373 331.456 477.238 333.354C453.373 344.293 428.756 355.589 401.387 353.98L401.419 354.049Z" fill="#00475A"/>
<path d="M391.894 352.519C390.217 352.421 388.543 352.289 386.836 352.088C353.352 348.113 327.917 327.286 303.355 307.146C288.912 295.293 273.943 283.041 257.892 274.907C217.979 254.633 185.964 259.876 153.953 267.56C141.638 270.515 126.865 274.229 110.655 279.363L103.685 281.596C77.1108 290.101 49.6421 298.889 21.3419 294.449C9.20561 292.498 -1.43019 288.662 -11.2423 282.634C-33.4447 269.02 -49.0202 243.455 -53.9983 212.425C-56.6671 195.612 -56.4422 178.099 -56.2527 161.186L-56.219 158.747C-55.9612 142.54 -56.2485 125.031 -60.2869 106.632C-67.0633 76.3326 -84.7365 48.5032 -110.025 28.2867C-128.194 13.8736 -150.322 3.34178 -174.022 -2.19869C-210.882 -10.9542 -254.521 -9.5391 -300.285 1.91879C-316.282 5.92856 -332.492 11.063 -349.879 17.5665C-395.307 34.4959 -436.979 55.9607 -486.722 82.2356C-543.146 112.031 -607.665 145.164 -659.504 161.047L-663.077 151.539C-612.205 135.933 -548.253 103.102 -492.28 73.5139C-452.877 52.685 -403.815 26.8049 -354.123 8.25308C-336.325 1.60654 -319.706 -3.63769 -303.3 -7.75722C-255.717 -19.6768 -210.105 -21.0762 -171.44 -11.9136C-146.117 -5.97678 -122.425 5.31597 -102.962 20.7416C-75.8207 42.4048 -56.8743 72.2155 -49.6056 104.718C-45.3651 124.032 -45.044 142.212 -45.3331 158.952L-45.3649 161.358C-45.5779 178.671 -45.8071 195.013 -43.2371 211.017C-38.7504 239.209 -24.927 262.23 -5.30082 274.253C3.20597 279.469 12.4804 282.824 23.023 284.514C48.4982 288.486 74.6235 280.155 99.893 272.075L106.899 269.844C123.443 264.629 138.477 260.831 150.978 257.819C183.88 249.92 219.588 244.059 263.053 266.113C280.205 274.814 295.626 287.46 310.523 299.674C334.91 319.67 357.973 338.551 388.045 342.092C413.974 345.188 437.436 334.259 462.252 322.706C466.952 320.508 471.689 318.311 476.418 316.248C508.482 302.078 545.966 291.505 587.755 284.83C596.763 283.387 605.723 282.14 614.38 281.077C646.022 277.184 677.328 275.279 710.469 273.28C723.717 272.487 737.224 271.642 751.104 270.685C763.334 269.798 775.942 268.7 788.597 267.437C824.574 263.832 861.731 258.825 889.764 246.66C907.438 239.002 920.413 229.798 934.188 220.039C947.659 210.495 961.588 200.611 980.215 192.308C983.03 191.068 985.992 189.838 989.022 188.678C1039.32 169.794 1108.31 168.865 1157.31 171.411C1169.34 172.051 1181.4 172.827 1193.02 173.61C1239.5 176.71 1283.39 179.625 1327.82 172.871C1435.11 156.835 1538.28 75.2364 1578.73 -25.5685L1589.01 -22.0205C1547.28 81.9866 1440.67 166.193 1329.73 182.783C1284.04 189.731 1239.53 186.746 1192.35 183.639C1180.77 182.858 1168.79 182.086 1156.83 181.45C1108.96 178.971 1041.73 179.836 993.301 197.994C990.459 199.064 987.686 200.205 985.095 201.357C967.481 209.219 953.973 218.793 940.96 228.029C927.338 237.664 913.257 247.639 894.531 255.77C865.036 268.552 826.808 273.73 789.873 277.445C777.108 278.735 764.354 279.825 752.013 280.739C738.094 281.727 724.553 282.536 711.229 283.359C678.271 285.368 647.149 287.251 615.839 291.097C607.293 292.133 598.48 293.388 589.619 294.807C548.827 301.306 512.31 311.601 481.147 325.389C476.491 327.457 471.829 329.624 467.205 331.761C443.482 342.775 418.968 354.177 391.744 352.577L391.894 352.519Z" fill="#004A5E"/>
<path d="M382.363 351.022C380.723 350.926 379.048 350.794 377.378 350.596C344.4 346.717 319.35 326.18 295.173 306.33C280.242 294.081 264.785 281.433 248.069 273.393C208.519 254.412 177.469 261.283 143.815 271.412L141.731 272.026C129.632 275.663 115.93 279.807 100.739 285.035L97.492 286.149C70.9878 295.327 40.9026 305.7 11.1474 300.506C-0.977167 298.355 -11.5934 294.186 -21.2382 287.799C-52.3232 267.275 -59.2317 230.513 -60.7366 215.675C-62.4104 199.355 -61.3481 182.527 -60.3172 166.232L-60.0547 161.766C-58.9606 145.642 -58.4442 128.146 -61.9163 109.446C-67.6664 79.1067 -84.7714 50.9427 -110.097 30.122C-128.14 15.4154 -150.173 4.52118 -173.783 -1.31499C-210.652 -10.5393 -254.41 -9.56605 -300.443 1.47472C-316.544 5.37807 -332.891 10.3707 -350.344 16.7365C-398.774 34.359 -444.794 58.244 -487.722 81.1735C-544.278 111.363 -608.386 145.59 -658.803 164.032L-662.973 154.723C-613.303 136.538 -549.573 102.523 -493.356 72.5142C-450.052 49.4061 -403.655 25.3092 -354.514 7.42738C-336.615 0.920587 -319.893 -4.21722 -303.349 -8.19486C-254.793 -19.8566 -210.269 -20.7849 -171.02 -10.9859C-145.751 -4.75119 -122.154 6.90391 -102.822 22.6898C-75.6467 45.0239 -57.2744 75.2691 -51.1069 107.841C-47.4385 127.556 -47.9576 145.72 -49.0869 162.444L-49.3494 166.91C-50.4364 183.536 -51.434 199.264 -49.8245 214.811C-48.4215 228.272 -42.2608 261.579 -14.8731 279.678C-6.52972 285.185 2.61977 288.8 13.1525 290.657C39.8661 295.337 67.1532 285.904 93.5806 276.788L96.8277 275.674C112.207 270.357 126.054 266.221 138.23 262.522L140.314 261.909C175.049 251.441 209.765 243.782 253.087 264.557C271.048 273.172 287.028 286.252 302.447 298.931C326.451 318.604 349.129 337.195 378.69 340.706C404.548 343.764 427.832 332.758 452.506 321.13C457.696 318.693 462.887 316.222 468.106 313.92C500.584 299.54 538.849 289.381 581.749 283.708C590.853 282.504 600.02 281.471 608.991 280.66C636.898 278.086 664.237 277.118 693.227 276.046C711.002 275.385 729.399 274.727 748.258 273.662C760.699 272.921 773.522 271.902 786.286 270.646C818.397 267.483 859.015 262.077 888.259 247.976C905.798 239.508 918.463 229.349 931.86 218.564C945.065 207.935 958.767 196.934 977.485 187.699C980.309 186.326 983.278 184.962 986.314 183.703C1037.36 162.655 1107.27 162.182 1156.89 165.466C1170.8 166.418 1184.63 167.599 1198.02 168.754C1243.47 172.662 1286.4 176.39 1330.14 170.7C1439.02 156.798 1546.06 72.8176 1584.67 -28.9987L1595 -25.6152C1555.14 79.5054 1444.43 166.247 1331.75 180.661C1286.75 186.512 1243.2 182.748 1197.1 178.767C1183.75 177.614 1169.96 176.436 1156.19 175.493C1107.89 172.286 1039.84 172.668 990.895 192.869C988.047 194.039 985.304 195.283 982.706 196.568C965.08 205.265 951.877 215.861 939.094 226.147C925.813 236.838 912.109 247.873 893.404 256.874C862.542 271.75 820.595 277.378 787.528 280.619C774.616 281.9 761.648 282.911 749.023 283.674C730.018 284.73 711.582 285.42 693.734 286.076C664.928 287.126 637.736 288.103 610.16 290.629C601.371 291.45 592.352 292.459 583.397 293.638C541.566 299.14 504.417 308.997 472.914 322.965C467.77 325.238 462.655 327.647 457.54 330.055C433.92 341.176 409.51 352.685 382.322 351.087L382.363 351.022Z" fill="#004D63"/>
<path d="M372.87 349.494C371.23 349.398 369.592 349.268 367.958 349.072C335.453 345.254 310.753 324.972 286.891 305.375C271.505 292.764 255.598 279.688 238.215 271.81C198.958 254.05 167.613 262.844 133.681 275.198C129.309 276.78 124.602 278.477 119.635 280.225C110.969 283.328 101.145 286.831 90.9005 290.644C63.455 300.904 32.344 312.554 1.06666 306.502C-10.9348 304.124 -21.7462 299.542 -31.1547 292.868C-52.3903 277.74 -65.9395 250.052 -67.4319 218.826C-68.1816 202.962 -66.3125 186.716 -64.5131 171.035L-63.7745 164.69C-61.9152 148.612 -60.595 131.13 -63.4664 112.164C-68.1447 82.2555 -85.1466 52.9605 -110.091 31.8612C-127.967 16.8298 -149.91 5.63991 -173.503 -0.496236C-210.883 -10.3526 -253.628 -9.82152 -300.598 0.996902C-316.614 4.70455 -333.513 9.73163 -350.806 15.8727C-399.549 33.2093 -445.926 56.9729 -488.755 80.0755C-496.498 84.2694 -504.278 88.4612 -512.021 92.6551C-565.507 121.62 -616.008 148.954 -658.134 166.947L-662.83 157.875C-621.155 140.089 -570.881 112.876 -517.622 84.0312C-509.878 79.8373 -502.098 75.6455 -494.355 71.4516C-451.149 48.1371 -404.318 24.1326 -354.828 6.53886C-337.123 0.221347 -319.779 -4.91338 -303.354 -8.73079C-254.492 -20.0066 -209.812 -20.4908 -170.596 -10.1252C-145.383 -3.55936 -121.878 8.42476 -102.712 24.5354C-75.9224 47.2147 -57.659 78.6911 -52.6382 110.861C-49.5783 130.975 -51.0211 149.921 -52.8707 165.833L-53.6093 172.178C-55.4667 188.223 -57.1983 203.373 -56.4783 218.5C-55.1454 246.84 -43.1849 271.692 -24.4753 284.999C-16.2973 290.832 -7.23246 294.642 3.25013 296.73C31.2384 302.121 60.7028 291.11 86.6898 281.399C97.0109 277.524 106.871 274.023 115.611 270.925C120.541 269.174 125.246 267.511 129.584 265.893C164.673 253.139 199.773 243.295 243.019 262.861C261.756 271.354 278.259 284.866 294.203 297.945C317.856 317.363 340.183 335.699 369.275 339.115C395.026 342.134 418.241 331.056 442.81 319.322C448.342 316.671 454.062 313.93 459.768 311.422C492.699 296.802 531.707 287.054 575.716 282.45C584.951 281.488 594.323 280.701 603.573 280.107C628.973 278.523 653.784 278.242 680.022 277.945C701.1 277.712 722.909 277.489 745.348 276.5C758.036 275.908 770.999 274.998 783.872 273.748C813.478 270.906 856.377 265.266 886.688 249.187C904.126 239.944 916.447 228.795 929.466 216.985C942.405 205.27 955.808 193.147 974.615 183.014C977.446 181.509 980.423 180.011 983.502 178.654C1037.93 154.159 1115.16 156.123 1156.36 159.448C1171.9 160.73 1187.39 162.375 1202.32 163.956C1246.99 168.688 1289.15 173.173 1332.36 168.455C1444.57 156.454 1553.13 71.9618 1590.54 -32.5335L1600.96 -29.3125C1562.29 78.6539 1449.93 166.001 1333.75 178.404C1289.29 183.249 1246.47 178.725 1201.15 173.888C1186.29 172.311 1170.88 170.67 1155.49 169.397C1115.45 166.174 1040.41 164.205 988.388 187.603C985.571 188.876 982.822 190.22 980.215 191.638C962.579 201.137 949.678 212.821 937.201 224.128C924.261 235.843 910.897 247.935 892.249 257.843C860.127 274.885 815.752 280.739 785.116 283.687C772.061 284.927 758.876 285.891 746.005 286.472C723.311 287.446 701.427 287.699 680.277 287.927C654.186 288.2 629.557 288.491 604.451 290.059C595.385 290.63 586.198 291.394 577.108 292.365C534.312 296.873 496.457 306.288 464.65 320.439C459.094 322.888 453.449 325.6 447.992 328.223C424.438 339.481 400.094 351.094 372.943 349.498L372.87 349.494Z" fill="#005067"/>
<path d="M363.376 348C361.773 347.905 360.171 347.778 358.537 347.582C326.43 343.821 302.12 323.763 278.574 304.384C262.075 290.805 246.447 277.946 228.429 270.298C189.219 253.612 158.994 263.876 123.546 279.017C114.617 282.84 104.167 287.042 93.1182 291.477L81.0196 296.351C50.7903 308.555 21.1386 319.02 -9.05638 312.596C-21.0826 310.016 -31.8379 305.103 -41.0407 298.04C-61.9319 282.029 -74.2697 253.643 -74.0603 222.082C-73.9549 206.603 -71.3479 190.869 -68.8087 175.666L-67.5003 167.716C-64.9571 152.447 -62.7172 134.25 -65.0223 114.983C-68.7108 85.0319 -85.1445 55.4023 -110.09 33.701C-127.838 18.3427 -149.688 6.82375 -173.226 0.389762C-210.579 -9.93329 -253.479 -9.87949 -300.721 0.588477C-316.841 4.1897 -333.84 9.07704 -351.237 15.1117C-402.418 32.8736 -449.975 57.404 -489.721 79.0824C-508.536 89.3482 -527.438 99.8431 -545.735 110.006C-586.376 132.601 -624.785 153.924 -657.432 169.932L-662.691 161.094C-630.308 145.237 -592.049 123.973 -551.522 101.438C-533.223 91.2419 -514.282 80.7158 -495.394 70.4542C-455.234 48.5661 -407.149 23.7657 -355.221 5.74665C-337.414 -0.431109 -319.967 -5.45941 -303.404 -9.13493C-254.236 -20.0248 -209.437 -20.0339 -170.178 -9.16399C-144.983 -2.29815 -121.608 10.0462 -102.609 26.5149C-75.7862 49.8652 -58.1334 81.7739 -54.1408 114.017C-51.6837 134.43 -54.0454 153.456 -56.6622 169.356L-57.9726 177.34C-60.5679 192.874 -62.9665 207.55 -63.1035 222.325C-63.3209 250.909 -52.4584 276.398 -34.0489 290.457C-26.0708 296.579 -17.0945 300.652 -6.65817 302.904C20.2517 308.6 48.0746 298.763 76.544 287.258L88.6791 282.386C99.653 277.981 110.028 273.808 118.843 270.045C148.742 257.253 185.991 241.348 232.978 261.335C252.494 269.639 269.448 283.579 285.842 297.086C309.144 316.249 331.155 334.366 359.846 337.758C385.524 340.773 408.71 329.56 433.176 317.72C439.125 314.825 445.259 311.874 451.38 309.157C484.95 294.24 524.777 284.874 569.67 281.392C578.71 280.653 588.286 280.112 598.106 279.786C621.778 278.97 644.833 279.322 669.206 279.651C692.81 280.001 717.217 280.366 742.424 279.573C755.323 279.127 768.464 278.294 781.444 277.084C828.66 272.668 861.591 264.269 885.103 250.633C902.479 240.584 914.454 228.478 927.13 215.643C939.804 202.843 952.907 189.599 971.767 178.566C974.607 176.927 977.59 175.33 980.641 173.803C1035.65 147.001 1114 149.667 1155.79 153.628C1172.81 155.264 1189.73 157.396 1206.1 159.429C1250.13 164.96 1291.74 170.181 1334.56 166.377C1448.22 156.502 1560.77 69.5679 1596.44 -35.8657L1606.91 -32.8092C1570.03 76.233 1453.47 166.142 1335.73 176.38C1291.62 180.309 1249.43 174.986 1204.75 169.383C1188.48 167.323 1171.64 165.229 1154.8 163.604C1114.25 159.749 1038.38 157.129 985.898 182.674C983.075 184.047 980.318 185.524 977.742 187.045C960.131 197.348 948.079 209.516 935.326 222.413C922.729 235.151 909.667 248.331 891.041 259.11C866.055 273.561 831.633 282.442 782.689 287.023C769.451 288.252 756.089 289.106 742.934 289.57C717.435 290.345 692.916 290.008 669.167 289.649C644.942 289.295 622.033 288.952 598.654 289.752C589.016 290.088 579.624 290.607 570.767 291.357C527.195 294.749 488.669 303.756 456.3 318.142C450.329 320.801 444.27 323.723 438.435 326.557C414.909 337.951 390.631 349.702 363.443 348.104L363.376 348Z" fill="#00546B"/>
<path d="M353.887 346.472C352.283 346.378 350.718 346.252 349.084 346.056C317.378 342.319 293.346 322.511 270.082 303.317C253.167 289.345 237.19 276.198 218.575 268.749C176.199 251.81 142.83 268.277 113.378 282.801C100.837 288.987 85.6687 295.688 71.1455 301.992C43.8995 313.836 12.1818 325.852 -19.2092 318.622C-31.2581 315.807 -41.9594 310.595 -50.9948 303.174C-71.5396 286.247 -82.6642 257.13 -80.7568 225.301C-79.8653 210.135 -76.5184 194.88 -73.3103 180.118C-72.6139 176.981 -71.954 173.842 -71.2941 170.704C-68.0201 155.444 -64.9401 137.263 -66.6464 117.764C-69.3834 87.802 -85.247 57.8046 -110.155 35.47C-127.774 19.7848 -149.495 7.93897 -173.016 1.205C-210.376 -9.62016 -253.398 -9.97492 -300.908 0.075932C-317.166 3.53527 -334.267 8.28287 -351.731 14.2133C-393.52 28.3464 -436.401 48.0009 -490.786 77.9497C-523.892 96.1719 -556.15 114.879 -587.347 132.979C-612.299 147.467 -635.887 161.164 -656.866 172.775L-662.614 164.176C-641.746 152.592 -618.198 138.959 -593.283 124.469C-562.047 106.338 -529.715 87.6018 -496.532 69.3172C-441.543 39.036 -398.099 19.147 -355.674 4.78366C-337.764 -1.28768 -320.252 -6.17838 -303.551 -9.712C-254.115 -20.1848 -209.122 -19.7476 -169.893 -8.37778C-144.753 -1.18077 -121.472 11.4926 -102.638 28.286C-75.8542 52.3029 -58.8099 84.6106 -55.8112 116.962C-53.9587 137.708 -57.1989 156.749 -60.6195 172.636C-61.2794 175.774 -61.9777 178.944 -62.6376 182.083C-65.9018 197.176 -69.0077 211.442 -69.8924 225.873C-71.2376 248.136 -65.1035 278.163 -43.7883 295.671C-35.9735 302.084 -27.1223 306.417 -16.6958 308.836C11.1589 315.256 39.5508 304.45 66.271 292.842C80.6809 286.599 95.6993 279.956 108.014 273.89C138.068 259.067 175.505 240.598 222.776 259.497C243.034 267.612 260.44 281.946 277.286 295.847C300.27 314.824 322.001 332.724 350.257 336.058C375.933 339.105 399.056 327.721 423.496 315.712C429.822 312.606 436.375 309.379 442.908 306.485C476.932 291.327 517.5 282.407 563.503 279.96C572.713 279.431 582.495 279.136 592.556 279.059C614.982 278.905 636.765 279.751 659.823 280.671C685.473 281.677 711.997 282.735 739.417 282.239C752.525 281.973 765.808 281.215 778.934 280.013C825.741 275.707 859.893 266.443 883.433 251.706C900.747 240.85 912.414 227.756 924.748 213.898C937.121 200.009 949.922 185.677 968.799 173.743C971.646 171.97 974.636 170.239 977.694 168.613C1033.27 139.504 1112.69 142.867 1155.13 147.469C1173.52 149.486 1191.72 152.128 1209.34 154.669C1252.89 160.975 1294.05 166.94 1336.61 163.989C1453.51 156.111 1567.67 68.6022 1602.15 -39.5438L1612.66 -36.6518C1577 75.2716 1458.72 165.815 1337.56 173.979C1293.71 177.021 1251.94 170.953 1207.74 164.542C1190.23 162.007 1172.1 159.37 1153.93 157.399C1112.86 152.945 1036.04 149.6 983.218 177.299C980.388 178.772 977.662 180.351 975.042 182.003C957.421 193.108 945.674 206.298 933.223 220.283C920.929 234.076 908.244 248.314 889.64 259.964C864.58 275.682 828.748 285.517 780.103 289.982C766.684 291.2 753.107 291.974 739.706 292.257C711.92 292.764 685.25 291.698 659.418 290.681C636.505 289.769 614.87 288.899 592.736 289.07C582.856 289.158 573.296 289.432 564.268 289.972C519.694 292.369 480.499 300.935 447.789 315.535C441.442 318.373 435.002 321.54 428.752 324.584C405.255 336.113 381.003 348.033 353.78 346.432L353.887 346.472Z" fill="#00576F"/>
<path d="M-13.8873 327.029C-19.0259 326.727 -24.1755 325.989 -29.3282 324.683C-41.4363 321.63 -52.047 316.123 -60.9132 308.311C-84.7293 287.311 -90.193 253.343 -87.3811 228.524C-85.7035 213.672 -81.7203 198.788 -77.8412 184.433C-76.9007 180.876 -75.9218 177.288 -75.0158 173.696C-71.013 158.479 -67.0889 140.247 -68.1964 120.515C-70.0184 90.5407 -85.2753 60.1776 -110.148 37.243C-127.602 21.2331 -149.23 9.05819 -172.699 2.05971C-210.068 -9.23423 -253.247 -10.033 -301.027 -0.365941C-317.388 2.98697 -334.591 7.59484 -352.158 13.4188C-394.783 27.4693 -439.123 47.6736 -491.748 76.9231C-545.888 107.054 -599.298 140.337 -642.231 167.079L-656.162 175.759L-662.367 167.468L-648.435 158.788C-605.426 131.983 -551.864 98.6082 -497.498 68.3573C-444.267 38.7421 -399.289 18.2743 -355.956 3.99778C-337.98 -1.93595 -320.33 -6.68476 -303.488 -10.1431C-253.745 -20.23 -208.634 -19.3177 -169.361 -7.44357C-144.276 0.0512765 -121.089 13.087 -102.386 30.2407C-75.6412 54.9242 -59.171 87.6664 -57.2024 120.125C-55.9871 141.134 -60.1099 160.257 -64.2997 176.165C-65.2421 179.756 -66.1865 183.379 -67.1634 186.934C-71.0985 201.62 -74.8409 215.514 -76.4427 229.702C-78.9678 252.13 -74.2538 282.676 -53.2889 301.167C-45.676 307.902 -36.9094 312.431 -26.4946 315.05C0.789897 321.838 29.4271 311.213 56.2711 298.743C73.265 290.845 86.7547 284.079 97.4563 278.086C127.634 261.163 165.185 240.125 212.846 257.977C233.851 265.834 251.671 280.595 268.898 294.852C291.601 313.646 313.048 331.395 340.943 334.641C366.657 337.657 389.714 326.169 414.125 314.024C420.829 310.706 427.724 307.265 434.635 304.159C469.073 288.791 510.422 280.285 557.498 278.871C566.915 278.555 576.901 278.506 587.131 278.673C608.648 279.068 630.47 280.484 651.563 281.858C678.923 283.633 707.23 285.465 736.463 285.243C749.745 285.121 763.242 284.442 776.514 283.249C823.609 279.027 858.09 269.147 881.856 253.051C899.107 241.389 910.467 227.307 922.496 212.428C934.565 197.484 947.068 181.998 965.995 169.196C968.85 167.29 971.849 165.427 974.912 163.7C1015.87 140.722 1081.36 132.664 1154.6 141.585C1174.21 143.975 1193.66 147.192 1212.46 150.27C1255.63 157.356 1296.45 164.037 1338.85 161.914C1457.09 156.154 1575.31 66.1748 1608.05 -42.9095L1618.61 -40.1486C1584.72 72.7819 1462.15 165.95 1339.54 171.921C1295.86 174.136 1254.46 167.355 1210.59 160.161C1191.91 157.089 1172.6 153.948 1153.25 151.573C1082.44 142.962 1019.57 150.538 980.695 172.335C977.896 173.909 975.126 175.62 972.536 177.374C954.939 189.317 943.464 203.492 931.316 218.532C919.364 233.348 906.981 248.675 888.433 261.231C863.031 278.401 826.794 288.914 777.678 293.318C764.076 294.525 750.285 295.22 736.673 295.356C707.003 295.552 678.477 293.708 650.899 291.92C628.967 290.497 608.236 289.178 587.013 288.767C576.968 288.578 567.2 288.639 557.965 288.966C512.391 290.334 472.524 298.526 439.475 313.274C432.791 316.259 425.973 319.637 419.38 322.929C394.515 335.314 368.824 348.086 339.621 344.697C308.277 341.015 284.529 321.357 261.546 302.347C244.248 288.052 227.929 274.517 208.713 267.333C166.166 251.421 132.7 270.157 103.166 286.716C92.1994 292.861 78.4832 299.748 61.2263 307.764C37.2383 318.93 11.7635 328.637 -13.8931 327.129L-13.8873 327.029Z" fill="#005A73"/>
<path d="M-23.04 333.381C-28.5066 333.06 -33.9803 332.236 -39.4877 330.742C-51.6185 327.453 -62.1752 321.649 -70.8356 313.447C-94.2207 291.336 -98.1855 256.753 -94.0478 231.778C-91.6532 217.168 -86.997 202.659 -82.5141 188.607C-81.2585 184.667 -80.001 180.694 -78.78 176.719C-74.0462 161.512 -69.28 143.262 -69.8272 123.33C-70.6957 93.3105 -85.419 62.5774 -110.222 39.0783C-127.547 22.7415 -149.085 10.2709 -172.498 2.94128C-209.876 -8.82144 -253.173 -10.0954 -301.225 -0.778797C-317.687 2.43436 -334.994 6.93579 -352.662 12.62C-395.976 26.5632 -441.807 47.2484 -492.787 75.8922C-542.898 104.052 -597.664 138.627 -655.568 178.671L-662.228 170.654C-604.055 130.392 -548.986 95.6335 -498.574 67.3242C-446.951 38.3168 -400.405 17.3057 -356.347 3.13875C-338.268 -2.68856 -320.514 -7.33094 -303.572 -10.6163C-253.525 -20.2838 -208.258 -18.9275 -169.014 -6.55342C-143.948 1.27474 -120.89 14.6374 -102.352 32.1158C-75.6449 57.4326 -59.7872 90.6405 -58.845 123.139C-58.2688 144.445 -63.2702 163.583 -68.2292 179.513C-69.4522 183.522 -70.7462 187.493 -72.0037 191.466C-76.5771 205.813 -80.9213 219.371 -83.2039 233.318C-86.7753 254.882 -83.6151 286.975 -63.0005 306.449C-55.551 313.476 -46.9094 318.265 -36.4679 321.053C-8.38438 328.556 21.0118 316.839 46.0986 304.4C62.0317 296.506 75.7143 288.949 86.7642 282.006C116.954 263.01 154.55 239.333 202.781 256.215C224.496 263.813 242.733 278.932 260.34 293.58C282.759 312.223 303.961 329.791 331.528 333.017C357.242 336.033 380.308 324.379 404.693 312.065C411.739 308.533 419.014 304.847 426.299 301.596C461.188 286.02 503.319 277.894 551.468 277.513C561.055 277.408 571.249 277.572 581.716 278.054C602.58 278.979 623.68 280.855 644.09 282.656C672.976 285.224 702.807 287.88 733.627 288.02C747.12 288.043 760.758 287.474 774.175 286.289C820.97 282.183 856.713 271.374 880.396 254.203C897.624 241.703 908.674 226.666 920.36 210.764C932.127 194.732 944.292 178.155 963.236 164.452C966.063 162.411 969.069 160.413 972.175 158.589C1030.81 123.539 1118.96 130.76 1154.11 135.503C1174.87 138.328 1195.42 142.078 1215.28 145.687C1258.23 153.529 1298.75 160.961 1341.11 159.571C1462.56 155.807 1582.42 65.2883 1614 -46.5396L1624.6 -43.9432C1591.9 71.8997 1467.61 165.703 1341.62 169.568C1298.02 170.986 1256.84 163.482 1213.24 155.501C1193.52 151.9 1173.12 148.159 1152.62 145.382C1080.92 135.749 1017.34 143.618 978.228 166.972C975.385 168.678 972.648 170.457 970.086 172.347C952.478 185.092 941.309 200.289 929.463 216.416C917.817 232.254 905.773 248.637 887.246 262.098C861.92 280.476 824.235 291.974 775.343 296.291C761.559 297.488 747.553 298.103 733.696 298.058C702.363 297.922 672.277 295.25 643.138 292.634C621.928 290.752 601.919 288.974 581.311 288.064C571.06 287.628 561.087 287.444 551.682 287.56C505.143 287.935 464.606 295.686 431.182 310.612C424.122 313.743 416.998 317.371 410.065 320.843C385.191 333.395 359.487 346.367 330.25 342.942C299.232 339.313 275.731 319.804 253.032 300.943C235.389 286.294 218.757 272.473 198.977 265.557C156.121 250.563 122.625 271.672 93.0441 290.269C81.6908 297.394 67.7049 305.135 51.432 313.209C29.0574 324.302 3.3534 334.798 -22.9593 333.252L-23.04 333.381Z" fill="#005D77"/>
<path d="M-32.2624 339.729C-38.0206 339.39 -43.8164 338.448 -49.6075 336.803C-61.7975 333.277 -72.2636 327.176 -80.7547 318.583C-103.743 295.325 -105.853 259.045 -100.675 235.034C-97.5611 220.634 -92.2991 206.394 -87.2123 192.646C-85.6437 188.357 -84.0386 184.069 -82.5044 179.745C-77.0379 164.513 -71.466 146.245 -71.3799 126.115C-71.3315 96.0493 -85.5229 64.9796 -110.252 40.8493C-127.413 24.2211 -148.857 11.3882 -172.254 3.79188C-209.639 -8.47295 -253.059 -10.1555 -301.415 -1.2581C-318.016 1.81316 -335.426 6.20818 -353.161 11.7881C-397.645 25.7294 -443.657 46.3705 -493.858 74.826C-547.541 105.284 -604.809 143.225 -655.043 181.578L-662.123 173.871C-611.505 135.205 -553.819 96.9885 -499.719 66.2871C-448.834 37.4036 -402.111 16.4698 -356.844 2.27352C-338.661 -3.44737 -320.806 -7.95 -303.763 -11.0956C-253.445 -20.3794 -208.023 -18.5457 -168.736 -5.66735C-143.724 2.45866 -120.761 16.1836 -102.39 34.0201C-75.7222 60.0036 -60.4731 93.6105 -60.5246 126.218C-60.6201 147.752 -66.4675 166.974 -72.1958 182.926C-73.7319 187.284 -75.339 191.604 -76.946 195.925C-82.1618 210 -87.0754 223.291 -90.0406 237.03C-94.719 258.763 -93.0154 291.373 -72.7531 311.863C-65.5035 319.179 -56.912 324.199 -46.5207 327.218C-17.6766 335.469 12.6363 322.467 35.8084 310.25C50.9801 302.245 64.8535 293.93 75.9524 286.154C106.122 265.016 143.688 238.728 192.561 254.645C214.988 261.95 233.568 277.457 251.559 292.428C273.73 310.923 294.683 328.376 321.924 331.549C347.676 334.535 370.75 322.747 395.145 310.267C402.496 306.518 410.113 302.618 417.738 299.186C453.08 283.37 495.953 275.688 545.211 276.343C554.969 276.448 565.367 276.859 576.076 277.588C596.436 278.986 617.001 281.265 636.91 283.505C667.101 286.885 698.345 290.394 730.532 290.915C744.198 291.116 758.05 290.626 771.613 289.45C818.807 285.401 854.842 273.973 878.712 255.475C895.914 242.171 906.657 226.147 918.04 209.189C929.503 192.103 941.366 174.438 960.29 159.831C963.124 157.656 966.137 155.559 969.216 153.566C1028.32 116.068 1117.7 124.231 1153.37 129.472C1175.2 132.695 1196.78 137.04 1217.63 141.243C1260.39 149.843 1300.76 157.969 1343.11 157.314C1465.71 155.658 1589.78 62.6107 1619.66 -50.0867L1630.31 -47.6215C1615.27 9.12283 1577.46 62.5887 1523.85 102.985C1469.9 143.629 1405.8 166.484 1343.36 167.33C1299.73 167.976 1256.83 159.367 1215.34 151.008C1194.63 146.848 1173.19 142.544 1151.7 139.341C1117.32 134.277 1031.3 126.344 975.463 161.759C972.614 163.565 969.869 165.478 967.302 167.467C949.72 181.017 938.819 197.233 927.314 214.417C916.008 231.312 904.268 248.75 885.762 263.081C860.17 282.882 822.114 295.094 772.677 299.346C758.711 300.531 744.49 301.067 730.422 300.876C697.649 300.354 666.152 296.797 635.67 293.4C615.907 291.168 595.451 288.895 575.382 287.515C564.892 286.798 554.749 286.402 545.173 286.308C497.671 285.656 456.427 292.998 422.624 308.136C415.262 311.449 407.76 315.256 400.522 318.944C375.638 331.663 349.96 344.837 320.613 341.406C289.885 337.827 266.669 318.435 244.182 299.721C226.228 284.752 209.25 270.61 188.94 263.997C145.666 249.881 112.177 273.366 82.6201 294.038C71.1775 302.061 56.8876 310.62 41.3013 318.834C20.6207 329.726 -5.46813 341.17 -32.4368 339.585L-32.2624 339.729Z" fill="#00617C"/>
<path d="M-41.5926 346.037C-47.6059 345.683 -53.6529 344.659 -59.7258 342.83C-71.9404 339.102 -82.3486 332.637 -90.636 323.688C-113.191 299.285 -113.695 262.43 -107.302 238.29C-103.504 224.064 -97.6362 210.094 -91.9416 196.582C-90.0273 192.012 -88.0746 187.411 -86.2313 182.803C-80.0339 167.581 -73.6179 149.262 -72.935 128.933C-72.008 98.8524 -85.5909 67.3836 -110.25 42.6888C-127.246 25.7359 -148.598 12.5739 -171.977 4.67765C-209.335 -8.05383 -252.947 -10.1825 -301.537 -1.66679C-318.241 1.29806 -335.753 5.55331 -353.553 10.9956C-399.132 24.906 -445.322 45.4698 -494.786 73.8348C-550.873 105.991 -607.564 145.303 -654.377 184.561L-661.839 177.132C-614.563 137.467 -557.337 97.7514 -500.686 65.327C-450.468 36.5716 -403.527 15.684 -357.128 1.52082C-338.881 -4.06247 -320.888 -8.42321 -303.705 -11.4602C-253.083 -20.3248 -207.504 -18.0471 -168.246 -4.66875C-143.254 3.79057 -120.419 17.8424 -102.214 36.0036C-75.6216 62.6516 -60.9831 96.6909 -61.99 129.376C-62.7227 151.173 -69.4506 170.444 -75.9482 186.418C-77.8319 191.09 -79.7865 195.724 -81.7392 200.326C-87.5627 214.165 -93.0477 227.221 -96.663 240.822C-102.483 262.688 -102.201 295.85 -82.3279 317.354C-75.3815 324.853 -66.6314 330.284 -56.3937 333.427C-33.435 340.396 -8.10762 335.061 25.7344 316.146C40.5189 307.885 54.2089 298.956 65.3568 290.347C95.4309 267.097 132.822 238.189 182.556 253.153C205.656 260.197 224.547 276.024 242.847 291.314C264.806 309.696 285.546 327.036 312.532 330.195C338.394 333.186 361.441 321.229 385.845 308.583C393.502 304.618 401.46 300.504 409.423 296.925C445.218 280.867 488.869 273.633 539.162 275.352C549.127 275.67 559.73 276.327 570.605 277.334C590.612 279.145 610.785 281.869 630.304 284.522C661.687 288.775 694.16 293.158 727.605 294.054C741.481 294.401 755.476 293.986 769.185 292.819C816.816 288.795 853.18 276.752 877.199 256.958C894.341 242.815 904.813 225.804 915.891 207.792C927.051 189.651 938.578 170.863 957.516 155.386C960.358 153.078 963.342 150.846 966.464 148.755C1025.97 108.806 1116.64 117.948 1152.87 123.69C1175.7 127.339 1198.23 132.276 1220 137.067C1262.63 146.43 1302.93 155.254 1345.35 155.305C1471.16 155.677 1596.91 62.0595 1625.6 -53.3836L1636.29 -51.0496C1606.5 68.6773 1476.05 165.764 1345.41 165.343C1301.72 165.283 1258.93 155.878 1217.52 146.822C1195.89 142.072 1173.55 137.18 1151.05 133.583C1116.23 128.025 1029.13 119.192 972.972 156.863C970.154 158.771 967.4 160.817 964.827 162.907C947.235 177.258 936.638 194.529 925.436 212.768C914.436 230.684 903.034 249.212 884.587 264.416C858.801 285.644 820.374 298.57 770.356 302.754C756.206 303.963 741.772 304.385 727.459 304.012C693.392 303.114 660.593 298.677 628.884 294.372C609.509 291.761 589.445 289.044 569.73 287.249C559.071 286.288 548.723 285.647 538.941 285.339C490.436 283.692 448.56 290.596 414.381 305.912C406.682 309.339 398.91 313.398 391.367 317.302C366.473 330.188 340.71 343.557 311.29 340.122C280.817 336.558 257.812 317.312 235.539 298.678C217.31 283.425 200.056 268.999 179.218 262.657C135.341 249.475 101.935 275.272 72.4756 298.023C60.9052 306.976 46.7603 316.178 31.5208 324.714C12.7282 335.216 -13.8281 347.769 -41.635 346.135L-41.5926 346.037Z" fill="#006480"/>
<path d="M-50.6379 352.462C-56.9792 352.089 -63.4231 350.974 -69.8467 348.891C-82.1186 344.892 -92.4381 338.165 -100.52 328.826C-122.642 303.277 -121.539 265.849 -113.894 241.548C-109.446 227.461 -102.968 213.693 -96.7021 200.416C-94.4058 195.567 -92.1094 190.719 -89.9205 185.83C-82.9903 170.585 -75.7686 152.246 -74.4888 131.718C-72.6448 101.591 -85.6959 69.7852 -110.282 44.4593C-127.149 27.1794 -148.371 13.6906 -171.697 5.49648C-209.061 -7.73711 -252.794 -10.3077 -301.693 -2.14454C-318.535 0.678415 -336.111 4.79606 -354.015 10.132C-399.945 23.7876 -447.628 44.8656 -495.82 72.7368C-553.249 105.952 -609.365 146.702 -653.815 187.436L-661.589 180.323C-616.597 139.086 -559.832 97.872 -501.721 64.2624C-452.809 35.9653 -404.265 14.5366 -357.479 0.630237C-339.128 -4.84662 -321.034 -9.06761 -303.747 -11.9982C-252.855 -20.479 -207.119 -17.7572 -167.82 -3.84133C-142.845 4.91796 -120.105 19.3322 -102.104 37.8493C-75.5868 65.1617 -61.5568 99.6001 -63.5211 132.396C-64.889 154.424 -72.4975 173.743 -79.7663 189.772C-81.9956 194.725 -84.2939 199.606 -86.6306 204.519C-93.0619 218.122 -99.1221 231.011 -103.351 244.475C-110.817 268.218 -110.185 301.635 -91.9319 322.709C-85.1874 330.53 -76.5219 336.157 -66.2595 339.503C-43.217 346.911 -17.1795 341.317 15.704 321.911C30.1397 313.361 43.6808 303.856 54.8413 294.411C84.7837 269.046 122.04 237.455 172.596 251.497C196.376 258.18 215.609 274.394 234.255 290.04C256.001 308.309 276.526 325.569 303.222 328.677C329.048 331.667 352.214 319.549 376.666 306.705C384.628 302.524 392.892 298.193 401.193 294.467C437.439 278.202 481.836 271.346 533.199 274.131C543.371 274.662 554.143 275.563 565.259 276.818C584.986 279.048 604.878 282.191 624.084 285.193C656.586 290.314 690.212 295.602 724.768 296.897C738.819 297.388 752.989 297.084 766.88 295.927C814.212 292.02 851.878 278.982 875.774 258.179C892.853 243.229 903.015 225.263 913.752 206.228C924.61 186.999 935.835 167.122 954.79 150.744C957.604 148.301 960.63 145.97 963.759 143.746C1023.7 101.347 1115.63 111.433 1152.38 117.74C1176.13 121.812 1199.57 127.371 1222.22 132.749C1264.82 142.845 1305.07 152.369 1347.6 153.129C1476.65 155.598 1604.04 61.4081 1631.54 -56.8474L1642.24 -54.6801C1613.67 67.9947 1481.43 165.712 1347.48 163.156C1303.68 162.388 1260.94 152.25 1219.57 142.46C1197.06 137.124 1173.84 131.611 1150.45 127.594C1076.91 115.01 1009.64 124 970.496 151.701C967.635 153.706 964.912 155.854 962.331 158.077C944.726 173.264 934.399 191.554 923.462 210.879C912.77 229.783 901.745 249.37 883.356 265.447C857.649 287.817 817.734 301.793 767.941 305.89C753.571 307.085 738.962 307.397 724.437 306.878C689.187 305.575 655.2 300.2 622.334 295.057C603.237 292.061 583.454 288.925 564.018 286.746C553.156 285.505 542.601 284.651 532.684 284.135C483.216 281.461 440.63 287.989 406.075 303.484C398.075 307.06 390 311.302 382.188 315.425C357.246 328.508 331.473 342.044 301.942 338.636C271.759 335.122 248.932 315.954 226.874 297.399C208.334 281.827 190.842 267.085 169.473 261.08C124.927 248.695 91.6721 276.909 62.3077 301.773C50.6844 311.626 36.646 321.503 21.6824 330.323C3.26917 341.215 -22.762 354.167 -50.6053 352.531L-50.6379 352.462Z" fill="#006784"/>
<path d="M-60.0438 358.833C-66.8953 358.43 -73.5116 357.138 -79.9658 354.952C-92.2988 350.749 -102.526 343.693 -110.402 333.965C-130.657 308.994 -130.081 271.2 -120.486 244.84C-115.422 230.856 -108.335 217.292 -101.455 204.15C-98.8169 199.088 -96.1404 193.994 -93.6078 188.858C-85.9812 173.587 -77.9154 155.197 -76.0044 134.505C-73.3163 104.328 -85.7973 72.1542 -110.238 46.2348C-126.94 28.6302 -148.07 14.8123 -171.38 6.35155C-208.753 -7.35081 -252.643 -10.3654 -301.812 -2.58603C-318.755 0.0971752 -336.471 4.10625 -354.442 9.33788C-401.281 22.9066 -449.179 43.9051 -496.782 71.7106C-555.027 105.747 -610.603 147.867 -653.219 190.381L-661.338 183.549C-618.102 140.436 -561.796 97.7234 -502.756 63.232C-454.359 34.9715 -405.599 13.6223 -357.866 -0.228372C-339.413 -5.56548 -321.214 -9.71338 -303.791 -12.4687C-252.592 -20.5636 -206.739 -17.3666 -167.432 -2.94864C-142.477 6.14397 -119.866 20.8851 -101.993 39.7291C-75.5886 67.7039 -62.1327 102.577 -65.0868 135.415C-67.1264 157.671 -75.6154 177.039 -83.617 193.091C-86.188 198.258 -88.8684 203.418 -91.5449 208.512C-98.5515 221.947 -105.187 234.668 -110.07 248.061C-118.753 271.966 -119.47 305.939 -101.603 327.994C-95.022 336.107 -86.4815 341.993 -76.1925 345.508C-53.1025 353.354 -26.355 347.501 5.57192 327.571C19.7318 318.737 33.0895 308.618 44.2261 298.336C72.418 272.266 111.049 236.575 162.534 249.735C186.955 256.088 206.536 272.624 225.49 288.622C247.021 306.811 267.333 323.959 293.776 327.018C319.782 330.052 342.887 317.73 367.424 304.69C375.692 300.293 384.224 295.744 392.863 291.871C429.562 275.365 474.773 268.958 527.137 272.772C537.515 273.516 548.492 274.662 559.814 276.164C579.371 278.785 599.021 282.315 618.057 285.708C651.606 291.694 686.238 297.91 721.868 299.603C736.091 300.272 750.441 300.012 764.477 298.897C797.84 296.209 843.976 287.147 874.286 259.262C891.341 243.474 901.197 224.488 911.628 204.431C922.183 184.147 933.069 163.181 952.003 145.931C954.822 143.388 957.821 140.888 960.957 138.564C1002.79 107.443 1074.15 97.3557 1151.79 111.585C1176.43 116.111 1200.72 122.288 1224.21 128.251C1266.83 139.084 1307.08 149.31 1349.78 150.75C1479.82 155.282 1611.56 58.5059 1637.43 -60.5481L1648.17 -58.4786C1635.14 1.49406 1596.7 57.5319 1539.97 99.3169C1483.05 141.258 1415.4 163.068 1349.49 160.8C1305.54 159.287 1262.74 148.443 1221.37 137.951C1198.06 132.032 1173.99 125.901 1149.75 121.466C1075.25 107.822 1007.27 117.172 967.918 146.432C965.049 148.571 962.321 150.819 959.77 153.144C942.153 169.166 932.133 188.445 921.535 208.859C911.182 228.82 900.463 249.429 882.094 266.41C849.466 296.4 800.696 306.11 765.533 308.926C750.981 310.111 736.157 310.343 721.385 309.676C685.025 307.973 649.923 301.662 616.014 295.589C597.087 292.202 577.544 288.712 558.279 286.108C547.212 284.621 536.49 283.489 526.367 282.76C475.935 279.06 432.642 285.178 397.745 300.887C389.48 304.616 381.1 309.073 372.984 313.379C347.994 326.66 322.1 340.389 292.496 336.977C262.53 333.51 239.954 314.423 218.111 295.947C199.297 280.058 181.527 265.067 159.662 259.4C114.412 247.81 79.8401 279.759 52.0725 305.453C40.4712 316.176 26.5414 326.696 11.8478 335.9C-14.7269 352.499 -38.4304 360.069 -59.9689 358.803L-60.0438 358.833Z" fill="#006A88"/>
<path d="M-69.1997 365.251C-76.3427 364.831 -83.3177 363.418 -90.0861 360.98C-102.476 356.506 -112.649 349.151 -120.285 339.07C-140.072 312.989 -137.963 274.616 -127.117 248.129C-121.401 234.25 -113.737 220.82 -106.316 207.811C-103.3 202.537 -100.284 197.262 -97.3732 191.914C-89.0138 176.619 -80.1039 158.179 -77.6325 137.286C-74.0639 107.06 -85.9746 74.5184 -110.346 48.0345C-126.882 30.1052 -147.922 15.9916 -171.212 7.19753C-208.595 -6.97361 -252.641 -10.4322 -302.041 -3.06782C-319.086 -0.524368 -336.906 3.37829 -354.978 8.47017C-402.724 21.9187 -450.8 42.8398 -497.889 70.6086C-556.645 105.251 -611.647 148.809 -652.768 193.251L-661.162 186.737C-619.379 141.599 -563.532 97.3537 -503.904 62.1945C-455.982 33.9395 -407.006 12.6365 -358.329 -1.09179C-339.773 -6.32248 -321.472 -10.3306 -303.947 -12.9462C-252.481 -20.624 -206.47 -16.983 -167.157 -2.0629C-142.256 7.32755 -119.741 22.4643 -102.034 41.6331C-75.7393 70.2369 -62.8939 105.542 -66.769 138.493C-69.4418 160.946 -78.8134 180.396 -87.5842 196.47C-90.5334 201.849 -93.5899 207.188 -96.61 212.529C-103.903 225.245 -111.407 238.416 -116.871 251.741C-126.731 275.778 -128.838 310.372 -111.322 333.409C-104.941 341.812 -96.4866 347.927 -86.1729 351.644C-62.7499 360.045 -36.0673 354.054 -4.57309 333.396C9.3493 324.247 22.5216 313.549 33.5959 302.461C61.6158 274.34 99.9724 235.857 152.421 248.171C177.524 254.128 197.413 271.017 216.638 287.365C237.955 305.475 258.089 322.546 284.277 325.59C310.321 328.593 333.546 316.111 358.092 302.904C366.626 298.322 375.464 293.557 384.404 289.534C421.554 272.82 467.475 266.79 520.946 271.672C531.532 272.629 542.713 274.022 554.201 275.801C573.626 278.815 593.143 282.739 612.048 286.492C646.423 293.362 681.953 300.468 718.361 302.608L718.835 302.636C733.269 303.451 747.759 303.299 761.979 302.162C795.707 299.495 842.263 290.124 872.703 260.641C889.771 244.018 899.32 224.043 909.449 202.898C919.663 181.557 930.248 159.503 949.16 141.383C951.987 138.706 954.992 136.106 958.135 133.649C1000.22 100.837 1072.4 90.3629 1151.19 105.697C1176.64 110.671 1201.73 117.464 1226.03 124.043C1268.72 135.616 1309.07 146.517 1351.92 148.634C1485.16 155.262 1618.58 57.915 1643.3 -63.9494L1654.04 -62.0132C1628.39 64.5122 1489.82 165.569 1351.44 158.673C1307.24 156.544 1264.44 144.897 1223.01 133.665C1198.93 127.133 1174.06 120.386 1149 115.502C1073.5 100.83 1004.84 110.473 965.29 141.327C962.416 143.567 959.679 145.948 957.123 148.373C939.531 165.199 929.817 185.499 919.521 207.002C909.474 227.984 899.093 249.683 880.746 267.535C847.977 299.29 798.676 309.335 763.075 312.126C748.342 313.3 733.266 313.451 718.322 312.606C680.999 310.479 644.782 303.233 609.865 296.264C591.105 292.519 571.695 288.636 552.524 285.669C541.289 283.939 530.363 282.56 520.03 281.652C468.633 276.959 424.671 282.636 389.359 298.555C380.795 302.399 372.146 307.075 363.764 311.566C338.725 325.045 312.818 339.008 283.033 335.551C253.285 332.097 230.925 313.089 209.26 294.691C190.206 278.521 172.199 263.214 149.803 257.884C107.239 247.857 75.6428 275.232 41.7535 309.261C30.1741 320.856 16.4257 332.021 1.89478 341.569C-24.1607 358.667 -47.5884 366.521 -69.1633 365.253L-69.1997 365.251Z" fill="#006E8C"/>
<path d="M-78.8579 371.574C-86.2196 371.141 -93.3345 369.619 -100.241 367.039C-112.69 362.327 -122.773 354.677 -130.205 344.24C-149.458 317.154 -145.884 278.131 -133.749 251.485C-127.377 237.645 -119.097 224.318 -111.097 211.41C-107.705 205.957 -104.351 200.535 -101.064 195.009C-91.9714 179.69 -82.2539 161.196 -79.1492 140.107C-74.7365 109.83 -86.0771 76.9207 -110.34 49.8411C-126.711 31.587 -147.658 17.1444 -170.931 8.05038C-208.321 -6.62288 -252.487 -10.5234 -302.196 -3.51156C-319.344 -1.07453 -337.265 2.68838 -355.441 7.67384C-403.985 21.0086 -452.274 41.8169 -498.887 69.5802C-557.966 104.738 -612.429 149.7 -652.244 196.191L-660.874 189.965C-620.352 142.645 -564.968 96.935 -504.938 61.1639C-457.454 32.8832 -408.227 11.6618 -358.715 -1.95051C-340.056 -7.07478 -321.653 -10.9432 -303.991 -13.4169C-252.254 -20.7108 -206.052 -16.5904 -166.732 -1.16816C-141.851 8.5556 -119.428 24.0214 -101.923 43.5128C-75.7403 72.7789 -63.5035 108.483 -68.3359 141.545C-71.6804 164.226 -81.896 183.727 -91.4745 199.854C-94.7634 205.413 -98.1942 210.897 -101.591 216.417C-109.429 229.067 -117.545 242.103 -123.666 255.389C-134.295 278.812 -138.026 314.916 -121.071 338.79C-114.89 347.481 -106.524 353.86 -96.2203 357.743C-72.8208 366.544 -45.4282 360.294 -14.8215 339.182C-1.13661 329.718 11.9233 318.445 22.9007 306.515C50.7102 276.375 88.7556 235.097 142.244 246.536C167.991 252.097 188.152 269.336 207.688 286.003C228.79 304.034 248.743 321.06 274.715 324.058C300.868 327.067 324.139 314.421 348.772 300.985C357.575 296.185 366.68 291.235 375.921 287.062C413.524 270.107 460.225 264.491 514.731 270.437C525.487 271.605 536.912 273.213 548.603 275.271C567.931 278.682 587.392 282.936 606.201 287.085C641.654 294.888 678.298 302.962 715.782 305.467C730.424 306.461 745.095 306.353 759.422 305.256C793.515 302.611 840.564 292.934 871.062 261.849C888.106 244.388 897.383 223.427 907.209 201.228C917.119 178.833 927.33 155.686 946.254 136.73C949.089 133.92 952.102 131.187 955.214 128.628C997.544 94.0906 1070.55 83.2975 1150.44 99.6997C1176.68 105.088 1202.57 112.53 1227.6 119.754C1270.39 132.069 1310.78 143.674 1353.92 146.41C1354.39 146.438 1354.83 146.464 1355.3 146.492C1488.94 154.347 1625.98 54.6708 1648.99 -67.4942L1659.78 -65.6892C1648.25 -4.45782 1608.38 54.7737 1550.43 96.8547C1491.49 139.647 1421.45 160.882 1353.26 156.406C1308.84 153.561 1265.94 141.239 1224.4 129.299C1199.59 122.155 1173.95 114.794 1148.15 109.465C1071.65 93.7642 1002.28 103.701 962.563 136.117C959.72 138.458 956.941 140.937 954.375 143.529C936.771 161.191 927.362 182.512 917.369 205.069C907.628 227.073 897.549 249.86 879.26 268.585C846.352 302.104 796.482 312.484 760.444 315.249C745.528 316.413 730.238 316.484 715.083 315.493C676.69 312.902 639.613 304.735 603.726 296.84C585.024 292.73 565.709 288.485 546.634 285.122C535.196 283.112 524.063 281.521 513.56 280.402C460.435 274.604 417.053 279.747 380.842 296.047C372.013 300.044 363.097 304.904 354.447 309.58C329.325 323.255 303.332 337.413 273.436 333.984C243.905 330.576 221.725 311.612 200.238 293.292C180.947 276.806 162.699 261.251 139.805 256.293C96.4657 247.023 63.718 277.809 31.2582 313.026C19.7737 325.496 6.0974 337.301 -8.19804 347.197C-33.5078 364.674 -57.2446 372.811 -78.9653 371.534L-78.8579 371.574Z" fill="#007190"/>
<path d="M-88.0881 377.988C-95.705 377.54 -103.142 375.899 -110.326 373.069C-122.835 368.119 -132.825 360.14 -140.016 349.349C-158.802 321.153 -153.693 281.519 -140.309 254.779C-133.354 240.973 -124.458 227.749 -115.881 214.975C-112.114 209.377 -108.348 203.779 -104.759 198.103C-94.9344 182.76 -84.4073 164.18 -80.7097 142.959C-75.4529 112.631 -86.2597 79.3517 -110.342 51.6807C-126.548 33.1018 -147.402 18.3302 -170.657 8.93618C-208.056 -6.20586 -252.379 -10.5504 -302.321 -3.9202C-319.608 -1.62506 -337.63 1.9981 -355.873 6.87928C-405.211 20.0335 -453.68 40.7978 -499.89 68.5514C-560.014 104.685 -612.513 149.829 -651.688 199.134L-660.555 193.195C-620.63 142.963 -567.166 96.9397 -505.944 60.1684C-458.823 31.8663 -409.416 10.689 -359.038 -2.73865C-340.311 -7.75864 -321.771 -11.4851 -304.005 -13.8524C-251.962 -20.7605 -205.642 -16.1648 -166.314 -0.240467C-141.453 9.81661 -119.122 25.6115 -101.821 45.4588C-75.785 75.3518 -64.1223 111.491 -69.9101 144.63C-73.8879 167.508 -84.9859 187.091 -95.3336 203.239C-98.9968 208.944 -102.769 214.642 -106.576 220.305C-114.994 232.854 -123.692 245.822 -130.395 259.074C-144.813 287.86 -144.971 322.903 -130.72 344.243C-124.738 353.224 -116.46 359.831 -106.095 363.919C-82.3985 373.272 -55.0729 366.918 -24.8585 345.014C-11.3747 335.237 1.50181 323.351 12.415 310.648C38.4081 280.301 77.7118 234.415 132.273 245.014C158.666 250.177 179.1 267.734 198.91 284.718C219.834 302.671 239.607 319.654 265.396 322.641C291.732 325.661 315.014 312.815 339.732 299.183C348.804 294.164 358.177 288.996 367.682 284.705C405.738 267.509 453.217 262.34 508.757 269.35C519.72 270.731 531.314 272.583 543.208 274.921C562.514 278.698 581.915 283.35 600.705 287.833C637.055 296.558 674.595 305.554 712.968 308.479C727.751 309.582 742.633 309.62 757.144 308.5C791.637 305.878 839.143 295.894 869.737 263.176C886.794 244.88 895.766 222.898 905.288 199.643C914.856 176.225 924.765 151.99 943.63 132.161C946.436 129.216 949.457 126.35 952.612 123.692C995.19 87.4302 1068.99 76.2821 1150.02 93.7883C1177.03 99.6237 1203.65 107.711 1229.38 115.544C1270.41 128.023 1312.84 140.886 1356.23 144.272C1493.54 155.052 1633.08 54.453 1655.01 -70.9535L1665.81 -69.2818C1643.32 59.3696 1501.49 162.878 1360.6 154.596C1358.85 154.494 1357.14 154.393 1355.39 154.223C1310.73 150.728 1267.65 137.661 1226.01 125.012C1200.5 117.258 1174.12 109.253 1147.58 103.512C1070.09 86.7488 1000 97.0445 960.08 131.021C957.231 133.462 954.444 136.075 951.909 138.768C934.33 157.235 925.191 179.575 915.536 203.222C906.099 226.281 896.36 250.124 878.093 269.721C845.117 305.008 794.681 315.69 758.167 318.46C743.033 319.611 727.564 319.605 712.164 318.432C672.882 315.421 634.837 306.294 598.054 297.477C579.41 293.003 560.116 288.39 541.063 284.661C529.456 282.407 518.118 280.57 507.408 279.238C453.32 272.413 409.231 277.146 372.641 293.659C363.549 297.774 354.366 302.819 345.484 307.716C320.275 321.619 294.269 336.011 264.195 332.504C234.882 329.109 212.844 310.221 191.539 291.911C172.009 275.143 153.558 259.309 130.166 254.723C85.9095 246.135 53.3584 279.173 21.124 316.779C9.69783 330.121 -3.79697 342.573 -17.9298 352.813C-42.7951 370.817 -66.2542 379.205 -88.0113 377.926L-88.0881 377.988Z" fill="#007495"/>
<path d="M-97.8206 384.306C-105.62 383.848 -113.162 382.133 -120.446 379.13C-133.013 373.943 -142.913 365.668 -149.899 354.488C-168.115 325.322 -161.121 284.092 -146.903 258.104C-139.328 244.334 -129.852 231.178 -120.73 218.47C-116.668 212.822 -112.448 206.983 -108.488 201.195C-97.9279 185.795 -86.5931 167.163 -82.2642 145.777C-76.1614 115.365 -86.4 81.7516 -110.374 53.4849C-126.416 34.6147 -147.176 19.4807 -170.415 9.82001C-207.858 -5.82628 -252.304 -10.5793 -302.516 -4.33295C-319.903 -2.17756 -337.993 1.34132 -356.376 6.11394C-406.473 19.1232 -455.119 39.7768 -500.93 67.5872C-561.187 104.114 -613.146 150.661 -651.242 202.137L-660.343 196.451C-621.488 143.883 -568.488 96.4273 -507.056 59.2C-460.298 30.8431 -410.64 9.74745 -359.466 -3.53303C-340.638 -8.41327 -321.994 -12.0333 -304.126 -14.2609C-251.815 -20.7518 -205.338 -15.7121 -166.004 0.714314C-141.16 11.0714 -118.961 27.2265 -101.788 47.4006C-75.9006 77.9538 -64.8465 114.492 -71.5167 147.713C-76.1623 170.752 -88.1064 190.419 -99.2253 206.623C-103.265 212.506 -107.488 218.412 -111.589 224.091C-120.587 236.573 -129.864 249.439 -137.155 262.724C-152.972 291.662 -154.341 327.403 -140.436 349.659C-134.654 358.929 -126.464 365.799 -116.074 370.089C-92.1162 379.959 -64.8211 373.503 -35.0029 350.873C-21.7201 340.783 -8.9925 328.32 1.82388 314.775C34.5132 273.784 70.7953 234.51 122.161 243.483C149.164 248.214 169.907 266.123 189.954 283.423C210.698 301.332 230.327 318.272 255.9 321.213C282.308 324.237 305.712 311.198 330.514 297.37C339.853 292.167 349.459 286.778 359.262 282.37C398.334 264.699 445.231 260.098 502.606 268.253C513.776 269.846 525.574 271.944 537.673 274.528C556.994 278.674 576.411 283.695 595.178 288.545C632.354 298.155 670.826 308.109 710.013 311.483C725.005 312.765 740.03 312.846 754.722 311.769C804.014 308.111 844.312 291.348 868.267 264.561C885.3 245.427 894 222.459 903.22 198.117C912.485 173.644 922.056 148.319 940.897 127.653C943.711 124.574 946.701 121.605 949.864 118.815C992.653 80.826 1067.27 69.325 1149.45 87.9685C1177.16 94.2801 1204.52 103.012 1230.94 111.455C1272.11 124.611 1314.71 138.253 1358.4 142.259C1498.8 155.161 1640.17 53.9999 1660.91 -74.2856L1671.75 -72.7119C1650.66 57.794 1509.34 161.299 1366.48 152.902C1363.45 152.724 1360.47 152.515 1357.45 152.204C1312.45 148.087 1269.24 134.276 1227.46 120.883C1201.29 112.522 1174.19 103.871 1146.98 97.6565C1086.38 83.8938 1004.78 84.1144 957.559 126.023C954.667 128.562 951.909 131.31 949.368 134.104C931.777 153.405 922.945 176.734 913.592 201.469C904.497 225.551 895.061 250.449 876.815 270.95C851.017 299.836 808.047 317.88 755.78 321.765C740.463 322.905 724.781 322.786 709.17 321.467C669.001 318.002 630.059 307.954 592.379 298.213C573.721 293.371 554.449 288.391 535.378 284.327C523.569 281.794 512.024 279.744 501.143 278.201C446.055 270.347 401.331 274.675 364.327 291.398C354.972 295.631 345.557 300.897 336.445 305.98C311.151 320.08 284.985 334.696 254.8 331.216C225.668 327.865 203.811 308.987 182.648 290.753C162.879 273.704 144.224 257.59 120.37 253.412C75.1937 245.538 41.5023 282.423 10.8303 320.823C-0.499036 335.007 -13.8488 348.103 -27.821 358.72C-52.0499 377.096 -75.8182 385.766 -97.7211 384.479L-97.8206 384.306Z" fill="#007799"/>
<path d="M-107.084 390.751C-115.138 390.278 -122.964 388.413 -130.526 385.159C-143.153 379.734 -152.996 371.129 -159.705 359.597C-174.897 333.719 -172.34 293.332 -153.46 261.43C-145.3 247.662 -135.242 234.574 -125.501 221.901C-121.066 216.142 -116.473 210.157 -112.14 204.258C-100.847 188.834 -88.6664 170.117 -83.7426 148.566C-76.7957 118.103 -86.4986 84.0866 -110.328 55.2263C-126.205 36.0314 -146.874 20.6017 -170.094 10.6077C-207.545 -5.5074 -252.109 -10.7356 -302.592 -4.87305C-320.081 -2.85742 -338.31 0.552909 -356.758 5.18792C-407.575 17.9877 -456.4 38.5972 -501.884 66.4269C-562.162 103.321 -613.616 151.235 -650.676 204.979L-659.94 199.585C-622.081 144.684 -569.544 95.7626 -508.014 58.1064C-461.582 29.6969 -411.707 8.64739 -359.775 -4.45478C-340.807 -9.22645 -322.098 -12.7089 -304.093 -14.7946C-251.512 -20.9017 -204.88 -15.3847 -165.502 1.54602C-140.678 12.2364 -118.571 28.7205 -101.602 49.2506C-75.8612 80.4307 -65.4176 117.401 -73.0069 150.702C-78.3221 173.936 -91.1468 193.652 -102.998 209.879C-107.374 215.876 -112.006 221.892 -116.481 227.716C-126.024 240.132 -135.921 252.963 -143.796 266.246C-161.013 295.369 -163.596 331.842 -150.032 354.914C-144.45 364.474 -136.346 371.572 -125.932 376.064C-95.72 389.045 -65.2418 372.608 -45.0248 356.538C-28.6482 343.587 -16.1863 328.8 -8.60637 318.676C22.2114 277.175 59.5193 233.512 112.209 241.727C139.859 246.028 160.84 264.252 181.125 281.866C201.724 299.733 221.174 316.63 246.564 319.56C273.118 322.593 296.606 309.357 321.459 295.299C331.028 289.908 340.903 284.301 350.969 279.775C390.494 261.863 438.135 257.673 496.542 266.926C507.882 268.73 519.886 271.074 532.188 273.938C551.563 278.421 570.993 283.811 589.776 289.029C627.775 299.558 667.069 310.463 707.073 314.252C722.239 315.679 737.441 315.87 752.317 314.771C802.155 311.145 842.822 293.702 866.779 265.644C883.825 245.675 892.614 220.571 901.138 196.255C910.062 170.725 919.329 144.345 938.149 122.808C940.932 119.627 943.967 116.528 947.101 113.601C997.756 66.8438 1084.52 66.5253 1148.9 81.7816C1177.32 88.536 1205.33 97.9085 1232.41 106.992C1273.79 120.863 1316.54 135.216 1360.56 139.843C1501.65 154.692 1647.63 50.8593 1666.8 -78.0204L1677.65 -76.5799C1668.08 -12.1557 1627.59 49.6812 1566.56 93.1197C1505.53 136.558 1430.04 157.206 1359.42 149.777C1314.14 145.008 1270.71 130.448 1228.75 116.376C1201.92 107.374 1174.16 98.0833 1146.28 91.4611C1084.9 76.8825 1002.39 76.9162 954.949 120.685C952.05 123.357 949.286 126.205 946.739 129.099C929.173 149.205 920.646 173.588 911.596 199.378C902.805 224.515 893.709 250.47 875.484 271.841C849.643 302.096 806.264 320.885 753.34 324.732C737.841 325.861 721.945 325.662 706.125 324.164C665.102 320.281 625.268 309.243 586.766 298.552C568.091 293.374 548.767 288.024 529.646 283.588C517.595 280.806 505.883 278.479 494.83 276.759C438.779 267.879 393.348 271.798 355.929 288.729C346.311 293.081 336.665 298.534 327.284 303.836C301.903 318.164 275.69 332.979 245.322 329.488C216.336 326.145 194.66 307.312 173.679 289.088C153.706 271.759 134.849 255.366 110.532 251.595C64.1443 244.42 29.4446 285.393 0.492489 324.395C-7.44482 335 -20.5348 350.519 -37.7563 364.156C-61.5045 383.062 -85.0332 392.014 -107.009 390.722L-107.084 390.751Z" fill="#007B9D"/>
<path d="M-116.963 397.061C-124.872 396.596 -132.807 394.725 -140.683 391.218C-156.931 383.942 -168.571 371.05 -174.327 353.888C-183.267 327.408 -177.663 292.418 -160.094 264.787C-151.311 250.988 -140.635 237.969 -130.311 225.331C-110.769 201.462 -92.33 178.933 -85.3348 151.383C-70.6835 93.746 -116.818 34.978 -169.852 11.4584C-233.436 -16.7284 -306.835 -7.96514 -357.26 4.38943C-479.368 34.2707 -586.162 108.466 -650.229 207.949L-659.69 202.778C-594.214 101.103 -485.055 25.2404 -360.2 -5.31563C-307.995 -18.1007 -231.802 -27.1011 -165.189 2.43433C-99.1106 31.7376 -60.2192 96.7692 -74.6837 153.714C-82.1992 183.274 -102.214 207.718 -121.559 231.364C-131.686 243.747 -142.166 256.543 -150.628 269.859C-166.503 294.813 -171.822 327.445 -163.881 350.99C-158.961 365.594 -149.559 376.114 -135.947 382.199C-93.6521 401.14 -46.628 362.029 -19.2333 322.768C2.85013 291.121 43.9788 232.231 102.061 240.161C130.324 243.996 151.542 262.535 172.064 280.464C192.481 298.321 211.787 315.175 236.997 318.062C263.695 321.136 287.233 307.67 312.207 293.418C322.009 287.806 332.15 282.014 342.482 277.337C390.196 255.726 450.392 254.447 526.549 273.44C545.974 278.294 565.457 284.055 584.293 289.61C623.116 301.057 663.231 312.913 703.979 317.115C757.449 322.632 827.902 312.358 865.17 266.887C882.228 246.083 890.715 219.891 898.932 194.587C907.55 168.035 916.443 140.563 935.24 118.155C983.924 60.1445 1077.14 58.2321 1148.15 75.7847C1177.24 82.9797 1205.91 93.0262 1233.64 102.75C1275.21 117.335 1318.21 132.404 1362.55 137.62C1506.81 154.661 1654.54 50.1957 1672.49 -81.5652L1683.35 -80.2248C1665.35 51.8007 1521.93 157.456 1377.28 148.954C1371.92 148.639 1366.58 148.158 1361.24 147.543C1315.58 142.15 1271.98 126.878 1229.77 112.088C1202.32 102.481 1173.9 92.5163 1145.36 85.4534C1077.77 68.7377 989.332 70.1618 943.913 124.284C926.335 145.225 918.115 170.596 909.367 197.475C900.881 223.633 892.124 250.678 873.887 272.885C839.927 314.336 775.982 334.592 702.812 327.013C660.975 322.681 620.319 310.692 580.993 299.082C562.265 293.567 542.89 287.846 523.717 283.04C450.265 264.708 392.568 265.765 347.37 286.253C337.526 290.725 327.613 296.364 318.038 301.855C292.571 316.412 266.198 331.451 235.686 327.919C206.88 324.62 185.313 305.793 164.479 287.577C144.303 269.969 125.277 253.332 100.497 249.969C53.3336 243.551 18.7115 286.936 -10.0399 328.125C-35.0384 363.948 -75.7756 399.382 -117.03 396.957L-116.963 397.061Z" fill="#007EA1"/>
</g>
</g>
<defs>
<clipPath id="clip0_270_33459">
<rect width="1440" height="444" fill="white"/>
</clipPath>
<clipPath id="clip1_270_33459">
<rect width="2337.29" height="582.735" fill="white" transform="translate(-649.805 -218) rotate(3.3639)"/>
</clipPath>
</defs>
</svg>
