<svg width="1440" height="550" viewBox="0 0 1440 550" fill="none" xmlns="http://www.w3.org/2000/svg">
<g clip-path="url(#clip0_48_406)">
<rect width="1440" height="550" fill="#0F1117"/>
<path d="M0 -41C18.9394 -41 18.9394 -27.7726 37.8787 -27.7726C56.8181 -27.7726 56.8181 -41 75.7575 -41C94.6969 -41 94.6969 -27.7726 113.636 -27.7726C132.576 -27.7726 132.588 -41 151.527 -41C170.467 -41 170.467 -27.7726 189.406 -27.7726C208.346 -27.7726 208.346 -41 227.285 -41C246.224 -41 246.224 -27.7726 265.164 -27.7726C284.103 -27.7726 284.103 -41 303.042 -41C321.982 -41 321.982 -27.7726 340.921 -27.7726C359.861 -27.7726 359.861 -41 378.8 -41C397.739 -41 397.739 -27.7726 416.679 -27.7726C435.618 -27.7726 435.618 -41 454.557 -41C473.497 -41 473.497 -27.7726 492.436 -27.7726C511.376 -27.7726 511.376 -41 530.315 -41C549.254 -41 549.254 -27.7726 568.194 -27.7726C587.133 -27.7726 587.133 -41 606.072 -41C625.012 -41 625.012 -27.7726 643.951 -27.7726C662.891 -27.7726 662.891 -41 681.83 -41C700.769 -41 700.769 -27.7726 719.709 -27.7726C738.648 -27.7726 738.648 -41 757.587 -41C776.527 -41 776.527 -27.7726 795.466 -27.7726C814.406 -27.7726 814.406 -41 833.345 -41C852.284 -41 852.284 -27.7726 871.236 -27.7726C890.188 -27.7726 890.175 -41 909.115 -41C928.054 -41 928.054 -27.7726 946.994 -27.7726C965.933 -27.7726 965.933 -41 984.872 -41C1003.81 -41 1003.81 -27.7726 1022.75 -27.7726C1041.69 -27.7726 1041.69 -41 1060.63 -41C1079.57 -41 1079.57 -27.7726 1098.52 -27.7726C1117.47 -27.7726 1117.46 -41 1136.4 -41C1155.34 -41 1155.34 -27.7726 1174.28 -27.7726C1193.22 -27.7726 1193.22 -41 1212.16 -41C1231.1 -41 1231.1 -27.7726 1250.05 -27.7726C1269 -27.7726 1268.99 -41 1287.94 -41C1306.89 -41 1306.88 -27.7726 1325.83 -27.7726C1344.78 -27.7726 1344.77 -41 1363.72 -41C1382.67 -41 1382.67 -27.7726 1401.61 -27.7726C1420.55 -27.7726 1420.56 -41 1439.5 -41M0 -28.7896C18.9395 -28.7896 18.9395 -15.5622 37.8791 -15.5622C56.8186 -15.5622 56.8186 -28.7896 75.7582 -28.7896C94.6977 -28.7896 94.6977 -15.5622 113.637 -15.5622C132.577 -15.5622 132.577 -28.7896 151.516 -28.7896C170.456 -28.7896 170.456 -15.5622 189.395 -15.5622C208.335 -15.5622 208.335 -28.7896 227.274 -28.7896C246.214 -28.7896 246.214 -15.5622 265.154 -15.5622C284.093 -15.5622 284.093 -28.7896 303.033 -28.7896C321.972 -28.7896 321.972 -15.5622 340.912 -15.5622C359.851 -15.5622 359.851 -28.7896 378.791 -28.7896C397.73 -28.7896 397.73 -15.5622 416.67 -15.5622C435.609 -15.5622 435.609 -28.7896 454.549 -28.7896C473.488 -28.7896 473.489 -15.5622 492.428 -15.5622C511.368 -15.5622 511.368 -28.7896 530.307 -28.7896C549.247 -28.7896 549.247 -15.5622 568.186 -15.5622C587.126 -15.5622 587.126 -28.7896 606.065 -28.7896C625.005 -28.7896 625.005 -15.5622 643.944 -15.5622C662.884 -15.5622 662.884 -28.7896 681.823 -28.7896C700.763 -28.7896 700.763 -15.5622 719.703 -15.5622C738.642 -15.5622 738.642 -28.7896 757.582 -28.7896C776.521 -28.7896 776.521 -15.5622 795.461 -15.5622C814.4 -15.5622 814.4 -28.7896 833.34 -28.7896C852.279 -28.7896 852.279 -15.5622 871.231 -15.5622C890.183 -15.5622 890.171 -28.7896 909.11 -28.7896C928.05 -28.7896 928.05 -15.5622 946.989 -15.5622C965.929 -15.5622 965.929 -28.7896 984.868 -28.7896C1003.81 -28.7896 1003.81 -15.5622 1022.75 -15.5622C1041.69 -15.5622 1041.69 -28.7896 1060.63 -28.7896C1079.57 -28.7896 1079.57 -15.5622 1098.52 -15.5622C1117.47 -15.5622 1117.46 -28.7896 1136.4 -28.7896C1155.34 -28.7896 1155.34 -15.5622 1174.28 -15.5622C1193.22 -15.5622 1193.22 -28.7896 1212.16 -28.7896C1231.09 -28.7896 1231.09 -15.5622 1250.05 -15.5622C1269 -15.5622 1268.99 -28.7896 1287.94 -28.7896C1306.89 -28.7896 1306.88 -15.5622 1325.83 -15.5622C1344.78 -15.5622 1344.77 -28.7896 1363.72 -28.7896C1382.67 -28.7896 1382.67 -15.5622 1401.61 -15.5622C1420.55 -15.5622 1420.56 -28.7896 1439.5 -28.7896M0 -15.5632C18.9395 -15.5632 18.9395 -3.35336 37.8791 -3.35336C56.8186 -3.35336 56.8186 -15.5632 75.7582 -15.5632C94.6977 -15.5632 94.6977 -3.35336 113.637 -3.35336C132.577 -3.35336 132.577 -15.5632 151.516 -15.5632C170.456 -15.5632 170.456 -3.35336 189.395 -3.35336C208.335 -3.35336 208.335 -15.5632 227.274 -15.5632C246.214 -15.5632 246.214 -3.35336 265.154 -3.35336C284.093 -3.35336 284.093 -15.5632 303.033 -15.5632C321.972 -15.5632 321.972 -3.35336 340.912 -3.35336C359.851 -3.35336 359.851 -15.5632 378.791 -15.5632C397.73 -15.5632 397.73 -3.35336 416.67 -3.35336C435.609 -3.35336 435.609 -15.5632 454.549 -15.5632C473.488 -15.5632 473.489 -3.35336 492.428 -3.35336C511.368 -3.35336 511.368 -15.5632 530.307 -15.5632C549.247 -15.5632 549.247 -3.35336 568.186 -3.35336C587.126 -3.35336 587.126 -15.5632 606.065 -15.5632C625.005 -15.5632 625.005 -3.35336 643.944 -3.35336C662.884 -3.35336 662.884 -15.5632 681.823 -15.5632C700.763 -15.5632 700.763 -3.35336 719.703 -3.35336C738.642 -3.35336 738.642 -15.5632 757.582 -15.5632C776.521 -15.5632 776.521 -3.35336 795.461 -3.35336C814.4 -3.35336 814.4 -15.5632 833.34 -15.5632C852.279 -15.5632 852.279 -3.35336 871.231 -3.35336C890.183 -3.35336 890.171 -15.5632 909.11 -15.5632C928.05 -15.5632 928.05 -3.35336 946.989 -3.35336C965.929 -3.35336 965.929 -15.5632 984.868 -15.5632C1003.81 -15.5632 1003.81 -3.35336 1022.75 -3.35336C1041.69 -3.35336 1041.69 -15.5632 1060.63 -15.5632C1079.57 -15.5632 1079.57 -3.35336 1098.52 -3.35336C1117.47 -3.35336 1117.46 -15.5632 1136.4 -15.5632C1155.34 -15.5632 1155.34 -3.35336 1174.28 -3.35336C1193.22 -3.35336 1193.22 -15.5632 1212.16 -15.5632C1231.09 -15.5632 1231.09 -3.35336 1250.05 -3.35336C1269 -3.35336 1268.99 -15.5632 1287.94 -15.5632C1306.89 -15.5632 1306.88 -3.35336 1325.83 -3.35336C1344.78 -3.35336 1344.77 -15.5632 1363.72 -15.5632C1382.67 -15.5632 1382.67 -3.35336 1401.61 -3.35336C1420.55 -3.35336 1420.56 -15.5632 1439.5 -15.5632M0 -3.35327C18.9395 -3.35327 18.9395 9.87408 37.8791 9.87408C56.8186 9.87408 56.8186 -3.35327 75.7582 -3.35327C94.6977 -3.35327 94.6977 9.87408 113.637 9.87408C132.577 9.87408 132.577 -3.35327 151.516 -3.35327C170.456 -3.35327 170.456 9.87408 189.395 9.87408C208.335 9.87408 208.335 -3.35327 227.274 -3.35327C246.214 -3.35327 246.214 9.87408 265.154 9.87408C284.093 9.87408 284.093 -3.35327 303.033 -3.35327C321.972 -3.35327 321.972 9.87408 340.912 9.87408C359.851 9.87408 359.851 -3.35327 378.791 -3.35327C397.73 -3.35327 397.73 9.87408 416.67 9.87408C435.609 9.87408 435.609 -3.35327 454.549 -3.35327C473.488 -3.35327 473.489 9.87408 492.428 9.87408C511.368 9.87408 511.368 -3.35327 530.307 -3.35327C549.247 -3.35327 549.247 9.87408 568.186 9.87408C587.126 9.87408 587.126 -3.35327 606.065 -3.35327C625.005 -3.35327 625.005 9.87408 643.944 9.87408C662.884 9.87408 662.884 -3.35327 681.823 -3.35327C700.763 -3.35327 700.763 9.87408 719.703 9.87408C738.642 9.87408 738.642 -3.35327 757.582 -3.35327C776.521 -3.35327 776.521 9.87408 795.461 9.87408C814.4 9.87408 814.4 -3.35327 833.34 -3.35327C852.279 -3.35327 852.279 9.87408 871.231 9.87408C890.183 9.87408 890.171 -3.35327 909.11 -3.35327C928.05 -3.35327 928.05 9.87408 946.989 9.87408C965.929 9.87408 965.929 -3.35327 984.868 -3.35327C1003.81 -3.35327 1003.81 9.87408 1022.75 9.87408C1041.69 9.87408 1041.69 -3.35327 1060.63 -3.35327C1079.57 -3.35327 1079.57 9.87408 1098.52 9.87408C1117.47 9.87408 1117.46 -3.35327 1136.4 -3.35327C1155.34 -3.35327 1155.34 9.87408 1174.28 9.87408C1193.22 9.87408 1193.22 -3.35327 1212.16 -3.35327C1231.09 -3.35327 1231.09 9.87408 1250.05 9.87408C1269 9.87408 1268.99 -3.35327 1287.94 -3.35327C1306.89 -3.35327 1306.88 9.87408 1325.83 9.87408C1344.78 9.87408 1344.77 -3.35327 1363.72 -3.35327C1382.67 -3.35327 1382.67 9.87408 1401.61 9.87408C1420.55 9.87408 1420.56 -3.35327 1439.5 -3.35327M0 9.87451C18.9395 9.87451 18.9395 22.0844 37.8791 22.0844C56.8186 22.0844 56.8186 9.87451 75.7582 9.87451C94.6977 9.87451 94.6977 22.0844 113.637 22.0844C132.577 22.0844 132.577 9.87451 151.516 9.87451C170.456 9.87451 170.456 22.0844 189.395 22.0844C208.335 22.0844 208.335 9.87451 227.274 9.87451C246.214 9.87451 246.214 22.0844 265.154 22.0844C284.093 22.0844 284.093 9.87451 303.033 9.87451C321.972 9.87451 321.972 22.0844 340.912 22.0844C359.851 22.0844 359.851 9.87451 378.791 9.87451C397.73 9.87451 397.73 22.0844 416.67 22.0844C435.609 22.0844 435.609 9.87451 454.549 9.87451C473.488 9.87451 473.489 22.0844 492.428 22.0844C511.368 22.0844 511.368 9.87451 530.307 9.87451C549.247 9.87451 549.247 22.0844 568.186 22.0844C587.126 22.0844 587.126 9.87451 606.065 9.87451C625.005 9.87451 625.005 22.0844 643.944 22.0844C662.884 22.0844 662.884 9.87451 681.823 9.87451C700.763 9.87451 700.763 22.0844 719.703 22.0844C738.642 22.0844 738.642 9.87451 757.582 9.87451C776.521 9.87451 776.521 22.0844 795.461 22.0844C814.4 22.0844 814.4 9.87451 833.34 9.87451C852.279 9.87451 852.279 22.0844 871.231 22.0844C890.183 22.0844 890.171 9.87451 909.11 9.87451C928.05 9.87451 928.05 22.0844 946.989 22.0844C965.929 22.0844 965.929 9.87451 984.868 9.87451C1003.81 9.87451 1003.81 22.0844 1022.75 22.0844C1041.69 22.0844 1041.69 9.87451 1060.63 9.87451C1079.57 9.87451 1079.57 22.0844 1098.52 22.0844C1117.47 22.0844 1117.46 9.87451 1136.4 9.87451C1155.34 9.87451 1155.34 22.0844 1174.28 22.0844C1193.22 22.0844 1193.22 9.87451 1212.16 9.87451C1231.09 9.87451 1231.09 22.0844 1250.05 22.0844C1269 22.0844 1268.99 9.87451 1287.94 9.87451C1306.89 9.87451 1306.88 22.0844 1325.83 22.0844C1344.78 22.0844 1344.77 9.87451 1363.72 9.87451C1382.67 9.87451 1382.67 22.0844 1401.61 22.0844C1420.55 22.0844 1420.56 9.87451 1439.5 9.87451M0 22.0842C18.9395 22.0842 18.9395 35.3116 37.8791 35.3116C56.8186 35.3116 56.8186 22.0842 75.7582 22.0842C94.6977 22.0842 94.6977 35.3116 113.637 35.3116C132.577 35.3116 132.577 22.0842 151.516 22.0842C170.456 22.0842 170.456 35.3116 189.395 35.3116C208.335 35.3116 208.335 22.0842 227.274 22.0842C246.214 22.0842 246.214 35.3116 265.154 35.3116C284.093 35.3116 284.093 22.0842 303.033 22.0842C321.972 22.0842 321.972 35.3116 340.912 35.3116C359.851 35.3116 359.851 22.0842 378.791 22.0842C397.73 22.0842 397.73 35.3116 416.67 35.3116C435.609 35.3116 435.609 22.0842 454.549 22.0842C473.488 22.0842 473.489 35.3116 492.428 35.3116C511.368 35.3116 511.368 22.0842 530.307 22.0842C549.247 22.0842 549.247 35.3116 568.186 35.3116C587.126 35.3116 587.126 22.0842 606.065 22.0842C625.005 22.0842 625.005 35.3116 643.944 35.3116C662.884 35.3116 662.884 22.0842 681.823 22.0842C700.763 22.0842 700.763 35.3116 719.703 35.3116C738.642 35.3116 738.642 22.0842 757.582 22.0842C776.521 22.0842 776.521 35.3116 795.461 35.3116C814.4 35.3116 814.4 22.0842 833.34 22.0842C852.279 22.0842 852.279 35.3116 871.231 35.3116C890.183 35.3116 890.171 22.0842 909.11 22.0842C928.05 22.0842 928.05 35.3116 946.989 35.3116C965.929 35.3116 965.929 22.0842 984.868 22.0842C1003.81 22.0842 1003.81 35.3116 1022.75 35.3116C1041.69 35.3116 1041.69 22.0842 1060.63 22.0842C1079.57 22.0842 1079.57 35.3116 1098.52 35.3116C1117.47 35.3116 1117.46 22.0842 1136.4 22.0842C1155.34 22.0842 1155.34 35.3116 1174.28 35.3116C1193.22 35.3116 1193.22 22.0842 1212.16 22.0842C1231.09 22.0842 1231.09 35.3116 1250.05 35.3116C1269 35.3116 1268.99 22.0842 1287.94 22.0842C1306.89 22.0842 1306.88 35.3116 1325.83 35.3116C1344.78 35.3116 1344.77 22.0842 1363.72 22.0842C1382.67 22.0842 1382.67 35.3116 1401.61 35.3116C1420.55 35.3116 1420.56 22.0842 1439.5 22.0842M0 34.2942C18.9395 34.2942 18.9395 47.5215 37.8791 47.5215C56.8186 47.5215 56.8186 34.2942 75.7582 34.2942C94.6977 34.2942 94.6977 47.5215 113.637 47.5215C132.577 47.5215 132.577 34.2942 151.516 34.2942C170.456 34.2942 170.456 47.5215 189.395 47.5215C208.335 47.5215 208.335 34.2942 227.274 34.2942C246.214 34.2942 246.214 47.5215 265.154 47.5215C284.093 47.5215 284.093 34.2942 303.033 34.2942C321.972 34.2942 321.972 47.5215 340.912 47.5215C359.851 47.5215 359.851 34.2942 378.791 34.2942C397.73 34.2942 397.73 47.5215 416.67 47.5215C435.609 47.5215 435.609 34.2942 454.549 34.2942C473.488 34.2942 473.489 47.5215 492.428 47.5215C511.368 47.5215 511.368 34.2942 530.307 34.2942C549.247 34.2942 549.247 47.5215 568.186 47.5215C587.126 47.5215 587.126 34.2942 606.065 34.2942C625.005 34.2942 625.005 47.5215 643.944 47.5215C662.884 47.5215 662.884 34.2942 681.823 34.2942C700.763 34.2942 700.763 47.5215 719.703 47.5215C738.642 47.5215 738.642 34.2942 757.582 34.2942C776.521 34.2942 776.521 47.5215 795.461 47.5215C814.4 47.5215 814.4 34.2942 833.34 34.2942C852.279 34.2942 852.279 47.5215 871.231 47.5215C890.183 47.5215 890.171 34.2942 909.11 34.2942C928.05 34.2942 928.05 47.5215 946.989 47.5215C965.929 47.5215 965.929 34.2942 984.868 34.2942C1003.81 34.2942 1003.81 47.5215 1022.75 47.5215C1041.69 47.5215 1041.69 34.2942 1060.63 34.2942C1079.57 34.2942 1079.57 47.5215 1098.52 47.5215C1117.47 47.5215 1117.46 34.2942 1136.4 34.2942C1155.34 34.2942 1155.34 47.5215 1174.28 47.5215C1193.22 47.5215 1193.22 34.2942 1212.16 34.2942C1231.09 34.2942 1231.09 47.5215 1250.05 47.5215C1269 47.5215 1268.99 34.2942 1287.94 34.2942C1306.89 34.2942 1306.88 47.5215 1325.83 47.5215C1344.78 47.5215 1344.77 34.2942 1363.72 34.2942C1382.67 34.2942 1382.67 47.5215 1401.61 47.5215C1420.55 47.5215 1420.56 34.2942 1439.5 34.2942M0 47.5215C18.9395 47.5215 18.9395 59.7314 37.8791 59.7314C56.8186 59.7314 56.8186 47.5215 75.7582 47.5215C94.6977 47.5215 94.6977 59.7314 113.637 59.7314C132.577 59.7314 132.577 47.5215 151.516 47.5215C170.456 47.5215 170.456 59.7314 189.395 59.7314C208.335 59.7314 208.335 47.5215 227.274 47.5215C246.214 47.5215 246.214 59.7314 265.154 59.7314C284.093 59.7314 284.093 47.5215 303.033 47.5215C321.972 47.5215 321.972 59.7314 340.912 59.7314C359.851 59.7314 359.851 47.5215 378.791 47.5215C397.73 47.5215 397.73 59.7314 416.67 59.7314C435.609 59.7314 435.609 47.5215 454.549 47.5215C473.488 47.5215 473.489 59.7314 492.428 59.7314C511.368 59.7314 511.368 47.5215 530.307 47.5215C549.247 47.5215 549.247 59.7314 568.186 59.7314C587.126 59.7314 587.126 47.5215 606.065 47.5215C625.005 47.5215 625.005 59.7314 643.944 59.7314C662.884 59.7314 662.884 47.5215 681.823 47.5215C700.763 47.5215 700.763 59.7314 719.703 59.7314C738.642 59.7314 738.642 47.5215 757.582 47.5215C776.521 47.5215 776.521 59.7314 795.461 59.7314C814.4 59.7314 814.4 47.5215 833.34 47.5215C852.279 47.5215 852.279 59.7314 871.231 59.7314C890.183 59.7314 890.171 47.5215 909.11 47.5215C928.05 47.5215 928.05 59.7314 946.989 59.7314C965.929 59.7314 965.929 47.5215 984.868 47.5215C1003.81 47.5215 1003.81 59.7314 1022.75 59.7314C1041.69 59.7314 1041.69 47.5215 1060.63 47.5215C1079.57 47.5215 1079.57 59.7314 1098.52 59.7314C1117.47 59.7314 1117.46 47.5215 1136.4 47.5215C1155.34 47.5215 1155.34 59.7314 1174.28 59.7314C1193.22 59.7314 1193.22 47.5215 1212.16 47.5215C1231.09 47.5215 1231.09 59.7314 1250.05 59.7314C1269 59.7314 1268.99 47.5215 1287.94 47.5215C1306.89 47.5215 1306.88 59.7314 1325.83 59.7314C1344.78 59.7314 1344.77 47.5215 1363.72 47.5215C1382.67 47.5215 1382.67 59.7314 1401.61 59.7314C1420.55 59.7314 1420.56 47.5215 1439.5 47.5215M0 59.7307C18.9395 59.7307 18.9395 72.9581 37.8791 72.9581C56.8186 72.9581 56.8186 59.7307 75.7582 59.7307C94.6977 59.7307 94.6977 72.9581 113.637 72.9581C132.577 72.9581 132.577 59.7307 151.516 59.7307C170.456 59.7307 170.456 72.9581 189.395 72.9581C208.335 72.9581 208.335 59.7307 227.274 59.7307C246.214 59.7307 246.214 72.9581 265.154 72.9581C284.093 72.9581 284.093 59.7307 303.033 59.7307C321.972 59.7307 321.972 72.9581 340.912 72.9581C359.851 72.9581 359.851 59.7307 378.791 59.7307C397.73 59.7307 397.73 72.9581 416.67 72.9581C435.609 72.9581 435.609 59.7307 454.549 59.7307C473.488 59.7307 473.489 72.9581 492.428 72.9581C511.368 72.9581 511.368 59.7307 530.307 59.7307C549.247 59.7307 549.247 72.9581 568.186 72.9581C587.126 72.9581 587.126 59.7307 606.065 59.7307C625.005 59.7307 625.005 72.9581 643.944 72.9581C662.884 72.9581 662.884 59.7307 681.823 59.7307C700.763 59.7307 700.763 72.9581 719.703 72.9581C738.642 72.9581 738.642 59.7307 757.582 59.7307C776.521 59.7307 776.521 72.9581 795.461 72.9581C814.4 72.9581 814.4 59.7307 833.34 59.7307C852.279 59.7307 852.279 72.9581 871.231 72.9581C890.183 72.9581 890.171 59.7307 909.11 59.7307C928.05 59.7307 928.05 72.9581 946.989 72.9581C965.929 72.9581 965.929 59.7307 984.868 59.7307C1003.81 59.7307 1003.81 72.9581 1022.75 72.9581C1041.69 72.9581 1041.69 59.7307 1060.63 59.7307C1079.57 59.7307 1079.57 72.9581 1098.52 72.9581C1117.47 72.9581 1117.46 59.7307 1136.4 59.7307C1155.34 59.7307 1155.34 72.9581 1174.28 72.9581C1193.22 72.9581 1193.22 59.7307 1212.16 59.7307C1231.09 59.7307 1231.09 72.9581 1250.05 72.9581C1269 72.9581 1268.99 59.7307 1287.94 59.7307C1306.89 59.7307 1306.88 72.9581 1325.83 72.9581C1344.78 72.9581 1344.77 59.7307 1363.72 59.7307C1382.67 59.7307 1382.67 72.9581 1401.61 72.9581C1420.55 72.9581 1420.56 59.7307 1439.5 59.7307M0 72.9583C18.9395 72.9583 18.9395 85.1681 37.8791 85.1681C56.8186 85.1681 56.8186 72.9583 75.7582 72.9583C94.6977 72.9583 94.6977 85.1681 113.637 85.1681C132.577 85.1681 132.577 72.9583 151.516 72.9583C170.456 72.9583 170.456 85.1681 189.395 85.1681C208.335 85.1681 208.335 72.9583 227.274 72.9583C246.214 72.9583 246.214 85.1681 265.154 85.1681C284.093 85.1681 284.093 72.9583 303.033 72.9583C321.972 72.9583 321.972 85.1681 340.912 85.1681C359.851 85.1681 359.851 72.9583 378.791 72.9583C397.73 72.9583 397.73 85.1681 416.67 85.1681C435.609 85.1681 435.609 72.9583 454.549 72.9583C473.488 72.9583 473.489 85.1681 492.428 85.1681C511.368 85.1681 511.368 72.9583 530.307 72.9583C549.247 72.9583 549.247 85.1681 568.186 85.1681C587.126 85.1681 587.126 72.9583 606.065 72.9583C625.005 72.9583 625.005 85.1681 643.944 85.1681C662.884 85.1681 662.884 72.9583 681.823 72.9583C700.763 72.9583 700.763 85.1681 719.703 85.1681C738.642 85.1681 738.642 72.9583 757.582 72.9583C776.521 72.9583 776.521 85.1681 795.461 85.1681C814.4 85.1681 814.4 72.9583 833.34 72.9583C852.279 72.9583 852.279 85.1681 871.231 85.1681C890.183 85.1681 890.171 72.9583 909.11 72.9583C928.05 72.9583 928.05 85.1681 946.989 85.1681C965.929 85.1681 965.929 72.9583 984.868 72.9583C1003.81 72.9583 1003.81 85.1681 1022.75 85.1681C1041.69 85.1681 1041.69 72.9583 1060.63 72.9583C1079.57 72.9583 1079.57 85.1681 1098.52 85.1681C1117.47 85.1681 1117.46 72.9583 1136.4 72.9583C1155.34 72.9583 1155.34 85.1681 1174.28 85.1681C1193.22 85.1681 1193.22 72.9583 1212.16 72.9583C1231.09 72.9583 1231.09 85.1681 1250.05 85.1681C1269 85.1681 1268.99 72.9583 1287.94 72.9583C1306.89 72.9583 1306.88 85.1681 1325.83 85.1681C1344.78 85.1681 1344.77 72.9583 1363.72 72.9583C1382.67 72.9583 1382.67 85.1681 1401.61 85.1681C1420.55 85.1681 1420.56 72.9583 1439.5 72.9583M0 85.1689C18.9395 85.1689 18.9395 98.3963 37.8791 98.3963C56.8186 98.3963 56.8186 85.1689 75.7582 85.1689C94.6977 85.1689 94.6977 98.3963 113.637 98.3963C132.577 98.3963 132.577 85.1689 151.516 85.1689C170.456 85.1689 170.456 98.3963 189.395 98.3963C208.335 98.3963 208.335 85.1689 227.274 85.1689C246.214 85.1689 246.214 98.3963 265.154 98.3963C284.093 98.3963 284.093 85.1689 303.033 85.1689C321.972 85.1689 321.972 98.3963 340.912 98.3963C359.851 98.3963 359.851 85.1689 378.791 85.1689C397.73 85.1689 397.73 98.3963 416.67 98.3963C435.609 98.3963 435.609 85.1689 454.549 85.1689C473.488 85.1689 473.489 98.3963 492.428 98.3963C511.368 98.3963 511.368 85.1689 530.307 85.1689C549.247 85.1689 549.247 98.3963 568.186 98.3963C587.126 98.3963 587.126 85.1689 606.065 85.1689C625.005 85.1689 625.005 98.3963 643.944 98.3963C662.884 98.3963 662.884 85.1689 681.823 85.1689C700.763 85.1689 700.763 98.3963 719.703 98.3963C738.642 98.3963 738.642 85.1689 757.582 85.1689C776.521 85.1689 776.521 98.3963 795.461 98.3963C814.4 98.3963 814.4 85.1689 833.34 85.1689C852.279 85.1689 852.279 98.3963 871.231 98.3963C890.183 98.3963 890.171 85.1689 909.11 85.1689C928.05 85.1689 928.05 98.3963 946.989 98.3963C965.929 98.3963 965.929 85.1689 984.868 85.1689C1003.81 85.1689 1003.81 98.3963 1022.75 98.3963C1041.69 98.3963 1041.69 85.1689 1060.63 85.1689C1079.57 85.1689 1079.57 98.3963 1098.52 98.3963C1117.47 98.3963 1117.46 85.1689 1136.4 85.1689C1155.34 85.1689 1155.34 98.3963 1174.28 98.3963C1193.22 98.3963 1193.22 85.1689 1212.16 85.1689C1231.09 85.1689 1231.09 98.3963 1250.05 98.3963C1269 98.3963 1268.99 85.1689 1287.94 85.1689C1306.89 85.1689 1306.88 98.3963 1325.83 98.3963C1344.78 98.3963 1344.77 85.1689 1363.72 85.1689C1382.67 85.1689 1382.67 98.3963 1401.61 98.3963C1420.55 98.3963 1420.56 85.1689 1439.5 85.1689M0 98.3962C18.9395 98.3962 18.9395 110.606 37.8791 110.606C56.8186 110.606 56.8186 98.3962 75.7582 98.3962C94.6977 98.3962 94.6977 110.606 113.637 110.606C132.577 110.606 132.577 98.3962 151.516 98.3962C170.456 98.3962 170.456 110.606 189.395 110.606C208.335 110.606 208.335 98.3962 227.274 98.3962C246.214 98.3962 246.214 110.606 265.154 110.606C284.093 110.606 284.093 98.3962 303.033 98.3962C321.972 98.3962 321.972 110.606 340.912 110.606C359.851 110.606 359.851 98.3962 378.791 98.3962C397.73 98.3962 397.73 110.606 416.67 110.606C435.609 110.606 435.609 98.3962 454.549 98.3962C473.488 98.3962 473.489 110.606 492.428 110.606C511.368 110.606 511.368 98.3962 530.307 98.3962C549.247 98.3962 549.247 110.606 568.186 110.606C587.126 110.606 587.126 98.3962 606.065 98.3962C625.005 98.3962 625.005 110.606 643.944 110.606C662.884 110.606 662.884 98.3962 681.823 98.3962C700.763 98.3962 700.763 110.606 719.703 110.606C738.642 110.606 738.642 98.3962 757.582 98.3962C776.521 98.3962 776.521 110.606 795.461 110.606C814.4 110.606 814.4 98.3962 833.34 98.3962C852.279 98.3962 852.279 110.606 871.231 110.606C890.183 110.606 890.171 98.3962 909.11 98.3962C928.05 98.3962 928.05 110.606 946.989 110.606C965.929 110.606 965.929 98.3962 984.868 98.3962C1003.81 98.3962 1003.81 110.606 1022.75 110.606C1041.69 110.606 1041.69 98.3962 1060.63 98.3962C1079.57 98.3962 1079.57 110.606 1098.52 110.606C1117.47 110.606 1117.46 98.3962 1136.4 98.3962C1155.34 98.3962 1155.34 110.606 1174.28 110.606C1193.22 110.606 1193.22 98.3962 1212.16 98.3962C1231.09 98.3962 1231.09 110.606 1250.05 110.606C1269 110.606 1268.99 98.3962 1287.94 98.3962C1306.89 98.3962 1306.88 110.606 1325.83 110.606C1344.78 110.606 1344.77 98.3962 1363.72 98.3962C1382.67 98.3962 1382.67 110.606 1401.61 110.606C1420.55 110.606 1420.56 98.3962 1439.5 98.3962M0 110.606C18.9395 110.606 18.9395 123.833 37.8791 123.833C56.8186 123.833 56.8186 110.606 75.7582 110.606C94.6977 110.606 94.6977 123.833 113.637 123.833C132.577 123.833 132.577 110.606 151.516 110.606C170.456 110.606 170.456 123.833 189.395 123.833C208.335 123.833 208.335 110.606 227.274 110.606C246.214 110.606 246.214 123.833 265.154 123.833C284.093 123.833 284.093 110.606 303.033 110.606C321.972 110.606 321.972 123.833 340.912 123.833C359.851 123.833 359.851 110.606 378.791 110.606C397.73 110.606 397.73 123.833 416.67 123.833C435.609 123.833 435.609 110.606 454.549 110.606C473.488 110.606 473.489 123.833 492.428 123.833C511.368 123.833 511.368 110.606 530.307 110.606C549.247 110.606 549.247 123.833 568.186 123.833C587.126 123.833 587.126 110.606 606.065 110.606C625.005 110.606 625.005 123.833 643.944 123.833C662.884 123.833 662.884 110.606 681.823 110.606C700.763 110.606 700.763 123.833 719.703 123.833C738.642 123.833 738.642 110.606 757.582 110.606C776.521 110.606 776.521 123.833 795.461 123.833C814.4 123.833 814.4 110.606 833.34 110.606C852.279 110.606 852.279 123.833 871.231 123.833C890.183 123.833 890.171 110.606 909.11 110.606C928.05 110.606 928.05 123.833 946.989 123.833C965.929 123.833 965.929 110.606 984.868 110.606C1003.81 110.606 1003.81 123.833 1022.75 123.833C1041.69 123.833 1041.69 110.606 1060.63 110.606C1079.57 110.606 1079.57 123.833 1098.52 123.833C1117.47 123.833 1117.46 110.606 1136.4 110.606C1155.34 110.606 1155.34 123.833 1174.28 123.833C1193.22 123.833 1193.22 110.606 1212.16 110.606C1231.09 110.606 1231.09 123.833 1250.05 123.833C1269 123.833 1268.99 110.606 1287.94 110.606C1306.89 110.606 1306.88 123.833 1325.83 123.833C1344.78 123.833 1344.77 110.606 1363.72 110.606C1382.67 110.606 1382.67 123.833 1401.61 123.833C1420.55 123.833 1420.56 110.606 1439.5 110.606M0 122.815C18.9395 122.815 18.9395 136.043 37.8791 136.043C56.8186 136.043 56.8186 122.815 75.7582 122.815C94.6977 122.815 94.6977 136.043 113.637 136.043C132.577 136.043 132.577 122.815 151.516 122.815C170.456 122.815 170.456 136.043 189.395 136.043C208.335 136.043 208.335 122.815 227.274 122.815C246.214 122.815 246.214 136.043 265.154 136.043C284.093 136.043 284.093 122.815 303.033 122.815C321.972 122.815 321.972 136.043 340.912 136.043C359.851 136.043 359.851 122.815 378.791 122.815C397.73 122.815 397.73 136.043 416.67 136.043C435.609 136.043 435.609 122.815 454.549 122.815C473.488 122.815 473.489 136.043 492.428 136.043C511.368 136.043 511.368 122.815 530.307 122.815C549.247 122.815 549.247 136.043 568.186 136.043C587.126 136.043 587.126 122.815 606.065 122.815C625.005 122.815 625.005 136.043 643.944 136.043C662.884 136.043 662.884 122.815 681.823 122.815C700.763 122.815 700.763 136.043 719.703 136.043C738.642 136.043 738.642 122.815 757.582 122.815C776.521 122.815 776.521 136.043 795.461 136.043C814.4 136.043 814.4 122.815 833.34 122.815C852.279 122.815 852.279 136.043 871.231 136.043C890.183 136.043 890.171 122.815 909.11 122.815C928.05 122.815 928.05 136.043 946.989 136.043C965.929 136.043 965.929 122.815 984.868 122.815C1003.81 122.815 1003.81 136.043 1022.75 136.043C1041.69 136.043 1041.69 122.815 1060.63 122.815C1079.57 122.815 1079.57 136.043 1098.52 136.043C1117.47 136.043 1117.46 122.815 1136.4 122.815C1155.34 122.815 1155.34 136.043 1174.28 136.043C1193.22 136.043 1193.22 122.815 1212.16 122.815C1231.09 122.815 1231.09 136.043 1250.05 136.043C1269 136.043 1268.99 122.815 1287.94 122.815C1306.89 122.815 1306.88 136.043 1325.83 136.043C1344.78 136.043 1344.77 122.815 1363.72 122.815C1382.67 122.815 1382.67 136.043 1401.61 136.043C1420.55 136.043 1420.56 122.815 1439.5 122.815M0 136.043C18.9395 136.043 18.9395 148.253 37.8791 148.253C56.8186 148.253 56.8186 136.043 75.7582 136.043C94.6977 136.043 94.6977 148.253 113.637 148.253C132.577 148.253 132.577 136.043 151.516 136.043C170.456 136.043 170.456 148.253 189.395 148.253C208.335 148.253 208.335 136.043 227.274 136.043C246.214 136.043 246.214 148.253 265.154 148.253C284.093 148.253 284.093 136.043 303.033 136.043C321.972 136.043 321.972 148.253 340.912 148.253C359.851 148.253 359.851 136.043 378.791 136.043C397.73 136.043 397.73 148.253 416.67 148.253C435.609 148.253 435.609 136.043 454.549 136.043C473.488 136.043 473.489 148.253 492.428 148.253C511.368 148.253 511.368 136.043 530.307 136.043C549.247 136.043 549.247 148.253 568.186 148.253C587.126 148.253 587.126 136.043 606.065 136.043C625.005 136.043 625.005 148.253 643.944 148.253C662.884 148.253 662.884 136.043 681.823 136.043C700.763 136.043 700.763 148.253 719.703 148.253C738.642 148.253 738.642 136.043 757.582 136.043C776.521 136.043 776.521 148.253 795.461 148.253C814.4 148.253 814.4 136.043 833.34 136.043C852.279 136.043 852.279 148.253 871.231 148.253C890.183 148.253 890.171 136.043 909.11 136.043C928.05 136.043 928.05 148.253 946.989 148.253C965.929 148.253 965.929 136.043 984.868 136.043C1003.81 136.043 1003.81 148.253 1022.75 148.253C1041.69 148.253 1041.69 136.043 1060.63 136.043C1079.57 136.043 1079.57 148.253 1098.52 148.253C1117.47 148.253 1117.46 136.043 1136.4 136.043C1155.34 136.043 1155.34 148.253 1174.28 148.253C1193.22 148.253 1193.22 136.043 1212.16 136.043C1231.09 136.043 1231.09 148.253 1250.05 148.253C1269 148.253 1268.99 136.043 1287.94 136.043C1306.89 136.043 1306.88 148.253 1325.83 148.253C1344.78 148.253 1344.77 136.043 1363.72 136.043C1382.67 136.043 1382.67 148.253 1401.61 148.253C1420.55 148.253 1420.56 136.043 1439.5 136.043M0 148.253C18.9395 148.253 18.9395 161.48 37.8791 161.48C56.8186 161.48 56.8186 148.253 75.7582 148.253C94.6977 148.253 94.6977 161.48 113.637 161.48C132.577 161.48 132.577 148.253 151.516 148.253C170.456 148.253 170.456 161.48 189.395 161.48C208.335 161.48 208.335 148.253 227.274 148.253C246.214 148.253 246.214 161.48 265.154 161.48C284.093 161.48 284.093 148.253 303.033 148.253C321.972 148.253 321.972 161.48 340.912 161.48C359.851 161.48 359.851 148.253 378.791 148.253C397.73 148.253 397.73 161.48 416.67 161.48C435.609 161.48 435.609 148.253 454.549 148.253C473.488 148.253 473.489 161.48 492.428 161.48C511.368 161.48 511.368 148.253 530.307 148.253C549.247 148.253 549.247 161.48 568.186 161.48C587.126 161.48 587.126 148.253 606.065 148.253C625.005 148.253 625.005 161.48 643.944 161.48C662.884 161.48 662.884 148.253 681.823 148.253C700.763 148.253 700.763 161.48 719.703 161.48C738.642 161.48 738.642 148.253 757.582 148.253C776.521 148.253 776.521 161.48 795.461 161.48C814.4 161.48 814.4 148.253 833.34 148.253C852.279 148.253 852.279 161.48 871.231 161.48C890.183 161.48 890.171 148.253 909.11 148.253C928.05 148.253 928.05 161.48 946.989 161.48C965.929 161.48 965.929 148.253 984.868 148.253C1003.81 148.253 1003.81 161.48 1022.75 161.48C1041.69 161.48 1041.69 148.253 1060.63 148.253C1079.57 148.253 1079.57 161.48 1098.52 161.48C1117.47 161.48 1117.46 148.253 1136.4 148.253C1155.34 148.253 1155.34 161.48 1174.28 161.48C1193.22 161.48 1193.22 148.253 1212.16 148.253C1231.09 148.253 1231.09 161.48 1250.05 161.48C1269 161.48 1268.99 148.253 1287.94 148.253C1306.89 148.253 1306.88 161.48 1325.83 161.48C1344.78 161.48 1344.77 148.253 1363.72 148.253C1382.67 148.253 1382.67 161.48 1401.61 161.48C1420.55 161.48 1420.56 148.253 1439.5 148.253M0 161.48C18.9395 161.48 18.9395 173.69 37.8791 173.69C56.8186 173.69 56.8186 161.48 75.7582 161.48C94.6977 161.48 94.6977 173.69 113.637 173.69C132.577 173.69 132.577 161.48 151.516 161.48C170.456 161.48 170.456 173.69 189.395 173.69C208.335 173.69 208.335 161.48 227.274 161.48C246.214 161.48 246.214 173.69 265.154 173.69C284.093 173.69 284.093 161.48 303.033 161.48C321.972 161.48 321.972 173.69 340.912 173.69C359.851 173.69 359.851 161.48 378.791 161.48C397.73 161.48 397.73 173.69 416.67 173.69C435.609 173.69 435.609 161.48 454.549 161.48C473.488 161.48 473.489 173.69 492.428 173.69C511.368 173.69 511.368 161.48 530.307 161.48C549.247 161.48 549.247 173.69 568.186 173.69C587.126 173.69 587.126 161.48 606.065 161.48C625.005 161.48 625.005 173.69 643.944 173.69C662.884 173.69 662.884 161.48 681.823 161.48C700.763 161.48 700.763 173.69 719.703 173.69C738.642 173.69 738.642 161.48 757.582 161.48C776.521 161.48 776.521 173.69 795.461 173.69C814.4 173.69 814.4 161.48 833.34 161.48C852.279 161.48 852.279 173.69 871.231 173.69C890.183 173.69 890.171 161.48 909.11 161.48C928.05 161.48 928.05 173.69 946.989 173.69C965.929 173.69 965.929 161.48 984.868 161.48C1003.81 161.48 1003.81 173.69 1022.75 173.69C1041.69 173.69 1041.69 161.48 1060.63 161.48C1079.57 161.48 1079.57 173.69 1098.52 173.69C1117.47 173.69 1117.46 161.48 1136.4 161.48C1155.34 161.48 1155.34 173.69 1174.28 173.69C1193.22 173.69 1193.22 161.48 1212.16 161.48C1231.09 161.48 1231.09 173.69 1250.05 173.69C1269 173.69 1268.99 161.48 1287.94 161.48C1306.89 161.48 1306.88 173.69 1325.83 173.69C1344.78 173.69 1344.77 161.48 1363.72 161.48C1382.67 161.48 1382.67 173.69 1401.61 173.69C1420.55 173.69 1420.56 161.48 1439.5 161.48M0 173.691C18.9395 173.691 18.9395 186.918 37.8791 186.918C56.8186 186.918 56.8186 173.691 75.7582 173.691C94.6977 173.691 94.6977 186.918 113.637 186.918C132.577 186.918 132.577 173.691 151.516 173.691C170.456 173.691 170.456 186.918 189.395 186.918C208.335 186.918 208.335 173.691 227.274 173.691C246.214 173.691 246.214 186.918 265.154 186.918C284.093 186.918 284.093 173.691 303.033 173.691C321.972 173.691 321.972 186.918 340.912 186.918C359.851 186.918 359.851 173.691 378.791 173.691C397.73 173.691 397.73 186.918 416.67 186.918C435.609 186.918 435.609 173.691 454.549 173.691C473.488 173.691 473.489 186.918 492.428 186.918C511.368 186.918 511.368 173.691 530.307 173.691C549.247 173.691 549.247 186.918 568.186 186.918C587.126 186.918 587.126 173.691 606.065 173.691C625.005 173.691 625.005 186.918 643.944 186.918C662.884 186.918 662.884 173.691 681.823 173.691C700.763 173.691 700.763 186.918 719.703 186.918C738.642 186.918 738.642 173.691 757.582 173.691C776.521 173.691 776.521 186.918 795.461 186.918C814.4 186.918 814.4 173.691 833.34 173.691C852.279 173.691 852.279 186.918 871.231 186.918C890.183 186.918 890.171 173.691 909.11 173.691C928.05 173.691 928.05 186.918 946.989 186.918C965.929 186.918 965.929 173.691 984.868 173.691C1003.81 173.691 1003.81 186.918 1022.75 186.918C1041.69 186.918 1041.69 173.691 1060.63 173.691C1079.57 173.691 1079.57 186.918 1098.52 186.918C1117.47 186.918 1117.46 173.691 1136.4 173.691C1155.34 173.691 1155.34 186.918 1174.28 186.918C1193.22 186.918 1193.22 173.691 1212.16 173.691C1231.09 173.691 1231.09 186.918 1250.05 186.918C1269 186.918 1268.99 173.691 1287.94 173.691C1306.89 173.691 1306.88 186.918 1325.83 186.918C1344.78 186.918 1344.77 173.691 1363.72 173.691C1382.67 173.691 1382.67 186.918 1401.61 186.918C1420.55 186.918 1420.56 173.691 1439.5 173.691M0 186.918C18.9395 186.918 18.9395 199.128 37.8791 199.128C56.8186 199.128 56.8186 186.918 75.7582 186.918C94.6977 186.918 94.6977 199.128 113.637 199.128C132.577 199.128 132.577 186.918 151.516 186.918C170.456 186.918 170.456 199.128 189.395 199.128C208.335 199.128 208.335 186.918 227.274 186.918C246.214 186.918 246.214 199.128 265.154 199.128C284.093 199.128 284.093 186.918 303.033 186.918C321.972 186.918 321.972 199.128 340.912 199.128C359.851 199.128 359.851 186.918 378.791 186.918C397.73 186.918 397.73 199.128 416.67 199.128C435.609 199.128 435.609 186.918 454.549 186.918C473.488 186.918 473.489 199.128 492.428 199.128C511.368 199.128 511.368 186.918 530.307 186.918C549.247 186.918 549.247 199.128 568.186 199.128C587.126 199.128 587.126 186.918 606.065 186.918C625.005 186.918 625.005 199.128 643.944 199.128C662.884 199.128 662.884 186.918 681.823 186.918C700.763 186.918 700.763 199.128 719.703 199.128C738.642 199.128 738.642 186.918 757.582 186.918C776.521 186.918 776.521 199.128 795.461 199.128C814.4 199.128 814.4 186.918 833.34 186.918C852.279 186.918 852.279 199.128 871.231 199.128C890.183 199.128 890.171 186.918 909.11 186.918C928.05 186.918 928.05 199.128 946.989 199.128C965.929 199.128 965.929 186.918 984.868 186.918C1003.81 186.918 1003.81 199.128 1022.75 199.128C1041.69 199.128 1041.69 186.918 1060.63 186.918C1079.57 186.918 1079.57 199.128 1098.52 199.128C1117.47 199.128 1117.46 186.918 1136.4 186.918C1155.34 186.918 1155.34 199.128 1174.28 199.128C1193.22 199.128 1193.22 186.918 1212.16 186.918C1231.09 186.918 1231.09 199.128 1250.05 199.128C1269 199.128 1268.99 186.918 1287.94 186.918C1306.89 186.918 1306.88 199.128 1325.83 199.128C1344.78 199.128 1344.77 186.918 1363.72 186.918C1382.67 186.918 1382.67 199.128 1401.61 199.128C1420.55 199.128 1420.56 186.918 1439.5 186.918M0 199.128C18.9395 199.128 18.9395 211.338 37.8791 211.338C56.8186 211.338 56.8186 199.128 75.7582 199.128C94.6977 199.128 94.6977 211.338 113.637 211.338C132.577 211.338 132.577 199.128 151.516 199.128C170.456 199.128 170.456 211.338 189.395 211.338C208.335 211.338 208.335 199.128 227.274 199.128C246.214 199.128 246.214 211.338 265.154 211.338C284.093 211.338 284.093 199.128 303.033 199.128C321.972 199.128 321.972 211.338 340.912 211.338C359.851 211.338 359.851 199.128 378.791 199.128C397.73 199.128 397.73 211.338 416.67 211.338C435.609 211.338 435.609 199.128 454.549 199.128C473.488 199.128 473.489 211.338 492.428 211.338C511.368 211.338 511.368 199.128 530.307 199.128C549.247 199.128 549.247 211.338 568.186 211.338C587.126 211.338 587.126 199.128 606.065 199.128C625.005 199.128 625.005 211.338 643.944 211.338C662.884 211.338 662.884 199.128 681.823 199.128C700.763 199.128 700.763 211.338 719.703 211.338C738.642 211.338 738.642 199.128 757.582 199.128C776.521 199.128 776.521 211.338 795.461 211.338C814.4 211.338 814.4 199.128 833.34 199.128C852.279 199.128 852.279 211.338 871.231 211.338C890.183 211.338 890.171 199.128 909.11 199.128C928.05 199.128 928.05 211.338 946.989 211.338C965.929 211.338 965.929 199.128 984.868 199.128C1003.81 199.128 1003.81 211.338 1022.75 211.338C1041.69 211.338 1041.69 199.128 1060.63 199.128C1079.57 199.128 1079.57 211.338 1098.52 211.338C1117.47 211.338 1117.46 199.128 1136.4 199.128C1155.34 199.128 1155.34 211.338 1174.28 211.338C1193.22 211.338 1193.22 199.128 1212.16 199.128C1231.09 199.128 1231.09 211.338 1250.05 211.338C1269 211.338 1268.99 199.128 1287.94 199.128C1306.89 199.128 1306.88 211.338 1325.83 211.338C1344.78 211.338 1344.77 199.128 1363.72 199.128C1382.67 199.128 1382.67 211.338 1401.61 211.338C1420.55 211.338 1420.56 199.128 1439.5 199.128M0 211.337C18.9395 211.337 18.9395 224.565 37.8791 224.565C56.8186 224.565 56.8186 211.337 75.7582 211.337C94.6977 211.337 94.6977 224.565 113.637 224.565C132.577 224.565 132.577 211.337 151.516 211.337C170.456 211.337 170.456 224.565 189.395 224.565C208.335 224.565 208.335 211.337 227.274 211.337C246.214 211.337 246.214 224.565 265.154 224.565C284.093 224.565 284.093 211.337 303.033 211.337C321.972 211.337 321.972 224.565 340.912 224.565C359.851 224.565 359.851 211.337 378.791 211.337C397.73 211.337 397.73 224.565 416.67 224.565C435.609 224.565 435.609 211.337 454.549 211.337C473.488 211.337 473.489 224.565 492.428 224.565C511.368 224.565 511.368 211.337 530.307 211.337C549.247 211.337 549.247 224.565 568.186 224.565C587.126 224.565 587.126 211.337 606.065 211.337C625.005 211.337 625.005 224.565 643.944 224.565C662.884 224.565 662.884 211.337 681.823 211.337C700.763 211.337 700.763 224.565 719.703 224.565C738.642 224.565 738.642 211.337 757.582 211.337C776.521 211.337 776.521 224.565 795.461 224.565C814.4 224.565 814.4 211.337 833.34 211.337C852.279 211.337 852.279 224.565 871.231 224.565C890.183 224.565 890.171 211.337 909.11 211.337C928.05 211.337 928.05 224.565 946.989 224.565C965.929 224.565 965.929 211.337 984.868 211.337C1003.81 211.337 1003.81 224.565 1022.75 224.565C1041.69 224.565 1041.69 211.337 1060.63 211.337C1079.57 211.337 1079.57 224.565 1098.52 224.565C1117.47 224.565 1117.46 211.337 1136.4 211.337C1155.34 211.337 1155.34 224.565 1174.28 224.565C1193.22 224.565 1193.22 211.337 1212.16 211.337C1231.09 211.337 1231.09 224.565 1250.05 224.565C1269 224.565 1268.99 211.337 1287.94 211.337C1306.89 211.337 1306.88 224.565 1325.83 224.565C1344.78 224.565 1344.77 211.337 1363.72 211.337C1382.67 211.337 1382.67 224.565 1401.61 224.565C1420.55 224.565 1420.56 211.337 1439.5 211.337M0 224.566C18.9395 224.566 18.9395 236.776 37.8791 236.776C56.8186 236.776 56.8186 224.566 75.7582 224.566C94.6977 224.566 94.6977 236.776 113.637 236.776C132.577 236.776 132.577 224.566 151.516 224.566C170.456 224.566 170.456 236.776 189.395 236.776C208.335 236.776 208.335 224.566 227.274 224.566C246.214 224.566 246.214 236.776 265.154 236.776C284.093 236.776 284.093 224.566 303.033 224.566C321.972 224.566 321.972 236.776 340.912 236.776C359.851 236.776 359.851 224.566 378.791 224.566C397.73 224.566 397.73 236.776 416.67 236.776C435.609 236.776 435.609 224.566 454.549 224.566C473.488 224.566 473.489 236.776 492.428 236.776C511.368 236.776 511.368 224.566 530.307 224.566C549.247 224.566 549.247 236.776 568.186 236.776C587.126 236.776 587.126 224.566 606.065 224.566C625.005 224.566 625.005 236.776 643.944 236.776C662.884 236.776 662.884 224.566 681.823 224.566C700.763 224.566 700.763 236.776 719.703 236.776C738.642 236.776 738.642 224.566 757.582 224.566C776.521 224.566 776.521 236.776 795.461 236.776C814.4 236.776 814.4 224.566 833.34 224.566C852.279 224.566 852.279 236.776 871.231 236.776C890.183 236.776 890.171 224.566 909.11 224.566C928.05 224.566 928.05 236.776 946.989 236.776C965.929 236.776 965.929 224.566 984.868 224.566C1003.81 224.566 1003.81 236.776 1022.75 236.776C1041.69 236.776 1041.69 224.566 1060.63 224.566C1079.57 224.566 1079.57 236.776 1098.52 236.776C1117.47 236.776 1117.46 224.566 1136.4 224.566C1155.34 224.566 1155.34 236.776 1174.28 236.776C1193.22 236.776 1193.22 224.566 1212.16 224.566C1231.09 224.566 1231.09 236.776 1250.05 236.776C1269 236.776 1268.99 224.566 1287.94 224.566C1306.89 224.566 1306.88 236.776 1325.83 236.776C1344.78 236.776 1344.77 224.566 1363.72 224.566C1382.67 224.566 1382.67 236.776 1401.61 236.776C1420.55 236.776 1420.56 224.566 1439.5 224.566M0 236.776C18.9395 236.776 18.9395 250.003 37.8791 250.003C56.8186 250.003 56.8186 236.776 75.7582 236.776C94.6977 236.776 94.6977 250.003 113.637 250.003C132.577 250.003 132.577 236.776 151.516 236.776C170.456 236.776 170.456 250.003 189.395 250.003C208.335 250.003 208.335 236.776 227.274 236.776C246.214 236.776 246.214 250.003 265.154 250.003C284.093 250.003 284.093 236.776 303.033 236.776C321.972 236.776 321.972 250.003 340.912 250.003C359.851 250.003 359.851 236.776 378.791 236.776C397.73 236.776 397.73 250.003 416.67 250.003C435.609 250.003 435.609 236.776 454.549 236.776C473.488 236.776 473.489 250.003 492.428 250.003C511.368 250.003 511.368 236.776 530.307 236.776C549.247 236.776 549.247 250.003 568.186 250.003C587.126 250.003 587.126 236.776 606.065 236.776C625.005 236.776 625.005 250.003 643.944 250.003C662.884 250.003 662.884 236.776 681.823 236.776C700.763 236.776 700.763 250.003 719.703 250.003C738.642 250.003 738.642 236.776 757.582 236.776C776.521 236.776 776.521 250.003 795.461 250.003C814.4 250.003 814.4 236.776 833.34 236.776C852.279 236.776 852.279 250.003 871.231 250.003C890.183 250.003 890.171 236.776 909.11 236.776C928.05 236.776 928.05 250.003 946.989 250.003C965.929 250.003 965.929 236.776 984.868 236.776C1003.81 236.776 1003.81 250.003 1022.75 250.003C1041.69 250.003 1041.69 236.776 1060.63 236.776C1079.57 236.776 1079.57 250.003 1098.52 250.003C1117.47 250.003 1117.46 236.776 1136.4 236.776C1155.34 236.776 1155.34 250.003 1174.28 250.003C1193.22 250.003 1193.22 236.776 1212.16 236.776C1231.09 236.776 1231.09 250.003 1250.05 250.003C1269 250.003 1268.99 236.776 1287.94 236.776C1306.89 236.776 1306.88 250.003 1325.83 250.003C1344.78 250.003 1344.77 236.776 1363.72 236.776C1382.67 236.776 1382.67 250.003 1401.61 250.003C1420.55 250.003 1420.56 236.776 1439.5 236.776M0 250.004C18.9395 250.004 18.9395 262.214 37.8791 262.214C56.8186 262.214 56.8186 250.004 75.7582 250.004C94.6977 250.004 94.6977 262.214 113.637 262.214C132.577 262.214 132.577 250.004 151.516 250.004C170.456 250.004 170.456 262.214 189.395 262.214C208.335 262.214 208.335 250.004 227.274 250.004C246.214 250.004 246.214 262.214 265.154 262.214C284.093 262.214 284.093 250.004 303.033 250.004C321.972 250.004 321.972 262.214 340.912 262.214C359.851 262.214 359.851 250.004 378.791 250.004C397.73 250.004 397.73 262.214 416.67 262.214C435.609 262.214 435.609 250.004 454.549 250.004C473.488 250.004 473.489 262.214 492.428 262.214C511.368 262.214 511.368 250.004 530.307 250.004C549.247 250.004 549.247 262.214 568.186 262.214C587.126 262.214 587.126 250.004 606.065 250.004C625.005 250.004 625.005 262.214 643.944 262.214C662.884 262.214 662.884 250.004 681.823 250.004C700.763 250.004 700.763 262.214 719.703 262.214C738.642 262.214 738.642 250.004 757.582 250.004C776.521 250.004 776.521 262.214 795.461 262.214C814.4 262.214 814.4 250.004 833.34 250.004C852.279 250.004 852.279 262.214 871.231 262.214C890.183 262.214 890.171 250.004 909.11 250.004C928.05 250.004 928.05 262.214 946.989 262.214C965.929 262.214 965.929 250.004 984.868 250.004C1003.81 250.004 1003.81 262.214 1022.75 262.214C1041.69 262.214 1041.69 250.004 1060.63 250.004C1079.57 250.004 1079.57 262.214 1098.52 262.214C1117.47 262.214 1117.46 250.004 1136.4 250.004C1155.34 250.004 1155.34 262.214 1174.28 262.214C1193.22 262.214 1193.22 250.004 1212.16 250.004C1231.09 250.004 1231.09 262.214 1250.05 262.214C1269 262.214 1268.99 250.004 1287.94 250.004C1306.89 250.004 1306.88 262.214 1325.83 262.214C1344.78 262.214 1344.77 250.004 1363.72 250.004C1382.67 250.004 1382.67 262.214 1401.61 262.214C1420.55 262.214 1420.56 250.004 1439.5 250.004M0 262.214C18.9395 262.214 18.9395 275.441 37.8791 275.441C56.8186 275.441 56.8186 262.214 75.7582 262.214C94.6977 262.214 94.6977 275.441 113.637 275.441C132.577 275.441 132.577 262.214 151.516 262.214C170.456 262.214 170.456 275.441 189.395 275.441C208.335 275.441 208.335 262.214 227.274 262.214C246.214 262.214 246.214 275.441 265.154 275.441C284.093 275.441 284.093 262.214 303.033 262.214C321.972 262.214 321.972 275.441 340.912 275.441C359.851 275.441 359.851 262.214 378.791 262.214C397.73 262.214 397.73 275.441 416.67 275.441C435.609 275.441 435.609 262.214 454.549 262.214C473.488 262.214 473.489 275.441 492.428 275.441C511.368 275.441 511.368 262.214 530.307 262.214C549.247 262.214 549.247 275.441 568.186 275.441C587.126 275.441 587.126 262.214 606.065 262.214C625.005 262.214 625.005 275.441 643.944 275.441C662.884 275.441 662.884 262.214 681.823 262.214C700.763 262.214 700.763 275.441 719.703 275.441C738.642 275.441 738.642 262.214 757.582 262.214C776.521 262.214 776.521 275.441 795.461 275.441C814.4 275.441 814.4 262.214 833.34 262.214C852.279 262.214 852.279 275.441 871.231 275.441C890.183 275.441 890.171 262.214 909.11 262.214C928.05 262.214 928.05 275.441 946.989 275.441C965.929 275.441 965.929 262.214 984.868 262.214C1003.81 262.214 1003.81 275.441 1022.75 275.441C1041.69 275.441 1041.69 262.214 1060.63 262.214C1079.57 262.214 1079.57 275.441 1098.52 275.441C1117.47 275.441 1117.46 262.214 1136.4 262.214C1155.34 262.214 1155.34 275.441 1174.28 275.441C1193.22 275.441 1193.22 262.214 1212.16 262.214C1231.09 262.214 1231.09 275.441 1250.05 275.441C1269 275.441 1268.99 262.214 1287.94 262.214C1306.89 262.214 1306.88 275.441 1325.83 275.441C1344.78 275.441 1344.77 262.214 1363.72 262.214C1382.67 262.214 1382.67 275.441 1401.61 275.441C1420.55 275.441 1420.56 262.214 1439.5 262.214M0 274.424C18.9395 274.424 18.9395 287.651 37.8791 287.651C56.8186 287.651 56.8186 274.424 75.7582 274.424C94.6977 274.424 94.6977 287.651 113.637 287.651C132.577 287.651 132.577 274.424 151.516 274.424C170.456 274.424 170.456 287.651 189.395 287.651C208.335 287.651 208.335 274.424 227.274 274.424C246.214 274.424 246.214 287.651 265.154 287.651C284.093 287.651 284.093 274.424 303.033 274.424C321.972 274.424 321.972 287.651 340.912 287.651C359.851 287.651 359.851 274.424 378.791 274.424C397.73 274.424 397.73 287.651 416.67 287.651C435.609 287.651 435.609 274.424 454.549 274.424C473.488 274.424 473.489 287.651 492.428 287.651C511.368 287.651 511.368 274.424 530.307 274.424C549.247 274.424 549.247 287.651 568.186 287.651C587.126 287.651 587.126 274.424 606.065 274.424C625.005 274.424 625.005 287.651 643.944 287.651C662.884 287.651 662.884 274.424 681.823 274.424C700.763 274.424 700.763 287.651 719.703 287.651C738.642 287.651 738.642 274.424 757.582 274.424C776.521 274.424 776.521 287.651 795.461 287.651C814.4 287.651 814.4 274.424 833.34 274.424C852.279 274.424 852.279 287.651 871.231 287.651C890.183 287.651 890.171 274.424 909.11 274.424C928.05 274.424 928.05 287.651 946.989 287.651C965.929 287.651 965.929 274.424 984.868 274.424C1003.81 274.424 1003.81 287.651 1022.75 287.651C1041.69 287.651 1041.69 274.424 1060.63 274.424C1079.57 274.424 1079.57 287.651 1098.52 287.651C1117.47 287.651 1117.46 274.424 1136.4 274.424C1155.34 274.424 1155.34 287.651 1174.28 287.651C1193.22 287.651 1193.22 274.424 1212.16 274.424C1231.09 274.424 1231.09 287.651 1250.05 287.651C1269 287.651 1268.99 274.424 1287.94 274.424C1306.89 274.424 1306.88 287.651 1325.83 287.651C1344.78 287.651 1344.77 274.424 1363.72 274.424C1382.67 274.424 1382.67 287.651 1401.61 287.651C1420.55 287.651 1420.56 274.424 1439.5 274.424M0 287.651C18.9395 287.651 18.9395 299.861 37.8791 299.861C56.8186 299.861 56.8186 287.651 75.7582 287.651C94.6977 287.651 94.6977 299.861 113.637 299.861C132.577 299.861 132.577 287.651 151.516 287.651C170.456 287.651 170.456 299.861 189.395 299.861C208.335 299.861 208.335 287.651 227.274 287.651C246.214 287.651 246.214 299.861 265.154 299.861C284.093 299.861 284.093 287.651 303.033 287.651C321.972 287.651 321.972 299.861 340.912 299.861C359.851 299.861 359.851 287.651 378.791 287.651C397.73 287.651 397.73 299.861 416.67 299.861C435.609 299.861 435.609 287.651 454.549 287.651C473.488 287.651 473.489 299.861 492.428 299.861C511.368 299.861 511.368 287.651 530.307 287.651C549.247 287.651 549.247 299.861 568.186 299.861C587.126 299.861 587.126 287.651 606.065 287.651C625.005 287.651 625.005 299.861 643.944 299.861C662.884 299.861 662.884 287.651 681.823 287.651C700.763 287.651 700.763 299.861 719.703 299.861C738.642 299.861 738.642 287.651 757.582 287.651C776.521 287.651 776.521 299.861 795.461 299.861C814.4 299.861 814.4 287.651 833.34 287.651C852.279 287.651 852.279 299.861 871.231 299.861C890.183 299.861 890.171 287.651 909.11 287.651C928.05 287.651 928.05 299.861 946.989 299.861C965.929 299.861 965.929 287.651 984.868 287.651C1003.81 287.651 1003.81 299.861 1022.75 299.861C1041.69 299.861 1041.69 287.651 1060.63 287.651C1079.57 287.651 1079.57 299.861 1098.52 299.861C1117.47 299.861 1117.46 287.651 1136.4 287.651C1155.34 287.651 1155.34 299.861 1174.28 299.861C1193.22 299.861 1193.22 287.651 1212.16 287.651C1231.09 287.651 1231.09 299.861 1250.05 299.861C1269 299.861 1268.99 287.651 1287.94 287.651C1306.89 287.651 1306.88 299.861 1325.83 299.861C1344.78 299.861 1344.77 287.651 1363.72 287.651C1382.67 287.651 1382.67 299.861 1401.61 299.861C1420.55 299.861 1420.56 287.651 1439.5 287.651M0 299.86C18.9395 299.86 18.9395 313.087 37.8791 313.087C56.8186 313.087 56.8186 299.86 75.7582 299.86C94.6977 299.86 94.6977 313.087 113.637 313.087C132.577 313.087 132.577 299.86 151.516 299.86C170.456 299.86 170.456 313.087 189.395 313.087C208.335 313.087 208.335 299.86 227.274 299.86C246.214 299.86 246.214 313.087 265.154 313.087C284.093 313.087 284.093 299.86 303.033 299.86C321.972 299.86 321.972 313.087 340.912 313.087C359.851 313.087 359.851 299.86 378.791 299.86C397.73 299.86 397.73 313.087 416.67 313.087C435.609 313.087 435.609 299.86 454.549 299.86C473.488 299.86 473.489 313.087 492.428 313.087C511.368 313.087 511.368 299.86 530.307 299.86C549.247 299.86 549.247 313.087 568.186 313.087C587.126 313.087 587.126 299.86 606.065 299.86C625.005 299.86 625.005 313.087 643.944 313.087C662.884 313.087 662.884 299.86 681.823 299.86C700.763 299.86 700.763 313.087 719.703 313.087C738.642 313.087 738.642 299.86 757.582 299.86C776.521 299.86 776.521 313.087 795.461 313.087C814.4 313.087 814.4 299.86 833.34 299.86C852.279 299.86 852.279 313.087 871.231 313.087C890.183 313.087 890.171 299.86 909.11 299.86C928.05 299.86 928.05 313.087 946.989 313.087C965.929 313.087 965.929 299.86 984.868 299.86C1003.81 299.86 1003.81 313.087 1022.75 313.087C1041.69 313.087 1041.69 299.86 1060.63 299.86C1079.57 299.86 1079.57 313.087 1098.52 313.087C1117.47 313.087 1117.46 299.86 1136.4 299.86C1155.34 299.86 1155.34 313.087 1174.28 313.087C1193.22 313.087 1193.22 299.86 1212.16 299.86C1231.09 299.86 1231.09 313.087 1250.05 313.087C1269 313.087 1268.99 299.86 1287.94 299.86C1306.89 299.86 1306.88 313.087 1325.83 313.087C1344.78 313.087 1344.77 299.86 1363.72 299.86C1382.67 299.86 1382.67 313.087 1401.61 313.087C1420.55 313.087 1420.56 299.86 1439.5 299.86M0 313.088C18.9395 313.088 18.9395 325.298 37.8791 325.298C56.8186 325.298 56.8186 313.088 75.7582 313.088C94.6977 313.088 94.6977 325.298 113.637 325.298C132.577 325.298 132.577 313.088 151.516 313.088C170.456 313.088 170.456 325.298 189.395 325.298C208.335 325.298 208.335 313.088 227.274 313.088C246.214 313.088 246.214 325.298 265.154 325.298C284.093 325.298 284.093 313.088 303.033 313.088C321.972 313.088 321.972 325.298 340.912 325.298C359.851 325.298 359.851 313.088 378.791 313.088C397.73 313.088 397.73 325.298 416.67 325.298C435.609 325.298 435.609 313.088 454.549 313.088C473.488 313.088 473.489 325.298 492.428 325.298C511.368 325.298 511.368 313.088 530.307 313.088C549.247 313.088 549.247 325.298 568.186 325.298C587.126 325.298 587.126 313.088 606.065 313.088C625.005 313.088 625.005 325.298 643.944 325.298C662.884 325.298 662.884 313.088 681.823 313.088C700.763 313.088 700.763 325.298 719.703 325.298C738.642 325.298 738.642 313.088 757.582 313.088C776.521 313.088 776.521 325.298 795.461 325.298C814.4 325.298 814.4 313.088 833.34 313.088C852.279 313.088 852.279 325.298 871.231 325.298C890.183 325.298 890.171 313.088 909.11 313.088C928.05 313.088 928.05 325.298 946.989 325.298C965.929 325.298 965.929 313.088 984.868 313.088C1003.81 313.088 1003.81 325.298 1022.75 325.298C1041.69 325.298 1041.69 313.088 1060.63 313.088C1079.57 313.088 1079.57 325.298 1098.52 325.298C1117.47 325.298 1117.46 313.088 1136.4 313.088C1155.34 313.088 1155.34 325.298 1174.28 325.298C1193.22 325.298 1193.22 313.088 1212.16 313.088C1231.09 313.088 1231.09 325.298 1250.05 325.298C1269 325.298 1268.99 313.088 1287.94 313.088C1306.89 313.088 1306.88 325.298 1325.83 325.298C1344.78 325.298 1344.77 313.088 1363.72 313.088C1382.67 313.088 1382.67 325.298 1401.61 325.298C1420.55 325.298 1420.56 313.088 1439.5 313.088M0 325.298C18.9395 325.298 18.9395 338.525 37.8791 338.525C56.8186 338.525 56.8186 325.298 75.7582 325.298C94.6977 325.298 94.6977 338.525 113.637 338.525C132.577 338.525 132.577 325.298 151.516 325.298C170.456 325.298 170.456 338.525 189.395 338.525C208.335 338.525 208.335 325.298 227.274 325.298C246.214 325.298 246.214 338.525 265.154 338.525C284.093 338.525 284.093 325.298 303.033 325.298C321.972 325.298 321.972 338.525 340.912 338.525C359.851 338.525 359.851 325.298 378.791 325.298C397.73 325.298 397.73 338.525 416.67 338.525C435.609 338.525 435.609 325.298 454.549 325.298C473.488 325.298 473.489 338.525 492.428 338.525C511.368 338.525 511.368 325.298 530.307 325.298C549.247 325.298 549.247 338.525 568.186 338.525C587.126 338.525 587.126 325.298 606.065 325.298C625.005 325.298 625.005 338.525 643.944 338.525C662.884 338.525 662.884 325.298 681.823 325.298C700.763 325.298 700.763 338.525 719.703 338.525C738.642 338.525 738.642 325.298 757.582 325.298C776.521 325.298 776.521 338.525 795.461 338.525C814.4 338.525 814.4 325.298 833.34 325.298C852.279 325.298 852.279 338.525 871.231 338.525C890.183 338.525 890.171 325.298 909.11 325.298C928.05 325.298 928.05 338.525 946.989 338.525C965.929 338.525 965.929 325.298 984.868 325.298C1003.81 325.298 1003.81 338.525 1022.75 338.525C1041.69 338.525 1041.69 325.298 1060.63 325.298C1079.57 325.298 1079.57 338.525 1098.52 338.525C1117.47 338.525 1117.46 325.298 1136.4 325.298C1155.34 325.298 1155.34 338.525 1174.28 338.525C1193.22 338.525 1193.22 325.298 1212.16 325.298C1231.09 325.298 1231.09 338.525 1250.05 338.525C1269 338.525 1268.99 325.298 1287.94 325.298C1306.89 325.298 1306.88 338.525 1325.83 338.525C1344.78 338.525 1344.77 325.298 1363.72 325.298C1382.67 325.298 1382.67 338.525 1401.61 338.525C1420.55 338.525 1420.56 325.298 1439.5 325.298M0 338.526C18.9395 338.526 18.9395 350.736 37.8791 350.736C56.8186 350.736 56.8186 338.526 75.7582 338.526C94.6977 338.526 94.6977 350.736 113.637 350.736C132.577 350.736 132.577 338.526 151.516 338.526C170.456 338.526 170.456 350.736 189.395 350.736C208.335 350.736 208.335 338.526 227.274 338.526C246.214 338.526 246.214 350.736 265.154 350.736C284.093 350.736 284.093 338.526 303.033 338.526C321.972 338.526 321.972 350.736 340.912 350.736C359.851 350.736 359.851 338.526 378.791 338.526C397.73 338.526 397.73 350.736 416.67 350.736C435.609 350.736 435.609 338.526 454.549 338.526C473.488 338.526 473.489 350.736 492.428 350.736C511.368 350.736 511.368 338.526 530.307 338.526C549.247 338.526 549.247 350.736 568.186 350.736C587.126 350.736 587.126 338.526 606.065 338.526C625.005 338.526 625.005 350.736 643.944 350.736C662.884 350.736 662.884 338.526 681.823 338.526C700.763 338.526 700.763 350.736 719.703 350.736C738.642 350.736 738.642 338.526 757.582 338.526C776.521 338.526 776.521 350.736 795.461 350.736C814.4 350.736 814.4 338.526 833.34 338.526C852.279 338.526 852.279 350.736 871.231 350.736C890.183 350.736 890.171 338.526 909.11 338.526C928.05 338.526 928.05 350.736 946.989 350.736C965.929 350.736 965.929 338.526 984.868 338.526C1003.81 338.526 1003.81 350.736 1022.75 350.736C1041.69 350.736 1041.69 338.526 1060.63 338.526C1079.57 338.526 1079.57 350.736 1098.52 350.736C1117.47 350.736 1117.46 338.526 1136.4 338.526C1155.34 338.526 1155.34 350.736 1174.28 350.736C1193.22 350.736 1193.22 338.526 1212.16 338.526C1231.09 338.526 1231.09 350.736 1250.05 350.736C1269 350.736 1268.99 338.526 1287.94 338.526C1306.89 338.526 1306.88 350.736 1325.83 350.736C1344.78 350.736 1344.77 338.526 1363.72 338.526C1382.67 338.526 1382.67 350.736 1401.61 350.736C1420.55 350.736 1420.56 338.526 1439.5 338.526M0 350.736C18.9395 350.736 18.9395 362.946 37.8791 362.946C56.8186 362.946 56.8186 350.736 75.7582 350.736C94.6977 350.736 94.6977 362.946 113.637 362.946C132.577 362.946 132.577 350.736 151.516 350.736C170.456 350.736 170.456 362.946 189.395 362.946C208.335 362.946 208.335 350.736 227.274 350.736C246.214 350.736 246.214 362.946 265.154 362.946C284.093 362.946 284.093 350.736 303.033 350.736C321.972 350.736 321.972 362.946 340.912 362.946C359.851 362.946 359.851 350.736 378.791 350.736C397.73 350.736 397.73 362.946 416.67 362.946C435.609 362.946 435.609 350.736 454.549 350.736C473.488 350.736 473.489 362.946 492.428 362.946C511.368 362.946 511.368 350.736 530.307 350.736C549.247 350.736 549.247 362.946 568.186 362.946C587.126 362.946 587.126 350.736 606.065 350.736C625.005 350.736 625.005 362.946 643.944 362.946C662.884 362.946 662.884 350.736 681.823 350.736C700.763 350.736 700.763 362.946 719.703 362.946C738.642 362.946 738.642 350.736 757.582 350.736C776.521 350.736 776.521 362.946 795.461 362.946C814.4 362.946 814.4 350.736 833.34 350.736C852.279 350.736 852.279 362.946 871.231 362.946C890.183 362.946 890.171 350.736 909.11 350.736C928.05 350.736 928.05 362.946 946.989 362.946C965.929 362.946 965.929 350.736 984.868 350.736C1003.81 350.736 1003.81 362.946 1022.75 362.946C1041.69 362.946 1041.69 350.736 1060.63 350.736C1079.57 350.736 1079.57 362.946 1098.52 362.946C1117.47 362.946 1117.46 350.736 1136.4 350.736C1155.34 350.736 1155.34 362.946 1174.28 362.946C1193.22 362.946 1193.22 350.736 1212.16 350.736C1231.09 350.736 1231.09 362.946 1250.05 362.946C1269 362.946 1268.99 350.736 1287.94 350.736C1306.89 350.736 1306.88 362.946 1325.83 362.946C1344.78 362.946 1344.77 350.736 1363.72 350.736C1382.67 350.736 1382.67 362.946 1401.61 362.946C1420.55 362.946 1420.56 350.736 1439.5 350.736M0 362.945C18.9395 362.945 18.9395 376.172 37.8791 376.172C56.8186 376.172 56.8186 362.945 75.7582 362.945C94.6977 362.945 94.6977 376.172 113.637 376.172C132.577 376.172 132.577 362.945 151.516 362.945C170.456 362.945 170.456 376.172 189.395 376.172C208.335 376.172 208.335 362.945 227.274 362.945C246.214 362.945 246.214 376.172 265.154 376.172C284.093 376.172 284.093 362.945 303.033 362.945C321.972 362.945 321.972 376.172 340.912 376.172C359.851 376.172 359.851 362.945 378.791 362.945C397.73 362.945 397.73 376.172 416.67 376.172C435.609 376.172 435.609 362.945 454.549 362.945C473.488 362.945 473.489 376.172 492.428 376.172C511.368 376.172 511.368 362.945 530.307 362.945C549.247 362.945 549.247 376.172 568.186 376.172C587.126 376.172 587.126 362.945 606.065 362.945C625.005 362.945 625.005 376.172 643.944 376.172C662.884 376.172 662.884 362.945 681.823 362.945C700.763 362.945 700.763 376.172 719.703 376.172C738.642 376.172 738.642 362.945 757.582 362.945C776.521 362.945 776.521 376.172 795.461 376.172C814.4 376.172 814.4 362.945 833.34 362.945C852.279 362.945 852.279 376.172 871.231 376.172C890.183 376.172 890.171 362.945 909.11 362.945C928.05 362.945 928.05 376.172 946.989 376.172C965.929 376.172 965.929 362.945 984.868 362.945C1003.81 362.945 1003.81 376.172 1022.75 376.172C1041.69 376.172 1041.69 362.945 1060.63 362.945C1079.57 362.945 1079.57 376.172 1098.52 376.172C1117.47 376.172 1117.46 362.945 1136.4 362.945C1155.34 362.945 1155.34 376.172 1174.28 376.172C1193.22 376.172 1193.22 362.945 1212.16 362.945C1231.09 362.945 1231.09 376.172 1250.05 376.172C1269 376.172 1268.99 362.945 1287.94 362.945C1306.89 362.945 1306.88 376.172 1325.83 376.172C1344.78 376.172 1344.77 362.945 1363.72 362.945C1382.67 362.945 1382.67 376.172 1401.61 376.172C1420.55 376.172 1420.56 362.945 1439.5 362.945M0 376.172C18.9395 376.172 18.9395 388.382 37.8791 388.382C56.8186 388.382 56.8186 376.172 75.7582 376.172C94.6977 376.172 94.6977 388.382 113.637 388.382C132.577 388.382 132.577 376.172 151.516 376.172C170.456 376.172 170.456 388.382 189.395 388.382C208.335 388.382 208.335 376.172 227.274 376.172C246.214 376.172 246.214 388.382 265.154 388.382C284.093 388.382 284.093 376.172 303.033 376.172C321.972 376.172 321.972 388.382 340.912 388.382C359.851 388.382 359.851 376.172 378.791 376.172C397.73 376.172 397.73 388.382 416.67 388.382C435.609 388.382 435.609 376.172 454.549 376.172C473.488 376.172 473.489 388.382 492.428 388.382C511.368 388.382 511.368 376.172 530.307 376.172C549.247 376.172 549.247 388.382 568.186 388.382C587.126 388.382 587.126 376.172 606.065 376.172C625.005 376.172 625.005 388.382 643.944 388.382C662.884 388.382 662.884 376.172 681.823 376.172C700.763 376.172 700.763 388.382 719.703 388.382C738.642 388.382 738.642 376.172 757.582 376.172C776.521 376.172 776.521 388.382 795.461 388.382C814.4 388.382 814.4 376.172 833.34 376.172C852.279 376.172 852.279 388.382 871.231 388.382C890.183 388.382 890.171 376.172 909.11 376.172C928.05 376.172 928.05 388.382 946.989 388.382C965.929 388.382 965.929 376.172 984.868 376.172C1003.81 376.172 1003.81 388.382 1022.75 388.382C1041.69 388.382 1041.69 376.172 1060.63 376.172C1079.57 376.172 1079.57 388.382 1098.52 388.382C1117.47 388.382 1117.46 376.172 1136.4 376.172C1155.34 376.172 1155.34 388.382 1174.28 388.382C1193.22 388.382 1193.22 376.172 1212.16 376.172C1231.09 376.172 1231.09 388.382 1250.05 388.382C1269 388.382 1268.99 376.172 1287.94 376.172C1306.89 376.172 1306.88 388.382 1325.83 388.382C1344.78 388.382 1344.77 376.172 1363.72 376.172C1382.67 376.172 1382.67 388.382 1401.61 388.382C1420.55 388.382 1420.56 376.172 1439.5 376.172M0 388.382C18.9395 388.382 18.9395 401.609 37.8791 401.609C56.8186 401.609 56.8186 388.382 75.7582 388.382C94.6977 388.382 94.6977 401.609 113.637 401.609C132.577 401.609 132.577 388.382 151.516 388.382C170.456 388.382 170.456 401.609 189.395 401.609C208.335 401.609 208.335 388.382 227.274 388.382C246.214 388.382 246.214 401.609 265.154 401.609C284.093 401.609 284.093 388.382 303.033 388.382C321.972 388.382 321.972 401.609 340.912 401.609C359.851 401.609 359.851 388.382 378.791 388.382C397.73 388.382 397.73 401.609 416.67 401.609C435.609 401.609 435.609 388.382 454.549 388.382C473.488 388.382 473.489 401.609 492.428 401.609C511.368 401.609 511.368 388.382 530.307 388.382C549.247 388.382 549.247 401.609 568.186 401.609C587.126 401.609 587.126 388.382 606.065 388.382C625.005 388.382 625.005 401.609 643.944 401.609C662.884 401.609 662.884 388.382 681.823 388.382C700.763 388.382 700.763 401.609 719.703 401.609C738.642 401.609 738.642 388.382 757.582 388.382C776.521 388.382 776.521 401.609 795.461 401.609C814.4 401.609 814.4 388.382 833.34 388.382C852.279 388.382 852.279 401.609 871.231 401.609C890.183 401.609 890.171 388.382 909.11 388.382C928.05 388.382 928.05 401.609 946.989 401.609C965.929 401.609 965.929 388.382 984.868 388.382C1003.81 388.382 1003.81 401.609 1022.75 401.609C1041.69 401.609 1041.69 388.382 1060.63 388.382C1079.57 388.382 1079.57 401.609 1098.52 401.609C1117.47 401.609 1117.46 388.382 1136.4 388.382C1155.34 388.382 1155.34 401.609 1174.28 401.609C1193.22 401.609 1193.22 388.382 1212.16 388.382C1231.09 388.382 1231.09 401.609 1250.05 401.609C1269 401.609 1268.99 388.382 1287.94 388.382C1306.89 388.382 1306.88 401.609 1325.83 401.609C1344.78 401.609 1344.77 388.382 1363.72 388.382C1382.67 388.382 1382.67 401.609 1401.61 401.609C1420.55 401.609 1420.56 388.382 1439.5 388.382M0 401.61C18.9395 401.61 18.9395 413.819 37.8791 413.819C56.8186 413.819 56.8186 401.61 75.7582 401.61C94.6977 401.61 94.6977 413.819 113.637 413.819C132.577 413.819 132.577 401.61 151.516 401.61C170.456 401.61 170.456 413.819 189.395 413.819C208.335 413.819 208.335 401.61 227.274 401.61C246.214 401.61 246.214 413.819 265.154 413.819C284.093 413.819 284.093 401.61 303.033 401.61C321.972 401.61 321.972 413.819 340.912 413.819C359.851 413.819 359.851 401.61 378.791 401.61C397.73 401.61 397.73 413.819 416.67 413.819C435.609 413.819 435.609 401.61 454.549 401.61C473.488 401.61 473.489 413.819 492.428 413.819C511.368 413.819 511.368 401.61 530.307 401.61C549.247 401.61 549.247 413.819 568.186 413.819C587.126 413.819 587.126 401.61 606.065 401.61C625.005 401.61 625.005 413.819 643.944 413.819C662.884 413.819 662.884 401.61 681.823 401.61C700.763 401.61 700.763 413.819 719.703 413.819C738.642 413.819 738.642 401.61 757.582 401.61C776.521 401.61 776.521 413.819 795.461 413.819C814.4 413.819 814.4 401.61 833.34 401.61C852.279 401.61 852.279 413.819 871.231 413.819C890.183 413.819 890.171 401.61 909.11 401.61C928.05 401.61 928.05 413.819 946.989 413.819C965.929 413.819 965.929 401.61 984.868 401.61C1003.81 401.61 1003.81 413.819 1022.75 413.819C1041.69 413.819 1041.69 401.61 1060.63 401.61C1079.57 401.61 1079.57 413.819 1098.52 413.819C1117.47 413.819 1117.46 401.61 1136.4 401.61C1155.34 401.61 1155.34 413.819 1174.28 413.819C1193.22 413.819 1193.22 401.61 1212.16 401.61C1231.09 401.61 1231.09 413.819 1250.05 413.819C1269 413.819 1268.99 401.61 1287.94 401.61C1306.89 401.61 1306.88 413.819 1325.83 413.819C1344.78 413.819 1344.77 401.61 1363.72 401.61C1382.67 401.61 1382.67 413.819 1401.61 413.819C1420.55 413.819 1420.56 401.61 1439.5 401.61M0 413.82C18.9395 413.82 18.9395 427.047 37.8791 427.047C56.8186 427.047 56.8186 413.82 75.7582 413.82C94.6977 413.82 94.6977 427.047 113.637 427.047C132.577 427.047 132.577 413.82 151.516 413.82C170.456 413.82 170.456 427.047 189.395 427.047C208.335 427.047 208.335 413.82 227.274 413.82C246.214 413.82 246.214 427.047 265.154 427.047C284.093 427.047 284.093 413.82 303.033 413.82C321.972 413.82 321.972 427.047 340.912 427.047C359.851 427.047 359.851 413.82 378.791 413.82C397.73 413.82 397.73 427.047 416.67 427.047C435.609 427.047 435.609 413.82 454.549 413.82C473.488 413.82 473.489 427.047 492.428 427.047C511.368 427.047 511.368 413.82 530.307 413.82C549.247 413.82 549.247 427.047 568.186 427.047C587.126 427.047 587.126 413.82 606.065 413.82C625.005 413.82 625.005 427.047 643.944 427.047C662.884 427.047 662.884 413.82 681.823 413.82C700.763 413.82 700.763 427.047 719.703 427.047C738.642 427.047 738.642 413.82 757.582 413.82C776.521 413.82 776.521 427.047 795.461 427.047C814.4 427.047 814.4 413.82 833.34 413.82C852.279 413.82 852.279 427.047 871.231 427.047C890.183 427.047 890.171 413.82 909.11 413.82C928.05 413.82 928.05 427.047 946.989 427.047C965.929 427.047 965.929 413.82 984.868 413.82C1003.81 413.82 1003.81 427.047 1022.75 427.047C1041.69 427.047 1041.69 413.82 1060.63 413.82C1079.57 413.82 1079.57 427.047 1098.52 427.047C1117.47 427.047 1117.46 413.82 1136.4 413.82C1155.34 413.82 1155.34 427.047 1174.28 427.047C1193.22 427.047 1193.22 413.82 1212.16 413.82C1231.09 413.82 1231.09 427.047 1250.05 427.047C1269 427.047 1268.99 413.82 1287.94 413.82C1306.89 413.82 1306.88 427.047 1325.83 427.047C1344.78 427.047 1344.77 413.82 1363.72 413.82C1382.67 413.82 1382.67 427.047 1401.61 427.047C1420.55 427.047 1420.56 413.82 1439.5 413.82M0 426.029C18.9395 426.029 18.9395 439.256 37.8791 439.256C56.8186 439.256 56.8186 426.029 75.7582 426.029C94.6977 426.029 94.6977 439.256 113.637 439.256C132.577 439.256 132.577 426.029 151.516 426.029C170.456 426.029 170.456 439.256 189.395 439.256C208.335 439.256 208.335 426.029 227.274 426.029C246.214 426.029 246.214 439.256 265.154 439.256C284.093 439.256 284.093 426.029 303.033 426.029C321.972 426.029 321.972 439.256 340.912 439.256C359.851 439.256 359.851 426.029 378.791 426.029C397.73 426.029 397.73 439.256 416.67 439.256C435.609 439.256 435.609 426.029 454.549 426.029C473.488 426.029 473.489 439.256 492.428 439.256C511.368 439.256 511.368 426.029 530.307 426.029C549.247 426.029 549.247 439.256 568.186 439.256C587.126 439.256 587.126 426.029 606.065 426.029C625.005 426.029 625.005 439.256 643.944 439.256C662.884 439.256 662.884 426.029 681.823 426.029C700.763 426.029 700.763 439.256 719.703 439.256C738.642 439.256 738.642 426.029 757.582 426.029C776.521 426.029 776.521 439.256 795.461 439.256C814.4 439.256 814.4 426.029 833.34 426.029C852.279 426.029 852.279 439.256 871.231 439.256C890.183 439.256 890.171 426.029 909.11 426.029C928.05 426.029 928.05 439.256 946.989 439.256C965.929 439.256 965.929 426.029 984.868 426.029C1003.81 426.029 1003.81 439.256 1022.75 439.256C1041.69 439.256 1041.69 426.029 1060.63 426.029C1079.57 426.029 1079.57 439.256 1098.52 439.256C1117.47 439.256 1117.46 426.029 1136.4 426.029C1155.34 426.029 1155.34 439.256 1174.28 439.256C1193.22 439.256 1193.22 426.029 1212.16 426.029C1231.09 426.029 1231.09 439.256 1250.05 439.256C1269 439.256 1268.99 426.029 1287.94 426.029C1306.89 426.029 1306.88 439.256 1325.83 439.256C1344.78 439.256 1344.77 426.029 1363.72 426.029C1382.67 426.029 1382.67 439.256 1401.61 439.256C1420.55 439.256 1420.56 426.029 1439.5 426.029M0 439.256C18.9395 439.256 18.9395 451.466 37.8791 451.466C56.8186 451.466 56.8186 439.256 75.7582 439.256C94.6977 439.256 94.6977 451.466 113.637 451.466C132.577 451.466 132.577 439.256 151.516 439.256C170.456 439.256 170.456 451.466 189.395 451.466C208.335 451.466 208.335 439.256 227.274 439.256C246.214 439.256 246.214 451.466 265.154 451.466C284.093 451.466 284.093 439.256 303.033 439.256C321.972 439.256 321.972 451.466 340.912 451.466C359.851 451.466 359.851 439.256 378.791 439.256C397.73 439.256 397.73 451.466 416.67 451.466C435.609 451.466 435.609 439.256 454.549 439.256C473.488 439.256 473.489 451.466 492.428 451.466C511.368 451.466 511.368 439.256 530.307 439.256C549.247 439.256 549.247 451.466 568.186 451.466C587.126 451.466 587.126 439.256 606.065 439.256C625.005 439.256 625.005 451.466 643.944 451.466C662.884 451.466 662.884 439.256 681.823 439.256C700.763 439.256 700.763 451.466 719.703 451.466C738.642 451.466 738.642 439.256 757.582 439.256C776.521 439.256 776.521 451.466 795.461 451.466C814.4 451.466 814.4 439.256 833.34 439.256C852.279 439.256 852.279 451.466 871.231 451.466C890.183 451.466 890.171 439.256 909.11 439.256C928.05 439.256 928.05 451.466 946.989 451.466C965.929 451.466 965.929 439.256 984.868 439.256C1003.81 439.256 1003.81 451.466 1022.75 451.466C1041.69 451.466 1041.69 439.256 1060.63 439.256C1079.57 439.256 1079.57 451.466 1098.52 451.466C1117.47 451.466 1117.46 439.256 1136.4 439.256C1155.34 439.256 1155.34 451.466 1174.28 451.466C1193.22 451.466 1193.22 439.256 1212.16 439.256C1231.09 439.256 1231.09 451.466 1250.05 451.466C1269 451.466 1268.99 439.256 1287.94 439.256C1306.89 439.256 1306.88 451.466 1325.83 451.466C1344.78 451.466 1344.77 439.256 1363.72 439.256C1382.67 439.256 1382.67 451.466 1401.61 451.466C1420.55 451.466 1420.56 439.256 1439.5 439.256M0 451.466C18.9395 451.466 18.9395 464.693 37.8791 464.693C56.8186 464.693 56.8186 451.466 75.7582 451.466C94.6977 451.466 94.6977 464.693 113.637 464.693C132.577 464.693 132.577 451.466 151.516 451.466C170.456 451.466 170.456 464.693 189.395 464.693C208.335 464.693 208.335 451.466 227.274 451.466C246.214 451.466 246.214 464.693 265.154 464.693C284.093 464.693 284.093 451.466 303.033 451.466C321.972 451.466 321.972 464.693 340.912 464.693C359.851 464.693 359.851 451.466 378.791 451.466C397.73 451.466 397.73 464.693 416.67 464.693C435.609 464.693 435.609 451.466 454.549 451.466C473.488 451.466 473.489 464.693 492.428 464.693C511.368 464.693 511.368 451.466 530.307 451.466C549.247 451.466 549.247 464.693 568.186 464.693C587.126 464.693 587.126 451.466 606.065 451.466C625.005 451.466 625.005 464.693 643.944 464.693C662.884 464.693 662.884 451.466 681.823 451.466C700.763 451.466 700.763 464.693 719.703 464.693C738.642 464.693 738.642 451.466 757.582 451.466C776.521 451.466 776.521 464.693 795.461 464.693C814.4 464.693 814.4 451.466 833.34 451.466C852.279 451.466 852.279 464.693 871.231 464.693C890.183 464.693 890.171 451.466 909.11 451.466C928.05 451.466 928.05 464.693 946.989 464.693C965.929 464.693 965.929 451.466 984.868 451.466C1003.81 451.466 1003.81 464.693 1022.75 464.693C1041.69 464.693 1041.69 451.466 1060.63 451.466C1079.57 451.466 1079.57 464.693 1098.52 464.693C1117.47 464.693 1117.46 451.466 1136.4 451.466C1155.34 451.466 1155.34 464.693 1174.28 464.693C1193.22 464.693 1193.22 451.466 1212.16 451.466C1231.09 451.466 1231.09 464.693 1250.05 464.693C1269 464.693 1268.99 451.466 1287.94 451.466C1306.89 451.466 1306.88 464.693 1325.83 464.693C1344.78 464.693 1344.77 451.466 1363.72 451.466C1382.67 451.466 1382.67 464.693 1401.61 464.693C1420.55 464.693 1420.56 451.466 1439.5 451.466M0 464.694C18.9395 464.694 18.9395 476.904 37.8791 476.904C56.8186 476.904 56.8186 464.694 75.7582 464.694C94.6977 464.694 94.6977 476.904 113.637 476.904C132.577 476.904 132.577 464.694 151.516 464.694C170.456 464.694 170.456 476.904 189.395 476.904C208.335 476.904 208.335 464.694 227.274 464.694C246.214 464.694 246.214 476.904 265.154 476.904C284.093 476.904 284.093 464.694 303.033 464.694C321.972 464.694 321.972 476.904 340.912 476.904C359.851 476.904 359.851 464.694 378.791 464.694C397.73 464.694 397.73 476.904 416.67 476.904C435.609 476.904 435.609 464.694 454.549 464.694C473.488 464.694 473.489 476.904 492.428 476.904C511.368 476.904 511.368 464.694 530.307 464.694C549.247 464.694 549.247 476.904 568.186 476.904C587.126 476.904 587.126 464.694 606.065 464.694C625.005 464.694 625.005 476.904 643.944 476.904C662.884 476.904 662.884 464.694 681.823 464.694C700.763 464.694 700.763 476.904 719.703 476.904C738.642 476.904 738.642 464.694 757.582 464.694C776.521 464.694 776.521 476.904 795.461 476.904C814.4 476.904 814.4 464.694 833.34 464.694C852.279 464.694 852.279 476.904 871.231 476.904C890.183 476.904 890.171 464.694 909.11 464.694C928.05 464.694 928.05 476.904 946.989 476.904C965.929 476.904 965.929 464.694 984.868 464.694C1003.81 464.694 1003.81 476.904 1022.75 476.904C1041.69 476.904 1041.69 464.694 1060.63 464.694C1079.57 464.694 1079.57 476.904 1098.52 476.904C1117.47 476.904 1117.46 464.694 1136.4 464.694C1155.34 464.694 1155.34 476.904 1174.28 476.904C1193.22 476.904 1193.22 464.694 1212.16 464.694C1231.09 464.694 1231.09 476.904 1250.05 476.904C1269 476.904 1268.99 464.694 1287.94 464.694C1306.89 464.694 1306.88 476.904 1325.83 476.904C1344.78 476.904 1344.77 464.694 1363.72 464.694C1382.67 464.694 1382.67 476.904 1401.61 476.904C1420.55 476.904 1420.56 464.694 1439.5 464.694M0 476.904C18.9395 476.904 18.9395 490.131 37.8791 490.131C56.8186 490.131 56.8186 476.904 75.7582 476.904C94.6977 476.904 94.6977 490.131 113.637 490.131C132.577 490.131 132.577 476.904 151.516 476.904C170.456 476.904 170.456 490.131 189.395 490.131C208.335 490.131 208.335 476.904 227.274 476.904C246.214 476.904 246.214 490.131 265.154 490.131C284.093 490.131 284.093 476.904 303.033 476.904C321.972 476.904 321.972 490.131 340.912 490.131C359.851 490.131 359.851 476.904 378.791 476.904C397.73 476.904 397.73 490.131 416.67 490.131C435.609 490.131 435.609 476.904 454.549 476.904C473.488 476.904 473.489 490.131 492.428 490.131C511.368 490.131 511.368 476.904 530.307 476.904C549.247 476.904 549.247 490.131 568.186 490.131C587.126 490.131 587.126 476.904 606.065 476.904C625.005 476.904 625.005 490.131 643.944 490.131C662.884 490.131 662.884 476.904 681.823 476.904C700.763 476.904 700.763 490.131 719.703 490.131C738.642 490.131 738.642 476.904 757.582 476.904C776.521 476.904 776.521 490.131 795.461 490.131C814.4 490.131 814.4 476.904 833.34 476.904C852.279 476.904 852.279 490.131 871.231 490.131C890.183 490.131 890.171 476.904 909.11 476.904C928.05 476.904 928.05 490.131 946.989 490.131C965.929 490.131 965.929 476.904 984.868 476.904C1003.81 476.904 1003.81 490.131 1022.75 490.131C1041.69 490.131 1041.69 476.904 1060.63 476.904C1079.57 476.904 1079.57 490.131 1098.52 490.131C1117.47 490.131 1117.46 476.904 1136.4 476.904C1155.34 476.904 1155.34 490.131 1174.28 490.131C1193.22 490.131 1193.22 476.904 1212.16 476.904C1231.09 476.904 1231.09 490.131 1250.05 490.131C1269 490.131 1268.99 476.904 1287.94 476.904C1306.89 476.904 1306.88 490.131 1325.83 490.131C1344.78 490.131 1344.77 476.904 1363.72 476.904C1382.67 476.904 1382.67 490.131 1401.61 490.131C1420.55 490.131 1420.56 476.904 1439.5 476.904M0 490.132C18.9395 490.132 18.9395 502.341 37.8791 502.341C56.8186 502.341 56.8186 490.132 75.7582 490.132C94.6977 490.132 94.6977 502.341 113.637 502.341C132.577 502.341 132.577 490.132 151.516 490.132C170.456 490.132 170.456 502.341 189.395 502.341C208.335 502.341 208.335 490.132 227.274 490.132C246.214 490.132 246.214 502.341 265.154 502.341C284.093 502.341 284.093 490.132 303.033 490.132C321.972 490.132 321.972 502.341 340.912 502.341C359.851 502.341 359.851 490.132 378.791 490.132C397.73 490.132 397.73 502.341 416.67 502.341C435.609 502.341 435.609 490.132 454.549 490.132C473.488 490.132 473.489 502.341 492.428 502.341C511.368 502.341 511.368 490.132 530.307 490.132C549.247 490.132 549.247 502.341 568.186 502.341C587.126 502.341 587.126 490.132 606.065 490.132C625.005 490.132 625.005 502.341 643.944 502.341C662.884 502.341 662.884 490.132 681.823 490.132C700.763 490.132 700.763 502.341 719.703 502.341C738.642 502.341 738.642 490.132 757.582 490.132C776.521 490.132 776.521 502.341 795.461 502.341C814.4 502.341 814.4 490.132 833.34 490.132C852.279 490.132 852.279 502.341 871.231 502.341C890.183 502.341 890.171 490.132 909.11 490.132C928.05 490.132 928.05 502.341 946.989 502.341C965.929 502.341 965.929 490.132 984.868 490.132C1003.81 490.132 1003.81 502.341 1022.75 502.341C1041.69 502.341 1041.69 490.132 1060.63 490.132C1079.57 490.132 1079.57 502.341 1098.52 502.341C1117.47 502.341 1117.46 490.132 1136.4 490.132C1155.34 490.132 1155.34 502.341 1174.28 502.341C1193.22 502.341 1193.22 490.132 1212.16 490.132C1231.09 490.132 1231.09 502.341 1250.05 502.341C1269 502.341 1268.99 490.132 1287.94 490.132C1306.89 490.132 1306.88 502.341 1325.83 502.341C1344.78 502.341 1344.77 490.132 1363.72 490.132C1382.67 490.132 1382.67 502.341 1401.61 502.341C1420.55 502.341 1420.56 490.132 1439.5 490.132M0 502.341C18.9395 502.341 18.9395 515.568 37.8791 515.568C56.8186 515.568 56.8186 502.341 75.7582 502.341C94.6977 502.341 94.6977 515.568 113.637 515.568C132.577 515.568 132.577 502.341 151.516 502.341C170.456 502.341 170.456 515.568 189.395 515.568C208.335 515.568 208.335 502.341 227.274 502.341C246.214 502.341 246.214 515.568 265.154 515.568C284.093 515.568 284.093 502.341 303.033 502.341C321.972 502.341 321.972 515.568 340.912 515.568C359.851 515.568 359.851 502.341 378.791 502.341C397.73 502.341 397.73 515.568 416.67 515.568C435.609 515.568 435.609 502.341 454.549 502.341C473.488 502.341 473.489 515.568 492.428 515.568C511.368 515.568 511.368 502.341 530.307 502.341C549.247 502.341 549.247 515.568 568.186 515.568C587.126 515.568 587.126 502.341 606.065 502.341C625.005 502.341 625.005 515.568 643.944 515.568C662.884 515.568 662.884 502.341 681.823 502.341C700.763 502.341 700.763 515.568 719.703 515.568C738.642 515.568 738.642 502.341 757.582 502.341C776.521 502.341 776.521 515.568 795.461 515.568C814.4 515.568 814.4 502.341 833.34 502.341C852.279 502.341 852.279 515.568 871.231 515.568C890.183 515.568 890.171 502.341 909.11 502.341C928.05 502.341 928.05 515.568 946.989 515.568C965.929 515.568 965.929 502.341 984.868 502.341C1003.81 502.341 1003.81 515.568 1022.75 515.568C1041.69 515.568 1041.69 502.341 1060.63 502.341C1079.57 502.341 1079.57 515.568 1098.52 515.568C1117.47 515.568 1117.46 502.341 1136.4 502.341C1155.34 502.341 1155.34 515.568 1174.28 515.568C1193.22 515.568 1193.22 502.341 1212.16 502.341C1231.09 502.341 1231.09 515.568 1250.05 515.568C1269 515.568 1268.99 502.341 1287.94 502.341C1306.89 502.341 1306.88 515.568 1325.83 515.568C1344.78 515.568 1344.77 502.341 1363.72 502.341C1382.67 502.341 1382.67 515.568 1401.61 515.568C1420.55 515.568 1420.56 502.341 1439.5 502.341M0 514.551C18.9395 514.551 18.9395 527.778 37.8791 527.778C56.8186 527.778 56.8186 514.551 75.7582 514.551C94.6977 514.551 94.6977 527.778 113.637 527.778C132.577 527.778 132.577 514.551 151.516 514.551C170.456 514.551 170.456 527.778 189.395 527.778C208.335 527.778 208.335 514.551 227.274 514.551C246.214 514.551 246.214 527.778 265.154 527.778C284.093 527.778 284.093 514.551 303.033 514.551C321.972 514.551 321.972 527.778 340.912 527.778C359.851 527.778 359.851 514.551 378.791 514.551C397.73 514.551 397.73 527.778 416.67 527.778C435.609 527.778 435.609 514.551 454.549 514.551C473.488 514.551 473.489 527.778 492.428 527.778C511.368 527.778 511.368 514.551 530.307 514.551C549.247 514.551 549.247 527.778 568.186 527.778C587.126 527.778 587.126 514.551 606.065 514.551C625.005 514.551 625.005 527.778 643.944 527.778C662.884 527.778 662.884 514.551 681.823 514.551C700.763 514.551 700.763 527.778 719.703 527.778C738.642 527.778 738.642 514.551 757.582 514.551C776.521 514.551 776.521 527.778 795.461 527.778C814.4 527.778 814.4 514.551 833.34 514.551C852.279 514.551 852.279 527.778 871.231 527.778C890.183 527.778 890.171 514.551 909.11 514.551C928.05 514.551 928.05 527.778 946.989 527.778C965.929 527.778 965.929 514.551 984.868 514.551C1003.81 514.551 1003.81 527.778 1022.75 527.778C1041.69 527.778 1041.69 514.551 1060.63 514.551C1079.57 514.551 1079.57 527.778 1098.52 527.778C1117.47 527.778 1117.46 514.551 1136.4 514.551C1155.34 514.551 1155.34 527.778 1174.28 527.778C1193.22 527.778 1193.22 514.551 1212.16 514.551C1231.09 514.551 1231.09 527.778 1250.05 527.778C1269 527.778 1268.99 514.551 1287.94 514.551C1306.89 514.551 1306.88 527.778 1325.83 527.778C1344.78 527.778 1344.77 514.551 1363.72 514.551C1382.67 514.551 1382.67 527.778 1401.61 527.778C1420.55 527.778 1420.56 514.551 1439.5 514.551M0 527.778C18.9395 527.778 18.9395 539.988 37.8791 539.988C56.8186 539.988 56.8186 527.778 75.7582 527.778C94.6977 527.778 94.6977 539.988 113.637 539.988C132.577 539.988 132.577 527.778 151.516 527.778C170.456 527.778 170.456 539.988 189.395 539.988C208.335 539.988 208.335 527.778 227.274 527.778C246.214 527.778 246.214 539.988 265.154 539.988C284.093 539.988 284.093 527.778 303.033 527.778C321.972 527.778 321.972 539.988 340.912 539.988C359.851 539.988 359.851 527.778 378.791 527.778C397.73 527.778 397.73 539.988 416.67 539.988C435.609 539.988 435.609 527.778 454.549 527.778C473.488 527.778 473.489 539.988 492.428 539.988C511.368 539.988 511.368 527.778 530.307 527.778C549.247 527.778 549.247 539.988 568.186 539.988C587.126 539.988 587.126 527.778 606.065 527.778C625.005 527.778 625.005 539.988 643.944 539.988C662.884 539.988 662.884 527.778 681.823 527.778C700.763 527.778 700.763 539.988 719.703 539.988C738.642 539.988 738.642 527.778 757.582 527.778C776.521 527.778 776.521 539.988 795.461 539.988C814.4 539.988 814.4 527.778 833.34 527.778C852.279 527.778 852.279 539.988 871.231 539.988C890.183 539.988 890.171 527.778 909.11 527.778C928.05 527.778 928.05 539.988 946.989 539.988C965.929 539.988 965.929 527.778 984.868 527.778C1003.81 527.778 1003.81 539.988 1022.75 539.988C1041.69 539.988 1041.69 527.778 1060.63 527.778C1079.57 527.778 1079.57 539.988 1098.52 539.988C1117.47 539.988 1117.46 527.778 1136.4 527.778C1155.34 527.778 1155.34 539.988 1174.28 539.988C1193.22 539.988 1193.22 527.778 1212.16 527.778C1231.09 527.778 1231.09 539.988 1250.05 539.988C1269 539.988 1268.99 527.778 1287.94 527.778C1306.89 527.778 1306.88 539.988 1325.83 539.988C1344.78 539.988 1344.77 527.778 1363.72 527.778C1382.67 527.778 1382.67 539.988 1401.61 539.988C1420.55 539.988 1420.56 527.778 1439.5 527.778M0 539.988C18.9395 539.988 18.9395 553.215 37.8791 553.215C56.8186 553.215 56.8186 539.988 75.7582 539.988C94.6977 539.988 94.6977 553.215 113.637 553.215C132.577 553.215 132.577 539.988 151.516 539.988C170.456 539.988 170.456 553.215 189.395 553.215C208.335 553.215 208.335 539.988 227.274 539.988C246.214 539.988 246.214 553.215 265.154 553.215C284.093 553.215 284.093 539.988 303.033 539.988C321.972 539.988 321.972 553.215 340.912 553.215C359.851 553.215 359.851 539.988 378.791 539.988C397.73 539.988 397.73 553.215 416.67 553.215C435.609 553.215 435.609 539.988 454.549 539.988C473.488 539.988 473.489 553.215 492.428 553.215C511.368 553.215 511.368 539.988 530.307 539.988C549.247 539.988 549.247 553.215 568.186 553.215C587.126 553.215 587.126 539.988 606.065 539.988C625.005 539.988 625.005 553.215 643.944 553.215C662.884 553.215 662.884 539.988 681.823 539.988C700.763 539.988 700.763 553.215 719.703 553.215C738.642 553.215 738.642 539.988 757.582 539.988C776.521 539.988 776.521 553.215 795.461 553.215C814.4 553.215 814.4 539.988 833.34 539.988C852.279 539.988 852.279 553.215 871.231 553.215C890.183 553.215 890.171 539.988 909.11 539.988C928.05 539.988 928.05 553.215 946.989 553.215C965.929 553.215 965.929 539.988 984.868 539.988C1003.81 539.988 1003.81 553.215 1022.75 553.215C1041.69 553.215 1041.69 539.988 1060.63 539.988C1079.57 539.988 1079.57 553.215 1098.52 553.215C1117.47 553.215 1117.46 539.988 1136.4 539.988C1155.34 539.988 1155.34 553.215 1174.28 553.215C1193.22 553.215 1193.22 539.988 1212.16 539.988C1231.09 539.988 1231.09 553.215 1250.05 553.215C1269 553.215 1268.99 539.988 1287.94 539.988C1306.89 539.988 1306.88 553.215 1325.83 553.215C1344.78 553.215 1344.77 539.988 1363.72 539.988C1382.67 539.988 1382.67 553.215 1401.61 553.215C1420.55 553.215 1420.56 539.988 1439.5 539.988M0 553.214C18.9395 553.214 18.9395 565.423 37.8791 565.423C56.8186 565.423 56.8186 553.214 75.7582 553.214C94.6977 553.214 94.6977 565.423 113.637 565.423C132.577 565.423 132.577 553.214 151.516 553.214C170.456 553.214 170.456 565.423 189.395 565.423C208.335 565.423 208.335 553.214 227.274 553.214C246.214 553.214 246.214 565.423 265.154 565.423C284.093 565.423 284.093 553.214 303.033 553.214C321.972 553.214 321.972 565.423 340.912 565.423C359.851 565.423 359.851 553.214 378.791 553.214C397.73 553.214 397.73 565.423 416.67 565.423C435.609 565.423 435.609 553.214 454.549 553.214C473.488 553.214 473.489 565.423 492.428 565.423C511.368 565.423 511.368 553.214 530.307 553.214C549.247 553.214 549.247 565.423 568.186 565.423C587.126 565.423 587.126 553.214 606.065 553.214C625.005 553.214 625.005 565.423 643.944 565.423C662.884 565.423 662.884 553.214 681.823 553.214C700.763 553.214 700.763 565.423 719.703 565.423C738.642 565.423 738.642 553.214 757.582 553.214C776.521 553.214 776.521 565.423 795.461 565.423C814.4 565.423 814.4 553.214 833.34 553.214C852.279 553.214 852.279 565.423 871.231 565.423C890.183 565.423 890.171 553.214 909.11 553.214C928.05 553.214 928.05 565.423 946.989 565.423C965.929 565.423 965.929 553.214 984.868 553.214C1003.81 553.214 1003.81 565.423 1022.75 565.423C1041.69 565.423 1041.69 553.214 1060.63 553.214C1079.57 553.214 1079.57 565.423 1098.52 565.423C1117.47 565.423 1117.46 553.214 1136.4 553.214C1155.34 553.214 1155.34 565.423 1174.28 565.423C1193.22 565.423 1193.22 553.214 1212.16 553.214C1231.09 553.214 1231.09 565.423 1250.05 565.423C1269 565.423 1268.99 553.214 1287.94 553.214C1306.89 553.214 1306.88 565.423 1325.83 565.423C1344.78 565.423 1344.77 553.214 1363.72 553.214C1382.67 553.214 1382.67 565.423 1401.61 565.423C1420.55 565.423 1420.56 553.214 1439.5 553.214M0 565.424C18.9395 565.424 18.9395 578.651 37.8791 578.651C56.8186 578.651 56.8186 565.424 75.7582 565.424C94.6977 565.424 94.6977 578.651 113.637 578.651C132.577 578.651 132.577 565.424 151.516 565.424C170.456 565.424 170.456 578.651 189.395 578.651C208.335 578.651 208.335 565.424 227.274 565.424C246.214 565.424 246.214 578.651 265.154 578.651C284.093 578.651 284.093 565.424 303.033 565.424C321.972 565.424 321.972 578.651 340.912 578.651C359.851 578.651 359.851 565.424 378.791 565.424C397.73 565.424 397.73 578.651 416.67 578.651C435.609 578.651 435.609 565.424 454.549 565.424C473.488 565.424 473.489 578.651 492.428 578.651C511.368 578.651 511.368 565.424 530.307 565.424C549.247 565.424 549.247 578.651 568.186 578.651C587.126 578.651 587.126 565.424 606.065 565.424C625.005 565.424 625.005 578.651 643.944 578.651C662.884 578.651 662.884 565.424 681.823 565.424C700.763 565.424 700.763 578.651 719.703 578.651C738.642 578.651 738.642 565.424 757.582 565.424C776.521 565.424 776.521 578.651 795.461 578.651C814.4 578.651 814.4 565.424 833.34 565.424C852.279 565.424 852.279 578.651 871.231 578.651C890.183 578.651 890.171 565.424 909.11 565.424C928.05 565.424 928.05 578.651 946.989 578.651C965.929 578.651 965.929 565.424 984.868 565.424C1003.81 565.424 1003.81 578.651 1022.75 578.651C1041.69 578.651 1041.69 565.424 1060.63 565.424C1079.57 565.424 1079.57 578.651 1098.52 578.651C1117.47 578.651 1117.46 565.424 1136.4 565.424C1155.34 565.424 1155.34 578.651 1174.28 578.651C1193.22 578.651 1193.22 565.424 1212.16 565.424C1231.09 565.424 1231.09 578.651 1250.05 578.651C1269 578.651 1268.99 565.424 1287.94 565.424C1306.89 565.424 1306.88 578.651 1325.83 578.651C1344.78 578.651 1344.77 565.424 1363.72 565.424C1382.67 565.424 1382.67 578.651 1401.61 578.651C1420.55 578.651 1420.56 565.424 1439.5 565.424M0 577.634C18.9395 577.634 18.9395 590.861 37.8791 590.861C56.8186 590.861 56.8186 577.634 75.7582 577.634C94.6977 577.634 94.6977 590.861 113.637 590.861C132.577 590.861 132.577 577.634 151.516 577.634C170.456 577.634 170.456 590.861 189.395 590.861C208.335 590.861 208.335 577.634 227.274 577.634C246.214 577.634 246.214 590.861 265.154 590.861C284.093 590.861 284.093 577.634 303.033 577.634C321.972 577.634 321.972 590.861 340.912 590.861C359.851 590.861 359.851 577.634 378.791 577.634C397.73 577.634 397.73 590.861 416.67 590.861C435.609 590.861 435.609 577.634 454.549 577.634C473.488 577.634 473.489 590.861 492.428 590.861C511.368 590.861 511.368 577.634 530.307 577.634C549.247 577.634 549.247 590.861 568.186 590.861C587.126 590.861 587.126 577.634 606.065 577.634C625.005 577.634 625.005 590.861 643.944 590.861C662.884 590.861 662.884 577.634 681.823 577.634C700.763 577.634 700.763 590.861 719.703 590.861C738.642 590.861 738.642 577.634 757.582 577.634C776.521 577.634 776.521 590.861 795.461 590.861C814.4 590.861 814.4 577.634 833.34 577.634C852.279 577.634 852.279 590.861 871.231 590.861C890.183 590.861 890.171 577.634 909.11 577.634C928.05 577.634 928.05 590.861 946.989 590.861C965.929 590.861 965.929 577.634 984.868 577.634C1003.81 577.634 1003.81 590.861 1022.75 590.861C1041.69 590.861 1041.69 577.634 1060.63 577.634C1079.57 577.634 1079.57 590.861 1098.52 590.861C1117.47 590.861 1117.46 577.634 1136.4 577.634C1155.34 577.634 1155.34 590.861 1174.28 590.861C1193.22 590.861 1193.22 577.634 1212.16 577.634C1231.09 577.634 1231.09 590.861 1250.05 590.861C1269 590.861 1268.99 577.634 1287.94 577.634C1306.89 577.634 1306.88 590.861 1325.83 590.861C1344.78 590.861 1344.77 577.634 1363.72 577.634C1382.67 577.634 1382.67 590.861 1401.61 590.861C1420.55 590.861 1420.56 577.634 1439.5 577.634" stroke="#3D2DA6" stroke-opacity="0.5" stroke-miterlimit="10"/>
</g>
<defs>
<clipPath id="clip0_48_406">
<rect width="1440" height="550" fill="white"/>
</clipPath>
</defs>
</svg>
