<svg width="1440" height="682" viewBox="0 0 1440 682" fill="none" xmlns="http://www.w3.org/2000/svg">
<g clip-path="url(#clip0_85_5522)">
<g clip-path="url(#clip1_85_5522)">
<path d="M818.202 409.012C815.871 409.654 813.496 410.255 811.093 410.757C759.927 421.934 714.748 401.583 671.039 381.897C626.204 361.691 583.844 342.596 535.8 354.653C518.748 358.922 503.297 366.789 486.955 375.116C470.877 383.29 454.304 391.76 436.1 396.4C381.477 410.403 330.585 387.024 297.073 368.193C291.587 365.13 286.144 361.975 280.663 358.803C248.216 340.027 214.648 320.624 174.089 317.538C125.605 313.853 67.9586 335.082 15.9853 375.801C-7.73261 394.371 -29.2458 415.411 -50.0388 435.744C-68.6152 453.915 -87.8378 472.693 -108.697 489.834C-162.461 534.015 -220.567 558.126 -272.315 557.721L-271.034 549.824C-205.057 550.349 -145.035 509.206 -115.114 484.62C-94.6162 467.765 -75.5552 449.139 -57.1335 431.145C-36.1227 410.618 -14.3987 389.359 9.76834 370.451C41.6766 345.451 105.74 304.344 176.162 309.691C219.044 312.966 253.535 332.891 286.905 352.189C292.348 355.344 297.784 358.474 303.231 361.522C354.123 390.063 395.755 398.766 434.336 388.888C451.102 384.564 466.479 376.797 482.67 368.539C498.924 360.263 515.717 351.732 534.099 347.123C586.068 334.065 632.067 354.806 676.556 374.866C718.718 393.855 762.318 413.518 809.776 403.148C859.976 392.156 895.278 351.428 920.425 317.136C922.692 314.05 924.952 310.94 927.213 307.829C953.062 272.273 979.806 235.535 1023.56 214.789C1061.92 196.599 1104.79 195.061 1146.23 193.572C1167.77 192.802 1190.01 191.999 1211.3 188.862C1284.8 178.06 1360.49 135.864 1418.96 73.0805C1472.06 16.0531 1506.64 -49.9161 1540.07 -113.694L1548.88 -111.359C1515.18 -47.0789 1480.34 19.4171 1426.37 77.3523C1366.2 141.968 1288.02 185.44 1211.85 196.629C1189.91 199.865 1167.29 200.664 1145.45 201.463C1103.38 202.967 1063.66 204.411 1027.57 221.494C986.368 241.03 960.42 276.72 935.334 311.236C933.049 314.38 930.789 317.491 928.522 320.576C903.417 354.777 868.47 395.193 818.24 409.029L818.202 409.012Z" fill="#001920"/>
<path d="M809.345 410.677C807.14 411.284 804.922 411.842 802.684 412.325C758.997 421.87 720.505 408.21 678.356 390.742C674.459 389.141 670.594 387.531 666.76 385.912C634.702 372.485 604.416 359.829 572.398 357.493C557.325 356.402 543.094 357.754 528.877 361.616C513.068 365.971 498.549 373.287 483.172 381.054C475.285 385.019 467.136 389.136 458.888 392.772C447.821 397.613 438.317 400.873 429.018 403.033C402.239 409.259 374.434 406.967 344.023 395.949C328.399 390.275 312.208 382.296 294.579 371.556C289.903 368.725 285.238 365.81 280.565 362.87C271.357 357.114 261.859 351.17 252.149 345.686C223.364 329.379 199.439 321.122 174.531 318.888C154.87 317.135 133.861 319.337 112.309 325.354C71.7813 336.651 37.4217 358.902 15.7479 375.546C5.26697 383.622 -5.62872 392.776 -17.48 403.504C-29.6544 414.535 -41.6083 426.12 -53.1967 437.31C-71.1995 454.735 -89.8484 472.766 -109.845 489.348C-147.721 520.727 -206.421 558.43 -271.021 559.826L-270.114 551.926C-208.983 550.602 -152.737 514.324 -116.325 484.151C-96.6268 467.838 -78.1462 449.934 -60.2735 432.652C-48.6359 421.395 -36.6258 409.767 -24.3145 398.619C-12.2524 387.672 -1.17046 378.333 9.57336 370.104C32.0892 352.827 67.8056 329.721 110.191 317.912C133.14 311.43 155.593 309.178 176.706 311.04C210.575 314.069 238.086 327.597 258.275 339.023C268.114 344.605 277.689 350.582 286.974 356.37C291.64 359.285 296.267 362.183 300.912 365.024C318.053 375.469 333.739 383.213 348.794 388.67C377.208 398.953 402.92 401.153 427.436 395.443C435.972 393.467 444.765 390.456 455.135 385.914C463.082 382.415 471.088 378.39 478.855 374.485C494.089 366.812 509.855 358.858 526.861 354.173C542.432 349.938 557.984 348.463 574.408 349.663C608.12 352.121 639.135 365.085 671.952 378.81C675.787 380.429 679.652 382.039 683.518 383.65C724.05 400.413 760.846 413.577 801.273 404.742C821.243 400.364 840.569 390.574 860.271 374.767C883.258 356.371 902.434 333.488 914.843 317.898C917.028 315.129 919.245 312.352 921.454 309.55L926.782 302.812C947.777 276.325 969.017 250.973 997.956 231.552C1005.77 226.325 1013.94 221.667 1022.22 217.781C1043.97 207.563 1068.23 201.2 1100.94 197.167C1115.25 195.39 1129.72 194.269 1143.71 193.169C1162.19 191.719 1181.26 190.237 1200.02 187.237C1202.49 186.851 1204.98 186.432 1207.43 185.971C1244.93 179.174 1284.22 165.006 1321.1 145.004C1357.32 125.342 1391.59 99.6914 1420.16 70.7971C1475.14 15.2864 1512.16 -52.6646 1544.01 -117.829L1552.94 -115.687C1520.79 -49.8534 1483.3 18.8429 1427.4 75.3037C1397.66 105.35 1363.44 130.959 1325.75 151.427C1287.79 172.048 1247.19 186.655 1208.43 193.667C1205.88 194.129 1203.32 194.565 1200.76 194.977C1181.55 198.049 1162.18 199.559 1143.5 201.012C1129.64 202.101 1115.31 203.213 1101.29 204.962C1069.93 208.838 1046.79 214.864 1026.3 224.494C1018.56 228.124 1010.92 232.477 1003.59 237.383C975.935 255.915 955.271 280.654 934.776 306.496L929.449 313.233C927.239 316.035 925.029 318.837 922.844 321.606C910.132 337.573 890.499 361.011 866.677 380.065C847.66 395.281 828.884 405.349 809.422 410.709L809.345 410.677Z" fill="#001C24"/>
<path d="M800.704 412.281C798.562 412.87 796.439 413.402 794.294 413.859C749.782 423.605 710.011 408.131 671.531 393.157L664.137 390.298C630.139 377.085 598.045 364.632 564.711 363.301C549.845 362.715 535.85 364.43 521.974 368.546C507.318 372.904 493.721 379.752 479.283 386.993C470.387 391.476 461.19 396.096 451.801 400.02C441.019 404.541 431.24 407.663 421.911 409.591C395.496 415.048 368.398 411.999 339.074 400.254C324.171 394.247 308.803 385.934 292.022 374.828C288.162 372.253 284.295 369.653 280.382 367.013C271.054 360.701 261.399 354.185 251.437 348.155C224.117 331.632 199.812 322.731 174.916 320.172C155.257 318.178 134.336 320.088 112.716 325.856C80.5883 334.438 46.9005 351.502 15.4467 375.2C4.81243 383.211 -6.16681 392.308 -18.1331 402.987C-31.2441 414.677 -44.1071 427.021 -56.5416 438.953C-73.9077 455.614 -91.8954 472.847 -110.98 488.804C-148.682 520.322 -206.819 558.592 -269.739 561.906L-269.199 554.027C-209.62 550.884 -153.804 514.029 -117.478 483.666C-98.6423 467.911 -80.8161 450.829 -63.5554 434.278C-51.0401 422.27 -38.121 409.884 -24.88 398.051C-12.696 387.178 -1.49219 377.913 9.3913 369.699C42.0239 345.114 77.0781 327.353 110.756 318.371C133.793 312.213 156.168 310.169 177.255 312.305C203.687 315.029 229.287 324.322 257.794 341.589C267.923 347.733 277.662 354.307 287.073 360.676C290.947 363.3 294.783 365.908 298.636 368.458C314.923 379.246 329.811 387.29 344.145 393.079C371.489 404.032 396.481 406.938 420.619 401.948C429.147 400.188 438.17 397.274 448.231 393.085C457.224 389.324 466.239 384.781 474.959 380.4C489.215 373.236 503.941 365.809 519.668 361.156C534.884 356.617 550.124 354.747 566.328 355.392C601.443 356.795 634.297 369.547 669.093 383.075L676.494 385.958C713.493 400.35 751.782 415.243 792.876 406.251C812.689 401.917 831.659 392.064 852.558 375.313C875.538 356.892 895.007 335.318 909.376 318.6L921.987 303.865C943.055 279.363 966.134 253.799 996.208 234.441C1004.2 229.269 1012.53 224.676 1020.93 220.755C1048.58 207.843 1077.61 202.04 1099.76 198.452C1113.7 196.164 1127.6 194.451 1141 192.792C1158.99 190.591 1177.61 188.3 1196.23 184.586C1198.68 184.101 1201.14 183.582 1203.61 183.063C1241.6 174.871 1281.52 160.239 1319.08 140.77C1357.6 120.824 1392.03 96.4936 1421.43 68.521C1484.63 8.41823 1523.93 -68.9621 1547.99 -121.949L1557.03 -120.024C1532.67 -66.3933 1492.83 11.9909 1428.42 73.23C1398.27 101.918 1362.99 126.857 1323.49 147.312C1284.98 167.283 1243.99 182.294 1204.97 190.713C1202.44 191.25 1199.91 191.786 1197.41 192.288C1178.32 196.073 1159.48 198.401 1141.26 200.638C1127.96 202.27 1114.23 203.965 1100.51 206.218C1079.11 209.705 1051.2 215.254 1024.9 227.527C1016.98 231.235 1009.12 235.565 1001.56 240.457C972.697 259.053 950.187 283.979 929.608 307.918L916.998 322.654C902.313 339.699 882.454 361.701 858.814 380.679C838.669 396.847 819.991 407.021 800.623 412.356L800.704 412.281Z" fill="#002028"/>
<path d="M791.875 413.936C789.922 414.474 787.925 414.971 785.882 415.427C743.797 424.638 706.054 410.745 669.518 397.295C666.614 396.223 663.71 395.15 660.812 394.102C627.159 381.892 592.344 369.279 557.026 369.109C542.437 369.035 528.684 371.138 515.016 375.518C501.506 379.855 488.799 386.244 475.352 393.024C465.44 398.001 455.241 403.165 444.705 407.351C433.955 411.623 424.185 414.528 414.763 416.241C388.757 420.97 362.365 417.165 334.115 404.643C319.965 398.295 305.357 389.665 289.462 378.208C286.33 375.94 283.23 373.665 280.084 371.348C270.669 364.472 260.943 357.333 250.716 350.707C224.464 333.756 200.492 324.469 175.322 321.531C155.69 319.262 134.77 320.931 113.12 326.467C80.8265 334.693 46.9868 351.451 15.1811 374.978C4.37562 382.984 -6.7255 392.007 -18.7576 402.57C-32.8858 414.995 -46.7456 428.149 -60.1138 440.873C-76.7872 456.728 -94.0013 473.079 -112.149 488.377C-149.678 520.034 -207.227 558.838 -268.467 564.07L-268.294 556.211C-210.266 551.249 -154.887 513.792 -118.679 483.247C-100.78 468.151 -83.6778 451.885 -67.1099 436.139C-53.6608 423.34 -39.7518 410.119 -25.4551 397.567C-13.2122 386.785 -1.88656 377.593 9.17492 369.41C42.191 344.988 77.4985 327.531 111.286 318.947C134.36 313.046 156.709 311.277 177.777 313.713C204.553 316.824 229.794 326.537 257.246 344.281C267.68 351.037 277.488 358.233 286.988 365.166C290.126 367.458 293.226 369.734 296.32 371.985C311.752 383.116 325.88 391.476 339.486 397.572C365.774 409.244 390.071 412.823 413.754 408.52C422.337 406.959 431.359 404.286 441.31 400.315C451.349 396.292 461.348 391.264 470.99 386.414C484.262 379.736 497.978 372.828 512.42 368.181C527.333 363.405 542.317 361.096 558.199 361.189C595.385 361.379 631.062 374.29 665.538 386.782C668.443 387.854 671.378 388.918 674.283 389.991C709.351 402.909 745.664 416.286 784.387 407.787C809.528 402.253 829.847 387.828 844.745 375.86C867.824 357.304 888.455 335.892 903.847 319.321L908.072 314.733C911.102 311.464 914.125 308.17 917.161 304.926C939.091 281.337 963.108 256.719 994.454 237.304C1002.64 232.214 1011.13 227.627 1019.67 223.671C1046.65 211.182 1074.7 204.526 1098.61 199.68C1112.08 196.906 1125.25 194.669 1137.99 192.469C1155.6 189.466 1173.85 186.339 1192.5 181.869C1194.92 181.284 1197.36 180.691 1199.8 180.072C1237.99 170.49 1279.63 154.981 1317.08 136.453C1357.52 116.46 1393.04 92.7905 1422.7 66.1369C1474.21 19.9278 1517.71 -44.78 1552 -126.21L1561.11 -124.494C1526.33 -41.9105 1482.05 23.8955 1429.47 71.0396C1399.08 98.3501 1362.67 122.612 1321.31 143.072C1282.55 162.256 1241.11 177.654 1201.57 187.61C1199.07 188.245 1196.59 188.847 1194.11 189.424C1175.04 193.983 1156.62 197.128 1138.8 200.192C1126.15 202.366 1113.08 204.602 1099.83 207.315C1076.6 212.028 1049.41 218.475 1023.6 230.427C1015.48 234.187 1007.43 238.544 999.647 243.364C969.458 262.059 945.999 286.122 924.566 309.173C921.536 312.442 918.537 315.702 915.507 318.971L911.282 323.559C895.662 340.407 874.683 362.156 851.081 381.15C836.383 392.983 816.589 407.102 791.805 413.929L791.875 413.936Z" fill="#00232C"/>
<path d="M783.214 415.574C781.324 416.094 779.421 416.565 777.473 416.995C737.438 425.775 701.348 413.085 666.483 400.78C661.678 399.081 656.88 397.407 652.057 395.766C617.656 384.162 583.908 373.823 549.376 374.908C535.032 375.355 521.515 377.821 508.118 382.448C495.684 386.755 483.905 392.702 471.443 398.997C460.56 404.509 449.314 410.175 437.662 414.615C426.983 418.653 417.189 421.351 407.667 422.823C382.26 426.772 355.869 422.111 329.202 408.939C315.756 402.317 302.337 393.574 286.979 381.487C284.558 379.586 282.168 377.676 279.741 375.75C270.318 368.234 260.547 360.439 250.085 353.209C225.236 336.058 200.922 326.144 175.796 322.873C156.164 320.362 135.232 321.741 113.615 327.027C81.2258 334.905 47.1396 351.383 15.0066 374.706C4.05465 382.671 -7.16834 391.621 -19.2593 402.094C-34.4993 415.28 -49.3736 429.302 -63.7632 442.869C-79.6315 457.833 -96.0653 473.327 -113.165 487.881C-150.519 519.678 -207.544 559.033 -267.04 566.166L-267.297 558.345C-210.846 551.596 -155.904 513.537 -119.75 482.794C-102.844 468.4 -86.5153 453.014 -70.7524 438.16C-56.282 424.517 -41.3269 410.42 -25.8939 397.073C-13.5537 386.398 -2.11305 377.255 9.12645 369.103C42.5013 344.876 78.0936 327.716 111.983 319.504C135.063 313.869 157.425 312.391 178.498 315.093C205.237 318.562 230.879 328.993 256.937 346.961C267.618 354.372 277.503 362.215 287.016 369.813C289.444 371.739 291.834 373.649 294.216 375.534C309.143 387.286 322.106 395.726 335.008 402.097C359.788 414.317 384.038 418.712 407.103 415.114C415.747 413.777 424.753 411.296 434.595 407.542C445.638 403.35 456.608 397.787 467.196 392.436C479.476 386.218 492.177 379.803 505.385 375.229C519.989 370.19 534.66 367.486 550.252 367.017C586.632 365.877 621.374 376.504 656.706 388.413C661.567 390.07 666.404 391.76 671.247 393.476C704.714 405.256 739.311 417.448 776.118 409.369C800.559 404.001 820.679 389.712 837.152 376.454C859.975 358.076 880.974 337.632 898.531 320.063L900.709 317.885C904.63 313.916 908.59 309.963 912.549 306.01C934.24 284.386 960.138 259.704 992.889 240.224C1001.27 235.214 1009.91 230.667 1018.57 226.677C1045.33 214.357 1073.38 206.977 1097.62 200.996C1110.09 197.91 1122.09 195.245 1133.71 192.66C1152.23 188.548 1169.7 184.674 1188.94 179.265C1191.34 178.606 1193.75 177.913 1196.2 177.212C1235.61 165.903 1277.9 149.921 1315.28 132.241C1358.36 111.894 1394.01 89.5287 1424.18 63.8835C1493.79 4.8797 1534.42 -74.2868 1556.22 -130.341L1565.42 -128.808C1543.26 -71.8521 1501.88 8.69462 1430.74 68.9798C1399.79 95.2657 1363.34 118.173 1319.29 138.947C1281.34 156.89 1238.37 173.113 1198.35 184.62C1195.9 185.322 1193.45 186.023 1191.02 186.691C1171.49 192.177 1153 196.28 1135.16 200.259C1123.6 202.827 1111.7 205.491 1099.35 208.517C1075.68 214.342 1048.26 221.573 1022.49 233.433C1014.22 237.236 1005.94 241.604 997.913 246.41C966.27 265.238 940.945 289.414 919.7 310.567C915.765 314.487 911.844 318.456 907.916 322.4L905.738 324.578C888.002 342.357 866.728 363.037 843.52 381.735C827.271 394.825 807.557 408.868 783.308 415.548L783.214 415.574Z" fill="#002631"/>
<path d="M774.857 417.099C772.967 417.62 771.032 418.099 769.052 418.537C730.714 426.958 696.1 415.199 662.648 403.842C656.294 401.687 649.749 399.45 643.297 397.429C605.961 385.751 574.398 378.422 541.715 380.683C527.616 381.651 514.341 384.505 501.184 389.386C489.806 393.59 478.937 399.152 467.442 405.02C455.62 411.059 443.378 417.293 430.589 421.912C419.957 425.751 410.126 428.191 400.543 429.44C375.45 432.687 349.798 427.26 324.235 413.302C311.626 406.396 298.973 397.362 284.404 384.817L279.192 380.287C269.788 372.097 260.042 363.654 249.356 355.736C225.55 338.191 201.602 327.882 176.163 324.215C156.558 321.43 135.627 322.567 113.98 327.621C81.5194 335.117 47.1867 351.316 14.6635 374.452C3.56498 382.378 -7.77302 391.279 -19.9544 401.669C-36.3937 415.667 -52.388 430.666 -67.8798 445.152C-82.887 459.183 -98.3719 473.694 -114.405 487.446C-151.624 519.366 -208.079 559.313 -265.807 568.313L-266.487 560.555C-211.612 552.021 -157.082 513.326 -121.015 482.392C-105.175 468.8 -89.7393 454.357 -74.8129 440.401C-59.2403 425.839 -43.1652 410.765 -26.5328 396.607C-14.1023 386.013 -2.5466 376.919 8.83941 368.807C42.6045 344.767 78.4187 327.92 112.411 320.081C135.497 314.712 157.863 313.5 178.911 316.477C206.001 320.357 231.284 331.208 256.287 349.654C267.223 357.743 277.073 366.319 286.6 374.582L291.805 379.087C305.928 391.247 318.164 399.994 330.254 406.615C353.946 419.564 377.469 424.641 400.174 421.703C408.873 420.565 417.84 418.309 427.617 414.813C439.695 410.443 451.58 404.387 463.076 398.519C474.396 392.752 486.067 386.782 498.118 382.313C512.412 377.011 526.81 373.928 542.073 372.88C576.521 370.507 609.191 378.04 647.674 390.071C654.241 392.141 660.825 394.393 667.217 396.565C699.285 407.447 732.475 418.715 767.617 410.988C790.071 406.034 808.537 393.858 829.303 377.117C852.424 358.47 874.285 338.324 892.965 320.9C897.837 316.321 902.74 311.734 907.656 307.196C931.635 285.023 958.345 261.936 991.004 243.23C999.574 238.301 1008.39 233.761 1017.17 229.736C1043.51 217.72 1070.77 209.809 1094.84 202.832L1096.35 202.416C1107.17 199.249 1117.43 196.421 1127.38 193.655C1146.52 188.356 1164.62 183.343 1185.06 176.724L1192.24 174.397C1234.11 160.831 1277.04 144.377 1313.11 128.076C1358.44 107.645 1395.15 85.9237 1425.33 61.6669C1483.67 14.8891 1531.54 -54.7408 1560.1 -134.434L1569.35 -133.077C1540.27 -51.9308 1491.37 19.1077 1431.64 66.9657C1400.71 91.8297 1363.19 114.042 1316.95 134.883C1280.49 151.346 1237.09 167.981 1194.82 181.684L1187.61 184.02C1166.92 190.708 1148.72 195.747 1129.42 201.089C1119.5 203.822 1109.28 206.666 1098.52 209.79L1097 210.207C1073.35 217.071 1046.56 224.852 1021.04 236.509C1012.58 240.364 1004.12 244.726 995.846 249.493C964.151 267.64 938.028 290.27 914.502 311.998C909.617 316.527 904.738 321.081 899.867 325.66C881.05 343.202 858.995 363.508 835.632 382.382C815.308 398.761 796.946 411.068 774.807 417.166L774.857 417.099Z" fill="#002935"/>
<path d="M766.101 418.763C764.338 419.248 762.529 419.693 760.675 420.097C723.837 428.184 690.456 417.209 658.191 406.595C650.442 404.048 642.432 401.413 634.549 399.117C593.026 387.121 562.98 383.333 534.097 386.474C520.218 387.996 507.21 391.205 494.262 396.349C483.939 400.45 473.967 405.578 463.438 411.019C450.653 417.617 437.454 424.436 423.522 429.21C412.93 432.823 403.075 435.056 393.423 436.056C368.614 438.61 343.693 432.394 319.298 417.632C307.34 410.386 295.788 401.29 281.897 388.13L278.492 384.868C269.174 376.012 259.565 366.835 248.688 358.221C226.228 340.52 201.955 329.524 176.599 325.541C156.988 322.489 136.09 323.377 114.437 328.164C81.8424 335.297 47.2946 351.206 14.451 374.163C3.20597 382.049 -8.2539 390.877 -20.5256 401.186C-38.2767 416.08 -55.4854 432.082 -72.1286 447.554C-86.1555 460.593 -100.636 474.078 -115.489 486.943C-169.417 533.604 -219.517 561.689 -264.426 570.367L-265.56 562.682C-223.359 554.508 -173.787 526.596 -122.131 481.898C-107.439 469.184 -93.0078 455.766 -79.0371 442.769C-62.3199 427.197 -44.9989 411.11 -27.0301 396.022C-14.5092 385.511 -2.80019 376.481 8.70084 368.418C42.8247 344.573 78.8923 328.031 113.012 320.532C136.103 315.429 158.507 314.474 179.503 317.759C206.525 322.006 232.185 333.609 255.811 352.22C266.945 361.031 276.69 370.331 286.143 379.31L289.541 382.547C303.05 395.304 314.185 404.114 325.654 411.066C348.228 424.751 370.993 430.518 393.394 428.2C402.123 427.293 411.082 425.254 420.774 421.942C433.87 417.452 446.648 410.829 459.052 404.443C469.374 399.112 480.085 393.593 490.986 389.253C504.978 383.714 519.025 380.219 534.029 378.601C564.492 375.293 595.813 379.158 638.776 391.586C646.813 393.947 654.9 396.614 662.75 399.16C695.053 409.79 725.571 419.842 759.306 412.422C783.678 407.046 803.489 392.253 821.669 377.562C843.425 359.986 865.09 341.098 884.256 324.45L887.615 321.518C892.717 317.037 897.857 312.572 902.979 308.165C927.556 287.056 955.008 264.943 989.366 246.009C998.128 241.161 1007.11 236.627 1016.03 232.592C1038.98 222.178 1062.61 214.383 1083.49 207.51C1087.5 206.192 1091.44 204.891 1095.29 203.592L1109.06 198.994C1133.89 190.712 1155.33 183.574 1181.46 173.997L1188.6 171.387C1223.7 158.698 1269.36 141.813 1311.28 123.74C1359.68 102.916 1396.36 82.4347 1426.77 59.2644C1488.11 12.7016 1538.24 -59.4483 1564.31 -138.723L1573.64 -137.574C1547.06 -56.7141 1495.77 17.0122 1432.92 64.7146C1401.77 88.4338 1364.28 109.382 1314.96 130.615C1272.72 148.833 1226.84 165.803 1191.62 178.528L1184.53 181.095C1158.25 190.716 1136.72 197.905 1111.8 206.213L1098.05 210.802C1094.18 212.11 1090.23 213.41 1086.19 214.737C1065.63 221.524 1042.3 229.207 1019.96 239.348C1011.35 243.271 1002.66 247.644 994.159 252.339C960.716 270.78 933.794 292.481 909.683 313.193C904.593 317.591 899.477 322.023 894.369 326.479L890.978 329.42C871.763 346.135 850.01 365.074 828.117 382.768C810.162 397.29 790.638 411.897 766.231 418.62L766.101 418.763Z" fill="#002D39"/>
<path d="M757.682 420.306C755.918 420.791 754.109 421.236 752.287 421.631C716.698 429.455 684.431 419.082 653.211 409.063C644.22 406.19 634.961 403.203 625.814 400.747C586.738 390.377 556.127 387.735 526.492 392.206C512.859 394.249 500.069 397.879 487.353 403.254C478.002 407.194 468.979 411.953 459.385 416.977C445.713 424.167 431.525 431.579 416.443 436.483C405.866 439.905 396.013 441.896 386.293 442.648C361.766 444.508 337.552 437.535 314.349 421.938C300.12 412.348 288.178 400.604 279.348 391.426L277.542 389.543C268.399 379.97 258.966 370.076 247.96 360.749C226.511 342.662 202.611 331.296 176.967 326.883C157.389 323.582 136.486 324.204 114.802 328.759C82.1434 335.534 47.3176 351.173 14.1398 373.901C2.74148 381.722 -8.83342 390.501 -21.1955 400.728C-40.3774 416.578 -58.8744 433.684 -76.7431 450.242C-89.6773 462.204 -103.072 474.588 -116.673 486.466C-170.431 533.375 -219.722 562.307 -263.143 572.448L-264.725 564.859C-223.214 555.163 -175.679 527.116 -123.346 481.43C-109.85 469.66 -96.5433 457.328 -83.6652 445.408C-65.6528 428.756 -47.0503 411.541 -27.6507 395.497C-15.0395 385.068 -3.21537 376.087 8.46367 368.055C42.9463 344.405 79.2987 328.159 113.521 321.033C136.649 316.187 159.027 315.507 180.029 319.058C207.377 323.75 232.678 335.774 255.305 354.82C266.614 364.385 276.19 374.427 285.443 384.157L287.249 386.04C295.801 394.946 307.382 406.362 321.02 415.526C342.436 429.93 364.512 436.395 386.585 434.729C395.344 434.055 404.263 432.241 413.878 429.138C427.966 424.562 441.67 417.363 454.905 410.427C464.292 405.514 473.967 400.415 483.769 396.27C497.427 390.502 511.193 386.603 525.868 384.406C557.132 379.7 589.183 382.401 629.755 393.161C639.126 395.689 648.525 398.691 657.63 401.613C688.851 411.632 718.362 421.105 750.824 413.982C774.684 408.721 793.472 394.638 813.863 378.134C826.715 367.719 839.558 357.146 852.021 346.918C862.329 338.461 872.375 330.157 882.093 322.263C887.431 317.904 892.801 313.536 898.16 309.251C921.964 290.255 951.197 268.212 987.556 248.915C996.534 244.114 1005.66 239.62 1014.68 235.559C1034.17 226.764 1053.43 219.776 1072.04 213.045C1079.74 210.255 1087.04 207.602 1094.06 204.92C1121.99 194.282 1143.51 185.439 1170.78 174.21L1177.62 171.388C1179.97 170.422 1182.32 169.481 1184.7 168.531C1200.05 162.402 1216.43 156.045 1233.76 149.345C1258.83 139.63 1284.73 129.606 1309.17 119.533C1343.99 105.233 1388.92 85.2054 1427.95 57.0145C1492.05 10.894 1544.49 -63.8182 1568.22 -142.849L1577.6 -141.876C1553.36 -61.1262 1499.64 15.33 1433.84 62.6671C1393.82 91.5594 1348.05 111.979 1312.65 126.518C1288.09 136.627 1262.13 146.693 1237 156.425C1219.7 163.117 1203.35 169.464 1188.06 175.576C1185.71 176.517 1183.36 177.459 1181.08 178.408L1174.24 181.23C1146.88 192.484 1125.3 201.369 1097.21 212.075C1090.1 214.784 1082.77 217.445 1075 220.253C1056.61 226.923 1037.58 233.826 1018.5 242.425C1009.73 246.391 1000.84 250.766 992.093 255.423C956.568 274.303 927.834 295.941 904.447 314.608C899.113 318.859 893.799 323.185 888.461 327.545C878.742 335.438 868.69 343.717 858.413 352.166C845.957 362.418 833.083 373 820.199 383.424C800.145 399.674 781.413 413.715 757.605 420.273L757.682 420.306Z" fill="#00303D"/>
<path d="M748.888 421.953C747.25 422.404 745.568 422.814 743.878 423.199C709.506 430.768 678.271 420.94 648.082 411.467C637.919 408.274 627.417 404.961 617.065 402.435C579.911 393.382 549.649 392.008 518.905 397.988C505.492 400.586 492.906 404.588 480.454 410.184C472.108 413.955 463.982 418.28 455.361 422.901C440.777 430.717 425.684 438.78 409.407 443.772C398.844 447.002 388.968 448.786 379.166 449.239C354.885 450.39 331.408 442.653 309.436 426.234C296.344 416.465 285.644 404.807 276.865 394.706L276.41 394.162C267.552 383.896 258.426 373.275 247.361 363.242C227.178 345.074 203.034 332.945 177.472 328.216C157.92 324.641 136.979 325.005 115.329 329.31C82.5427 335.746 47.5266 351.063 13.9654 373.629C2.42052 381.41 -9.23793 390.132 -21.7219 400.285C-42.4221 417.142 -62.3445 435.47 -81.5823 453.208C-93.3364 464.042 -105.47 475.222 -117.713 486.005C-171.332 533.169 -219.776 562.964 -261.723 574.519L-263.778 567.06C-223.625 555.999 -176.749 527.037 -124.442 481.01C-112.28 470.304 -100.171 459.157 -88.4729 448.364C-69.0982 430.508 -49.0704 412.071 -28.121 395.012C-15.3878 384.657 -3.48021 375.732 8.35219 367.765C43.1936 344.311 79.7993 328.37 114.125 321.617C137.251 317.012 159.641 316.623 180.624 320.473C207.865 325.516 233.525 338.35 254.838 357.544C266.219 367.865 275.526 378.65 284.502 389.098L284.957 389.641C293.451 399.446 303.852 410.759 316.391 420.119C336.651 435.243 357.969 442.398 379.775 441.367C388.54 440.959 397.444 439.336 407.012 436.433C422.131 431.787 436.691 424.005 450.775 416.46C459.189 411.949 467.872 407.31 476.614 403.378C489.938 397.38 503.399 393.111 517.77 390.302C550.28 383.969 582.076 385.376 620.836 394.843C631.481 397.448 642.16 400.793 652.476 404.05C682.634 413.532 711.128 422.51 742.428 415.6C767.562 410.041 787.174 394.153 806.15 378.787C831.767 358.008 855.476 339.279 876.672 323.115C882.272 318.844 887.847 314.607 893.443 310.444C927.049 285.458 955.554 267.414 985.84 251.903C995.01 247.183 1004.28 242.704 1013.45 238.6C1029.52 231.391 1045.47 225.205 1060.83 219.21C1072.21 214.789 1082.98 210.592 1092.92 206.329C1111.23 198.479 1126.27 191.34 1142.2 183.741C1152.12 179.03 1162.36 174.149 1173.91 168.854C1176.23 167.788 1178.55 166.747 1180.94 165.714C1208.42 153.651 1241.02 141.031 1272.59 128.806C1284.28 124.274 1295.89 119.793 1307.2 115.34C1348.14 99.2741 1391.25 80.8472 1429.26 54.7797C1497 8.54288 1550.46 -66.8794 1572.27 -146.986L1581.7 -146.188C1559.39 -64.2048 1504.51 13.0795 1434.93 60.5763C1395.93 87.2869 1352.08 106.08 1310.49 122.378C1299.18 126.83 1287.51 131.329 1275.82 135.861C1244.41 148.018 1211.92 160.603 1184.69 172.547C1182.36 173.563 1180.07 174.595 1177.81 175.618C1166.34 180.863 1156.13 185.735 1146.28 190.429C1130.25 198.054 1115.1 205.278 1096.58 213.213C1086.43 217.561 1075.6 221.776 1064.09 226.256C1048.85 232.192 1033.06 238.334 1017.26 245.415C1008.3 249.434 999.207 253.811 990.213 258.429C960.491 273.651 932.504 291.365 899.404 315.971C893.864 320.092 888.313 324.296 882.745 328.558C861.637 344.671 838.009 363.324 812.473 384.028C794.556 398.566 774.358 414.91 748.818 421.945L748.888 421.953Z" fill="#003341"/>
<path d="M740.444 423.529C738.807 423.98 737.155 424.382 735.466 424.767C702.052 432.125 671.681 422.728 642.304 413.62C631.154 410.164 619.672 406.612 608.307 404.098C572.767 396.233 542.854 396.126 511.27 403.729C498.052 406.915 485.702 411.28 473.522 417.123C466.127 420.658 458.911 424.598 451.257 428.793C435.799 437.251 419.784 446.022 402.336 451.069C391.75 454.092 381.882 455.66 372.042 455.856C348.31 456.294 324.933 447.565 304.489 430.539C292.532 420.591 282.937 409.003 274.348 397.994C266.55 387.89 257.712 376.467 246.658 365.736C227.455 347.191 203.676 334.667 177.865 329.525C158.339 325.675 137.4 325.798 115.713 329.846C82.8306 335.934 47.5612 350.946 13.6796 373.333C1.9882 381.074 -9.79211 389.722 -22.3664 399.793C-44.7919 417.767 -66.2066 437.442 -86.919 456.469C-97.3313 466.025 -108.091 475.917 -118.902 485.503C-172.402 532.982 -219.997 563.64 -260.415 576.565L-262.973 569.245C-224.179 556.82 -177.986 526.976 -125.656 480.542C-114.926 471.032 -104.19 461.173 -93.8096 451.626C-72.9603 432.481 -51.4087 412.688 -28.7094 394.478C-15.8859 384.205 -3.8564 375.354 8.15402 367.418C43.361 344.184 80.2133 328.523 114.673 322.134C137.836 317.787 160.207 317.697 181.196 321.813C208.731 327.31 234.001 340.572 254.347 360.194C265.769 371.279 274.764 382.899 282.704 393.151C291.04 403.855 300.361 415.064 311.796 424.594C330.867 440.447 351.457 448.284 372.999 447.888C381.762 447.721 390.626 446.323 400.141 443.595C416.273 438.937 431.669 430.497 446.57 422.353C454.017 418.269 461.733 414.057 469.43 410.385C482.395 404.193 495.536 399.503 509.618 396.132C543.042 388.076 574.576 388.164 611.854 396.434C623.613 399.026 635.318 402.65 646.653 406.162C675.985 415.23 703.692 423.808 734.041 417.134C758.538 411.724 778.118 395.844 797.025 380.471L798.408 379.341C821.333 360.721 846.508 341.535 871.22 323.868C877.05 319.694 882.862 315.578 888.663 311.546C921.818 288.61 952.122 270.579 984.101 254.816C993.487 250.144 1002.97 245.687 1012.2 241.59C1024.92 235.949 1037.55 230.758 1049.76 225.763C1064.89 219.562 1079.17 213.728 1091.84 207.672C1108.09 199.903 1121.18 192.687 1135.07 185.062C1145.9 179.085 1157.11 172.92 1170.28 166.268C1172.58 165.127 1174.87 163.987 1177.24 162.854C1212.8 145.836 1258.71 128.615 1299.24 113.386L1305.26 111.138C1347.35 95.4004 1391.68 77.8905 1430.64 52.5272C1500.9 6.98479 1556.73 -71.042 1576.41 -151.149L1585.9 -150.526C1565.75 -68.4431 1508.32 11.6556 1436.07 58.4679C1396.11 84.4829 1351.1 102.258 1308.4 118.219L1302.38 120.467C1262.09 135.577 1216.43 152.728 1181.37 169.5C1179.07 170.615 1176.83 171.713 1174.63 172.828C1161.69 179.361 1150.58 185.499 1139.84 191.426C1125.84 199.135 1112.61 206.445 1096.02 214.359C1083.05 220.551 1068.62 226.453 1053.3 232.731C1041.19 237.7 1028.64 242.816 1016.08 248.414C1007 252.467 997.705 256.847 988.431 261.434C956.992 276.942 927.15 294.685 894.483 317.299C888.706 321.298 882.95 325.371 877.177 329.503C852.664 347.035 827.69 366.086 804.933 384.579L803.55 385.709C784.805 400.931 765.481 416.633 740.57 423.494L740.444 423.529Z" fill="#003645"/>
<path d="M731.93 425.098C730.324 425.541 728.736 425.925 727.078 426.301C694.528 433.475 664.893 424.41 636.251 415.634C624.26 411.955 611.829 408.157 599.604 405.719C563.222 398.487 533.714 399.606 503.935 409.333C493.396 412.771 480.285 417.079 466.638 423.994C460.188 427.269 453.876 430.8 447.188 434.568C430.846 443.751 413.971 453.214 395.313 458.3C384.743 461.131 374.813 462.475 364.961 462.38C335.196 462.072 313.003 447.186 299.621 434.769C288.739 424.658 279.876 412.654 271.918 401.231C264.061 389.805 256.161 378.713 246.049 368.204C233.311 355.047 211.228 337.857 178.36 330.833C158.828 326.717 137.915 326.565 116.236 330.397C83.2512 336.112 47.7421 350.869 13.4949 373.035C1.65696 380.737 -10.2452 389.312 -22.8716 399.317C-47.1344 418.492 -70.2099 439.642 -92.5338 460.075C-101.492 468.268 -110.711 476.745 -119.928 484.982C-174.128 533.483 -219.602 564.093 -258.949 578.569L-261.998 571.437C-224.097 557.493 -179.849 527.596 -126.706 480.055C-117.545 471.86 -108.32 463.407 -99.3929 455.224C-76.939 434.647 -53.702 413.346 -29.1269 393.951C-16.213 383.76 -4.03702 374.949 8.08841 367.061C43.6542 344.023 80.7598 328.666 115.322 322.65C138.523 318.56 160.899 318.736 181.83 323.136C216.964 330.632 240.417 348.863 253.919 362.826C264.375 373.722 272.445 385.062 280.457 396.685C288.2 407.82 296.79 419.445 307.213 429.119C319.504 440.527 339.695 454.172 366.267 454.45C375.029 454.524 383.885 453.342 393.346 450.79C410.51 446.062 426.722 437.022 442.42 428.204C448.932 424.538 455.651 420.761 462.314 417.401C476.795 410.068 490.404 405.597 501.345 402.022C533.2 391.589 564.574 390.357 602.966 397.999C615.725 400.53 628.379 404.401 640.625 408.143C669.19 416.887 696.199 425.15 725.709 418.626C749.79 413.304 768.041 398.379 787.407 382.585L790.784 379.836C813.565 361.309 838.828 342.687 865.855 324.569C872.603 320.036 878.539 316.127 884.002 312.589C916.689 291.521 947.968 274.077 982.442 257.653C992.082 253.045 1001.7 248.603 1011.03 244.48C1020.4 240.349 1029.77 236.376 1038.85 232.539C1057.78 224.515 1075.68 216.936 1090.8 208.972C1106.1 200.907 1118.1 193.296 1130.79 185.252C1141.69 178.343 1152.94 171.205 1166.64 163.607C1168.9 162.368 1171.2 161.119 1173.55 159.912C1211.19 140.367 1260.28 122.27 1303.33 106.829C1353.05 89.0661 1394.1 73.6392 1432 50.2003C1504.62 5.4789 1562.93 -75.2119 1580.52 -155.387L1590.03 -154.93C1571.97 -72.6714 1512 10.2416 1437.2 56.2849C1398.32 80.342 1356.66 96.017 1306.26 114.02C1263.58 129.308 1214.95 147.224 1177.98 166.421C1175.73 167.602 1173.52 168.775 1171.34 169.989C1157.97 177.417 1146.84 184.47 1136.1 191.252C1123.21 199.431 1111 207.153 1095.33 215.431C1079.74 223.657 1061.62 231.322 1042.44 239.44C1033.43 243.26 1024.08 247.2 1014.81 251.305C1005.6 255.368 996.097 259.75 986.551 264.332C952.523 280.527 921.657 297.749 889.433 318.529C884.026 322.025 878.146 325.892 871.455 330.383C844.69 348.349 819.701 366.735 797.201 385.05L793.856 387.791C775.486 402.775 756.537 418.24 732.036 424.989L731.93 425.098Z" fill="#003A4A"/>
<path d="M723.426 426.692C721.883 427.117 720.295 427.501 718.699 427.86C686.92 434.875 657.935 426.086 629.914 417.594C617.12 413.708 603.887 409.703 590.855 407.407C549.041 400.013 519.506 407.185 496.12 415.151C483.238 419.556 471.31 424.714 459.683 430.966C454.195 433.922 448.787 437.044 443.059 440.36C425.871 450.284 408.114 460.606 388.251 465.622C377.671 468.296 367.705 469.382 357.84 468.997C328.279 467.83 307.17 452.084 294.707 439.065C284.401 428.341 276.56 416.11 269.403 404.518C262.669 393.48 255.275 381.766 245.387 370.714C228.31 351.77 204.685 338.081 178.801 332.183C159.295 327.792 138.384 327.4 116.668 330.974C83.5866 336.341 47.8242 350.793 13.2565 372.78C1.26523 380.417 -10.752 388.943 -23.4687 398.866C-49.7826 419.329 -74.6421 442.12 -98.6938 464.153C-106.135 470.965 -113.576 477.776 -121.031 484.537C-175.248 533.471 -219.889 564.894 -257.531 580.64L-261.07 573.696C-224.671 558.48 -181.075 527.693 -127.834 479.644C-120.373 472.907 -112.963 466.104 -105.546 459.326C-81.3329 437.142 -56.3049 414.224 -29.6611 393.483C-16.6636 383.349 -4.35893 374.636 7.94452 366.78C43.8691 343.937 81.2211 328.86 115.925 323.234C138.802 319.447 161.799 319.907 182.424 324.551C217.887 332.626 240.621 351.322 253.451 365.55C263.728 377.03 271.299 389.016 278.203 400.302C285.169 411.571 292.782 423.465 302.623 433.728C314.037 445.645 333.186 460.058 359.527 461.095C368.263 461.444 377.072 460.462 386.512 458.076C404.709 453.412 421.761 443.605 438.21 434.072C443.762 430.857 449.521 427.532 455.159 424.508C467.351 417.967 479.882 412.535 493.411 407.899C528.629 395.898 558.71 393.417 594.007 399.664C607.682 402.077 621.177 406.171 634.263 410.137C662.177 418.605 688.534 426.593 717.313 420.244C740.946 415.018 758.941 400.271 777.95 384.655L783.039 380.498C805.782 361.955 831.82 343.441 860.401 325.43C867.186 321.153 873.353 317.342 879.259 313.815C910.83 294.847 943.046 277.975 980.7 260.674C990.62 256.096 1000.38 251.669 1009.75 247.563C1015.83 244.9 1021.85 242.278 1027.84 239.69C1050.7 229.809 1072.26 220.5 1089.68 210.407C1104.31 201.909 1115.5 193.824 1127.33 185.242C1138.01 177.512 1149.06 169.52 1162.93 161.097C1165.17 159.758 1167.45 158.435 1169.76 157.103C1208.06 135.614 1260.18 116.734 1301.31 102.678L1304.68 101.534C1350.56 85.9269 1393.9 71.1556 1433.26 48.0076C1509.33 3.48783 1568.68 -77.9714 1584.54 -159.49L1594.08 -159.2C1577.78 -75.4234 1516.62 8.32632 1438.23 54.2362C1397.84 77.9862 1353.92 92.9472 1307.42 108.777L1304.05 109.922C1263.42 123.814 1211.97 142.453 1174.52 163.442C1172.29 164.698 1170.13 165.962 1167.98 167.25C1154.5 175.403 1143.66 183.259 1133.15 190.862C1121.63 199.225 1109.68 207.867 1094.54 216.637C1076.55 227.077 1054.62 236.54 1031.46 246.558C1025.53 249.128 1019.5 251.725 1013.46 254.38C1004.15 258.469 994.446 262.853 984.589 267.414C947.355 284.518 915.497 301.212 884.301 319.943C878.458 323.452 872.379 327.213 865.65 331.447C837.444 349.221 811.775 367.474 789.393 385.73L784.336 389.878C766.26 404.701 747.612 420.03 723.458 426.683L723.426 426.692Z" fill="#003D4E"/>
<path d="M714.914 428.261C713.402 428.678 711.846 429.053 710.282 429.403C679.17 436.261 650.799 427.731 623.378 419.448C609.89 415.379 595.925 411.174 582.122 409.037C541.846 402.797 513.347 411.022 488.567 420.817C475.794 425.86 464.083 431.44 452.801 437.838C448.23 440.434 443.75 443.113 438.976 445.953C420.962 456.693 402.309 467.823 381.193 472.837C370.565 475.336 360.606 476.207 350.691 475.514C321.289 473.447 301.334 456.848 289.765 443.262C280.553 432.451 273.707 420.266 266.898 407.723C261.179 397.047 254.292 384.713 244.703 373.15C228.55 353.871 205.291 339.787 179.221 333.459C160.034 328.873 138.534 328.188 117.084 331.502C83.8762 336.529 47.8988 350.693 13.0038 372.476C0.897543 380.064 -11.2347 388.542 -24.0801 398.366C-52.6381 420.277 -79.4747 444.869 -105.384 468.645C-110.985 473.772 -116.58 478.925 -122.188 484.027C-177.26 534.16 -219.863 565.476 -256.203 582.628L-260.225 575.898C-224.933 559.249 -183.255 528.508 -129.015 479.167C-123.407 474.064 -117.838 468.945 -112.237 463.818C-86.1339 439.882 -59.1426 415.113 -30.2164 392.941C-17.0971 382.88 -4.67731 374.216 7.748 366.433C44.0628 343.777 81.6435 329.039 116.474 323.751C139.389 320.222 162.391 320.948 182.959 325.875C210.875 332.631 235.719 347.67 252.93 368.208C262.953 380.24 270.038 392.922 275.863 403.863C282.489 416.108 289.176 427.963 297.948 438.28C306.608 448.44 325.203 465.762 352.702 467.684C361.405 468.283 370.207 467.517 379.624 465.297C398.894 460.712 416.701 450.082 433.958 439.791C438.557 437.053 443.325 434.188 448.014 431.532C459.791 424.838 471.985 419.044 485.305 413.771C511.706 403.342 542.056 394.581 585.097 401.263C599.611 403.525 613.908 407.826 627.759 411.982C655.065 420.216 680.855 427.986 708.958 421.77C732.308 416.622 750.026 401.978 768.734 386.499C770.946 384.686 773.15 382.848 775.336 381.069C798.216 362.408 825.015 343.952 854.989 326.199C861.923 322.095 868.327 318.405 874.551 314.925C904.464 298.179 936.663 282.355 978.993 263.579C988.559 259.313 998.464 254.926 1008.53 250.521L1016.85 246.892C1043.71 235.186 1069.09 224.128 1088.6 211.775C1102.73 202.8 1113.22 194.158 1124.33 185.027C1134.65 176.511 1145.34 167.709 1159.28 158.545C1161.49 157.107 1163.74 155.684 1166.07 154.269C1195.99 136.209 1239.62 117.959 1299.37 98.4772L1311.32 94.624C1355.16 80.4621 1396.54 67.085 1434.65 45.7804C1512.9 2.20837 1574.8 -81.9571 1588.68 -163.653L1598.25 -163.504C1583.95 -79.4762 1520.13 7.17229 1439.38 52.1282C1400.25 74.0347 1358.3 87.568 1313.87 101.92L1301.95 105.764C1243.1 124.945 1200.32 142.828 1171.18 160.405C1169 161.727 1166.83 163.073 1164.77 164.444C1151.34 173.277 1140.88 181.886 1130.77 190.233C1119.92 199.186 1108.68 208.436 1093.95 217.791C1073.67 230.653 1047.89 241.872 1020.58 253.783L1012.29 257.403C1002.25 261.8 992.381 266.178 982.816 270.444C940.811 289.05 908.913 304.738 879.351 321.281C873.214 324.71 866.905 328.374 860.028 332.435C830.541 349.866 804.198 368.01 781.767 386.333C779.58 388.112 777.401 389.916 775.221 391.721C757.397 406.474 738.988 421.684 715.054 428.276L714.914 428.261Z" fill="#004052"/>
<path d="M706.438 429.846C704.927 430.263 703.433 430.621 701.869 430.971C671.369 437.714 643.553 429.352 616.63 421.28C602.48 417.019 587.858 412.646 573.363 410.701C536.496 405.768 509.747 413.457 480.949 426.499C468.21 432.282 456.741 438.25 445.86 444.751C442.225 446.93 438.547 449.2 434.845 451.504C416.026 463.134 396.544 475.188 374.121 480.134C363.445 482.46 353.456 483.098 343.561 482.105C312.756 479.007 293.557 459.124 284.849 447.559C276.713 436.719 271.006 425.103 264.411 411.002C259.406 400.21 253.313 387.684 244.037 375.66C228.785 356.08 205.915 341.567 179.627 334.818C160.467 329.957 138.968 329.031 117.513 332.078C84.2087 336.758 47.9779 350.617 12.7242 372.204C0.464539 379.728 -11.7827 388.157 -24.7117 397.924C-55.815 421.419 -84.7381 448.031 -112.741 473.801L-123.364 483.575C-161.147 518.245 -210.208 561.05 -254.896 584.675L-259.426 578.192C-215.421 554.916 -164.624 510.295 -130.248 478.757L-119.65 469.016C-91.485 443.094 -62.351 416.264 -30.8233 392.466C-17.6136 382.487 -5.07883 373.872 7.52449 366.12C44.198 343.659 82.0322 329.225 116.966 324.311C139.917 321.039 162.925 322.031 183.474 327.258C211.621 334.485 236.089 350.002 252.383 370.9C262.074 383.451 268.371 396.349 273.529 407.448C279.958 421.192 285.519 432.527 293.277 442.856C301.198 453.407 318.587 471.516 345.875 474.272C354.521 475.154 363.307 474.579 372.703 472.526C393.083 468.036 411.664 456.525 429.614 445.428C433.348 443.115 437.082 440.803 440.78 438.607C452.067 431.86 463.918 425.68 477.077 419.701C507.802 405.781 536.378 397.589 576.02 402.88C591.322 404.925 606.358 409.45 620.903 413.79C647.68 421.822 672.946 429.415 700.444 423.339C723.598 418.218 741.033 403.652 759.521 388.234C762.167 386.033 764.838 383.8 767.492 381.624C790.583 362.745 818.15 344.371 849.442 326.977C856.438 323.097 863.247 319.403 869.708 316.045C904.814 297.734 940.572 282.16 977.152 266.493C986.902 262.283 996.985 257.927 1007.18 253.487C1036.08 240.927 1065.94 227.939 1087.41 213.119C1101.16 203.633 1110.99 194.425 1121.42 184.702C1131.34 175.443 1141.61 165.848 1155.51 155.944C1157.7 154.406 1159.92 152.884 1162.22 151.395C1192.22 132.004 1237.68 112.768 1297.25 94.2444C1303.69 92.2585 1310.09 90.3062 1316.44 88.3712C1358.73 75.4659 1398.67 63.2858 1435.81 43.5054C1517.44 0.235697 1580.45 -84.6908 1592.61 -167.838L1602.2 -167.856C1589.66 -82.2272 1524.63 5.29158 1440.34 49.9885C1402.17 70.3211 1361.66 82.6822 1318.81 95.7436C1312.46 97.6786 1306.09 99.6223 1299.69 101.599C1241.17 119.779 1196.73 138.545 1167.63 157.369C1165.47 158.765 1163.36 160.203 1161.32 161.648C1148 171.12 1138.01 180.455 1128.33 189.487C1118.09 199.049 1107.47 208.956 1093.1 218.907C1070.7 234.386 1040.28 247.58 1010.87 260.362C1000.64 264.811 990.567 269.192 980.785 273.411C944.412 288.967 908.899 304.447 874.15 322.579C867.815 325.902 861.087 329.521 854.179 333.35C823.475 350.421 796.483 368.422 773.916 386.863C771.262 389.039 768.64 391.206 766.025 393.397C748.39 408.099 730.201 423.247 706.463 429.813L706.438 429.846Z" fill="#004356"/>
<path d="M697.965 431.432C696.485 431.839 694.998 432.222 693.491 432.531C663.533 439.151 636.202 430.95 609.763 423.038C595.027 418.617 579.774 414.044 564.638 412.355C524.709 407.865 497.646 419.707 473.365 432.173C465.173 436.382 452.723 442.968 438.93 451.69C436.216 453.4 433.485 455.169 430.746 456.913C411.111 469.518 390.851 482.562 367.077 487.398C356.353 489.55 346.334 489.955 336.458 488.663C305.791 484.591 287.904 463.811 279.984 451.788C272.345 440.169 267.101 427.035 262.012 414.339C257.358 402.487 251.886 390.003 243.4 378.136C229.04 358.23 206.567 343.314 180.055 336.118C160.92 330.983 139.447 329.782 117.938 332.631C84.5306 336.937 48.0602 350.541 12.4792 371.925C0.0729925 379.408 -12.2961 387.764 -25.3155 397.449C-59.227 422.68 -90.5214 451.63 -120.759 479.621L-124.488 483.056C-164.994 520.509 -211.977 562.127 -253.542 586.63L-258.542 580.41C-217.909 556.458 -171.474 515.312 -131.404 478.246L-127.674 474.811C-97.219 446.627 -65.7384 417.492 -31.3532 391.89C-18.0599 381.968 -5.37178 373.418 7.35341 365.739C44.3542 343.483 82.4663 329.32 117.541 324.795C140.522 321.755 163.518 323.072 184.034 328.549C212.413 336.247 236.497 352.217 251.849 373.508C260.765 385.952 266.392 398.875 271.177 410.958C276.401 424.018 281.304 436.284 288.59 447.358C295.803 458.291 311.954 477.196 339.069 480.801C347.682 481.933 356.429 481.584 365.834 479.689C387.325 475.294 406.672 462.876 425.358 450.881C428.121 449.103 430.884 447.326 433.629 445.606C447.797 436.648 460.573 429.892 468.972 425.572C493.779 412.801 523.885 399.586 567.103 404.454C583.186 406.257 598.878 410.949 614.061 415.514C640.321 423.395 665.135 430.818 692.091 424.864C715.017 419.78 732.326 405.248 750.618 389.857C753.7 387.269 756.75 384.69 759.853 382.177C783.186 363.07 811.521 344.779 844.07 327.762C851.144 324.048 858.197 320.5 865.007 317.18C895.605 302.305 926.978 289.383 960.21 275.708L975.453 269.423C985.181 265.379 995.435 261.03 1005.97 256.469C1035.13 243.864 1065.36 230.24 1086.4 214.494C1099.76 204.472 1109.03 194.697 1118.82 184.35C1128.29 174.331 1138.11 163.976 1151.93 153.375C1154.03 151.78 1156.26 150.149 1158.56 148.552C1188.85 127.636 1234.86 107.954 1295.32 90.043C1303.84 87.5344 1312.32 85.0928 1320.74 82.6934C1361.85 70.9158 1400.69 59.7875 1437.16 41.2619C1520.84 -0.967057 1586.47 -88.6755 1596.75 -172.026L1606.36 -172.186C1595.73 -86.2791 1527.96 4.21427 1441.49 47.8554C1403.97 66.8835 1364.59 78.1841 1322.89 90.1266C1314.51 92.5422 1306.06 94.9502 1297.56 97.4502C1238.33 114.998 1193.48 134.118 1164.22 154.323C1162.06 155.828 1159.97 157.34 1158.01 158.843C1144.86 168.937 1135.37 178.989 1126.15 188.697C1116.49 198.901 1106.49 209.467 1092.4 220.037C1070.38 236.535 1039.42 250.491 1009.6 263.387C999.006 267.964 988.696 272.356 978.904 276.417L963.629 282.711C930.579 296.309 899.364 309.187 869.124 323.883C862.433 327.144 855.474 330.666 848.481 334.305C816.608 350.948 788.943 368.841 766.182 387.443C763.142 389.938 760.085 392.492 757.059 395.038C739.589 409.721 721.571 424.876 697.92 431.391L697.965 431.432Z" fill="#00475A"/>
<path d="M689.483 432.992C688.034 433.391 686.579 433.765 685.078 434.098C655.631 440.604 628.715 432.557 602.716 424.765C587.425 420.176 571.586 415.443 555.879 414.018C516.811 410.441 490.966 423.258 465.747 437.856C456.045 443.471 444.449 450.329 431.996 458.628L426.649 462.214C406.256 475.883 385.176 490.009 360.012 494.72C349.209 496.706 339.198 496.896 329.327 495.255C306.998 491.561 287.244 477.287 275.092 456.051C268.532 444.536 264.251 431.698 260.092 419.308L259.498 417.519C255.578 405.624 250.862 392.933 242.734 380.646C229.242 360.448 207.129 345.112 180.493 337.468C161.384 332.058 139.906 330.591 118.366 333.208C84.8318 337.175 48.1395 350.465 12.2066 371.678C-0.352927 379.097 -12.8056 387.395 -25.9085 397.023C-60.1582 422.133 -90.0603 449.496 -125.588 482.636C-165.889 520.22 -212.211 562.512 -252.172 588.66L-257.634 582.728C-218.424 557.054 -172.505 515.141 -132.535 477.835C-104.396 451.573 -69.3463 418.913 -31.89 391.422C-18.4749 381.574 -5.70325 373.08 7.17531 365.467C44.5349 343.406 82.9072 329.573 118.078 325.396C141.096 322.613 164.097 324.195 184.563 329.981C213.142 338.159 236.843 354.582 251.315 376.25C259.848 389.147 264.764 402.318 268.793 414.61L269.381 416.375C273.622 429.063 277.6 441.048 283.87 452.001C294.879 471.305 312.496 484.215 332.232 487.473C340.787 488.888 349.519 488.73 358.902 487.001C381.548 482.743 401.604 469.327 420.997 456.335L426.376 452.739C439.092 444.288 450.887 437.294 460.733 431.586C486.653 416.582 515.476 402.276 558.016 406.154C574.802 407.683 591.125 412.576 606.894 417.3C632.708 425.036 657.113 432.331 683.552 426.467C706.359 421.442 723.49 406.879 741.611 391.481C745.041 388.557 748.502 385.624 751.99 382.791C775.597 363.448 804.725 345.206 838.505 328.599C845.785 325.015 853.075 321.589 860.153 318.382C886.027 306.654 912.123 296.47 939.752 285.703C950.799 281.403 962.053 276.992 973.594 272.395C983.752 268.313 994.177 263.97 1004.6 259.495C1034.23 246.759 1064.5 232.669 1085.2 215.921C1098.25 205.37 1106.91 195.012 1116.12 184.023C1125.12 173.278 1134.42 162.155 1148.12 150.866C1150.19 149.171 1152.39 147.441 1154.67 145.744C1192.55 117.841 1250.9 97.7845 1293.15 85.8772C1303.53 82.9649 1313.97 80.1434 1324.04 77.4508C1364.3 66.6555 1402.31 56.4514 1438.31 39.0453C1525.32 -2.78946 1592.08 -91.2924 1600.68 -176.187L1610.32 -176.488C1601.45 -88.8971 1532.42 2.47517 1442.46 45.7406C1405.45 63.6405 1366.89 73.9673 1326.04 84.9522C1316 87.6361 1305.63 90.4403 1295.31 93.3353C1254.03 104.974 1197.16 124.489 1160.68 151.337C1158.54 152.917 1156.48 154.528 1154.57 156.096C1141.63 166.779 1132.6 177.557 1123.91 187.95C1114.8 198.804 1105.39 210.036 1091.57 221.227C1069.79 238.836 1038.65 253.351 1008.24 266.437C997.73 270.963 987.179 275.341 976.933 279.474C965.367 284.104 954.075 288.499 942.972 292.841C915.5 303.565 889.555 313.681 863.951 325.281C856.96 328.437 849.796 331.828 842.635 335.352C809.658 351.551 781.28 369.319 758.34 388.131C754.915 390.947 751.51 393.837 748.129 396.695C730.798 411.393 712.895 426.596 689.371 433.076L689.483 432.992Z" fill="#004A5E"/>
<path d="M681.007 434.577C679.59 434.968 678.135 435.342 676.665 435.666C647.673 442.101 621.158 434.156 595.56 426.468C579.753 421.727 563.398 416.842 547.151 415.673C508.721 412.937 484.112 426.671 458.122 443.513L456.509 444.546C447.164 450.598 436.589 457.47 425.025 465.551L422.552 467.275C402.391 481.415 379.494 497.432 352.902 502.002C342.058 503.839 331.979 503.78 322.158 501.83C290.522 495.591 275.267 470.715 270.2 460.314C264.611 448.879 261.215 436.306 257.929 424.13L257.011 420.798C253.823 408.729 249.793 395.822 242.069 383.156C229.438 362.64 207.722 346.901 180.9 338.827C161.824 333.168 140.333 331.41 118.795 333.785C85.1329 337.413 48.2257 350.414 11.9586 371.398C-0.715921 378.768 -13.3219 387.002 -26.5152 396.548C-63.1377 423.007 -96.1135 453.357 -126.708 482.142C-167.021 520.05 -212.715 563.025 -250.815 590.639L-256.733 585.02C-219.202 557.803 -173.775 515.089 -133.704 477.408C-102.836 448.387 -69.593 417.777 -32.4337 390.929C-18.8968 381.155 -6.01009 372.71 7.02183 365.161C45.2728 343.015 82.8414 329.831 118.671 325.954C141.719 323.404 164.733 325.277 185.179 331.362C213.958 340.02 237.282 356.922 250.837 378.949C258.987 392.3 263.185 405.695 266.497 418.212L267.415 421.544C270.738 433.977 273.908 445.73 279.245 456.619C283.874 466.044 297.611 488.609 325.489 494.118C333.98 495.792 342.672 495.859 352.09 494.254C375.968 490.165 396.729 475.619 416.84 461.545L419.313 459.821C431.014 451.622 441.715 444.716 451.109 438.597L452.722 437.564C479.543 420.172 507.065 404.833 549.155 407.818C566.607 409.057 583.516 414.11 599.847 419.028C625.253 426.635 649.257 433.826 675.254 428.083C697.992 423.051 714.952 408.481 732.933 393.069C736.717 389.833 740.494 386.572 744.338 383.427C768.243 363.815 798.139 345.656 833.118 329.467C840.541 326.031 848.06 322.703 855.47 319.592C878.51 309.875 901.476 301.489 925.818 292.564C940.742 287.088 956.195 281.441 971.937 275.366C982.312 271.331 992.939 266.986 1003.46 262.484C1029.91 251.157 1063.02 235.804 1084.25 217.303C1096.98 206.2 1105.14 195.231 1113.76 183.601C1122.26 172.138 1131.09 160.265 1144.62 148.27C1146.67 146.476 1148.84 144.647 1151.1 142.875C1189.07 113.183 1248.31 93.1999 1291.28 81.6587C1303.34 78.4444 1315.38 75.4216 1327.04 72.5029C1366.63 62.5883 1404.04 53.2475 1439.73 36.8094C1528.63 -3.91638 1598.07 -95.2436 1604.85 -180.358L1614.49 -180.793C1607.49 -92.9153 1535.63 1.45751 1443.64 43.6237C1406.92 60.5308 1368.98 70.0192 1328.82 80.065C1317.19 82.975 1305.18 85.9892 1293.25 89.1687C1251.41 100.398 1193.73 119.79 1157.33 148.275C1155.21 149.928 1153.2 151.606 1151.32 153.274C1138.58 164.569 1130.07 176.007 1121.84 187.1C1113.3 198.63 1104.48 210.529 1090.9 222.349C1068.49 241.869 1034.31 257.758 1007.06 269.41C996.422 273.972 985.669 278.352 975.143 282.455C959.276 288.564 943.798 294.245 928.81 299.738C904.619 308.595 881.779 316.946 859.009 326.535C851.757 329.603 844.356 332.872 837.053 336.248C802.939 352.011 773.912 369.636 750.73 388.675C746.943 391.778 743.215 394.972 739.486 398.165C722.271 412.912 704.483 428.164 680.989 434.636L681.007 434.577Z" fill="#004D63"/>
<path d="M672.559 436.129C671.142 436.519 669.718 436.885 668.28 437.2C639.704 443.547 613.552 435.69 588.285 428.097C572 423.221 555.154 418.15 538.381 417.287C500.513 415.359 476.143 430.578 450.486 449.121C447.178 451.504 443.614 454.064 439.843 456.734C433.277 461.432 425.83 466.747 418.105 472.406C397.421 487.599 373.98 504.837 345.876 509.207C335.078 510.844 324.728 510.539 315.034 508.313C293.139 503.243 274.564 486.852 265.322 464.493C260.633 453.132 258.072 440.756 255.595 428.812L254.602 423.977C252.074 411.726 248.731 398.603 241.449 385.575C229.838 365.072 207.92 348.478 181.351 340.094C162.333 334.151 140.844 332.152 119.244 334.303C84.9864 337.614 48.8266 350.008 11.7065 371.094C-0.946129 378.297 -14.0108 386.711 -27.1261 396.048C-64.0868 422.386 -97.398 452.748 -127.864 481.631C-133.368 486.865 -138.903 492.108 -144.407 497.343C-182.426 533.495 -218.326 567.62 -249.5 592.578L-255.805 587.279C-224.96 562.599 -189.222 528.626 -151.365 492.625C-145.861 487.391 -140.326 482.148 -134.822 476.913C-104.089 447.77 -70.4544 417.105 -32.9255 390.369C-19.5049 380.788 -6.08971 372.17 6.88198 364.772C45.4917 342.821 83.3069 329.917 119.252 326.463C142.338 324.17 165.357 326.309 185.746 332.677C214.285 341.696 237.831 359.526 250.31 381.582C258.045 395.395 261.659 409.62 264.152 421.747L265.145 426.583C267.666 438.809 270.065 450.347 274.539 461.179C282.909 481.477 299.411 496.245 318.696 500.697C327.13 502.654 335.8 502.888 345.234 501.466C370.376 497.537 392.583 481.228 412.169 466.845C419.943 461.119 427.421 455.795 434.051 451.08C437.79 448.419 441.361 445.883 444.63 443.485C471.168 424.325 498.458 407.284 540.176 409.409C558.254 410.341 575.718 415.562 592.596 420.624C617.64 428.144 641.281 435.248 666.855 429.568C689.491 424.536 706.374 409.935 724.24 394.474C728.26 390.986 732.417 387.38 736.622 383.948C760.85 364.032 791.483 345.965 827.675 330.244C835.272 326.948 843.028 323.741 850.731 320.71C871.894 312.42 892.889 305.245 915.093 297.658C932.931 291.568 951.392 285.279 970.193 278.254C980.815 274.258 991.59 269.953 1002.2 265.425C1026.61 255.036 1061.6 238.872 1083.23 218.629C1095.68 206.988 1103.29 195.394 1111.33 183.122C1119.33 170.941 1127.61 158.334 1140.99 145.66C1143.01 143.766 1145.16 141.837 1147.42 139.982C1187.39 106.826 1253.46 86.5644 1289.3 77.4161C1302.82 73.9856 1316.39 70.8372 1329.47 67.7941C1368.61 58.6995 1405.55 50.1288 1441.04 34.5494C1533.25 -5.72365 1603.86 -97.854 1608.94 -184.587L1618.6 -185.163C1613.34 -95.5431 1540.24 -0.266493 1444.76 41.4159C1408.24 57.4394 1370.73 66.1662 1331.02 75.3672C1317.99 78.393 1304.49 81.524 1291.09 84.9198C1256.27 93.8154 1192.06 113.457 1153.86 145.138C1151.79 146.858 1149.8 148.61 1147.95 150.377C1135.4 162.26 1127.43 174.407 1119.72 186.16C1111.73 198.34 1103.47 210.914 1090.16 223.38C1067.24 244.835 1031.06 261.57 1005.8 272.326C995.027 276.897 984.078 281.305 973.298 285.344C954.277 292.429 935.759 298.76 917.858 304.868C895.774 312.396 874.936 319.527 854.018 327.723C846.466 330.686 838.86 333.824 831.389 337.086C796.202 352.396 766.463 369.896 743.07 389.153C738.978 392.501 734.877 396.065 730.913 399.511C713.788 414.339 696.084 429.649 672.622 436.111L672.559 436.129Z" fill="#005067"/>
<path d="M664.115 437.705C662.73 438.087 661.337 438.444 659.9 438.76C631.677 445.036 605.912 437.233 580.97 429.711C563.492 424.44 546.939 419.45 529.686 418.933C492.131 417.774 469.088 433.752 442.855 454.754C436.25 460.051 428.45 466.052 420.201 472.39L411.172 479.344C388.621 496.738 366.116 512.701 338.836 516.497C327.966 517.993 317.579 517.43 307.961 514.863C286.133 509.052 268.407 491.812 260.525 468.73C256.661 457.409 254.856 445.2 253.13 433.397L252.211 427.23C250.47 415.377 247.725 401.474 240.847 388.067C230.066 367.256 208.545 350.259 181.822 341.436C162.829 335.218 141.335 332.953 119.704 334.872C85.3512 337.834 48.9382 349.924 11.4977 370.83C-1.27004 377.985 -14.4566 386.325 -27.6869 395.614C-66.6097 422.947 -100.726 454.2 -128.938 481.178C-142.293 493.951 -155.663 506.916 -168.604 519.469C-197.342 547.368 -224.509 573.71 -248.142 594.558L-254.864 589.588C-231.418 568.926 -204.362 542.668 -175.705 514.845C-162.771 502.267 -149.377 489.268 -135.959 476.477C-107.448 449.23 -72.9527 417.632 -33.4617 389.902C-19.9192 380.393 -6.38896 371.825 6.73609 364.491C45.7046 342.736 83.7415 330.145 119.853 327.047C143 324.977 166 327.416 186.338 334.093C215.077 343.591 238.216 361.908 249.84 384.306C257.14 398.506 259.993 413.048 261.832 425.382L262.758 431.574C264.522 443.634 266.233 455.013 269.89 465.83C277.006 486.741 292.739 502.283 311.961 507.368C320.299 509.592 328.961 510.041 338.397 508.753C362.702 505.349 383.814 490.358 405.05 473.969L414.11 467.006C422.303 460.71 430.047 454.751 436.571 449.53C458.691 431.801 486.257 409.735 531.26 411.116C549.952 411.692 567.907 417.098 585.277 422.345C609.957 429.778 633.274 436.811 658.502 431.226C681.075 426.212 697.9 411.52 715.65 396.011C719.962 392.228 724.417 388.353 728.92 384.651C753.616 364.34 785.041 346.321 822.271 331.171C829.758 328.092 837.752 325.007 846.007 322.011C865.899 314.766 885.565 308.547 906.344 301.94C926.476 295.566 947.294 288.976 968.495 281.317C979.333 277.368 990.279 273.069 1000.99 268.54C1039.95 252.056 1065.77 236.679 1082.25 220.128C1094.44 207.917 1101.52 195.722 1109 182.799C1116.5 169.901 1124.24 156.56 1137.44 143.215C1139.43 141.221 1141.55 139.218 1143.76 137.248C1183.62 102.246 1250.83 82.1798 1287.33 73.3316C1302.19 69.7443 1317.1 66.5473 1331.52 63.4308C1370.33 55.0966 1406.99 47.2193 1442.38 32.4141C1536.36 -6.71528 1609.73 -101.746 1613.1 -188.675L1622.76 -189.384C1619.3 -99.4856 1543.28 -1.15756 1445.93 39.3823C1409.47 54.6402 1372.29 62.6067 1332.92 71.0721C1318.58 74.1378 1303.74 77.3423 1289.03 80.8862C1253.62 89.4643 1188.52 108.866 1150.48 142.242C1148.44 144.036 1146.47 145.888 1144.68 147.721C1132.35 160.184 1125.23 172.445 1117.69 185.435C1110.25 198.266 1102.52 211.549 1089.46 224.643C1071.94 242.204 1044.98 258.351 1004.59 275.441C993.66 280.056 982.533 284.432 971.48 288.466C950.027 296.194 929.122 302.835 908.864 309.245C888.204 315.792 868.664 321.976 849.017 329.127C840.92 332.08 833.077 335.096 825.747 338.131C789.617 352.845 759.204 370.237 735.393 389.823C731.002 393.44 726.603 397.274 722.373 400.98C705.306 415.9 687.692 431.291 664.199 437.763L664.115 437.705Z" fill="#00546B"/>
<path d="M655.67 439.257C654.284 439.639 652.923 439.987 651.485 440.303C623.609 446.483 598.144 438.785 573.488 431.318C555.557 425.878 538.634 420.776 520.925 420.571C480.617 420.118 456.488 441.504 435.19 460.371C426.121 468.407 414.952 477.555 404.231 486.233C384.12 502.526 360.257 520.201 331.756 523.745C320.806 525.075 310.389 524.28 300.822 521.405C279.054 514.828 262.172 496.714 255.663 472.96C252.546 461.647 251.492 449.578 250.446 437.909C250.237 435.426 249.995 432.951 249.754 430.476C248.637 418.425 246.609 404.297 240.18 390.553C230.205 369.466 209.074 352.04 182.22 342.745C163.254 336.253 141.785 333.713 120.093 335.408C85.6056 338.006 48.9844 349.832 11.2098 370.509C-1.71131 377.599 -15.0198 385.866 -28.3336 395.098C-60.2079 417.146 -91.5998 443.528 -130.13 480.651C-153.587 503.243 -176.2 525.95 -198.068 547.917C-215.554 565.493 -232.085 582.111 -246.933 596.473L-254.01 591.815C-239.25 577.504 -222.736 560.945 -205.281 543.377C-183.389 521.376 -160.72 498.627 -137.214 475.968C-98.255 438.433 -66.4455 411.722 -34.0906 389.327C-20.4331 379.867 -6.81246 371.381 6.46597 364.112C45.7686 342.586 84.0836 330.266 120.298 327.541C143.482 325.729 166.487 328.434 186.768 335.393C215.644 345.389 238.368 364.168 249.176 386.925C256.047 401.537 258.159 416.337 259.311 428.887C259.553 431.361 259.769 433.87 260.011 436.345C261.093 448.271 262.1 459.55 265.034 470.325C269.577 486.943 282.454 507.124 305.025 513.907C313.298 516.39 321.92 517.064 331.391 515.9C356.683 512.759 378.031 496.901 397.755 480.928C408.396 472.326 419.452 463.262 428.36 455.378C450.093 436.123 477.164 412.134 522.129 412.642C541.403 412.871 559.844 418.438 577.698 423.846C602.061 431.233 625.084 438.186 649.928 432.68C672.508 427.691 689.235 412.892 706.92 397.266C711.498 393.223 716.238 389.029 721.047 385.083C746.065 364.468 778.234 346.565 816.671 331.859C824.356 328.886 832.587 325.923 841.11 323.04C860.114 316.629 878.825 311.127 898.639 305.321C920.676 298.85 943.468 292.171 966.624 284.107C977.686 280.231 988.771 275.947 999.61 271.383C1038.25 255.094 1064.89 238.743 1081.11 221.38C1093.04 208.598 1099.6 195.769 1106.54 182.196C1113.5 168.589 1120.71 154.539 1133.69 140.531C1135.65 138.438 1137.75 136.335 1139.93 134.29C1179.69 97.4442 1247.98 77.59 1285.19 69.0246C1301.32 65.3314 1317.45 62.1454 1333.07 59.0485C1371.65 51.4151 1408.12 44.205 1443.51 30.0984C1540.76 -8.48641 1615.34 -104.387 1617 -192.96L1626.66 -193.802C1624.97 -102.144 1547.66 -2.87022 1446.86 37.1187C1410.41 51.6532 1373.39 58.961 1334.22 66.7008C1318.71 69.7717 1302.64 72.9404 1286.71 76.6063C1250.7 84.8919 1184.62 104.031 1146.84 139.075C1144.81 140.944 1142.9 142.861 1141.1 144.802C1128.97 157.853 1122.37 170.774 1115.36 184.473C1108.45 197.987 1101.31 211.937 1088.49 225.661C1071.23 244.166 1043.31 261.405 1003.15 278.326C992.065 282.984 980.735 287.363 969.428 291.333C945.963 299.508 923.045 306.223 900.852 312.737C881.163 318.508 862.571 323.95 843.819 330.292C835.453 333.132 827.405 336.017 819.877 338.947C782.641 353.216 751.548 370.475 727.502 390.313C722.837 394.166 718.178 398.285 713.649 402.261C696.641 417.271 679.093 432.779 655.568 439.258L655.67 439.257Z" fill="#00576F"/>
<path d="M338.42 528.382C333.98 529.605 329.419 530.514 324.71 531.009C313.649 532.183 303.233 531.146 293.71 527.938C268.124 519.31 254.81 496.066 250.859 477.172C248.491 465.867 248.072 453.891 247.699 442.33C247.59 439.472 247.504 436.579 247.356 433.704C246.869 421.48 245.545 407.078 239.565 392.996C230.363 371.643 209.654 353.78 182.677 344.037C163.768 337.261 142.294 334.456 120.579 335.943C85.9638 338.201 49.0961 349.748 10.9942 370.221C-2.04187 377.262 -15.4722 385.456 -28.901 394.639C-61.5065 416.861 -93.9965 444.055 -131.211 480.173C-169.486 517.359 -206.338 556.641 -235.963 588.208L-245.575 598.453L-252.962 594.148L-243.349 583.903C-213.675 552.269 -176.718 512.878 -138.281 475.54C-100.645 438.984 -67.6811 411.42 -34.532 388.833C-20.7842 379.456 -7.01019 371.034 6.4079 363.78C46.0693 342.449 84.6061 330.443 120.986 328.073C144.2 326.494 167.218 329.489 187.48 336.749C216.493 347.241 238.84 366.499 248.801 389.623C255.198 404.607 256.581 419.714 257.086 432.495C257.203 435.379 257.326 438.288 257.405 441.155C257.814 452.973 258.185 464.16 260.448 474.959C264.032 492.028 275.835 512.986 298.359 520.585C306.544 523.36 315.144 524.201 324.656 523.186C349.557 520.473 371.16 504.678 390.769 488.042C403.182 477.507 412.908 468.782 420.464 461.404C441.767 440.583 468.279 414.689 513.308 414.323C533.15 414.154 552.051 419.916 570.32 425.477C594.397 432.808 617.141 439.732 641.656 434.263C664.26 429.24 680.904 414.384 698.53 398.668C703.375 394.364 708.351 389.917 713.426 385.71C738.743 364.826 771.681 347.006 811.292 332.752C819.207 329.876 827.675 327.035 836.404 324.283C854.774 318.527 873.666 313.431 891.927 308.508C915.612 302.117 940.116 295.501 964.881 287.128C976.128 283.308 987.415 279.022 998.38 274.423C1037.29 258.115 1064.05 241.222 1080.11 222.805C1091.78 209.452 1097.83 195.989 1104.25 181.756C1110.68 167.466 1117.34 152.657 1130.14 138.002C1132.08 135.81 1134.15 133.608 1136.31 131.488C1165.22 103.222 1218.77 78.9469 1283.24 64.8816C1300.5 61.1173 1317.83 58.0006 1334.58 54.9655C1373.05 48.0069 1409.42 41.4132 1444.88 27.9542C1543.81 -9.46085 1621.21 -108.304 1621.15 -197.073L1630.82 -198.023C1630.89 -106.128 1550.6 -3.73533 1448.02 35.0601C1411.5 48.9471 1374.61 55.6298 1335.53 62.7034C1318.87 65.7125 1301.68 68.8442 1284.64 72.5478C1222.32 86.1562 1170.87 109.343 1143.43 136.162C1141.45 138.097 1139.54 140.123 1137.79 142.13C1125.89 155.785 1119.77 169.349 1113.3 183.731C1106.93 197.897 1100.33 212.555 1087.79 226.924C1070.6 246.584 1042.52 264.432 1001.94 281.441C990.698 286.143 979.165 290.523 967.642 294.446C942.499 302.924 917.806 309.591 893.932 316.034C874.947 321.156 857.007 326.018 838.881 331.679C830.303 334.363 822.025 337.152 814.267 339.984C775.919 353.784 744.159 370.958 719.864 390.999C714.95 395.054 710.024 399.434 705.266 403.687C687.316 419.706 668.763 436.239 643.101 441.97C615.546 448.089 590.361 440.42 565.991 433.009C547.652 427.44 530.339 422.151 512.188 422.309C471.997 422.653 448.366 445.72 427.517 466.096C419.774 473.659 409.886 482.535 397.28 493.23C379.763 508.113 360.612 522.35 338.441 528.457L338.42 528.382Z" fill="#005A73"/>
<path d="M332.272 535.586C327.548 536.887 322.69 537.824 317.632 538.281C306.491 539.29 296.045 538.021 286.597 534.471C261.093 524.911 248.895 500.798 246.03 481.417C244.332 470.088 244.58 458.196 244.798 446.687C244.858 443.46 244.911 440.209 244.933 436.966C245.068 424.543 244.455 409.892 238.9 395.506C230.496 373.852 210.145 355.57 183.083 345.395C164.201 338.345 142.728 335.298 120.976 336.528C86.2333 338.447 49.1438 349.68 10.7214 369.974C-2.43652 376.942 -15.9819 385.087 -29.5326 394.197C-62.7501 416.534 -96.3834 444.497 -132.356 479.712C-167.714 514.329 -205.387 554.934 -244.327 600.409L-252.029 596.432C-212.917 550.722 -175.033 509.898 -139.457 475.087C-103.032 439.427 -68.8754 411.026 -35.0828 388.316C-21.2199 378.986 -7.33089 370.613 6.21592 363.458C46.2429 342.347 85.0262 330.621 121.509 328.624C144.792 327.293 167.783 330.564 187.988 338.106C217.131 349.071 239.076 368.841 248.176 392.282C254.107 407.662 254.748 423.027 254.605 436.04C254.59 439.308 254.506 442.568 254.453 445.82C254.233 457.57 254.007 468.68 255.631 479.495C258.105 496.228 268.985 518.751 291.462 527.165C299.583 530.198 308.143 531.264 317.721 530.365C343.484 527.95 365.452 511.145 383.577 495.025C395.09 484.791 404.778 475.435 412.387 467.267C433.171 444.93 459.047 417.097 504.312 415.864C524.691 415.307 544.038 421.213 562.729 426.952C586.526 434.253 609.015 441.113 633.247 435.722C655.852 430.7 672.461 415.719 690.021 399.887C695.102 395.331 700.338 390.599 705.694 386.181C731.341 365.019 765.039 347.257 805.826 333.454C813.94 330.684 822.637 327.941 831.648 325.351C849.6 320.166 867.995 315.607 885.786 311.188C910.969 304.947 936.977 298.505 963.183 289.949C974.646 286.177 986.08 281.93 997.171 277.297C1035.86 261.157 1063.45 243.232 1079.17 224.054C1090.61 210.097 1096.15 196.024 1102.01 181.142C1107.91 166.142 1114 150.633 1126.59 135.316C1128.47 133.033 1130.51 130.731 1132.68 128.528C1173.52 86.4901 1250.21 66.997 1281.27 60.5805C1299.62 56.8121 1318.02 53.7746 1335.81 50.8273C1374.28 44.484 1410.59 38.5229 1446.2 25.6109C1548.36 -11.2509 1627.02 -110.948 1625.28 -201.394L1634.94 -202.477C1636.76 -108.79 1555.18 -5.45085 1449.19 32.7601C1412.52 46.0416 1375.65 52.134 1336.59 58.5589C1318.92 61.4714 1300.64 64.4743 1282.53 68.2068C1219.19 81.3198 1167.21 104.92 1139.96 132.943C1137.98 134.986 1136.11 137.052 1134.42 139.15C1122.73 153.393 1117.12 167.616 1111.18 182.708C1105.34 197.532 1099.3 212.866 1087 227.889C1070.19 248.409 1041.13 267.382 1000.72 284.265C989.318 289.01 977.582 293.393 965.804 297.252C939.165 305.955 912.936 312.457 887.526 318.734C869.036 323.319 851.592 327.642 833.86 332.767C825.045 335.329 816.53 337.996 808.573 340.722C769.152 354.069 736.712 371.11 712.142 391.386C706.948 395.653 701.824 400.301 696.824 404.781C678.909 420.924 660.397 437.607 634.696 443.322C607.432 449.387 582.494 441.757 558.404 434.376C539.681 428.645 522.03 423.235 503.468 423.747C463.249 424.848 440.198 449.655 419.83 471.53C412.009 479.917 402.11 489.491 390.355 499.952C374.189 514.329 355.045 529.206 332.307 535.469L332.272 535.586Z" fill="#005D77"/>
<path d="M326.061 542.807C321.085 544.178 315.923 545.118 310.586 545.545C299.334 546.397 288.89 544.887 279.485 541.004C254.025 530.495 242.969 504.624 241.233 485.654C240.2 474.276 241.031 462.41 241.839 450.952C242.076 447.383 242.344 443.805 242.542 440.219C243.294 427.573 243.359 412.682 238.292 397.974C230.654 376.029 210.669 357.351 183.509 346.696C164.691 339.387 143.205 336.049 121.398 337.081C86.5218 338.635 49.2241 349.605 10.4361 369.678C-2.87518 376.582 -16.5355 384.678 -30.1698 393.73C-64.3814 416.395 -98.1789 444.377 -133.538 479.235C-171.343 516.532 -210.28 560.295 -243.14 602.383L-251.12 598.749C-218.014 556.326 -178.792 512.244 -140.696 474.653C-104.866 439.29 -70.5381 410.895 -35.7269 387.824C-21.7489 378.544 -7.73808 370.244 5.9306 363.162C46.2849 342.255 85.3216 330.834 121.97 329.192C145.283 328.094 168.287 331.655 188.44 339.506C217.721 350.969 239.252 371.2 247.535 395C252.954 410.735 252.898 426.399 252.108 439.644C251.916 443.255 251.655 446.858 251.394 450.461C250.56 462.193 249.782 473.268 250.773 484.123C252.351 501.29 262.125 524.599 284.563 533.854C292.587 537.154 301.164 538.403 310.759 537.686C337.358 535.603 359.777 517.604 376.332 502.183C387.17 492.082 396.827 482.119 404.265 473.329C424.484 449.436 449.669 419.707 495.232 417.589C516.141 416.618 535.878 422.711 554.977 428.579C578.526 435.842 600.775 442.687 624.716 437.35C647.345 432.294 663.927 417.213 681.453 401.257C686.738 396.458 692.209 391.473 697.808 386.828C723.778 365.363 758.22 347.717 800.213 334.358C808.525 331.694 817.459 329.072 826.739 326.597C844.384 321.897 862.428 317.783 879.905 313.825C906.404 307.809 933.829 301.593 961.293 292.931C972.948 289.239 984.585 284.99 995.802 280.322C1034.84 264.112 1062.52 245.654 1078.06 225.456C1089.27 210.919 1094.3 196.212 1099.64 180.645C1105.01 164.961 1110.57 148.743 1122.91 132.772C1124.76 130.39 1126.78 128.014 1128.89 125.695C1169.5 81.7388 1247.47 62.5886 1279.1 56.3901C1298.46 52.6101 1317.89 49.7189 1336.67 46.9266C1375.17 41.1898 1411.53 35.7769 1447.32 23.4033C1551 -12.2455 1632.59 -114.969 1629.18 -205.57L1638.85 -206.762C1640.57 -161.145 1622.12 -111.523 1586.91 -66.9975C1551.48 -22.1946 1502.89 12.4827 1450.09 30.6381C1413.21 43.3651 1374.58 49.1365 1337.22 54.694C1318.57 57.4765 1299.27 60.3579 1280.2 64.0598C1249.72 70.0207 1174.65 88.3977 1136.28 129.917C1134.33 132.034 1132.48 134.201 1130.81 136.373C1119.34 151.195 1114.23 166.086 1108.85 181.853C1103.56 197.353 1098.05 213.371 1085.99 229.023C1069.32 250.656 1040.12 270.254 999.232 287.242C987.676 292.03 975.738 296.415 963.744 300.228C935.783 309.053 908.13 315.306 881.379 321.39C864.028 325.313 846.079 329.402 828.685 334.032C819.595 336.456 810.881 339.017 802.726 341.637C762.224 354.506 729.079 371.447 704.243 391.984C698.837 396.469 693.44 401.353 688.236 406.077C670.355 422.344 651.915 439.167 626.12 444.908C599.115 450.929 574.449 443.304 550.576 435.97C531.508 430.094 513.48 424.547 494.546 425.429C454.196 427.288 431.758 453.825 411.94 477.207C404.273 486.274 394.325 496.531 383.189 506.902C368.41 520.656 349.18 536.332 325.876 542.751L326.061 542.807Z" fill="#00617C"/>
<path d="M319.75 550.03C314.554 551.461 309.158 552.412 303.534 552.784C292.211 553.496 281.722 551.704 272.4 547.504C247.015 536.038 237.176 509.296 236.438 489.891C236.031 478.447 237.445 466.608 238.83 455.152C239.288 451.281 239.771 447.376 240.16 443.497C241.534 430.653 242.304 415.487 237.692 400.467C230.797 378.264 211.227 359.124 183.981 348.037C165.22 340.445 143.729 336.842 121.861 337.649C86.8886 338.856 49.3129 349.554 10.2292 369.414C-3.19715 376.269 -16.9794 384.292 -30.704 393.262C-65.8535 416.212 -99.8222 444.187 -134.579 478.773C-173.991 517.984 -212.088 562.585 -241.812 604.371L-250.045 601.048C-220.032 558.835 -181.584 513.79 -141.761 474.224C-106.464 439.142 -71.9405 410.72 -36.1598 387.355C-22.0915 378.157 -7.92722 369.922 5.88797 362.879C46.6079 342.193 85.891 331.052 122.642 329.783C146.023 328.934 169.002 332.769 189.098 340.903C218.483 352.872 239.606 373.59 247.099 397.715C252.043 413.821 251.252 429.768 249.814 443.245C249.408 447.183 248.932 451.112 248.449 455.017C247.038 466.748 245.715 477.812 246.119 488.749C246.762 506.335 255.47 530.446 277.836 540.549C285.65 544.068 294.467 545.572 303.962 544.989C325.236 543.623 345.38 532.617 369.285 509.314C379.729 499.134 389.073 488.776 396.34 479.364C415.939 453.957 440.306 422.367 486.357 419.312C507.77 417.961 527.853 424.2 547.297 430.213C570.637 437.453 592.676 444.276 616.396 439C639.12 433.918 655.636 418.722 673.128 402.641C678.617 397.598 684.324 392.362 690.171 387.514C716.465 365.746 751.682 348.208 794.825 335.334C803.367 332.767 812.538 330.268 822.03 327.947C839.481 323.649 857.305 319.97 874.556 316.422C902.29 310.708 930.983 304.784 959.611 296.043C971.482 292.399 983.258 288.165 994.601 283.462C1034.02 267.148 1061.82 248.148 1077.16 226.962C1088.1 211.83 1092.65 196.48 1097.46 180.229C1102.3 163.862 1107.29 146.918 1119.42 130.309C1121.24 127.828 1123.2 125.361 1125.32 122.959C1165.65 77.102 1244.97 58.3022 1277.2 52.3129C1297.51 48.5636 1317.9 45.836 1337.61 43.2159C1376.21 38.0684 1412.68 33.1863 1448.71 21.3088C1555.63 -13.7618 1638.5 -117.373 1633.38 -209.643L1643.05 -210.942C1648.34 -115.241 1562.37 -7.77785 1451.33 28.6118C1414.21 40.8427 1375.48 46.0001 1338 51.0267C1318.43 53.6369 1298.2 56.3461 1278.18 60.0422C1247.2 65.7677 1170.98 83.7921 1132.92 127.045C1131.01 129.229 1129.2 131.494 1127.55 133.742C1116.27 149.152 1111.69 164.727 1106.83 181.178C1102.07 197.337 1097.12 214.055 1085.34 230.328C1068.86 253.056 1039.54 273.279 998.133 290.381C986.426 295.237 974.278 299.6 962.029 303.348C932.873 312.262 903.891 318.239 875.866 324.006C858.748 327.544 841.018 331.197 823.819 335.426C814.523 337.719 805.573 340.158 797.187 342.682C755.581 355.105 721.786 371.904 696.676 392.678C691.015 397.34 685.452 402.484 680.044 407.451C662.197 423.843 643.735 440.832 617.877 446.59C591.092 452.55 566.643 444.973 542.972 437.637C523.598 431.631 505.263 425.955 485.949 427.182C445.326 429.892 423.549 458.093 404.345 482.964C396.807 492.745 387.147 503.431 376.387 513.938C363.111 526.877 343.768 543.494 319.739 550.113L319.75 550.03Z" fill="#006480"/>
<path d="M313.712 557.257C308.232 558.767 302.476 559.764 296.489 560.048C285.048 560.578 274.567 558.57 265.32 554.028C240.011 541.606 231.389 513.993 231.674 494.119C231.854 482.594 233.838 470.732 235.768 459.286C236.479 455.104 237.191 450.923 237.801 446.742C239.792 433.674 241.241 418.268 237.085 402.935C230.956 380.44 211.752 360.906 184.408 349.338C165.673 341.471 144.208 337.593 122.309 338.168C87.2027 339.01 49.412 349.42 9.97636 369.11C-3.60334 375.9 -17.476 383.841 -31.3156 392.762C-66.828 415.625 -101.933 444.395 -135.736 478.262C-176.017 518.623 -213.259 564.112 -240.599 606.311L-249.016 603.306C-221.345 560.588 -183.67 514.578 -142.911 473.739C-108.606 439.358 -72.8588 410.09 -36.6837 386.804C-22.5004 377.654 -8.2143 369.493 5.71592 362.499C46.7631 342.017 86.2928 331.155 123.216 330.267C146.659 329.641 169.65 333.768 189.664 342.219C219.155 354.694 239.863 375.874 246.571 400.348C251.035 416.801 249.508 433.031 247.43 446.765C246.802 451.004 246.097 455.21 245.368 459.451C243.381 471.18 241.526 482.284 241.374 493.293C241.098 512.71 250.169 536.908 271.05 547.153C278.774 550.964 287.569 552.634 297.138 552.192C318.595 551.124 339.276 539.729 362.241 516.337C372.315 506.045 381.386 495.307 388.45 485.283C407.397 458.369 430.964 424.86 477.478 420.902C499.376 419.097 519.849 425.522 539.676 431.697C562.807 438.915 584.643 445.74 608.105 440.508C630.797 435.435 647.373 420.088 664.856 403.85C670.549 398.564 676.459 393.084 682.556 388.034C709.179 365.988 745.126 348.516 789.451 336.119C798.224 333.649 807.6 331.28 817.36 329.074C834.679 325.159 852.373 321.864 869.447 318.658C898.353 313.264 928.256 307.676 957.928 298.914C969.985 295.326 981.939 291.123 993.439 286.377C1032.63 270.232 1061.28 250.141 1076.26 228.253C1086.95 212.55 1090.99 196.591 1095.24 179.689C1099.55 162.613 1104.01 144.961 1115.92 127.689C1117.68 125.116 1119.66 122.566 1121.75 120.065C1161.82 72.2988 1242.45 53.8331 1275.27 48.1116C1296.47 44.4102 1317.8 41.8798 1338.4 39.4407C1377.15 34.8402 1413.76 30.4802 1450.06 19.0901C1560.28 -15.3613 1644.39 -119.851 1637.54 -213.839L1647.18 -215.263C1654.25 -117.753 1566.92 -9.32646 1452.53 26.4365C1415.14 38.18 1376.26 42.7904 1338.63 47.27C1318.16 49.6993 1297.03 52.2025 1276.14 55.842C1210.49 67.3187 1155.67 92.7721 1129.5 123.975C1127.58 126.242 1125.82 128.573 1124.19 130.92C1113.12 146.943 1109.03 163.186 1104.67 180.355C1100.42 197.148 1096.06 214.533 1084.56 231.426C1068.44 254.964 1038.12 276.371 996.884 293.347C984.988 298.255 972.662 302.587 960.197 306.288C929.933 315.239 899.701 320.865 870.48 326.345C853.5 329.525 835.902 332.794 818.841 336.664C809.301 338.81 800.121 341.152 791.569 343.561C748.882 355.506 714.389 372.23 689.004 393.239C683.125 398.096 677.352 403.458 671.771 408.66C653.934 425.21 635.507 442.323 609.561 448.132C583.035 454.048 558.757 446.477 535.288 439.138C515.569 432.987 496.952 427.148 477.273 428.77C436.286 432.248 415.254 462.17 396.67 488.556C389.317 499.008 379.919 510.157 369.466 520.794C356.613 533.911 337.817 550.671 313.757 557.298L313.712 557.257Z" fill="#006784"/>
<path d="M307.351 564.547C301.43 566.177 295.482 567.093 289.444 567.312C277.898 567.71 267.412 565.436 258.24 560.552C234.664 548.027 225.501 520.296 226.916 498.372C227.645 486.749 230.199 474.864 232.684 463.345C233.631 458.911 234.603 454.444 235.442 449.986C238.017 436.704 240.17 421.024 236.508 405.394C231.084 382.625 212.269 362.662 184.896 350.621C166.219 342.471 144.748 338.326 122.795 338.702C87.5611 339.205 49.5239 349.335 9.76097 368.821C-3.9406 375.538 -17.9597 383.439 -31.8829 392.303C-68.1895 415.358 -103.497 444.13 -136.816 477.784C-177.581 518.973 -214.014 565.309 -239.342 608.292L-247.981 605.589C-222.279 561.995 -185.378 515.022 -144.055 473.278C-110.177 439.068 -74.2271 409.798 -37.2332 386.287C-22.928 377.21 -8.53378 369.072 5.55665 362.168C46.9626 341.882 86.7141 331.333 123.772 330.809C147.283 330.432 170.248 334.834 190.236 343.559C219.801 356.548 240.133 378.207 246.011 402.99C249.963 419.798 247.701 436.311 245.006 450.268C244.143 454.759 243.185 459.276 242.213 463.743C239.695 475.512 237.309 486.655 236.583 497.796C235.316 517.673 243.383 542.656 264.186 553.725C271.846 557.794 280.601 559.69 290.236 559.363C311.845 558.6 333.062 546.818 355.082 523.311C364.849 512.89 373.607 501.757 380.437 491.128C397.718 464.192 421.405 427.305 468.483 422.443C490.841 420.217 511.69 426.779 531.87 433.125C554.797 440.345 576.424 447.148 599.659 441.952C622.516 436.859 638.988 421.381 656.492 404.977C662.389 399.447 668.472 393.732 674.818 388.48C701.764 366.13 738.518 348.757 783.954 336.83C792.957 334.458 802.57 332.211 812.567 330.126C829.843 326.544 847.43 323.599 864.46 320.727C894.475 315.67 925.469 310.476 956.155 301.703C968.403 298.195 980.522 293.974 992.155 289.219C1019.8 277.886 1056.66 258.317 1075.27 229.462C1085.72 213.154 1089.24 196.536 1092.98 178.975C1096.76 161.214 1100.65 142.862 1112.32 124.961C1114.06 122.314 1115.97 119.648 1118.04 117.072C1145.62 82.619 1203.63 55.2168 1273.19 43.7869C1295.27 40.167 1317.47 37.851 1338.94 35.6016C1377.9 31.5307 1414.69 27.6842 1451.31 16.7394C1562.88 -16.4804 1650.03 -124.081 1641.59 -218.192L1651.24 -219.699C1655.49 -172.291 1637.16 -120.617 1599.67 -74.2024C1562.05 -27.6201 1510.17 7.29434 1453.63 24.1541C1415.93 35.3939 1376.81 39.5081 1339.01 43.4743C1317.7 45.7052 1295.7 47.994 1273.98 51.5682C1207.24 62.5418 1151.9 88.4584 1125.96 120.856C1124.07 123.222 1122.33 125.628 1120.76 128.041C1109.89 144.677 1106.31 161.554 1102.52 179.423C1098.83 196.892 1094.99 214.936 1083.73 232.483C1063.68 263.524 1024.75 284.306 995.613 296.238C983.56 301.19 971.031 305.523 958.318 309.186C927.009 318.157 895.592 323.414 865.248 328.509C848.312 331.355 830.827 334.298 813.803 337.811C804.027 339.835 794.634 342.021 785.852 344.333C742.084 355.8 706.886 372.424 681.266 393.685C675.201 398.727 669.223 404.332 663.432 409.753C645.604 426.46 627.124 443.749 601.115 449.576C574.785 455.464 550.741 447.882 527.475 440.541C507.442 434.236 488.525 428.291 468.512 430.3C427.129 434.556 405.934 467.573 388.918 494.115C381.805 505.196 372.664 516.783 362.538 527.624C344.212 547.197 326.019 559.378 307.407 564.504L307.351 564.547Z" fill="#006A88"/>
<path d="M301.216 571.8C295.044 573.501 288.76 574.429 282.39 574.552C270.727 574.768 260.211 572.261 251.152 567.052C227.69 553.586 219.681 525.002 222.126 502.634C223.435 490.905 226.513 478.955 229.492 467.381C230.706 462.686 231.92 457.992 233.026 453.273C236.218 439.768 239.074 423.814 235.836 407.879C231.147 384.828 212.723 364.436 185.265 351.964C166.645 343.53 145.176 339.145 123.154 339.272C87.7929 339.436 49.5092 349.285 9.44367 368.534C-4.37978 375.177 -18.5139 383.029 -32.559 391.82C-69.6665 415.042 -105.145 443.808 -138.037 477.291C-179.081 519.065 -214.66 566.289 -238.226 610.258L-247.017 607.864C-223.066 563.201 -186.945 515.239 -145.294 472.843C-111.818 438.771 -75.6727 409.474 -37.8463 385.787C-23.4261 376.759 -8.90995 368.694 5.30235 361.864C47.0424 341.806 87.0404 331.538 124.232 331.378C147.774 331.233 170.758 335.95 190.688 344.959C220.321 358.438 240.244 380.583 245.369 405.708C248.834 422.837 245.843 439.658 242.501 453.846C241.371 458.598 240.139 463.352 238.938 468.096C235.993 479.42 232.986 491.136 231.749 502.391C229.515 522.695 236.561 548.521 257.318 560.405C264.882 564.742 273.622 566.828 283.329 566.642C305.363 566.191 326.49 554.326 347.956 530.41C357.441 519.825 365.894 508.322 372.465 497.122C389.076 468.739 411.817 429.893 459.497 424.142C482.333 421.437 503.534 428.17 524.034 434.694C546.759 441.917 568.215 448.714 591.229 443.578C614.11 438.452 630.643 422.824 648.113 406.295C654.189 400.555 660.476 394.597 667.04 389.151C694.316 366.524 731.768 349.226 778.418 337.767C787.65 335.491 797.501 333.366 807.71 331.437C824.973 328.18 842.547 325.559 859.559 322.987C890.501 318.343 922.485 313.545 953.946 304.879L954.355 304.766C966.819 301.306 979.085 297.125 990.868 292.301C1018.83 280.882 1055.96 260.969 1074.28 230.911C1084.53 213.991 1087.54 196.738 1090.74 178.469C1093.96 160.033 1097.32 140.972 1108.75 122.442C1110.46 119.695 1112.35 116.955 1114.39 114.279C1141.74 78.523 1200.36 50.6068 1271.17 39.6614C1294.06 36.1404 1317.1 34.0476 1339.41 32.0213C1378.61 28.4714 1415.66 25.0876 1452.58 14.5966C1567.41 -17.9954 1655.84 -126.484 1645.71 -222.321L1655.33 -223.928C1665.86 -124.429 1574 -11.7853 1454.74 22.0546C1416.67 32.9163 1377.35 36.4424 1339.3 39.8876C1317.19 41.8867 1294.35 43.9523 1271.82 47.4277C1203.97 57.9318 1148.13 84.2532 1122.43 117.87C1120.56 120.311 1118.84 122.817 1117.29 125.304C1106.65 142.519 1103.59 160.056 1100.34 178.633C1097.16 196.761 1093.89 215.505 1082.87 233.681C1063.16 266.049 1023.86 287.226 994.344 299.262C982.134 304.257 969.371 308.602 956.466 312.183C924.232 321.116 891.629 326.004 860.2 330.728C843.315 333.266 825.842 335.886 808.806 339.107C798.824 341 789.194 343.064 780.189 345.304C735.348 356.318 699.469 372.808 673.551 394.339C667.261 399.549 661.111 405.39 655.14 411.02C637.322 427.886 618.89 445.348 592.717 451.193C566.575 457.03 542.734 449.446 519.639 442.111C499.331 435.667 480.132 429.56 459.754 431.963C421.052 436.605 401.214 465.449 381.129 499.792C374.258 511.502 365.435 523.509 355.535 534.555C337.778 554.346 319.891 566.656 301.247 571.792L301.216 571.8Z" fill="#006E8C"/>
<path d="M294.628 579.126C288.267 580.878 281.837 581.766 275.313 581.824C263.539 581.884 253.024 579.136 244.048 573.61C220.783 559.26 213.852 529.791 217.351 506.946C219.227 495.06 222.854 483.013 226.35 471.35C227.838 466.419 229.301 461.522 230.681 456.567C234.489 442.839 238.017 426.619 235.267 410.363C231.282 387.038 213.248 366.218 185.73 353.28C167.167 344.563 145.693 339.912 123.609 339.816C88.1136 339.615 49.6149 349.176 9.19747 368.254C-4.74101 374.849 -18.997 382.628 -33.1571 391.37C-70.9712 414.733 -106.66 443.476 -139.149 476.822C-180.335 519.063 -215.097 567.159 -237.031 612.256L-245.949 610.139C-223.627 564.239 -188.273 515.338 -146.437 472.382C-113.339 438.414 -76.9595 409.106 -38.3952 385.269C-23.8599 376.29 -9.2219 368.299 5.14377 361.533C47.2111 341.679 87.4939 331.707 124.82 331.912C148.43 332.016 171.42 336.999 191.261 346.299C220.967 360.293 240.476 382.9 244.816 408.375C247.769 425.859 244.075 442.954 240.06 457.408C238.688 462.387 237.175 467.351 235.701 472.332C232.276 483.761 228.713 495.55 226.909 506.961C223.866 527.033 229.918 554.417 250.412 567.069C257.88 571.673 266.612 573.975 276.353 573.914C298.47 573.761 320.133 561.507 340.73 537.509C349.933 526.762 358.143 514.87 364.418 503.084C380.334 473.287 402.097 432.49 450.435 425.809C473.718 422.633 495.239 429.545 516.084 436.215C538.607 443.44 559.898 450.255 582.717 445.147C605.692 439.995 622.222 424.234 639.707 407.513C645.956 401.539 652.422 395.371 659.204 389.731C686.803 366.801 725.023 349.585 772.823 338.612C782.254 336.442 792.366 334.406 802.819 332.624C820.102 329.682 837.713 327.319 854.744 325.062C886.84 320.796 920.017 316.392 952.484 307.689C965.171 304.302 977.601 300.102 989.486 295.277C1017.76 283.771 1055.24 263.496 1073.2 232.254C1083.21 214.73 1085.73 196.834 1088.41 177.88C1091.1 158.76 1093.86 139.007 1105.09 119.865C1106.78 117.018 1108.64 114.179 1110.63 111.437C1137.75 74.3534 1196.98 45.9728 1269.01 35.4958C1292.66 32.0574 1316.55 30.2127 1339.64 28.4518C1379.13 25.4142 1416.38 22.5351 1453.71 12.4136C1454.12 12.3008 1454.5 12.1967 1454.91 12.084C1570.39 -19.7256 1661.29 -130.928 1649.64 -226.507L1659.26 -228.222C1665.1 -180.316 1646.38 -125.91 1607.92 -78.9359C1568.8 -31.1642 1514.75 3.99949 1455.7 19.8902C1417.27 30.2904 1377.69 33.354 1339.37 36.3118C1316.48 38.0703 1292.82 39.9041 1269.56 43.2632C1200.59 53.2978 1144.23 80.0327 1118.78 114.836C1116.96 117.343 1115.24 119.931 1113.72 122.543C1103.28 140.371 1100.74 158.567 1098.01 177.828C1095.36 196.615 1092.62 216.069 1081.88 234.865C1062.49 268.56 1022.8 290.14 992.906 302.28C980.538 307.318 967.572 311.666 954.451 315.2C921.19 324.094 887.621 328.552 855.133 332.873C838.204 335.129 820.718 337.457 803.663 340.363C793.438 342.109 783.578 344.076 774.374 346.21C727.784 356.903 692.262 372.841 665.677 394.903C659.201 400.298 652.871 406.348 646.721 412.189C628.881 429.221 610.427 446.85 584.166 452.746C558.22 458.555 534.544 450.953 511.62 443.624C491.03 437.018 471.562 430.797 450.856 433.611C411.689 439.023 391.745 470.679 373.177 505.486C366.61 517.808 358.012 530.261 348.401 541.496C331.373 561.353 313.296 573.957 294.527 579.127L294.628 579.126Z" fill="#007190"/>
<path d="M288.432 586.397C281.85 588.21 275.116 589.101 268.293 589.055C256.407 588.958 245.887 585.944 237.025 580.093C213.873 564.802 208.089 534.455 212.624 511.19C215.004 499.166 219.181 487.021 223.201 475.293C224.97 470.152 226.738 465.01 228.336 459.862C232.76 445.91 236.954 429.4 234.673 412.881C231.392 389.282 213.717 368.042 186.201 354.622C167.696 345.622 146.216 340.704 124.071 340.384C88.4478 339.844 49.7026 349.125 8.98934 367.99C-5.10249 374.52 -19.4804 382.226 -33.724 390.911C-72.2583 414.365 -108.111 443.127 -140.261 476.352C-182.085 519.599 -215.133 567.276 -235.806 614.246L-244.851 612.404C-223.779 564.548 -190.135 515.958 -147.542 471.938C-114.759 438.056 -78.2152 408.73 -38.8676 384.784C-24.2488 375.862 -9.45742 367.936 5.02327 361.218C47.4494 341.56 87.9541 331.901 125.415 332.47C149.093 332.823 172.088 338.072 191.847 347.69C221.589 362.182 240.721 385.267 244.27 411.067C246.735 428.872 242.313 446.275 237.651 460.961C235.997 466.151 234.249 471.367 232.463 476.568C228.521 488.086 224.447 499.989 222.139 511.538C217.248 536.587 226.063 562.193 243.614 573.757C250.987 578.627 259.704 581.122 269.549 581.192C292.058 581.358 313.638 569.048 333.699 544.582C342.652 533.663 350.55 521.376 356.572 509.044C370.893 479.606 392.548 435.094 441.583 427.499C465.312 423.852 487.147 430.918 508.306 437.743C530.657 444.961 551.784 451.795 574.445 446.73C597.578 441.535 614.067 425.624 631.574 408.737C637.995 402.528 644.634 396.125 651.608 390.325C679.531 367.092 718.526 349.984 767.476 339.497C777.138 337.424 787.455 335.518 798.151 333.883C815.509 331.215 833.171 329.159 850.27 327.151C883.364 323.305 917.537 319.322 950.867 310.676C963.701 307.328 976.347 303.176 988.383 298.283C1017 286.681 1054.79 266.054 1072.41 233.593C1082.22 215.456 1084.23 196.901 1086.37 177.263C1088.52 157.493 1090.74 137.031 1101.7 117.268C1103.33 114.331 1105.16 111.392 1107.16 108.567C1134.05 70.1557 1193.87 41.2946 1267.14 31.302C1291.57 27.9712 1316.24 26.3918 1340.08 24.8801C1378.11 22.4578 1417.43 19.921 1455.14 10.2025C1574.48 -20.5039 1667.27 -133.083 1653.86 -230.72L1663.46 -232.535C1677.23 -132.374 1583.23 -17.029 1461.48 16.5068C1459.97 16.9232 1458.49 17.3309 1456.96 17.6976C1418.14 27.6948 1378.23 30.2634 1339.64 32.7337C1316 34.2431 1291.56 35.8115 1267.56 39.0793C1197.48 48.6196 1140.59 75.8176 1115.37 111.815C1113.58 114.397 1111.88 117.085 1110.41 119.762C1100.2 138.17 1098.15 157.033 1095.99 176.995C1093.86 196.466 1091.68 216.595 1081.18 236.021C1062.19 271.024 1022.09 292.983 991.795 305.261C979.238 310.352 966.102 314.692 952.726 318.163C918.602 327 883.967 331.03 850.482 334.93C833.509 336.904 815.948 338.959 798.818 341.591C788.387 343.207 778.29 345.052 768.856 347.088C721.186 357.303 684.958 373.141 658.106 395.464C651.437 401.019 644.928 407.279 638.637 413.346C620.782 430.569 602.375 448.372 575.944 454.262C550.187 460.019 526.65 452.432 503.884 445.06C483.018 438.315 463.307 431.947 442.274 435.173C402.502 441.34 383.3 474.583 365.533 511.07C359.238 524.012 350.96 536.885 341.574 548.325C325.059 568.443 307.282 581.151 288.481 586.33L288.432 586.397Z" fill="#007495"/>
<path d="M281.781 593.739C275.042 595.595 268.2 596.464 261.248 596.319C249.252 596.065 238.733 592.81 229.945 586.617C207.029 570.459 202.439 538.419 207.874 515.468C210.789 503.296 215.477 491.037 219.976 479.205C221.983 473.944 224.075 468.499 225.96 463.165C230.993 448.965 235.859 432.189 234.073 415.374C231.488 391.475 214.21 369.832 186.635 355.947C168.194 346.688 146.701 341.48 124.501 340.961C88.7128 340.065 49.7594 349.083 8.7189 367.744C-5.49481 374.2 -19.9563 381.849 -34.3464 390.494C-73.5626 414.056 -109.593 442.786 -141.39 475.941C-183.226 519.512 -215.458 568.061 -234.66 616.311L-243.84 614.72C-224.272 565.46 -191.389 515.955 -148.734 471.544C-116.273 437.724 -79.4948 408.387 -39.4338 384.325C-24.6932 375.476 -9.78673 367.598 4.81583 360.954C47.5761 341.526 88.3272 332.146 125.922 333.08C149.662 333.656 172.638 339.205 192.371 349.097C222.156 364.112 240.873 387.66 243.694 413.767C245.633 431.878 240.514 449.579 235.211 464.522C233.283 469.948 231.205 475.443 229.174 480.737C224.721 492.37 220.129 504.361 217.332 516.1C211.292 541.651 219.257 568.107 236.747 580.436C244.024 585.574 252.733 588.285 262.651 588.496C285.515 588.966 307.042 576.589 326.582 551.706C335.284 540.615 342.908 527.948 348.633 515.029C365.922 475.946 386.699 437.106 432.606 429.222C456.743 425.088 478.93 432.326 500.37 439.313C522.557 446.551 543.552 453.394 566.017 448.356C589.213 443.144 605.755 427.058 623.284 410.004C629.884 403.585 636.664 396.956 643.863 390.987C672.527 367.122 711.172 350.592 761.973 340.424C771.864 338.449 782.418 336.665 793.351 335.151C810.816 332.748 828.585 330.957 845.76 329.222C879.78 325.79 914.989 322.244 949.125 313.697C962.182 310.422 974.961 306.26 987.161 301.348C1028.08 284.833 1058.02 261.286 1071.52 235.017C1081.09 216.275 1082.62 197.077 1084.23 176.731C1085.84 156.276 1087.5 135.114 1098.22 114.747C1099.83 111.71 1101.61 108.705 1103.58 105.781C1130.21 66.0508 1190.64 36.7004 1265.17 27.2173C1290.32 24.0362 1315.77 22.7222 1340.36 21.4597C1378.68 19.4913 1418.34 17.4743 1456.46 8.12534C1578.97 -21.9024 1673.17 -135.404 1658.02 -234.809L1667.63 -236.706C1683.05 -135.584 1589.49 -20.3848 1466.04 13.6194C1463.42 14.3394 1460.84 15.0259 1458.19 15.6464C1418.94 25.2828 1378.71 27.3478 1339.82 29.3145C1315.46 30.566 1290.24 31.869 1265.55 34.9784C1210.58 41.9594 1141.35 65.042 1111.96 108.878C1110.15 111.542 1108.51 114.321 1107.06 117.073C1097.06 136.094 1095.52 155.592 1093.89 176.263C1092.32 196.384 1090.66 217.197 1080.41 237.276C1065.88 265.594 1034 290.827 990.612 308.342C977.898 313.476 964.552 317.794 950.959 321.217C915.966 329.974 880.334 333.582 845.852 337.061C828.772 338.77 811.136 340.552 793.905 342.944C783.231 344.413 772.904 346.161 763.271 348.092C714.49 357.837 677.619 373.557 650.469 396.15C643.607 401.865 636.957 408.351 630.518 414.619C612.641 432.009 594.157 450.021 567.637 455.962C542.045 461.7 518.665 454.069 496.039 446.713C474.898 439.829 454.943 433.315 433.621 436.968C393.25 443.915 374.062 480.284 357.825 516.911C351.828 530.44 343.837 543.743 334.684 555.412C318.804 575.623 300.837 588.624 281.91 593.837L281.781 593.739Z" fill="#007799"/>
<path d="M275.558 601.044C268.598 602.961 261.476 603.799 254.225 603.549C242.118 603.139 231.562 599.627 222.919 593.099C203.411 578.49 195.268 548.312 203.152 519.737C206.565 507.402 211.763 495.029 216.798 483.049C219.092 477.602 221.464 471.946 223.637 466.425C229.286 452.002 234.849 434.928 233.526 417.824C231.645 393.652 214.719 371.564 187.114 357.205C168.731 347.663 147.24 342.214 124.971 341.446C89.0555 340.211 49.8803 348.915 8.51253 367.372C-5.82305 373.755 -20.431 381.364 -34.9115 389.927C-74.7918 413.538 -110.987 442.287 -142.5 475.363C-184.261 519.208 -215.715 568.613 -233.457 618.227L-242.701 616.894C-224.576 566.212 -192.459 515.768 -149.83 471.016C-117.66 437.25 -80.6857 407.885 -39.936 383.74C-25.0488 374.932 -10.052 367.136 4.70393 360.557C47.7914 341.332 88.796 332.257 126.556 333.546C150.365 334.371 173.346 340.186 192.997 350.395C222.818 365.909 241.127 389.943 243.188 416.367C244.608 434.808 238.753 452.792 232.834 467.958C230.651 473.562 228.254 479.251 225.942 484.757C221.009 496.494 215.883 508.634 212.588 520.535C205.406 546.616 212.528 573.946 229.938 586.966C237.119 592.371 245.812 595.273 255.803 595.625C284.771 596.607 306.453 576.055 319.515 558.654C330.113 544.607 336.918 530.32 340.769 520.806C356.338 481.876 376.866 439.546 423.703 430.738C448.28 426.108 470.749 433.508 492.472 440.659C514.526 447.906 535.356 454.768 557.663 449.774C580.986 444.527 597.549 428.274 615.062 411.038C621.81 404.418 628.763 397.554 636.155 391.425C665.141 367.257 704.524 350.818 756.481 341.161C766.571 339.291 777.362 337.629 788.539 336.263C806.135 334.091 824.011 332.564 841.292 331.094C876.247 328.1 912.396 325.018 947.332 316.545C960.574 313.325 973.531 309.195 985.881 304.214C1027.27 287.57 1057.35 263.422 1070.53 236.225C1079.9 216.871 1080.95 196.09 1081.98 175.958C1083.04 154.828 1084.17 132.983 1094.65 111.986C1096.2 108.884 1097.99 105.77 1099.9 102.755C1130.97 54.419 1204.56 29.815 1263.12 22.8592C1288.98 19.803 1315.16 18.7718 1340.47 17.792C1379.15 16.2851 1419.12 14.7468 1457.67 5.75866C1581.27 -23.0426 1678.7 -139.791 1662.07 -239.187L1671.65 -241.184C1679.98 -191.502 1661.38 -135.02 1620.66 -86.1903C1579.93 -37.3609 1521.11 -1.09493 1459.25 13.3231C1419.58 22.5651 1378.98 24.1439 1339.76 25.6653C1314.68 26.6341 1288.74 27.6543 1263.37 30.655C1207.53 37.2638 1137.48 60.4637 1108.37 105.718C1106.59 108.482 1104.97 111.336 1103.55 114.162C1093.77 133.762 1092.76 153.944 1091.66 175.299C1090.61 196.104 1089.52 217.592 1079.5 238.301C1065.29 267.63 1033.25 293.521 989.294 311.192C976.422 316.37 962.874 320.69 949.058 324.041C913.234 332.732 876.591 335.87 841.168 338.886C823.988 340.355 806.214 341.88 788.845 344.016C777.902 345.372 767.363 346.964 757.539 348.814C707.677 358.081 670.101 373.701 642.653 396.563C635.597 402.439 628.8 409.127 622.188 415.629C604.296 433.21 585.821 451.38 559.144 457.364C533.678 463.068 510.463 455.419 487.994 448.019C466.609 440.989 446.41 434.327 424.8 438.408C383.579 446.204 364.579 485.839 349.956 522.422C345.924 532.387 338.773 547.384 327.632 562.169C312.296 582.631 294.604 595.771 275.614 601.001L275.558 601.044Z" fill="#007B9D"/>
<path d="M268.783 608.421C261.949 610.304 254.733 611.168 247.15 610.822C231.495 610.078 218.32 603.944 209.049 593.042C194.696 576.237 190.518 549.139 198.379 524.049C202.313 511.516 208.053 499.021 213.592 486.902C224.089 464.001 233.993 442.387 232.896 420.326C230.617 374.167 176.435 344.258 125.397 341.998C64.2085 339.298 4.12232 366.309 -35.5389 389.485C-131.591 445.582 -203.323 529.702 -232.317 620.267L-241.67 619.152C-212.04 526.593 -138.726 440.592 -40.5141 383.231C0.549207 359.241 62.9466 331.273 127.052 334.106C190.644 336.92 240.275 373.433 242.536 419.035C243.703 442.708 232.952 466.161 222.564 488.844C217.128 500.721 211.497 512.999 207.712 525.089C200.605 547.752 204.423 573.05 217.179 587.994C225.086 597.265 235.756 602.297 248.868 602.912C289.619 604.849 319.559 563.11 332.793 526.776C343.463 497.488 363.346 442.977 414.69 432.446C439.667 427.304 462.418 434.868 484.423 442.182C506.32 449.472 527.017 456.344 549.16 451.368C572.615 446.111 589.162 429.676 606.728 412.264C613.618 405.418 620.75 398.344 628.328 392.03C663.323 362.863 714.111 345.021 783.626 337.483C801.361 335.567 819.374 334.297 836.787 333.058C872.676 330.502 909.766 327.883 945.439 319.501C992.25 308.506 1049.45 281.222 1069.48 237.584C1078.65 217.617 1079.17 196.127 1079.68 175.361C1080.22 153.572 1080.76 131.035 1090.99 109.409C1117.52 53.4174 1196.18 25.8371 1260.96 18.6938C1287.5 15.7711 1314.4 15.0474 1340.44 14.3504C1379.45 13.3135 1419.81 12.228 1458.8 3.57579C1585.64 -24.5144 1684.41 -142.217 1666 -243.372L1675.56 -245.444C1693.99 -144.081 1599.19 -26.7231 1474.2 7.7062C1469.57 8.98136 1464.91 10.1322 1460.22 11.1836C1420.08 20.0736 1379.15 21.1822 1339.53 22.2509C1313.77 22.9531 1287.1 23.6657 1261.05 26.5329C1199.4 33.3245 1124.67 59.2053 1099.92 111.443C1090.35 131.657 1089.85 152.473 1089.28 174.536C1088.76 196.001 1088.23 218.189 1078.41 239.511C1060.16 279.287 1011.04 312.024 946.976 327.05C910.345 335.642 872.761 338.317 836.405 340.894C819.093 342.132 801.181 343.401 783.673 345.281C716.623 352.542 667.902 369.52 634.756 397.161C627.539 403.188 620.562 410.086 613.834 416.781C595.927 434.553 577.374 452.932 550.564 458.926C525.262 464.611 502.141 456.936 479.798 449.501C458.17 442.324 437.766 435.532 415.866 440.04C374.18 448.606 355.862 489.979 341.968 528.101C329.89 561.254 304.349 598.544 268.699 608.364L268.783 608.421Z" fill="#007EA1"/>
</g>
<rect x="623" y="199" width="478" height="623" transform="rotate(90 623 199)" fill="url(#paint0_linear_85_5522)"/>
<rect y="396" width="1439" height="289" fill="url(#paint1_linear_85_5522)"/>
</g>
<defs>
<linearGradient id="paint0_linear_85_5522" x1="862" y1="199" x2="862" y2="694.121" gradientUnits="userSpaceOnUse">
<stop stop-color="#0F1117" stop-opacity="0"/>
<stop offset="1" stop-color="#0F1117"/>
</linearGradient>
<linearGradient id="paint1_linear_85_5522" x1="719.5" y1="396" x2="719.5" y2="625.679" gradientUnits="userSpaceOnUse">
<stop stop-color="#0F1117" stop-opacity="0"/>
<stop offset="1" stop-color="#0F1117"/>
</linearGradient>
<clipPath id="clip0_85_5522">
<rect width="1440" height="682" fill="white"/>
</clipPath>
<clipPath id="clip1_85_5522">
<rect width="2091.32" height="450.112" fill="white" transform="translate(-340.738 309.438) rotate(-15.4002)"/>
</clipPath>
</defs>
</svg>
