<svg width="1440" height="686" viewBox="0 0 1440 686" fill="none" xmlns="http://www.w3.org/2000/svg">
<g clip-path="url(#clip0_85_5475)">
<g clip-path="url(#clip1_85_5475)">
<path d="M634.116 414.626C631.444 415.027 628.73 415.39 626.003 415.665C567.845 421.958 521.649 401.459 476.956 381.63C431.115 361.279 387.804 342.048 332.929 349.303C313.453 351.869 295.123 357.642 275.737 363.752C256.665 369.749 237 375.968 216.195 378.779C153.754 387.281 101.795 363.799 68.1663 345.374C62.6585 342.374 57.2129 339.298 51.728 336.206C19.2616 317.898 -14.3306 298.975 -58.3938 293.664C-111.066 287.318 -178.065 301.852 -242.153 333.561C-271.398 348.021 -298.64 364.755 -324.97 380.926C-348.493 395.378 -372.831 410.31 -398.689 423.725C-465.336 458.301 -533.332 475.291 -590.153 471.559L-587.397 464.835C-514.953 469.6 -441.945 438.051 -404.853 418.81C-379.442 405.619 -355.308 390.806 -331.984 376.496C-305.382 360.173 -277.871 343.265 -248.075 328.542C-208.729 309.074 -131.282 277.822 -54.7747 287.034C-8.19078 292.66 26.3271 312.093 59.7191 330.911C65.1646 333.987 70.6069 337.041 76.0754 340.024C127.153 367.958 171.437 378.181 215.538 372.187C234.708 369.554 252.939 363.863 272.148 357.802C291.43 351.729 311.348 345.472 332.343 342.7C391.706 334.839 438.735 355.727 484.222 375.929C527.332 395.056 571.91 414.858 625.854 409.019C682.919 402.823 728.679 370.017 762.179 342.096C765.198 339.584 768.214 337.05 771.23 334.516C805.717 305.551 841.388 275.625 893.03 260.599C938.305 247.424 985.705 248.9 1031.51 250.325C1055.32 251.069 1079.91 251.83 1103.86 250.517C1186.5 246.008 1276.92 214.576 1351.91 164.269C1420.02 118.574 1469.3 63.9595 1516.93 11.1586L1526.22 13.7477C1478.21 66.9637 1428.55 122.015 1359.32 168.436C1282.15 220.212 1188.78 252.581 1103.13 257.25C1078.46 258.605 1053.46 257.816 1029.31 257.077C982.802 255.624 938.89 254.273 896.3 266.643C847.665 280.792 813.046 309.866 779.577 337.985C776.528 340.546 773.512 343.08 770.493 345.592C737.056 373.437 691.738 405.997 634.155 414.642L634.116 414.626Z" fill="#001920"/>
<path d="M624.091 415.482C621.564 415.862 619.031 416.197 616.487 416.467C566.829 421.842 526.845 407.549 483.488 389.734C479.477 388.099 475.502 386.458 471.563 384.812C438.612 371.141 407.476 358.25 372.675 354.144C356.29 352.218 340.415 352.453 324.126 354.854C306.003 357.575 288.792 362.934 270.561 368.625C261.214 371.527 251.552 374.544 241.863 377.14C228.87 380.59 217.865 382.78 207.274 384.034C176.771 387.652 146.595 383.858 115.042 372.372C98.8337 366.459 82.3956 358.521 64.8477 348.11C60.19 345.363 55.5584 342.545 50.9236 339.706C41.782 334.141 32.3548 328.396 22.6159 323.033C-6.24627 307.093 -31.1392 298.411 -58.1417 294.857C-79.4562 292.06 -102.93 292.586 -127.65 296.364C-174.134 303.455 -215.705 320.393 -242.374 333.326C-255.275 339.604 -268.816 346.783 -283.676 355.258C-298.943 363.972 -314.062 373.179 -328.712 382.069C-351.477 395.915 -375.057 410.241 -399.871 423.231C-446.867 447.808 -517.835 476.477 -589.093 473.459L-586.748 466.707C-519.316 469.561 -451.289 441.961 -406.108 418.327C-381.668 405.55 -358.295 391.322 -335.697 377.591C-320.981 368.646 -305.793 359.406 -290.355 350.599C-275.226 341.95 -261.449 334.623 -248.233 328.231C-220.531 314.807 -177.322 297.221 -128.708 289.81C-102.373 285.722 -77.3043 285.247 -54.4111 288.232C-17.6933 293.058 10.243 306.519 30.4889 317.689C40.3525 323.145 49.8585 328.923 59.0788 334.52C63.7103 337.338 68.3025 340.14 72.9241 342.892C89.9862 353.018 105.909 360.72 121.53 366.408C151.011 377.131 178.903 380.708 206.83 377.388C216.552 376.241 226.732 374.22 238.908 370.983C248.242 368.485 257.731 365.538 266.936 362.679C284.994 357.059 303.684 351.232 323.18 348.305C341.021 345.671 358.37 345.416 376.222 347.524C412.864 351.847 444.749 365.051 478.484 379.029C482.423 380.675 486.398 382.316 490.373 383.957C532.072 401.058 570.278 414.812 616.23 409.837C638.932 407.369 661.85 400.191 686.208 387.851C714.619 373.494 739.606 355.018 755.909 342.388C758.784 340.144 761.695 337.895 764.602 335.623L771.609 330.163C799.211 308.699 826.889 288.23 862.019 273.378C871.497 269.382 881.274 265.9 891.041 263.091C916.696 255.704 944.462 251.803 981.103 250.464C997.146 249.868 1013.24 249.846 1028.81 249.813C1049.37 249.77 1070.59 249.739 1091.72 248.378C1094.5 248.207 1097.32 248.009 1100.09 247.772C1142.47 244.362 1188.09 234.715 1232.05 219.881C1275.23 205.298 1317.28 185.423 1353.62 162.379C1423.53 118.114 1475.83 61.9503 1521.97 7.851L1531.42 10.2816C1484.84 64.9383 1431.9 121.714 1360.8 166.737C1322.98 190.698 1281 210.54 1236.06 225.723C1190.81 241.02 1143.68 250.96 1099.87 254.472C1096.99 254.703 1094.11 254.913 1091.22 255.1C1069.57 256.493 1048.02 256.529 1027.24 256.561C1011.81 256.594 995.87 256.616 980.159 257.207C945.024 258.499 918.554 262.182 894.386 269.145C885.256 271.769 876.109 275.022 867.222 278.773C833.651 292.944 806.712 312.921 779.769 333.861L772.762 339.321C769.855 341.593 766.947 343.864 764.072 346.108C747.372 359.043 721.787 377.967 692.346 392.837C668.841 404.713 646.482 412.165 624.17 415.515L624.091 415.482Z" fill="#001C24"/>
<path d="M614.323 416.3C611.868 416.668 609.442 416.988 607.007 417.242C556.408 422.735 515.326 406.794 475.577 391.37L467.936 388.422C432.815 374.809 399.657 361.975 363.238 358.648C346.995 357.171 331.316 357.735 315.359 360.377C298.502 363.176 282.385 368.192 265.276 373.491C254.731 376.775 243.832 380.157 232.84 382.926C220.215 386.119 208.931 388.171 198.346 389.223C168.375 392.202 139.104 387.802 108.87 375.76C93.5125 369.607 78.036 361.436 61.4826 350.763C57.6782 348.291 53.8705 345.797 50.0202 343.265C40.8424 337.214 31.3397 330.965 21.4169 325.115C-5.79767 309.084 -30.9992 299.822 -57.9329 295.989C-79.2048 292.984 -102.531 293.264 -127.284 296.824C-164.069 302.123 -204.017 314.633 -242.641 333.008C-255.7 339.22 -269.323 346.345 -284.301 354.77C-300.71 363.991 -316.958 373.793 -332.665 383.267C-354.6 396.496 -377.317 410.178 -401.021 422.688C-447.85 447.397 -518.296 476.591 -588.034 475.336L-586.096 468.578C-520.059 469.762 -452.406 441.636 -407.288 417.833C-383.892 405.481 -361.378 391.919 -339.577 378.778C-323.769 369.244 -307.452 359.409 -290.876 350.073C-275.625 341.495 -261.726 334.24 -248.359 327.869C-208.288 308.807 -166.719 295.785 -128.161 290.242C-101.784 286.439 -76.8362 286.139 -54.0184 289.359C-25.424 293.435 1.13315 303.121 29.5262 319.87C39.6131 325.829 49.1979 332.133 58.4577 338.239C62.2687 340.755 66.0402 343.254 69.8413 345.704C85.9056 356.07 100.9 363.978 115.67 369.906C143.862 381.135 170.842 385.275 198.23 382.55C207.906 381.59 218.323 379.668 230.099 376.714C240.627 374.059 251.313 370.731 261.648 367.524C278.544 362.279 296 356.839 314.084 353.855C331.588 350.936 348.661 350.32 366.365 351.936C404.73 355.44 438.673 368.581 474.617 382.518L482.262 385.488C520.481 400.314 560.033 415.657 606.747 410.59C629.268 408.148 651.805 400.893 677.64 387.818C706.048 373.438 731.133 356.111 749.783 342.637L766.163 330.757C793.506 311.01 823.242 290.478 859.609 275.754C869.28 271.818 879.215 268.402 889.126 265.571C921.726 256.246 954.632 253.141 979.599 251.496C995.313 250.434 1010.88 249.865 1025.9 249.311C1046.05 248.589 1066.91 247.83 1088.02 245.846C1090.79 245.587 1093.59 245.301 1096.39 245.015C1139.56 240.436 1185.94 230.429 1230.56 216.099C1276.31 201.421 1318.31 182.695 1355.4 160.5C1435.14 112.813 1491.56 48.6689 1527.05 4.55942L1536.66 6.80972C1500.72 51.4547 1443.55 116.429 1362.28 165.016C1324.24 187.779 1281.2 206.974 1234.29 222.028C1188.54 236.729 1140.91 246.991 1096.58 251.7C1093.71 251.996 1090.84 252.293 1088 252.563C1066.37 254.579 1045.26 255.354 1024.85 256.092C1009.94 256.63 994.556 257.194 979.098 258.239C954.974 259.847 923.339 262.807 892.331 271.669C882.987 274.348 873.614 277.568 864.464 281.291C829.561 295.437 800.56 315.456 773.85 334.749L757.471 346.629C738.417 360.365 712.829 378.036 683.601 392.852C658.695 405.476 636.424 413.026 614.221 416.36L614.323 416.3Z" fill="#002028"/>
<path d="M604.335 417.15C602.097 417.486 599.816 417.784 597.492 418.043C549.653 423.234 510.531 408.79 472.659 394.806C469.65 393.692 466.64 392.577 463.633 391.485C428.719 378.758 392.597 365.608 353.799 363.153C337.772 362.136 322.294 363.05 306.521 365.933C290.928 368.789 275.867 373.467 259.927 378.434C248.18 382.077 236.086 385.862 223.789 388.782C211.242 391.763 200.004 393.629 189.354 394.489C159.956 396.867 131.592 391.861 102.671 379.219C88.1989 372.822 73.6118 364.427 58.0922 353.51C55.0362 351.351 52.0163 349.186 48.9537 346.983C39.7759 340.439 30.3026 333.649 20.1894 327.268C-5.77807 310.938 -30.5465 301.365 -57.7165 297.187C-78.9129 293.947 -102.196 294.019 -126.943 297.377C-163.849 302.358 -203.912 314.594 -242.894 332.799C-256.14 338.995 -269.884 346.049 -284.915 354.37C-302.568 364.158 -320.05 374.593 -336.918 384.689C-357.955 397.268 -379.67 410.24 -402.233 422.243C-448.894 447.083 -518.785 476.776 -587.004 477.285L-585.472 470.521C-520.831 470.035 -453.556 441.361 -408.535 417.393C-386.281 405.549 -364.703 392.642 -343.802 380.15C-326.832 369.994 -309.284 359.505 -291.424 349.618C-276.124 341.123 -262.104 333.938 -248.547 327.606C-208.081 308.708 -166.286 295.966 -127.676 290.774C-101.301 287.194 -76.4295 287.13 -53.6838 290.607C-24.7775 295.039 1.31362 305.062 28.466 322.155C38.7828 328.661 48.3381 335.506 57.598 342.105C60.6573 344.286 63.6772 346.451 66.6938 348.593C81.7604 359.198 95.865 367.329 109.782 373.475C136.691 385.255 162.791 389.929 189.563 387.767C199.265 386.982 209.639 385.268 221.257 382.494C232.981 379.682 244.832 376.001 256.26 372.45C271.99 367.56 288.249 362.5 304.918 359.438C322.129 356.295 338.995 355.284 356.44 356.402C397.29 358.996 434.308 372.459 470.078 385.482C473.088 386.597 476.134 387.706 479.144 388.82C515.492 402.249 553.13 416.156 597.153 411.359C625.736 408.231 650.537 397.123 668.958 387.778C697.497 373.289 723.833 356.177 743.583 342.896L749.011 339.217C752.9 336.597 756.786 333.955 760.678 331.356C788.812 312.453 819.418 292.798 857.193 278.108C867.062 274.255 877.183 270.855 887.239 268.003C919.038 258.999 951.012 255.094 978.121 252.478C993.399 250.967 1008.26 249.899 1022.65 248.836C1042.52 247.397 1063.11 245.894 1084.39 243.259C1087.14 242.913 1089.93 242.561 1092.71 242.187C1136.33 236.422 1184.76 225.773 1229.09 212.246C1276.96 197.653 1320.06 179.568 1357.21 158.527C1421.73 122.055 1480.6 69.111 1532.19 1.14761L1541.92 3.22306C1489.58 72.1481 1429.66 125.988 1363.82 163.197C1325.75 184.756 1281.57 203.293 1232.61 218.23C1186.72 232.235 1138.55 242.803 1093.38 248.801C1090.52 249.186 1087.69 249.543 1084.86 249.878C1063.12 252.562 1042.34 254.07 1022.22 255.547C1007.94 256.594 993.187 257.668 978.162 259.14C951.817 261.686 920.821 265.467 890.404 274.084C880.844 276.795 871.251 280.026 861.868 283.672C825.488 297.816 795.591 317.029 768.093 335.502C764.204 338.122 760.351 340.737 756.462 343.357L751.034 347.036C730.986 360.541 704.21 377.921 675.021 392.753C656.843 401.994 632.672 412.873 604.259 417.139L604.335 417.15Z" fill="#00232C"/>
<path d="M594.531 417.996C592.365 418.321 590.192 418.602 587.976 418.846C542.464 423.799 504.954 410.5 468.724 397.612C463.732 395.833 458.742 394.076 453.721 392.346C417.881 380.094 382.544 368.975 344.396 367.653C328.55 367.101 313.268 368.344 297.751 371.457C283.346 374.358 269.382 378.715 254.606 383.327C241.702 387.368 228.37 391.518 214.803 394.585C202.374 397.368 191.146 399.054 180.427 399.701C151.82 401.445 123.603 395.701 96.533 382.602C82.8816 376.014 69.6205 367.6 54.7999 356.175C52.4628 354.378 50.1617 352.575 47.8213 350.756C38.7451 343.66 29.3341 336.301 19.0665 329.384C-5.32555 312.974 -30.3632 302.837 -57.4282 298.375C-78.582 294.927 -101.829 294.747 -126.497 297.892C-163.45 302.567 -203.736 314.545 -243.043 332.553C-256.443 338.705 -270.308 345.687 -285.388 353.926C-304.393 364.298 -323.139 375.415 -341.274 386.171C-361.274 398.035 -381.985 410.319 -403.268 421.749C-449.761 446.721 -519.17 476.924 -585.796 479.184L-584.744 472.425C-521.531 470.296 -454.633 441.075 -409.639 416.933C-388.596 405.628 -368.019 393.431 -348.154 381.654C-329.917 370.838 -311.07 359.662 -291.825 349.164C-276.437 340.767 -262.299 333.632 -248.551 327.338C-207.724 308.633 -165.666 296.164 -127.007 291.3C-100.672 287.95 -75.836 288.137 -53.1297 291.844C-24.3251 296.582 2.08454 307.252 27.6648 324.445C38.1425 331.532 47.6716 338.941 56.8332 346.113C59.1736 347.932 61.4747 349.735 63.7724 351.516C78.1762 362.623 90.9876 370.747 104.084 377.083C129.24 389.238 155.15 394.612 181.121 393.018C190.853 392.429 201.178 390.879 212.639 388.286C225.494 385.393 238.504 381.314 251.057 377.393C265.619 372.835 280.677 368.135 295.978 365.055C312.893 361.665 329.484 360.292 346.705 360.907C386.895 362.302 423.276 373.734 460.087 386.311C465.148 388.057 470.177 389.831 475.208 391.626C509.991 403.97 545.945 416.742 587.788 412.183C615.574 409.152 640.132 398.148 660.506 387.794C688.733 373.442 715.309 357.189 737.609 343.189L740.375 341.453C745.364 338.288 750.391 335.139 755.419 331.989C782.957 314.764 815.64 295.178 854.97 280.523C865.036 276.752 875.312 273.396 885.512 270.522C917.036 261.65 949.137 257.121 976.805 253.548C991.036 251.703 1004.69 250.19 1017.91 248.72C1038.97 246.386 1058.83 244.187 1080.91 240.782C1083.66 240.37 1086.43 239.931 1089.24 239.486C1134.5 232.312 1183.71 221.297 1227.83 208.498C1278.66 193.772 1321.67 176.819 1359.22 156.681C1445.81 110.361 1504 44.7641 1537.53 -2.13777L1547.38 -0.215288C1513.3 47.4406 1454.06 114.179 1365.56 161.503C1327.05 182.143 1283.07 199.51 1231.1 214.541C1186.31 227.531 1136.31 238.708 1090.34 246.013C1087.52 246.458 1084.71 246.903 1081.93 247.32C1059.52 250.774 1038.5 253.102 1018.2 255.366C1005.06 256.825 991.516 258.344 977.426 260.146C950.408 263.621 919.032 268.063 888.677 276.604C878.936 279.342 869.084 282.566 859.438 286.185C821.437 300.349 789.469 319.537 762.503 336.386C757.508 339.508 752.52 342.673 747.528 345.817L744.761 347.553C722.229 361.722 695.311 378.16 666.605 392.764C646.507 402.987 622.438 413.806 594.639 417.98L594.531 417.996Z" fill="#002631"/>
<path d="M585.085 418.765C582.918 419.09 580.71 419.377 578.458 419.625C534.872 424.379 498.826 411.979 463.988 400.001C457.371 397.728 450.557 395.372 443.808 393.208C404.756 380.699 371.306 372.317 334.99 372.131C319.324 372.044 304.243 373.637 288.946 376.985C275.719 379.866 262.821 383.951 249.181 388.259C235.154 392.692 220.632 397.267 205.784 400.414C193.44 403.028 182.216 404.489 171.467 404.94C143.326 406.099 116.051 399.744 90.3301 386.039C77.6469 379.261 65.2785 370.646 51.4031 358.878L46.4464 354.632C37.5047 346.956 28.2314 339.04 17.8357 331.515C-5.34197 314.833 -29.9103 304.38 -57.2511 299.556C-78.3294 295.873 -101.534 295.486 -126.195 298.428C-163.161 302.769 -203.67 314.491 -243.374 332.312C-256.929 338.419 -270.913 345.352 -286.078 353.515C-306.54 364.508 -326.684 376.394 -346.188 387.87C-365.081 398.987 -384.581 410.485 -404.555 421.293C-450.92 446.38 -519.804 477.13 -584.805 481.116L-584.229 474.384C-522.443 470.612 -455.89 440.816 -410.959 416.504C-391.225 405.821 -371.79 394.377 -352.999 383.321C-333.393 371.785 -313.148 359.839 -292.446 348.72C-276.972 340.399 -262.716 333.314 -248.814 327.064C-207.59 308.545 -165.341 296.361 -126.633 291.825C-100.337 288.705 -75.5407 289.122 -52.9099 293.064C-23.7901 298.18 2.1535 309.188 26.4932 326.725C37.1351 334.413 46.5002 342.45 55.5634 350.197L60.5168 354.421C73.9687 365.828 85.9268 374.169 98.0881 380.668C121.925 393.38 146.919 399.294 172.382 398.246C182.139 397.832 192.383 396.473 203.728 394.099C217.752 391.12 231.852 386.676 245.491 382.368C258.921 378.137 272.771 373.752 286.782 370.687C303.402 367.05 319.756 365.333 336.715 365.427C374.991 365.633 409.622 374.262 449.876 387.15C456.743 389.364 463.596 391.736 470.253 394.026C503.65 405.504 538.216 417.388 578.168 413.023C603.699 410.219 626.079 400.929 651.766 387.853C680.367 373.288 707.839 357.348 731.35 343.547C737.487 339.918 743.66 336.283 749.839 332.693C779.986 315.143 813.29 296.985 852.388 282.992C862.65 279.303 873.113 275.964 883.458 273.068C914.463 264.43 945.786 259.391 973.434 254.949L975.167 254.689C987.599 252.666 999.369 250.899 1010.77 249.164C1032.72 245.847 1053.48 242.708 1077.07 238.337L1085.37 236.801C1133.71 227.841 1183.73 216.461 1226.16 204.765C1279.48 190.113 1323.54 173.786 1360.86 154.845C1432.98 118.329 1497.49 61.427 1542.5 -5.41315L1552.44 -3.63824C1506.62 64.4206 1440.73 122.469 1366.89 159.826C1328.65 179.241 1283.6 195.939 1229.22 210.884C1186.32 222.695 1135.78 234.2 1086.97 243.252L1078.63 244.794C1054.75 249.208 1033.88 252.363 1011.76 255.707C1000.38 257.415 988.654 259.198 976.29 261.189L974.558 261.449C947.379 265.821 916.597 270.778 886.551 279.16C876.593 281.931 866.553 285.139 856.642 288.708C818.7 302.281 786.118 320.085 756.545 337.28C750.402 340.865 744.262 344.472 738.125 348.101C714.443 361.995 686.732 378.061 657.825 392.806C632.686 405.598 610.399 415.009 585.019 418.819L585.085 418.765Z" fill="#002935"/>
<path d="M575.171 419.627C573.149 419.93 571.085 420.196 568.978 420.423C527.099 424.987 492.274 413.343 458.614 402.084C450.529 399.382 442.173 396.586 433.898 394.092C390.296 381.036 357.911 375.806 325.622 376.626C310.104 377.031 295.256 378.947 280.142 382.537C268.094 385.397 256.256 389.166 243.752 393.169C228.57 398.022 212.895 403.039 196.764 406.244C184.503 408.666 173.288 409.947 162.506 410.179C134.795 410.759 108.458 403.771 84.1586 389.45C72.25 382.422 61.1025 373.824 48.0771 361.57L44.8897 358.536C36.158 350.291 27.1603 341.752 16.6726 333.615C-4.9986 316.885 -29.8066 305.819 -57.003 300.727C-78.042 296.815 -101.168 296.214 -125.79 298.927C-162.841 302.945 -203.537 314.404 -243.563 332.049C-257.272 338.113 -271.377 344.975 -286.628 353.06C-308.685 364.741 -330.335 377.412 -351.273 389.664C-368.919 399.988 -387.14 410.668 -405.666 420.789C-472.917 457.493 -532.789 478.431 -583.641 482.978L-583.577 476.278C-535.787 471.989 -476.525 451.165 -412.106 416.005C-393.783 406.004 -375.628 395.379 -358.051 385.087C-337.015 372.754 -315.227 360.017 -292.897 348.184C-277.338 339.94 -262.924 332.92 -248.904 326.72C-207.319 308.393 -164.844 296.488 -126.053 292.253C-99.7971 289.363 -75.0039 290.004 -52.4813 294.208C-23.4994 299.636 2.72986 311.317 25.527 328.906C36.2641 337.23 45.3898 345.884 54.2496 354.244L57.4337 357.256C70.1079 369.138 80.845 377.461 92.2679 384.205C114.749 397.478 138.792 403.938 163.815 403.404C173.566 403.193 183.763 402.02 194.984 399.798C210.147 396.783 225.326 391.908 240.052 387.213C252.31 383.292 265.028 379.234 277.752 376.205C294.08 372.344 310.119 370.249 326.891 369.834C360.946 368.973 394.72 374.352 439.831 387.875C448.263 390.436 456.699 393.264 464.895 395.972C498.594 407.248 530.429 417.908 568.783 413.716C596.493 410.675 620.799 399.216 643.293 387.738C670.21 374.007 697.253 359.139 721.164 346.039L725.358 343.731C731.731 340.2 738.144 336.686 744.527 333.222C775.15 316.63 809.104 299.359 850.108 285.281C860.568 281.674 871.218 278.352 881.71 275.457C908.718 267.978 936.034 262.803 960.157 258.241C964.788 257.367 969.346 256.503 973.793 255.634L989.724 252.571C1018.43 247.053 1043.22 242.301 1073.58 235.751L1081.88 233.968C1122.63 225.322 1175.71 213.749 1224.88 200.907C1281.65 186.118 1325.46 170.857 1362.86 152.869C1438.24 116.734 1505.66 57.8068 1547.85 -8.83482L1557.91 -7.23477C1514.89 60.7403 1445.92 120.951 1368.68 157.969C1330.39 176.383 1285.59 191.993 1227.76 207.076C1178.2 220.021 1124.87 231.653 1083.98 240.322L1075.75 242.072C1045.21 248.648 1020.31 253.439 991.498 258.973L975.603 262.031C971.12 262.905 966.561 263.769 961.894 264.649C938.132 269.156 911.174 274.255 884.875 281.538C874.741 284.357 864.442 287.56 854.297 291.052C814.383 304.765 781.082 321.714 751.04 337.995C744.693 341.454 738.313 344.941 731.936 348.449L727.706 350.763C703.729 363.917 676.582 378.824 649.493 392.647C627.275 403.994 603.318 415.311 575.338 419.512L575.171 419.627Z" fill="#002D39"/>
<path d="M565.654 420.407C563.633 420.71 561.568 420.975 559.497 421.197C519.036 425.616 485.334 414.564 452.721 403.886C443.327 400.821 433.657 397.641 424.021 394.926C382.831 383.432 349.629 379.153 316.286 381.071C300.949 381.941 286.268 384.235 271.371 388.038C260.419 390.824 249.688 394.337 238.283 398.041C222.024 403.346 205.161 408.809 187.744 412.051C175.531 414.31 164.359 415.383 153.545 415.395C126.264 415.396 100.833 407.802 77.9868 392.838C63.9805 383.641 52.8557 372.735 44.7147 364.246L43.0503 362.504C34.6336 353.653 25.9509 344.507 15.4434 335.746C-5.04957 318.75 -29.385 307.389 -56.8244 301.909C-77.7846 297.783 -100.871 296.953 -125.487 299.463C-162.548 303.17 -203.503 314.376 -243.857 331.803C-257.723 337.8 -271.947 344.613 -287.283 352.622C-311.076 365.033 -334.331 378.572 -356.802 391.68C-373.063 401.147 -389.902 410.948 -406.882 420.3C-473.989 457.228 -533.116 478.95 -582.583 484.856L-583.027 478.209C-535.736 472.563 -478.69 451.49 -413.358 415.522C-396.513 406.257 -379.779 396.494 -363.587 387.059C-340.942 373.88 -317.553 360.254 -293.487 347.69C-277.842 339.523 -263.31 332.553 -249.1 326.391C-207.154 308.256 -164.416 296.625 -125.576 292.718C-99.3231 290.052 -74.6054 290.928 -52.1222 295.362C-22.8579 301.195 2.90535 313.215 24.5308 331.114C35.3304 340.1 44.1444 349.383 52.6564 358.376L54.3207 360.118C62.2024 368.355 72.9859 378.954 86.4144 387.746C107.501 401.565 130.667 408.582 155.217 408.588C164.962 408.579 175.077 407.598 186.177 405.551C202.446 402.526 218.741 397.215 234.475 392.101C245.633 388.479 257.14 384.715 268.623 381.782C284.623 377.702 300.423 375.24 316.932 374.305C352.106 372.291 386.88 376.715 429.648 388.643C439.518 391.435 449.339 394.638 458.851 397.752C491.464 408.43 522.291 418.526 559.194 414.507C586.324 411.53 609.382 400.617 634.616 387.72C650.523 379.581 666.447 371.305 681.894 363.302C694.671 356.685 707.132 350.182 719.163 344.012C725.776 340.602 732.425 337.187 739.048 333.843C768.46 319.022 804.36 301.928 847.626 287.668C858.315 284.116 869.119 280.838 879.72 277.926C902.658 271.618 925.015 266.851 946.623 262.264C955.567 260.362 964.044 258.552 972.22 256.698C1004.75 249.353 1029.91 243.135 1061.8 235.237L1069.81 233.251C1072.55 232.571 1075.3 231.913 1078.08 231.25C1096 226.97 1115.09 222.56 1135.29 217.916C1164.51 211.179 1194.7 204.23 1223.28 197.142C1264 187.089 1316.82 172.759 1364.53 151.005C1442.88 115.433 1513.28 54.4475 1552.86 -12.1375L1563.01 -10.6851C1522.57 57.3483 1450.47 119.754 1370.05 156.264C1321.12 178.558 1267.31 193.171 1225.92 203.392C1197.19 210.502 1166.93 217.483 1137.64 224.231C1117.48 228.87 1098.43 233.274 1080.57 237.544C1077.83 238.202 1075.08 238.86 1072.42 239.529L1064.41 241.514C1032.41 249.429 1007.17 255.68 974.469 263.074C966.185 264.944 957.672 266.759 948.656 268.672C927.3 273.221 905.192 277.928 882.75 284.095C872.435 286.941 861.913 290.132 851.503 293.575C809.225 307.531 773.942 324.308 745.045 338.873C738.455 342.189 731.875 345.572 725.262 348.981C713.231 355.151 700.766 361.632 688.026 368.244C672.582 376.269 656.622 384.551 640.679 392.695C615.859 405.395 592.869 416.276 565.576 420.374L565.654 420.407Z" fill="#00303D"/>
<path d="M555.705 421.252C553.828 421.534 551.908 421.777 549.984 421.999C510.905 426.278 478.243 415.764 446.671 405.623C436.043 402.206 425.063 398.663 414.114 395.809C374.812 385.576 341.777 382.413 306.958 385.56C291.768 386.923 277.249 389.55 262.604 393.561C252.785 396.267 243.113 399.464 232.847 402.885C215.479 408.67 197.51 414.635 178.763 417.875C166.6 419.97 155.438 420.862 144.584 420.612C117.693 420.018 93.2043 411.812 71.8516 396.221C59.1254 386.943 49.3528 376.193 41.425 366.91L41.0179 366.412C33.031 356.982 24.811 347.229 14.3592 337.856C-4.729 320.873 -29.2024 308.839 -56.4974 303.091C-77.3822 298.73 -100.465 297.676 -125.002 299.972C-162.145 303.378 -203.255 314.294 -244.003 331.556C-258.023 337.51 -272.329 344.268 -287.787 352.205C-313.421 365.385 -338.451 379.884 -362.628 393.92C-377.4 402.493 -392.647 411.338 -407.947 419.834C-474.945 456.992 -533.288 479.513 -581.376 486.733L-582.362 480.168C-536.331 473.257 -479.853 451.351 -414.492 415.088C-399.294 406.653 -384.08 397.834 -369.377 389.294C-345.029 375.166 -319.865 360.579 -293.922 347.241C-278.156 339.145 -263.542 332.23 -249.173 326.134C-206.867 308.191 -163.902 296.839 -125.013 293.261C-98.8025 290.802 -74.1209 291.93 -51.7098 296.621C-22.6227 302.749 3.39664 315.491 23.5517 333.432C34.3022 343.074 42.6929 352.98 50.7783 362.575L51.1854 363.073C58.8505 372.081 68.354 382.514 80.5419 391.403C100.234 405.767 122.448 413.329 146.598 413.865C156.303 414.087 166.369 413.269 177.384 411.391C194.798 408.374 212.134 402.616 228.904 397.032C238.924 393.693 249.262 390.261 259.545 387.442C275.216 383.142 290.743 380.341 307.022 378.859C343.844 375.524 378.559 378.815 419.554 389.51C430.813 392.452 441.982 396.033 452.768 399.516C484.304 409.662 514.097 419.264 549.688 415.353C578.268 412.203 602.541 399.787 626.025 387.78C657.735 371.539 686.996 356.942 713.057 344.392C719.942 341.075 726.795 337.786 733.657 334.563C774.867 315.218 809.285 301.525 845.229 290.131C856.115 286.662 867.07 283.406 877.851 280.467C896.752 275.302 915.341 271.012 933.248 266.846C946.52 263.779 959.077 260.865 970.731 257.839C992.192 252.268 1009.95 247.096 1028.76 241.586C1040.47 238.172 1052.56 234.634 1066.16 230.823C1068.89 230.056 1071.62 229.31 1074.43 228.576C1106.69 219.972 1144.7 211.223 1181.48 202.746C1195.11 199.603 1208.64 196.498 1221.83 193.398C1269.59 182.223 1320.12 169.154 1366.36 149.165C1448.72 113.729 1520.36 52.1981 1558.01 -15.4397L1568.25 -14.1348C1529.73 55.0881 1456.21 118.131 1371.6 154.532C1324.17 175.012 1272.76 188.348 1224.25 199.681C1211.06 202.781 1197.46 205.896 1183.83 209.039C1147.22 217.467 1109.36 226.195 1077.38 234.711C1074.65 235.435 1071.95 236.175 1069.29 236.91C1055.79 240.682 1043.74 244.216 1032.1 247.618C1013.18 253.144 995.288 258.382 973.578 264.013C961.674 267.098 949.045 270.024 935.632 273.134C917.866 277.256 899.458 281.519 880.875 286.592C870.343 289.471 859.598 292.651 848.922 296.044C813.648 307.225 779.857 320.667 739.267 339.718C732.474 342.909 725.654 346.17 718.805 349.481C692.848 361.993 663.689 376.531 632.082 392.711C609.903 404.074 584.909 416.845 555.63 421.241L555.705 421.252Z" fill="#003341"/>
<path d="M546.153 422.059C544.275 422.341 542.392 422.579 540.468 422.801C502.478 426.961 470.693 416.874 439.951 407.101C428.283 403.393 416.266 399.581 404.201 396.671C366.471 387.567 333.604 385.52 297.583 390.01C282.509 391.893 268.186 394.849 253.798 399.09C245.065 401.655 236.459 404.58 227.329 407.696C208.891 413.978 189.787 420.494 169.744 423.705C157.59 425.619 146.474 426.326 135.623 425.851C109.458 424.678 85.2476 415.625 65.677 399.61C54.2308 390.251 45.6595 379.634 38.0958 369.581C31.2479 360.36 23.4807 349.935 13.1601 339.96C-4.78601 322.716 -28.7901 310.365 -56.2887 304.245C-77.098 299.649 -100.139 298.387 -124.672 300.459C-161.861 303.559 -203.198 314.196 -244.267 331.282C-258.442 337.192 -272.869 343.879 -288.412 351.739C-316.134 365.77 -343.035 381.333 -369.053 396.383C-382.131 403.941 -395.648 411.766 -409.17 419.324C-476.089 456.761 -533.647 480.082 -580.288 488.584L-581.851 482.105C-537.081 473.929 -481.204 451.218 -415.748 414.605C-402.328 407.108 -388.843 399.31 -375.801 391.757C-349.613 376.615 -322.541 360.959 -294.478 346.743C-278.627 338.724 -263.891 331.879 -249.333 325.822C-206.661 308.092 -163.474 296.999 -124.499 293.743C-98.2919 291.509 -73.6824 292.893 -51.3107 297.814C-21.9774 304.352 3.53987 317.438 22.5594 335.684C33.2246 345.988 41.1297 356.594 48.109 365.951C55.4461 375.725 63.781 385.998 74.7251 394.962C92.9859 409.876 114.285 417.978 138.034 419.045C147.697 419.473 157.681 418.847 168.607 417.117C187.137 414.156 205.503 407.885 223.275 401.838C232.159 398.804 241.361 395.677 250.449 393.014C265.76 388.523 281.008 385.338 297.063 383.353C335.184 378.591 369.837 380.728 409.408 390.295C421.894 393.298 434.143 397.188 446.005 400.956C476.705 410.691 505.7 419.898 540.205 416.127C568.059 413.064 592.296 400.653 615.705 388.635L617.418 387.751C645.8 373.197 676.751 358.301 706.934 344.684C714.056 341.467 721.148 338.298 728.214 335.201C768.578 317.594 804.971 304.03 842.819 292.529C853.935 289.115 865.116 285.892 875.973 282.964C890.909 278.931 905.681 275.281 919.958 271.773C937.651 267.416 954.35 263.32 969.306 258.926C988.505 253.291 1004.13 247.925 1020.7 242.259C1033.62 237.813 1047 233.231 1062.62 228.357C1065.34 227.524 1068.05 226.691 1070.85 225.868C1112.85 213.52 1166.26 201.675 1213.42 191.193L1220.42 189.65C1269.37 178.832 1321.1 166.634 1368.26 147.313C1453.28 112.641 1527.97 49.0196 1563.27 -18.7582L1573.6 -17.6009C1537.44 51.8495 1460.64 117.153 1373.22 152.79C1324.84 172.606 1272.32 184.989 1222.66 195.959L1215.65 197.503C1168.78 207.897 1115.66 219.7 1074.26 231.868C1071.54 232.679 1068.89 233.48 1066.28 234.297C1050.94 239.084 1037.67 243.649 1024.86 248.057C1008.15 253.788 992.35 259.226 972.76 264.964C957.449 269.456 940.573 273.601 922.667 278.012C908.498 281.504 893.828 285.094 879.072 289.1C868.396 292.001 857.428 295.169 846.45 298.518C809.239 309.834 773.404 323.18 733.63 340.542C726.597 343.612 719.574 346.747 712.521 349.932C682.581 363.445 651.872 378.237 623.698 392.694L621.985 393.578C598.779 405.476 574.854 417.75 546.297 422.038L546.153 422.059Z" fill="#003645"/>
<path d="M536.526 422.856C534.685 423.132 532.873 423.359 530.986 423.576C493.977 427.633 462.943 417.881 432.953 408.443C420.398 404.488 407.381 400.4 394.357 397.5C355.594 388.886 322.963 387.923 288.564 394.363C276.391 396.638 261.241 399.494 245.058 404.565C237.408 406.966 229.866 409.598 221.871 412.41C202.337 419.258 182.17 426.314 160.791 429.479C148.686 431.23 137.54 431.739 126.726 431.013C94.0552 428.803 72.1973 414.518 59.6052 402.938C49.3668 393.51 41.6717 382.582 34.8728 372.213C28.1855 361.849 21.3931 351.77 12.0704 342.048C0.311864 329.872 -21.0311 313.609 -55.9672 305.405C-76.7372 300.58 -99.7024 299.082 -124.19 300.969C-161.428 303.74 -202.985 314.142 -244.419 331.014C-258.748 336.88 -273.296 343.495 -288.885 351.296C-318.832 366.242 -347.81 382.967 -375.84 399.125C-387.087 405.603 -398.668 412.309 -410.207 418.808C-478.072 457.081 -533.29 480.498 -579.018 490.407L-581.152 484.059C-537.104 474.514 -483.357 451.631 -416.818 414.117C-405.348 407.651 -393.763 400.966 -382.553 394.494C-354.355 378.222 -325.174 361.376 -294.846 346.261C-278.909 338.318 -264.02 331.518 -249.343 325.51C-206.311 307.973 -162.897 297.158 -123.873 294.23C-97.6686 292.221 -73.0985 293.835 -50.8383 298.996C-13.493 307.755 9.17933 325.005 21.6403 337.926C31.275 348.004 38.2117 358.307 45.037 368.852C51.6488 378.958 59.1074 389.541 68.9158 398.564C80.4805 409.202 100.349 422.286 129.514 424.262C139.134 424.899 149.073 424.458 159.91 422.876C179.586 419.922 198.952 413.188 217.715 406.611C225.5 403.876 233.531 401.059 241.43 398.598C258.602 393.222 274.326 390.257 286.965 387.89C323.766 380.977 358.468 381.965 399.371 391.063C412.966 394.079 426.217 398.243 439.04 402.27C468.952 411.676 497.235 420.565 530.791 416.869C558.173 413.855 580.785 402.18 604.772 389.829L608.953 387.68C637.161 373.196 668.112 358.792 700.918 344.938C709.109 341.471 716.303 338.489 722.913 335.796C762.443 319.768 799.808 306.774 840.511 294.867C851.896 291.524 863.229 288.323 874.194 285.379C885.195 282.43 896.18 279.617 906.81 276.902C928.993 271.222 949.968 265.857 967.95 259.98C986.142 254.026 1000.63 248.248 1015.96 242.143C1029.12 236.899 1042.71 231.48 1059.06 225.825C1061.77 224.904 1064.51 223.978 1067.29 223.09C1112.01 208.7 1169.07 196.307 1219.03 185.808C1276.73 173.744 1324.49 163.127 1370.15 145.396C1457.62 111.586 1535.5 45.8301 1568.52 -22.1423L1578.9 -21.1271C1545 48.6109 1464.92 116.174 1374.83 150.981C1327.98 169.181 1279.51 179.972 1221.02 192.199C1171.49 202.59 1114.97 214.858 1071.06 228.992C1068.38 229.864 1065.74 230.73 1063.15 231.634C1047.18 237.164 1033.73 242.517 1020.77 247.663C1005.2 253.872 990.468 259.732 971.82 265.843C953.277 271.917 932.053 277.341 909.584 283.087C899.026 285.791 888.074 288.576 877.182 291.51C866.358 294.41 855.166 297.567 843.889 300.894C803.715 312.632 766.842 325.463 727.87 341.272C721.329 343.933 714.204 346.882 706.081 350.317C673.591 364.056 642.981 378.274 615.118 392.595L610.973 394.739C588.22 406.457 564.748 418.551 536.66 422.768L536.526 422.856Z" fill="#003A4A"/>
<path d="M526.903 423.674C525.134 423.939 523.322 424.167 521.508 424.372C485.372 428.343 455.008 418.871 425.651 409.718C412.249 405.532 398.385 401.214 384.449 398.383C339.742 389.275 306.048 393.528 278.978 398.868C264.065 401.823 250.07 405.49 236.221 410.121C229.683 412.311 223.204 414.648 216.342 417.133C195.751 424.566 174.468 432.304 151.776 435.33C139.688 436.944 128.545 437.23 117.767 436.252C85.4669 433.314 64.9479 418.359 53.4684 406.321C43.9684 396.402 37.4352 385.344 31.5454 374.883C26.0266 364.925 19.8971 354.344 10.9123 344.169C-4.62803 326.72 -28.2647 313.374 -55.7141 306.598C-76.4086 301.537 -99.3312 299.832 -123.816 301.494C-161.1 303.959 -202.883 314.081 -244.639 330.778C-259.125 336.579 -273.792 343.144 -289.466 350.868C-321.887 366.79 -353.107 384.814 -383.309 402.238C-392.653 407.624 -401.996 413.01 -411.346 418.352C-479.302 456.997 -533.742 481.17 -577.813 492.285L-580.518 486.067C-537.905 475.328 -484.722 451.634 -417.99 413.688C-408.637 408.368 -399.329 402.987 -390.019 397.629C-359.613 380.085 -328.186 361.963 -295.355 345.822C-279.336 337.935 -264.321 331.227 -249.454 325.258C-206.061 307.913 -162.424 297.355 -123.311 294.772C-97.514 293.003 -72.3104 294.902 -50.4277 300.255C-12.8197 309.534 8.98298 327.138 20.6596 340.244C29.9989 350.813 36.276 361.641 41.9393 371.823C47.6748 381.994 54.0144 392.745 63.0811 402.237C73.5955 413.256 92.1876 426.935 120.969 429.55C130.513 430.422 140.366 430.151 151.151 428.711C171.953 425.879 192.373 418.539 212.084 411.395C218.737 408.986 225.635 406.496 232.35 404.257C246.869 399.414 261.572 395.551 277.238 392.438C318.003 384.393 351.497 384.22 389.236 391.913C403.859 394.887 417.995 399.299 431.705 403.573C460.947 412.698 488.561 421.307 521.283 417.715C548.157 414.754 570.457 403.216 594.02 390.996L600.325 387.744C628.493 373.244 660.278 358.984 694.774 345.324C702.962 342.08 710.393 339.197 717.488 336.543C755.434 322.253 793.731 309.812 838.08 297.358C849.767 294.059 861.25 290.88 872.255 287.953C879.39 286.053 886.456 284.187 893.489 282.348C920.306 275.323 945.597 268.706 966.464 261.143C984.002 254.772 997.684 248.534 1012.16 241.908C1025.22 235.941 1038.72 229.774 1055.42 223.419C1058.11 222.41 1060.84 221.419 1063.6 220.421C1109.37 204.397 1169.9 191.527 1217.51 182.097L1221.42 181.331C1274.52 170.874 1324.68 160.971 1371.91 143.587C1463.13 110.177 1542.29 43.8262 1573.64 -25.4174L1584.08 -24.5444C1551.86 46.618 1470.33 114.825 1376.31 149.282C1327.86 167.118 1277.02 177.146 1223.2 187.755L1219.29 188.521C1172.26 197.843 1112.51 210.55 1067.76 226.198C1065.09 227.135 1062.5 228.083 1059.92 229.053C1043.71 235.201 1030.45 241.265 1017.59 247.133C1003.5 253.59 988.887 260.26 970.751 266.832C949.186 274.657 923.468 281.382 896.296 288.505C889.335 290.334 882.266 292.178 875.167 294.072C864.235 296.989 852.82 300.135 841.205 303.423C797.352 315.735 759.478 328.045 721.985 342.156C714.962 344.799 707.637 347.644 699.518 350.855C665.474 364.335 634.139 378.393 606.417 392.67L600.149 395.916C577.747 407.514 554.63 419.511 526.939 423.668L526.903 423.674Z" fill="#003D4E"/>
<path d="M517.276 424.47C515.543 424.73 513.768 424.952 511.989 425.152C476.615 429.031 446.881 419.823 418.148 410.889C404.014 406.5 389.378 401.962 374.569 399.217C331.355 391.205 298.62 396.433 269.706 403.258C254.803 406.771 240.976 410.816 227.48 415.595C222.013 417.535 216.63 419.551 210.897 421.688C189.259 429.77 166.854 438.146 142.783 441.089C130.672 442.549 119.575 442.649 108.794 441.403C76.8219 437.7 57.7174 422.085 47.3177 409.616C39.0353 399.693 33.5885 388.741 28.2434 377.482C23.7782 367.903 18.3116 356.82 9.7436 346.224C-4.72354 328.547 -27.8909 314.885 -55.4717 307.725C-75.7823 302.517 -99.3022 300.521 -123.448 301.976C-160.815 304.14 -202.785 314 -244.866 330.499C-259.47 336.25 -274.255 342.766 -290.054 350.397C-325.189 367.42 -358.89 386.869 -391.433 405.673C-398.466 409.728 -405.495 413.804 -412.532 417.837C-481.633 457.459 -533.815 481.673 -576.694 494.086L-579.967 488.021C-538.326 475.973 -487.26 452.194 -419.208 413.2C-412.172 409.167 -405.175 405.118 -398.142 401.064C-365.36 382.134 -331.459 362.543 -295.874 345.318C-279.734 337.502 -264.601 330.844 -249.613 324.946C-205.822 307.787 -161.991 297.537 -122.796 295.255C-97.0025 293.709 -71.8382 295.839 -50.0671 301.431C-20.5301 309.08 4.21616 323.669 19.632 342.501C28.5973 353.53 34.2213 364.926 38.7588 374.739C43.9529 385.73 49.2815 396.387 57.1634 405.855C64.9501 415.181 82.4365 431.33 112.34 434.784C121.806 435.869 131.613 435.784 142.345 434.486C164.312 431.792 185.704 423.792 206.432 416.048C211.956 413.988 217.686 411.829 223.295 409.846C237.384 404.844 251.779 400.646 267.322 396.97C298.127 389.704 332.989 384.135 379.166 392.709C394.737 395.607 409.721 400.25 424.238 404.739C452.853 413.623 479.879 422.007 511.837 418.484C538.385 415.572 560.364 404.105 583.573 391.982C586.313 390.564 589.05 389.124 591.758 387.733C620.097 373.14 652.709 358.979 688.692 345.633C697.014 342.548 704.684 339.785 712.121 337.192C747.865 324.709 785.965 313.171 835.706 299.75C846.95 296.697 858.588 293.563 870.41 290.423L880.174 287.838C911.704 279.501 941.494 271.627 965.042 262.251C982.108 255.437 995.12 248.672 1008.89 241.526C1021.69 234.859 1034.95 227.969 1051.84 220.98C1054.52 219.884 1057.23 218.805 1060.03 217.736C1096.01 204.122 1147.08 191.239 1216.1 178.348L1229.89 175.807C1280.51 166.463 1328.28 157.634 1373.81 141.758C1467.29 109.307 1549.7 40.7897 1578.9 -28.7358L1589.39 -27.983C1559.34 43.5269 1474.39 114.059 1377.93 147.539C1331.17 163.868 1282.75 172.795 1231.45 182.264L1217.7 184.799C1149.72 197.489 1099.64 210.111 1064.6 223.36C1061.98 224.357 1059.36 225.377 1056.86 226.424C1040.6 233.162 1027.62 239.9 1015.09 246.435C1001.63 253.446 987.695 260.685 969.897 267.788C945.411 277.551 915.158 285.539 883.096 294.023L873.368 296.602C861.583 299.737 849.981 302.866 838.737 305.919C789.383 319.214 751.637 330.655 716.313 342.985C708.982 345.54 701.42 348.287 693.166 351.338C657.774 364.439 625.716 378.36 597.929 392.691C595.221 394.082 592.517 395.495 589.813 396.908C567.7 408.463 544.865 420.373 517.427 424.492L517.276 424.47Z" fill="#004052"/>
<path d="M507.691 425.283C505.958 425.543 504.254 425.754 502.475 425.954C467.794 429.774 438.641 420.747 410.42 412.028C395.59 407.429 380.262 402.704 364.659 400.079C324.97 393.417 294.25 398.298 260.364 407.66C245.372 411.813 231.745 416.208 218.674 421.102C214.305 422.743 209.875 424.46 205.411 426.204C182.737 435.001 159.261 444.12 133.766 446.919C121.632 448.226 110.542 448.123 99.8322 446.621C66.495 441.936 48.7818 423.539 41.182 412.999C34.0878 403.122 29.7964 392.734 24.9532 380.147C21.2921 370.515 16.7315 359.317 8.58675 348.345C-4.83999 330.467 -27.5053 316.461 -55.2535 308.923C-75.4886 303.481 -98.9659 301.277 -123.073 302.502C-160.485 304.36 -202.682 313.94 -245.124 330.248C-259.886 335.932 -274.789 342.399 -290.67 349.975C-328.874 368.198 -365.213 389.25 -400.397 409.638L-413.745 417.37C-461.2 444.791 -522.442 478.489 -575.602 495.936L-579.476 490.051C-527.126 472.86 -463.666 437.71 -420.49 412.766L-407.176 405.061C-371.788 384.554 -335.18 363.326 -296.457 344.869C-280.231 337.13 -264.98 330.521 -249.802 324.662C-205.65 307.695 -161.593 297.723 -122.349 295.77C-96.5579 294.448 -71.433 296.807 -49.734 302.657C-20.023 310.728 4.22769 325.704 18.5736 344.786C27.086 356.241 31.8076 367.772 35.5836 377.678C40.3052 389.948 44.485 400.084 51.251 409.496C58.1581 419.11 74.1841 435.859 103.714 440.018C113.068 441.344 122.826 441.423 133.506 440.267C156.677 437.728 179.069 429.018 200.697 420.624C205.197 418.874 209.696 417.124 214.137 415.473C227.698 410.394 241.78 405.84 257.268 401.546C293.422 391.553 326.236 386.357 368.914 393.51C385.388 396.273 401.146 401.157 416.395 405.85C444.462 414.525 470.944 422.722 502.212 419.281C528.54 416.379 550.194 404.961 573.15 392.876C576.435 391.152 579.753 389.401 583.042 387.699C611.65 372.931 645.092 358.892 682.463 345.942C690.816 343.054 698.932 340.314 706.609 337.841C748.329 324.349 790.299 313.259 833.187 302.143C844.625 299.15 856.453 296.054 868.42 292.893C902.332 283.952 937.38 274.707 963.507 263.332C980.245 256.053 992.624 248.757 1005.75 241.057C1018.24 233.722 1031.16 226.121 1048.14 218.492C1050.81 217.308 1053.51 216.141 1056.29 215.007C1092.58 200.25 1145.84 186.638 1214.5 174.561C1221.91 173.27 1229.29 172.005 1236.59 170.752C1285.29 162.389 1331.28 154.499 1375.49 139.873C1472.61 107.903 1556.38 38.8027 1583.94 -32.0872L1594.48 -31.4765C1566.09 41.529 1479.65 112.732 1379.36 145.758C1333.92 160.793 1287.28 168.803 1237.94 177.263C1230.63 178.516 1223.29 179.775 1215.92 181.061C1148.48 192.91 1096.43 206.185 1061.22 220.511C1058.61 221.574 1056.04 222.676 1053.55 223.788C1037.3 231.085 1024.71 238.479 1012.53 245.633C999.642 253.208 986.275 261.055 968.779 268.695C941.51 280.576 905.819 289.963 871.302 299.061C859.3 302.228 847.475 305.346 836.001 308.344C793.359 319.379 751.674 330.404 710.378 343.765C702.845 346.216 694.831 348.896 686.584 351.745C649.914 364.456 617.168 378.212 589.21 392.636C585.921 394.338 582.669 396.035 579.42 397.753C557.524 409.276 534.941 421.147 507.723 425.256L507.691 425.283Z" fill="#004356"/>
<path d="M498.102 426.096C496.405 426.351 494.705 426.584 492.995 426.751C458.93 430.5 430.282 421.644 402.567 413.095C387.121 408.32 371.133 403.381 354.781 400.935C311.649 394.455 279.877 402.895 251.055 412.056C241.33 415.149 226.519 420.014 209.866 426.631C206.591 427.929 203.286 429.275 199.978 430.6C176.24 440.183 151.741 450.105 124.779 452.721C112.622 453.875 101.538 453.57 90.9004 451.81C57.8815 446.295 41.7632 427.211 35.1086 416.327C28.6936 405.811 25.17 394.145 21.7416 382.866C18.6482 372.344 14.7637 361.224 7.45925 350.438C-4.93037 332.338 -27.0903 318.009 -55.0092 310.072C-75.1689 304.395 -98.5707 301.956 -122.704 303.006C-160.166 304.535 -202.582 313.88 -245.349 329.99C-260.265 335.631 -275.29 342.027 -291.256 349.526C-332.844 369.062 -372.189 391.976 -410.209 414.131L-414.896 416.849C-465.819 446.492 -524.574 479.301 -574.452 497.71L-578.887 492.021C-530.128 474.026 -472.056 441.587 -421.677 412.251L-416.991 409.533C-378.699 387.225 -339.117 364.163 -296.945 344.338C-280.637 336.653 -265.229 330.111 -249.928 324.323C-205.452 307.553 -161.135 297.833 -121.803 296.224C-96.0184 295.106 -70.9623 297.743 -49.342 303.806C-19.457 312.298 4.29487 327.641 17.5381 347C25.2167 358.312 29.1965 369.82 32.3951 380.551C35.9088 392.152 39.2058 403.047 45.3253 413.07C51.3889 422.968 65.9184 440.322 95.1136 445.203C104.389 446.742 114.065 447.012 124.728 445.993C149.104 443.608 172.494 434.167 195.084 425.047C198.425 423.695 201.765 422.343 205.077 421.04C222.182 414.242 237.381 409.253 247.351 406.078C276.804 396.688 312.157 387.263 358.84 394.284C376.212 396.89 392.663 401.961 408.576 406.889C436.101 415.4 462.113 423.421 492.764 420.05C518.837 417.165 540.346 405.768 563.082 393.694C566.912 391.665 570.706 389.64 574.546 387.677C603.459 372.729 637.732 358.811 676.419 346.267C684.831 343.527 693.19 340.93 701.244 338.512C737.421 327.687 774.117 318.598 812.985 308.98L830.816 304.557C842.201 301.707 854.217 298.627 866.577 295.384C900.781 286.422 936.341 276.653 962.16 264.452C978.566 256.685 990.423 248.863 1002.95 240.583C1015.07 232.564 1027.63 224.278 1044.63 216.042C1047.22 214.804 1049.94 213.544 1052.75 212.317C1089.62 196.264 1143.56 182.302 1213.09 170.812C1222.89 169.207 1232.62 167.656 1242.29 166.137C1289.49 158.67 1334.09 151.615 1377.35 138.027C1476.55 107.088 1563.67 35.7605 1589.2 -35.4275L1599.79 -34.9372C1573.45 38.4322 1483.49 112.021 1380.98 143.994C1336.48 157.947 1291.27 165.116 1243.38 172.686C1233.75 174.221 1224.05 175.745 1214.29 177.345C1146.17 188.602 1093.61 202.155 1057.98 217.663C1055.35 218.819 1052.79 219.986 1050.39 221.153C1034.21 228.996 1022.06 237.042 1010.27 244.81C997.907 252.976 985.111 261.431 967.809 269.623C940.786 282.407 904.376 292.417 869.39 301.585C856.958 304.839 844.874 307.952 833.417 310.813L815.549 315.241C776.894 324.804 740.379 333.867 704.625 344.561C696.713 346.935 688.462 349.516 680.152 352.196C642.272 364.462 608.803 378.08 580.605 392.63C576.838 394.583 573.041 396.585 569.28 398.582C547.567 410.099 525.172 421.987 498.059 426.058L498.102 426.096Z" fill="#00475A"/>
<path d="M488.514 426.887C486.854 427.136 485.19 427.364 483.483 427.553C450 431.237 421.782 422.54 394.529 414.123C378.502 409.167 361.897 404.052 344.872 401.797C302.532 396.16 271.931 405.52 241.714 416.457C230.09 420.664 216.171 425.819 201.064 432.16L194.573 434.903C169.821 445.354 144.235 456.155 115.767 458.572C103.551 459.578 92.5129 459.087 81.9408 457.027C58.0233 452.383 38.742 438.786 29.0074 419.683C23.7609 409.327 21.245 397.979 18.7882 387.025L18.44 385.444C16.1605 374.933 13.1425 363.683 6.30402 352.559C-5.08131 334.263 -26.7752 319.596 -54.7533 311.265C-74.8375 305.352 -98.2 302.684 -122.327 303.531C-159.871 304.76 -202.478 313.82 -245.602 329.76C-260.676 335.335 -275.782 341.676 -291.831 349.12C-333.77 368.53 -371.314 390.166 -416.028 416.415C-466.748 446.184 -524.892 479.618 -573.287 499.55L-578.28 494.078C-530.791 474.507 -473.156 441.373 -422.846 411.822C-387.429 391.02 -343.321 365.153 -297.451 343.9C-281.021 336.286 -265.531 329.798 -250.073 324.076C-205.236 307.498 -160.689 298.08 -121.31 296.777C-95.5295 295.883 -70.5127 298.751 -49.0007 305.076C-18.9778 313.994 4.27526 329.703 16.4879 349.329C23.6678 361.006 26.8238 372.683 29.1559 383.544L29.5007 385.103C31.9969 396.32 34.3256 406.913 39.3489 416.765C48.1576 434.128 65.3218 446.409 86.4625 450.508C95.6265 452.287 105.253 452.721 115.864 451.844C141.487 449.653 165.826 439.398 189.363 429.464L195.891 426.716C211.313 420.261 225.474 415.002 237.273 410.724C268.329 399.482 302.458 389.032 348.563 395.156C366.756 397.571 383.867 402.857 400.397 407.961C427.456 416.318 453.041 424.202 483.108 420.874C509.039 418.032 530.358 406.596 552.908 394.506C557.177 392.209 561.483 389.907 565.802 387.692C595.056 372.559 630.192 358.735 670.163 346.625C678.778 344.011 687.377 341.534 695.707 339.232C726.154 330.812 756.581 323.737 788.794 316.26C801.672 313.275 814.797 310.208 828.269 306.999C840.134 304.143 852.336 301.081 864.558 297.903C899.305 288.86 934.989 278.691 960.601 265.604C976.751 257.361 988.046 248.997 1000.04 240.125C1011.77 231.449 1023.9 222.468 1040.88 213.63C1043.45 212.304 1046.16 210.957 1048.96 209.642C1095.37 188.062 1162.93 174.584 1211.42 167.08C1223.33 165.247 1235.28 163.497 1246.81 161.833C1292.91 155.158 1336.45 148.845 1379 136.191C1481.79 105.81 1570.29 33.8715 1594.24 -38.7573L1604.89 -38.3871C1580.18 36.5488 1488.7 110.814 1382.41 142.235C1338.67 155.248 1294.51 161.631 1247.73 168.431C1236.24 170.089 1224.35 171.829 1212.52 173.65C1165.15 180.986 1099.3 194.095 1054.61 214.857C1051.99 216.079 1049.45 217.334 1047.08 218.561C1031.03 226.924 1019.26 235.627 1007.94 244.019C996.072 252.782 983.811 261.85 966.703 270.595C939.753 284.353 903.044 294.832 867.375 304.126C855.048 307.342 842.701 310.426 830.732 313.32C817.227 316.556 804.063 319.607 791.115 322.625C759.083 330.074 728.833 337.1 698.704 345.428C690.48 347.692 682.025 350.147 673.551 352.717C634.532 364.528 600.302 377.992 571.871 392.71C567.625 394.914 563.388 397.184 559.184 399.427C537.622 410.966 515.345 422.903 488.377 426.952L488.514 426.887Z" fill="#004A5E"/>
<path d="M478.924 427.7C477.299 427.944 475.635 428.171 473.965 428.355C440.993 432.007 413.199 423.425 386.37 415.124C369.801 410.003 352.654 404.723 334.993 402.653C293.211 397.783 263.811 408.015 232.364 420.837L230.415 421.622C219.108 426.228 206.309 431.462 192.217 437.673L189.204 438.998C164.626 449.871 136.72 462.184 106.705 464.385C94.4698 465.26 83.3991 464.55 72.9353 462.228C39.2202 454.781 26.6954 432.337 22.8998 423.039C18.7068 412.815 17.1198 401.753 15.5853 391.041L15.145 388.109C13.6992 377.495 11.4721 366.104 5.14232 354.68C-5.242 336.166 -26.4305 321.177 -54.5399 312.464C-74.5454 306.337 -97.8719 303.417 -121.956 304.057C-159.582 304.985 -202.376 313.782 -245.829 329.503C-261.021 335.028 -276.285 341.303 -292.418 348.671C-337.196 369.089 -378.629 393.099 -417.177 415.916C-467.966 445.964 -525.536 480.028 -572.135 501.345L-577.683 496.114C-531.776 475.102 -474.544 441.245 -424.06 411.378C-385.171 388.375 -343.4 364.157 -297.966 343.44C-281.416 335.898 -265.807 329.459 -250.192 323.803C-204.359 307.21 -160.807 298.299 -120.756 297.298C-94.9814 296.606 -70.0007 299.725 -48.5609 306.307C-18.4 315.653 4.35744 331.749 15.5002 351.625C22.1812 363.668 24.5102 375.491 26.0151 386.499L26.4554 389.431C27.9867 400.368 29.4653 410.708 33.4743 420.444C36.9547 428.872 48.2058 449.225 77.9133 455.796C86.9624 457.794 96.5069 458.42 107.134 457.652C134.083 455.687 159.39 444.503 183.902 433.685L186.915 432.36C201.178 426.056 214.122 420.801 225.494 416.14L227.443 415.355C259.898 402.113 292.773 390.688 338.536 396.012C357.511 398.221 375.238 403.682 392.352 408.989C418.984 417.209 444.146 424.977 473.708 421.725C499.564 418.872 520.695 407.42 543.094 395.308C547.807 392.765 552.516 390.201 557.278 387.74C586.906 372.394 622.873 358.692 664.091 347.021C672.838 344.545 681.673 342.166 690.35 339.968C717.338 333.097 744.017 327.368 772.302 321.264C789.644 317.519 807.596 313.66 825.939 309.452C838.033 306.651 850.459 303.6 862.789 300.406C893.811 292.369 932.83 281.297 959.327 266.734C975.218 257.994 986.061 249.071 997.523 239.607C1008.82 230.28 1020.55 220.62 1037.48 211.164C1040.04 209.751 1042.74 208.316 1045.52 206.936C1092.33 183.819 1160.87 170.462 1210.08 163.32C1223.88 161.337 1237.64 159.518 1250.96 157.764C1296.17 151.804 1338.89 146.195 1380.93 134.356C1485.62 105.055 1577.55 30.8567 1599.53 -42.081L1610.2 -41.8257C1587.51 33.4795 1492.4 110.146 1384.07 140.487C1340.82 152.663 1297.49 158.364 1251.62 164.4C1238.34 166.148 1224.62 167.962 1210.96 169.924C1163.05 176.87 1096.33 189.819 1051.45 211.998C1048.84 213.285 1046.34 214.6 1043.99 215.915C1028.05 224.82 1016.75 234.125 1005.81 243.152C994.444 252.534 982.718 262.216 965.768 271.518C937.803 286.883 897.514 298.348 865.567 306.613C853.095 309.85 840.526 312.923 828.254 315.773C809.767 320.003 791.781 323.889 774.367 327.645C746.26 333.7 719.725 339.407 693.056 346.186C684.559 348.357 675.865 350.691 667.259 353.125C627.065 364.485 592.146 377.784 563.41 392.683C558.717 395.11 554.073 397.62 549.429 400.13C527.986 411.718 505.827 423.705 478.894 427.749L478.924 427.7Z" fill="#004D63"/>
<path d="M469.371 428.485C467.747 428.729 466.119 428.951 464.484 429.129C431.986 432.733 404.575 424.25 378.094 416.053C361.023 410.784 343.367 405.312 325.076 403.47C283.773 399.333 254.384 410.862 223.012 425.172C218.969 427.01 214.614 428.984 210.013 431.04C201.992 434.661 192.898 438.756 183.439 443.13C158.107 454.877 129.393 468.206 97.7509 470.138C85.6007 470.843 74.2739 469.903 63.9972 467.351C40.7917 461.548 23.1676 446.203 16.8233 426.323C13.6085 416.221 12.9044 405.384 12.22 394.925L11.9534 390.691C11.2657 379.964 9.8296 368.431 4.04791 356.723C-5.2172 338.288 -26.4813 322.55 -54.2592 313.585C-74.1532 307.218 -97.437 304.09 -121.551 304.533C-159.777 305.148 -201.646 313.47 -246.054 329.223C-261.193 334.606 -276.992 341.006 -293.005 348.199C-338.134 368.491 -379.937 392.49 -418.361 415.4C-425.305 419.553 -432.285 423.711 -439.23 427.864C-487.196 456.548 -532.488 483.622 -571.021 503.102L-577.047 498.122C-538.925 478.86 -493.837 451.906 -446.073 423.342C-439.129 419.189 -432.149 415.031 -425.205 410.878C-386.443 387.76 -344.233 363.521 -298.411 342.924C-282.021 335.541 -265.802 328.988 -250.279 323.457C-204.086 307.056 -160.31 298.403 -120.203 297.774C-94.4317 297.306 -69.4904 300.655 -48.1621 307.478C-18.3261 317.118 4.51687 334.029 14.4714 353.86C20.6176 366.274 22.1622 378.775 22.8334 389.393L23.1 393.627C23.7844 404.332 24.4523 414.436 27.5226 424.067C33.2594 442.115 48.8812 455.926 69.3231 461.024C78.2606 463.263 87.7526 464.03 98.3669 463.421C126.678 461.677 153.875 449.068 177.862 437.948C187.386 433.519 196.516 429.418 204.609 425.787C209.174 423.736 213.533 421.784 217.537 419.93C249.981 405.145 282.892 392.238 328.393 396.796C348.109 398.782 366.417 404.424 384.109 409.891C410.357 418.011 435.135 425.681 464.221 422.455C489.965 419.597 511.018 408.112 533.298 395.95C538.313 393.206 543.498 390.368 548.707 387.684C578.742 372.098 615.503 358.523 657.975 347.335C666.889 344.99 675.963 342.732 684.949 340.622C709.63 334.858 733.936 330.045 759.641 324.955C780.292 320.87 801.661 316.655 823.529 311.827C835.889 309.077 848.469 306.069 860.907 302.859C889.52 295.497 930.741 283.848 957.977 267.81C973.647 258.587 983.998 249.089 994.929 239.034C1005.8 229.056 1017.06 218.727 1033.93 208.675C1036.48 207.174 1039.16 205.652 1041.97 204.201C1091.56 178.227 1167.67 165.078 1208.62 159.532C1224.08 157.459 1239.53 155.631 1254.43 153.863C1299.01 148.58 1341.09 143.605 1382.76 132.493C1491.01 103.798 1584.36 28.9838 1604.75 -45.4603L1615.47 -45.3253C1594.39 31.5957 1497.76 108.96 1385.68 138.656C1342.8 150.084 1300.07 155.156 1254.84 160.493C1240 162.25 1224.63 164.067 1209.32 166.119C1169.52 171.513 1095.57 184.249 1048.17 209.067C1045.6 210.414 1043.11 211.795 1040.78 213.197C1024.95 222.622 1014.11 232.573 1003.64 242.202C992.768 252.181 981.541 262.481 964.788 272.359C935.924 289.358 893.288 301.421 863.682 309.044C851.062 312.281 838.273 315.365 825.732 318.143C803.611 323.008 782.173 327.256 761.451 331.352C735.887 336.398 711.761 341.184 687.366 346.883C678.557 348.944 669.66 351.153 660.89 353.476C619.593 364.376 583.912 377.52 554.907 392.594C549.837 395.212 544.72 398.017 539.775 400.729C518.417 412.394 496.34 424.436 469.444 428.474L469.371 428.485Z" fill="#005067"/>
<path d="M459.822 429.292C458.233 429.531 456.642 429.747 455.007 429.926C422.909 433.492 395.915 425.08 369.778 416.966C351.463 411.279 334.116 405.895 315.237 404.321C274.148 400.868 246.088 413.137 213.663 429.529C205.498 433.664 195.899 438.328 185.748 443.253L174.636 448.659C146.874 462.181 119.408 474.472 88.77 475.962C76.5639 476.541 65.2404 475.377 55.1048 472.535C32.0994 466.098 15.5549 450.076 10.8287 429.662C8.51315 419.649 8.61319 409.005 8.72968 398.716L8.77146 393.339C8.88138 383.007 8.23613 370.841 2.96311 358.833C-5.33709 340.186 -26.0957 324.125 -53.969 314.772C-73.7874 308.17 -97.0319 304.813 -121.139 305.053C-159.412 305.362 -201.507 313.405 -246.236 328.982C-261.494 334.316 -277.414 340.645 -293.545 347.788C-341.001 368.809 -383.842 393.524 -419.462 414.939C-436.324 425.079 -453.235 435.383 -469.605 445.359C-505.96 467.533 -540.324 488.469 -569.864 504.898L-576.406 500.174C-547.102 483.892 -512.876 463.022 -476.622 440.908C-460.256 430.91 -443.312 420.578 -426.378 410.428C-390.384 388.8 -347.067 363.813 -298.918 342.486C-282.407 335.174 -266.07 328.67 -250.389 323.206C-203.835 306.997 -159.869 298.628 -119.64 298.316C-93.8395 298.045 -68.9704 301.651 -47.7504 308.736C-17.7765 318.804 4.53488 336.108 13.4917 356.178C19.0931 368.898 19.7483 381.622 19.6647 392.375L19.6262 397.774C19.5064 408.287 19.4456 418.209 21.62 427.773C25.8733 446.267 40.5172 460.695 60.7818 466.335C69.5685 468.797 79.0145 469.751 89.6091 469.257C116.91 467.91 142.679 456.366 168.822 443.624L179.971 438.213C190.052 433.321 199.583 428.69 207.646 424.615C234.991 410.775 269.063 393.554 318.302 397.685C338.753 399.403 357.57 405.238 375.77 410.897C401.635 418.918 426.068 426.506 454.757 423.34C480.429 420.492 501.432 408.925 523.595 396.714C528.98 393.734 534.539 390.684 540.122 387.787C570.738 371.89 608.362 358.409 651.878 347.781C660.634 345.616 669.949 343.479 679.535 341.435C702.641 336.489 725.323 332.413 749.294 328.075C772.515 323.895 796.526 319.574 821.141 314.357C833.731 311.661 846.498 308.67 859.048 305.465C904.697 293.8 935.705 282.23 956.649 269.038C972.132 259.307 981.993 249.256 992.429 238.604C1002.87 227.974 1013.66 216.978 1030.44 206.335C1032.97 204.746 1035.65 203.158 1038.41 201.603C1088.2 174.032 1165.52 161.125 1207.15 155.882C1224.11 153.761 1241.05 151.979 1257.44 150.235C1301.52 145.586 1343.16 141.19 1384.6 130.739C1494.6 103.147 1591.48 26.0125 1610.02 -48.7131L1620.76 -48.6929C1601.61 28.5863 1501.26 108.391 1387.31 136.979C1344.63 147.751 1302.4 152.189 1257.66 156.914C1241.38 158.62 1224.52 160.413 1207.74 162.507C1167.34 167.588 1092.47 180.06 1044.95 206.349C1042.4 207.762 1039.92 209.23 1037.63 210.693C1021.96 220.632 1012.03 230.738 1001.53 241.444C991.158 252.02 980.397 262.967 963.801 273.402C941.538 287.396 909.142 299.555 861.822 311.65C849.023 314.914 836.042 317.96 823.203 320.715C798.299 325.976 774.183 330.335 750.818 334.537C726.988 338.831 704.45 342.886 681.63 347.767C672.224 349.783 663.087 351.871 654.511 354.009C612.279 364.333 575.875 377.34 546.355 392.67C540.911 395.501 535.42 398.518 530.137 401.438C508.828 413.185 486.836 425.303 459.904 429.347L459.822 429.292Z" fill="#00546B"/>
<path d="M450.267 430.078C448.678 430.317 447.123 430.528 445.488 430.706C413.787 434.213 387.105 425.911 361.274 417.862C342.489 412 324.755 406.495 305.321 405.161C261.085 402.136 230.908 418.997 204.273 433.871C192.931 440.206 179.092 447.363 165.823 454.144C140.934 466.877 111.682 480.555 79.7443 481.748C67.4791 482.179 56.1621 480.813 46.1347 477.709C23.3262 470.616 7.85816 453.895 4.75646 432.991C3.26149 423.034 4.16237 412.56 5.00423 402.431C5.19753 400.276 5.35476 398.127 5.51195 395.977C6.34064 385.515 6.52244 373.202 1.80077 360.932C-5.56734 342.1 -25.8239 325.696 -53.7596 315.927C-73.5026 309.09 -96.6717 305.497 -120.808 305.541C-159.166 305.527 -201.445 313.329 -246.503 328.687C-261.918 333.955 -277.96 340.212 -294.173 347.301C-332.978 364.226 -371.992 384.92 -420.687 414.407C-450.332 432.351 -479.067 450.45 -506.857 467.959C-529.081 481.97 -550.091 495.216 -568.867 506.628L-575.852 502.15C-557.181 490.776 -536.201 477.579 -514.013 463.573C-486.19 446.037 -457.386 427.905 -427.676 409.907C-378.439 380.092 -338.909 359.142 -299.517 341.95C-282.888 334.686 -266.465 328.26 -250.626 322.861C-203.744 306.871 -159.519 298.754 -119.241 298.771C-93.4431 298.725 -68.6133 302.56 -47.5048 309.886C-17.4652 320.391 4.31116 338.066 12.3097 358.392C17.3695 371.439 17.1648 384.337 16.2903 395.232C16.1331 397.381 15.9431 399.558 15.7859 401.707C14.9408 412.061 14.1219 421.85 15.5084 431.332C17.6672 445.955 28.3796 464.196 52.035 471.519C60.7068 474.201 70.0708 475.346 80.6818 474.961C109.023 473.906 135.199 461.629 159.609 449.147C172.776 442.426 186.478 435.334 197.616 429.12C224.796 413.94 258.651 395.027 307.999 398.404C329.149 399.861 348.471 405.866 367.177 411.695C392.7 419.656 416.825 427.155 445.077 424.032C470.752 421.207 491.668 409.541 513.777 397.226C519.501 394.039 525.428 390.732 531.387 387.645C562.411 371.507 600.832 358.175 645.599 348.008C654.555 345.947 664.109 343.931 673.971 342.003C695.958 337.717 717.468 334.196 740.242 330.486C765.573 326.347 791.77 322.079 818.604 316.64C831.426 314.021 844.344 311.052 857.039 307.826C902.304 296.308 934.375 283.952 955.175 270.043C970.471 259.803 979.876 249.171 989.816 237.923C999.788 226.646 1010.11 215.004 1026.77 203.776C1029.29 202.1 1031.96 200.424 1034.7 198.803C1084.7 169.636 1163.17 156.982 1205.54 152.029C1223.9 149.899 1242.18 148.207 1259.87 146.557C1303.6 142.498 1344.92 138.666 1386.23 128.817C1499.73 101.907 1598.1 24.102 1615.04 -52.1519L1625.8 -52.2465C1608.3 26.6649 1506.36 107.2 1388.72 135.089C1346.17 145.237 1304.22 149.118 1259.84 153.231C1242.26 154.864 1224.05 156.546 1205.91 158.665C1164.91 163.455 1089 175.636 1041.48 203.38C1038.93 204.859 1036.51 206.387 1034.19 207.943C1018.63 218.402 1009.17 229.11 999.131 240.462C989.22 251.662 978.995 263.222 962.557 274.216C940.418 289.042 906.788 302.08 859.745 314.043C846.764 317.335 833.561 320.369 820.453 323.053C793.261 328.568 766.919 332.858 741.408 337.024C718.779 340.713 697.409 344.19 675.712 348.432C666.03 350.333 656.69 352.295 647.913 354.329C604.542 364.197 567.413 377.044 537.591 392.576C531.805 395.593 525.98 398.84 520.322 401.971C499.063 413.801 477.124 426.023 450.155 430.072L450.267 430.078Z" fill="#00576F"/>
<path d="M86.2795 486.182C81.189 486.946 76.0198 487.431 70.7586 487.55C58.3982 487.839 47.1239 486.265 37.2015 482.876C10.546 473.765 -0.124276 452.856 -1.24287 436.308C-1.9173 426.407 -0.333741 416.055 1.23021 406.063C1.59741 403.591 1.99745 401.092 2.32526 398.604C3.87599 388.033 4.87827 375.53 0.70796 362.998C-5.76416 343.987 -25.4825 327.233 -53.4773 317.07C-73.1088 309.993 -96.2385 306.171 -120.365 306.034C-158.805 305.719 -201.308 313.263 -246.69 328.424C-262.224 333.643 -278.387 339.829 -294.718 346.868C-334.356 363.896 -374.716 385.217 -421.794 413.924C-470.22 443.482 -517.438 474.941 -555.395 500.219L-567.711 508.424L-575.097 504.229L-562.78 496.025C-524.758 470.691 -477.405 439.146 -428.775 409.467C-381.16 380.411 -340.216 358.801 -299.918 341.495C-283.203 334.309 -266.623 327.948 -250.633 322.571C-203.39 306.773 -158.974 298.941 -118.574 299.275C-92.7835 299.431 -67.9898 303.518 -46.9535 311.101C-16.8481 322.043 4.43274 340.107 11.4368 360.694C15.9125 374.03 14.8545 387.145 13.2284 398.198C12.8645 400.691 12.5038 403.207 12.1005 405.684C10.5333 415.9 9.03167 425.568 9.6765 435.027C10.7029 449.977 20.1027 468.817 43.5679 476.841C52.092 479.768 61.4035 481.055 72.0342 480.802C99.873 480.091 126.318 467.885 150.715 454.824C166.16 446.553 178.342 439.666 187.908 433.799C214.881 417.241 248.447 396.649 298.014 399.277C319.857 400.428 339.652 406.631 358.788 412.619C384.006 420.514 407.829 427.969 435.713 424.856C461.421 422.004 482.254 410.283 504.315 397.885C510.376 394.492 516.605 390.983 522.903 387.688C554.3 371.338 593.552 358.127 639.533 348.426C648.726 346.464 658.519 344.569 668.585 342.766C689.764 339.005 711.403 335.846 732.319 332.795C759.449 328.833 787.517 324.731 816.172 319.131C829.188 316.572 842.329 313.615 855.168 310.367C900.729 298.85 933.026 286.034 953.836 271.207C968.945 260.457 977.893 249.245 987.373 237.394C996.883 225.494 1006.73 213.162 1023.31 201.364C1025.81 199.601 1028.47 197.838 1031.2 196.151C1067.81 173.671 1130.83 156.243 1204.1 148.33C1223.72 146.213 1243.31 144.659 1262.24 143.137C1305.72 139.652 1346.83 136.344 1388.11 127.058C1503.25 101.267 1605.22 21.1089 1620.3 -55.4265L1631.09 -55.6142C1615.49 23.6171 1509.75 106.647 1390.35 133.39C1347.82 142.975 1306.13 146.325 1261.96 149.87C1243.13 151.375 1223.69 152.951 1204.33 155.031C1133.49 162.69 1072.97 179.318 1038.23 200.646C1035.73 202.185 1033.27 203.806 1031.01 205.422C1015.6 216.418 1006.56 227.711 996.984 239.688C987.569 251.485 977.81 263.691 961.569 275.259C939.322 291.086 905.4 304.638 857.884 316.65C844.723 319.969 831.296 322.991 817.958 325.621C788.87 331.286 760.585 335.421 733.239 339.414C711.492 342.59 690.94 345.609 670.047 349.305C660.158 351.058 650.581 352.921 641.569 354.856C597.055 364.247 559.208 376.978 529.077 392.668C522.983 395.843 516.82 399.297 510.863 402.653C488.396 415.291 465.177 428.332 435.987 431.596C404.649 435.07 378.27 426.812 352.744 418.83C333.532 412.83 315.401 407.139 295.419 406.089C251.176 403.758 221.259 422.101 194.86 438.305C185.058 444.319 172.672 451.326 156.988 459.722C135.19 471.409 111.705 482.431 86.2893 486.247L86.2795 486.182Z" fill="#005A73"/>
<path d="M78.2914 491.991C72.876 492.804 67.3753 493.294 61.7366 493.358C49.3171 493.499 38.0493 491.722 28.268 488.044C1.86183 478.135 -7.43334 456.549 -7.27525 439.653C-7.20792 429.775 -4.90551 419.538 -2.70153 409.63C-2.08494 406.852 -1.47163 404.052 -0.894432 401.258C1.37506 390.557 3.20114 377.885 -0.450636 365.119C-5.99395 345.902 -25.2464 328.809 -53.2609 318.269C-72.8169 310.956 -95.9039 306.926 -120.028 306.565C-158.55 305.949 -201.242 313.209 -246.947 328.194C-262.602 333.341 -278.883 339.478 -295.335 346.446C-335.666 363.533 -377.415 385.443 -422.972 413.452C-467.752 440.986 -516.099 473.531 -566.671 510.192L-574.46 506.26C-523.659 469.408 -475.043 436.688 -429.99 409.001C-383.858 380.637 -341.46 358.384 -300.433 341.013C-283.6 333.876 -266.902 327.565 -250.788 322.281C-203.18 306.697 -158.541 299.122 -118.092 299.785C-92.2685 300.159 -67.5501 304.482 -46.6254 312.305C-16.4576 323.663 4.29487 342.141 10.2979 362.946C14.1927 376.593 12.2748 389.882 9.89711 401.092C9.32319 403.908 8.6738 406.714 8.0605 409.513C5.81388 419.629 3.66893 429.193 3.6081 438.623C3.4726 453.211 11.5892 473.34 34.8641 482.064C43.2734 485.21 52.503 486.688 63.1862 486.539C91.9211 486.14 118.941 473.088 141.618 460.374C156.022 452.304 168.269 444.871 178.029 438.326C204.69 420.427 237.889 398.123 287.862 400.018C310.362 400.869 330.623 407.226 350.192 413.395C375.108 421.245 398.662 428.629 426.221 425.566C451.929 422.713 472.746 410.883 494.754 398.381C501.117 394.785 507.681 391.047 514.323 387.589C546.131 371.02 586.21 357.909 633.405 348.675C642.798 346.817 652.828 345.02 663.176 343.377C683.797 340.08 704.799 337.352 725.112 334.705C753.862 330.97 783.555 327.116 813.825 321.453C827.071 318.949 840.367 316.035 853.35 312.766C898.635 301.379 932.025 287.729 952.585 272.222C967.54 260.937 976.035 249.166 985.02 236.718C994.063 224.172 1003.41 211.199 1019.86 198.816C1022.32 196.971 1024.96 195.12 1027.72 193.362C1079.79 159.789 1167.43 147.995 1202.67 144.494C1223.48 142.444 1244.24 141.028 1264.3 139.65C1307.67 136.695 1348.61 133.929 1389.96 125.124C1508.57 100.021 1612.06 19.2094 1625.58 -58.8816L1636.39 -59.1841C1622.4 21.7068 1515.07 105.467 1392.02 131.483C1349.45 140.538 1307.87 143.38 1263.83 146.366C1243.92 147.723 1223.3 149.117 1202.75 151.151C1130.88 158.316 1069.71 175.266 1034.97 197.644C1032.45 199.276 1030.04 200.936 1027.82 202.634C1012.53 214.149 1003.94 226.045 994.837 238.668C985.882 251.067 976.622 263.892 960.541 276.04C938.557 292.633 903.369 307.091 856.059 319.005C842.718 322.351 829.068 325.362 815.461 327.92C784.688 333.681 754.743 337.573 725.736 341.324C704.626 344.069 684.711 346.656 664.343 349.915C654.214 351.548 644.398 353.29 635.185 355.121C589.568 364.051 550.996 376.623 520.524 392.498C514.085 395.837 507.659 399.509 501.397 403.045C478.947 415.792 455.747 428.964 426.517 432.212C395.509 435.659 369.395 427.451 344.17 419.513C324.565 413.349 306.083 407.531 285.589 406.759C241.185 405.079 211.61 424.96 185.484 442.488C175.455 449.207 162.938 456.815 148.229 465.066C128.003 476.404 104.416 487.979 78.3505 491.893L78.2914 491.991Z" fill="#005D77"/>
<path d="M70.2339 497.811C64.5297 498.667 58.6942 499.14 52.7536 499.16C40.2389 499.159 29.0137 497.174 19.3374 493.212C-6.8589 482.488 -14.5985 459.46 -13.2687 442.992C-12.4629 433.115 -9.52373 422.939 -6.67973 413.114C-5.81046 410.052 -4.90509 406.985 -4.07521 403.906C-1.09024 393.053 1.5235 380.219 -1.53753 367.207C-6.18814 347.788 -24.9712 330.379 -53.0121 319.418C-72.4533 311.886 -95.5043 307.605 -119.654 307.068C-158.262 306.13 -201.138 313.149 -247.207 327.92C-263.019 333.002 -279.419 339.089 -295.953 346.002C-337.433 363.307 -379.365 385.222 -424.188 412.964C-472.115 442.648 -522.391 477.833 -565.7 511.971L-573.853 508.317C-530.216 473.906 -479.573 438.465 -431.274 408.545C-385.848 380.399 -343.263 358.163 -301.054 340.547C-284.103 333.46 -267.284 327.22 -251.048 322.007C-203.115 306.621 -158.25 299.325 -117.679 300.305C-91.8622 300.882 -67.1799 305.456 -46.3634 313.541C-16.13 325.337 4.08758 344.187 9.13231 365.247C12.4035 379.167 9.66845 392.668 6.53915 404.036C5.71256 407.136 4.81049 410.225 3.90841 413.315C0.988956 423.375 -1.75663 432.872 -2.51984 442.296C-3.7154 457.2 3.05236 477.934 26.1403 487.379C34.3986 490.749 43.6151 492.386 54.2852 492.396C83.8833 492.338 111.602 478.285 132.435 466.072C146.074 458.072 158.39 450.114 168.068 443.022C194.374 423.744 227.136 399.76 277.589 400.912C300.741 401.441 321.4 407.984 341.395 414.291C366.045 422.092 389.336 429.448 416.567 426.411C442.309 423.531 463.112 411.613 485.103 399.002C491.733 395.21 498.598 391.27 505.546 387.631C537.76 370.823 578.637 357.86 627.083 349.087C636.676 347.334 646.946 345.658 657.57 344.13C677.771 341.231 698.31 338.863 718.199 336.593C748.358 333.139 779.57 329.572 811.242 323.899C824.685 321.478 838.203 318.576 851.331 315.285C897.016 303.86 930.597 289.756 951.133 273.358C965.937 261.558 973.976 249.207 982.498 236.135C991.078 222.964 999.961 209.346 1016.25 196.382C1018.69 194.449 1021.32 192.533 1024.03 190.672C1076.18 155.43 1165.17 144.016 1201.01 140.739C1222.93 138.745 1244.79 137.523 1265.91 136.343C1309.22 133.913 1350.11 131.623 1391.57 123.294C1511.64 99.3364 1618.86 16.1062 1630.58 -62.2279L1641.41 -62.6233C1635.52 -23.1828 1606.77 18.3925 1560.47 54.4794C1513.87 90.7901 1454.53 117.511 1393.38 129.713C1350.66 138.275 1307.21 140.726 1265.18 143.075C1244.21 144.255 1222.5 145.478 1200.9 147.423C1166.38 150.57 1080.71 161.507 1031.44 194.795C1028.93 196.493 1026.53 198.24 1024.33 200.004C1009.19 212.033 1001.02 224.537 992.417 237.778C983.961 250.796 975.164 264.245 959.241 276.952C937.217 294.513 901.776 309.501 853.922 321.474C840.4 324.847 826.527 327.848 812.69 330.35C780.444 336.132 748.976 339.715 718.528 343.212C698.783 345.461 678.353 347.812 658.44 350.667C648.033 352.163 638.016 353.801 628.604 355.528C581.881 363.975 542.55 376.414 511.74 392.497C505.032 396.01 498.265 399.868 491.737 403.601C469.303 416.457 446.16 429.755 416.821 433.019C386.105 436.445 360.289 428.259 335.295 420.376C315.335 414.064 296.462 408.103 275.496 407.626C230.82 406.591 201.622 428.004 175.844 446.867C165.868 454.183 153.18 462.376 139.167 470.589C120.572 481.481 96.756 493.739 70.0402 497.75L70.2339 497.811Z" fill="#00617C"/>
<path d="M62.0606 503.625C56.1037 504.519 50.0089 504.986 43.763 504.94C31.1925 504.813 19.9673 502.582 10.4354 498.352C-15.5149 486.808 -21.7679 463.109 -19.2664 446.331C-17.7615 436.438 -14.1856 426.324 -10.7081 416.538C-9.5435 413.23 -8.34608 409.895 -7.25695 406.577C-3.55322 395.593 -0.118936 382.568 -2.62533 369.317C-6.41606 349.724 -24.6643 331.944 -52.7249 320.605C-72.0545 312.833 -95.0661 308.322 -119.246 307.588C-157.899 306.343 -201.035 313.11 -247.392 327.679C-263.323 332.711 -279.844 338.727 -296.464 345.564C-339.023 363.053 -381.143 384.951 -425.256 412.497C-475.277 443.727 -524.772 479.689 -564.582 513.772L-573.067 510.369C-532.867 475.937 -482.909 439.614 -432.376 408.106C-387.583 380.167 -344.778 357.92 -301.453 340.114C-284.417 333.103 -267.44 326.929 -251.05 321.761C-202.753 306.588 -157.664 299.55 -117.044 300.858C-91.1943 301.654 -66.5875 306.463 -45.8826 314.789C-15.6195 327.028 4.06646 346.271 8.18567 367.559C10.8727 381.768 7.281 395.465 3.40013 406.99C2.28147 410.358 1.08732 413.715 -0.110114 417.05C-3.66302 427.072 -7.00594 436.524 -8.42885 445.98C-10.7239 461.183 -5.26557 482.539 17.5993 492.712C25.5885 496.256 35.0249 498.129 45.5638 498.247C69.1852 498.46 93.209 490.288 123.467 471.759C136.686 463.666 148.727 455.346 158.323 447.707C184.205 427.083 216.385 401.44 267.534 401.817C291.306 402.052 312.32 408.743 332.67 415.198C357.093 422.965 380.158 430.288 407.136 427.289C432.986 424.393 453.737 412.371 475.712 399.651C482.607 395.662 489.774 391.52 497.03 387.723C529.652 370.675 571.362 357.856 620.99 349.577C630.819 347.922 641.328 346.366 652.159 344.986C672.078 342.421 692.302 340.414 711.873 338.482C743.338 335.369 775.893 332.138 808.857 326.472C822.53 324.106 836.2 321.226 849.472 317.913C895.591 306.424 929.397 291.86 949.878 274.598C964.491 262.267 972.11 249.33 980.169 235.634C988.287 221.839 996.664 207.558 1012.83 194.031C1015.26 192.01 1017.84 190.012 1020.58 188.079C1072.74 151.18 1163.15 140.156 1199.61 137.099C1222.58 135.195 1245.46 134.176 1267.58 133.205C1310.89 131.29 1351.81 129.464 1393.45 121.579C1516.99 98.3315 1625.77 14.4198 1635.89 -65.4645L1646.74 -65.9529C1636.22 16.901 1523.37 103.93 1395.09 128.046C1352.19 136.165 1308.73 138.08 1266.67 139.964C1244.71 140.935 1222.01 141.949 1199.36 143.827C1164.32 146.738 1077.46 157.296 1028.23 192.099C1025.76 193.857 1023.38 195.692 1021.18 197.521C1006.16 210.07 998.458 223.198 990.314 237.064C982.318 250.684 974.023 264.774 958.294 278.033C936.304 296.552 900.61 312.07 852.174 324.108C838.475 327.53 824.376 330.497 810.27 332.929C776.695 338.708 743.812 341.967 712.018 345.107C692.595 347.038 672.479 349.029 652.849 351.551C642.239 352.92 631.982 354.438 622.333 356.066C574.471 364.057 534.451 376.332 503.3 392.6C496.28 396.25 489.287 400.321 482.493 404.25C460.075 417.215 436.879 430.656 407.469 433.93C377.005 437.318 351.419 429.188 326.648 421.316C306.373 414.872 287.185 408.779 265.743 408.575C220.621 408.256 191.866 431.146 166.509 451.334C156.552 459.273 144.108 467.855 130.485 476.21C113.682 486.498 89.5804 499.56 62.0343 503.696L62.0606 503.625Z" fill="#006480"/>
<path d="M54.1877 509.461C47.9059 510.404 41.4074 510.888 34.7775 510.742C22.1085 510.451 10.9292 508.035 1.53836 503.515C-24.1659 491.15 -28.9322 466.781 -25.2262 449.665C-23.0616 439.741 -18.8555 429.644 -14.7807 419.902C-13.2846 416.343 -11.7886 412.784 -10.4041 409.22C-5.98491 398.084 -1.76294 384.896 -3.7147 371.405C-6.61272 351.611 -24.3916 333.514 -52.4785 321.754C-71.7327 313.747 -94.6689 309.001 -118.842 308.065C-157.581 306.497 -200.904 313.001 -247.619 327.4C-263.707 332.366 -280.314 338.306 -297.051 345.093C-339.995 362.483 -383.499 384.992 -426.441 411.981C-477.614 444.145 -526.321 480.929 -563.581 515.524L-572.322 512.383C-534.609 477.362 -485.338 440.158 -433.558 407.612C-389.976 380.213 -345.681 357.317 -301.936 339.605C-284.782 332.644 -267.683 326.541 -251.175 321.422C-202.552 306.446 -157.241 299.666 -116.496 301.313C-90.6166 302.306 -66.0458 307.366 -45.4853 315.96C-15.1926 328.642 3.95841 348.256 7.15539 369.795C9.255 384.271 4.80668 398.164 0.17751 409.869C-1.2365 413.482 -2.72928 417.063 -4.25488 420.671C-8.44124 430.653 -12.3749 440.105 -14.4214 449.587C-18.0389 466.309 -12.1965 487.764 9.01084 497.962C16.8524 501.752 26.2363 503.767 36.831 504.011C60.6034 504.492 85.2836 496.021 114.524 477.354C127.356 469.139 139.16 460.475 148.638 452.294C174.061 430.329 205.689 402.979 257.501 402.607C281.884 402.482 303.294 409.359 324.038 415.979C348.235 423.714 371.076 431.025 397.763 428.048C423.576 425.157 444.419 413.01 466.41 400.153C473.571 395.967 481.004 391.629 488.569 387.674C521.601 370.407 564.102 357.693 614.947 349.902C625.013 348.346 635.726 346.917 646.832 345.652C666.541 343.409 686.555 341.724 705.873 340.077C738.573 337.316 772.401 334.452 806.518 328.838C820.384 326.532 834.244 323.69 847.697 320.35C893.54 308.992 928.469 293.543 948.671 275.652C963.097 262.812 970.263 249.317 977.826 235.024C985.477 220.583 993.388 205.655 1009.43 191.543C1011.81 189.441 1014.42 187.371 1017.14 185.351C1069.35 146.789 1161.15 136.139 1198.2 133.351C1222.14 131.546 1246.02 130.758 1269.09 130.002C1312.47 128.568 1353.47 127.202 1395.32 119.755C1522.37 97.256 1632.67 12.6681 1641.18 -68.81L1652.02 -69.4078C1643.15 15.122 1528.64 102.893 1396.77 126.249C1353.66 133.93 1310.13 135.364 1268 136.767C1245.08 137.523 1221.42 138.3 1197.84 140.073C1123.7 145.676 1059.09 164.038 1025 189.229C1022.5 191.058 1020.16 192.953 1017.98 194.87C1003.07 207.96 995.796 221.696 988.082 236.214C980.542 250.414 972.783 265.117 957.247 278.929C935.513 298.17 898.523 314.643 850.294 326.584C836.379 330.038 822.089 332.967 807.753 335.343C772.953 341.082 738.758 343.956 705.697 346.772C686.487 348.403 666.582 350.071 647.165 352.293C636.311 353.52 625.819 354.938 616.005 356.457C567.037 363.965 526.262 376.129 494.77 392.583C487.477 396.386 480.215 400.631 473.192 404.751C450.757 417.854 427.578 431.404 398.063 434.716C367.891 438.083 342.492 429.969 317.944 422.108C297.315 415.516 277.844 409.264 255.933 409.377C210.279 409.697 182.05 434.12 157.116 455.653C147.248 464.183 135.014 473.181 121.706 481.668C105.337 492.137 81.8126 505.358 54.2304 509.5L54.1877 509.461Z" fill="#006784"/>
<path d="M45.95 515.33C39.1627 516.349 32.4673 516.75 25.7914 516.544C13.0305 516.133 1.89058 513.487 -7.3592 508.677C-31.1401 496.337 -36.4808 471.83 -31.1832 453.021C-28.3983 443.048 -23.5621 432.968 -18.8637 423.2C-17.0657 419.439 -15.2349 415.651 -13.5518 411.863C-8.45317 400.58 -3.41072 387.202 -4.76845 373.488C-6.84597 353.503 -24.1228 335.063 -52.1606 322.892C-71.3032 314.645 -94.2 309.669 -118.399 308.558C-157.22 306.689 -200.766 312.936 -247.807 327.137C-264.016 332.032 -280.777 337.928 -297.597 344.66C-341.446 362.164 -385.174 384.661 -427.548 411.499C-479.393 444.345 -527.355 481.912 -562.537 517.314L-571.573 514.419C-535.876 478.515 -487.291 440.429 -434.736 407.14C-391.653 379.861 -347.135 356.976 -302.452 339.123C-285.176 332.233 -267.962 326.158 -251.293 321.126C-202.31 306.343 -156.808 299.847 -115.978 301.817C-90.0656 303.029 -65.5703 308.324 -45.0852 317.153C-14.799 330.284 3.85648 350.285 6.08856 372.037C7.56461 386.785 2.25965 400.874 -3.08499 412.731C-4.80092 416.546 -6.62515 420.378 -8.45596 424.166C-13.2331 434.148 -17.7576 443.599 -20.4572 453.156C-25.2431 470.21 -20.638 492.277 0.343025 503.179C8.06977 507.188 17.3717 509.394 28.0189 509.743C51.9063 510.497 77.2427 501.726 105.463 482.899C117.979 474.553 129.508 465.527 138.831 456.81C162.426 434.716 194.763 404.463 247.349 403.348C272.309 402.89 294.11 409.91 315.212 416.7C339.186 424.423 361.801 431.702 388.231 428.741C414.228 425.844 434.979 413.577 457.023 400.578C464.45 396.195 472.113 391.666 479.986 387.552C513.424 370.046 556.796 357.47 608.783 350.156C619.085 348.699 630.038 347.39 641.384 346.246C660.987 344.288 680.824 342.898 700.038 341.535C733.899 339.136 768.859 336.685 804.092 331.126C818.156 328.903 832.199 326.056 845.8 322.716C878.124 314.752 921.987 300.29 947.377 276.629C961.649 263.253 968.355 249.156 975.459 234.26C982.647 219.195 990.056 203.627 1005.94 188.957C1008.31 186.788 1010.86 184.615 1013.58 182.529C1049.78 154.628 1118.23 134.795 1196.66 129.487C1221.54 127.809 1246.34 127.263 1270.33 126.727C1313.86 125.764 1354.96 124.852 1397.09 117.81C1525.42 96.4617 1639.6 9.39036 1646.38 -72.298L1657.25 -72.9669C1653.83 -31.8164 1624.86 11.5362 1575.71 49.1015C1526.41 86.8033 1463.41 113.514 1398.37 124.354C1355.01 131.58 1311.3 132.57 1269.06 133.519C1245.26 134.05 1220.68 134.585 1196.19 136.247C1120.95 141.346 1055.69 160.073 1021.64 186.309C1019.16 188.225 1016.83 190.186 1014.69 192.163C999.906 205.796 993.085 220.112 985.873 235.27C978.832 250.089 971.532 265.395 956.157 279.787C928.821 305.239 882.474 320.611 848.403 328.993C834.307 332.475 819.794 335.392 805.193 337.719C769.241 343.408 733.805 345.886 699.576 348.295C680.471 349.642 660.746 351.037 641.431 352.952C630.337 354.059 619.638 355.329 609.588 356.749C559.514 363.775 517.981 375.806 486.187 392.462C478.658 396.412 471.13 400.854 463.837 405.149C441.387 418.388 418.119 432.085 388.531 435.409C358.579 438.765 333.44 430.657 309.115 422.807C288.167 416.061 268.385 409.7 246.04 410.123C199.818 411.089 170.881 438.168 147.644 459.939C137.934 469.028 125.906 478.42 112.924 487.104C89.436 502.782 67.3554 512.094 46.0189 515.297L45.95 515.33Z" fill="#006A88"/>
<path d="M37.97 521.183C30.8939 522.245 23.8276 522.635 16.8038 522.324C3.94437 521.749 -7.18903 518.9 -16.2583 513.817C-39.7538 500.674 -43.68 475.507 -37.1747 456.382C-33.7334 446.355 -28.3096 436.255 -23.0598 426.471C-20.9238 422.503 -18.7879 418.534 -16.7667 414.539C-10.9527 403.104 -5.08971 389.536 -5.9289 375.586C-7.14983 355.406 -23.9245 336.622 -51.982 324.074C-71.0131 315.586 -93.8673 310.402 -118.099 309.072C-157.003 306.902 -200.772 312.892 -248.104 326.868C-264.435 331.692 -281.314 337.538 -298.256 344.199C-343.014 361.795 -386.928 384.276 -428.804 410.993C-481.056 444.326 -528.231 482.715 -561.643 519.082L-570.899 516.444C-536.945 479.503 -489.049 440.514 -436.022 406.684C-393.405 379.497 -348.667 356.602 -303.038 338.652C-285.644 331.811 -268.309 325.807 -251.519 320.847C-202.207 306.283 -156.482 300.044 -115.567 302.337C-89.6607 303.751 -65.1982 309.32 -44.8246 318.39C-14.5482 331.947 3.57565 352.342 4.92159 374.338C5.8069 389.332 -0.351349 403.638 -6.44758 415.652C-8.50153 419.675 -10.667 423.693 -12.7965 427.705C-17.9676 437.275 -23.2731 447.179 -26.5537 456.802C-32.4751 474.16 -29.1368 496.887 -8.34601 508.489C-0.77021 512.723 8.48245 515.093 19.1855 515.567C43.4864 516.618 68.7376 507.769 96.4192 488.553C108.653 480.048 119.91 470.682 129.046 461.456C152.151 438.072 183.782 406.067 237.182 404.226C262.749 403.386 284.908 410.576 306.332 417.541C330.082 425.253 352.51 432.515 378.688 429.592C404.718 426.668 425.561 414.275 447.588 401.166C455.248 396.615 463.176 391.889 471.322 387.623C505.171 369.897 549.297 357.432 602.538 350.602C613.077 349.243 624.269 348.055 635.822 347.059C655.357 345.379 675.125 344.269 694.266 343.163C729.075 341.181 765.057 339.135 801.123 333.72L801.592 333.65C815.886 331.481 830.084 328.678 843.862 325.29C876.547 317.272 920.774 302.531 946.042 277.814C960.196 263.897 966.446 249.219 973.083 233.677C979.773 217.993 986.715 201.779 1002.44 186.551C1004.8 184.295 1007.34 182.056 1010.04 179.882C1046.22 150.843 1115.42 130.606 1195.14 125.798C1220.9 124.258 1246.59 123.96 1271.46 123.671C1315.17 123.173 1356.48 122.677 1398.86 116.045C1530.66 95.4514 1646.4 7.6984 1651.61 -75.5894L1662.46 -76.3457C1657.06 10.1252 1536.84 101.236 1399.96 122.616C1356.25 129.492 1312.42 129.963 1270.01 130.446C1245.35 130.724 1219.88 131.012 1194.53 132.536C1118.14 137.158 1052.26 156.201 1018.27 183.504C1015.8 185.486 1013.48 187.534 1011.35 189.577C996.716 203.724 990.355 218.642 983.609 234.446C977.028 249.868 970.23 265.814 955.013 280.764C927.815 307.381 880.998 323.07 846.495 331.518C832.218 335.026 817.446 337.938 802.647 340.182C765.685 345.776 729.008 347.859 693.65 349.879C674.653 350.963 654.997 352.079 635.718 353.743C624.421 354.723 613.482 355.873 603.199 357.216C552.022 363.781 509.763 375.652 477.595 392.521C469.791 396.602 462.033 401.235 454.507 405.699C432.04 419.075 408.795 432.926 379.024 436.254C349.288 439.578 324.372 431.481 300.234 423.648C279.008 416.765 258.943 410.245 236.129 410.985C192.789 412.457 166.057 436.028 138.114 464.324C128.562 473.971 116.813 483.746 104.044 492.622C81.1441 508.525 59.3786 517.968 38.006 521.177L37.97 521.183Z" fill="#006E8C"/>
<path d="M29.4766 527.068C22.1839 528.163 14.9632 528.508 7.78191 528.132C-5.17271 527.414 -16.2635 524.358 -25.1884 519.007C-48.3164 505.115 -50.9069 479.255 -43.161 459.788C-39.0698 449.663 -33.0258 439.514 -27.1918 429.687C-24.7144 425.533 -22.2699 421.407 -19.9075 417.226C-13.378 405.639 -6.73061 391.885 -6.97907 377.691C-7.37949 357.321 -23.652 338.192 -51.6965 325.239C-70.616 316.511 -93.4309 311.097 -117.693 309.571C-156.681 307.078 -200.638 312.805 -248.328 326.611C-264.777 331.386 -281.777 337.16 -298.837 343.772C-344.396 361.443 -388.537 383.891 -429.946 410.516C-482.435 444.242 -528.861 483.436 -560.672 520.883L-570.115 518.474C-537.74 480.361 -490.526 440.512 -437.201 406.212C-395.017 379.09 -350.019 356.201 -303.554 338.17C-286.042 331.378 -268.585 325.446 -251.637 320.551C-202.001 306.185 -156.013 300.22 -115.012 302.836C-89.0733 304.468 -64.6502 310.267 -44.4243 319.583C-14.1543 333.589 3.43458 354.354 3.85829 376.601C4.12004 391.868 -2.85867 406.364 -9.73929 418.563C-12.0985 422.766 -14.6086 426.947 -17.0794 431.145C-22.7952 440.775 -28.7244 450.705 -32.6548 460.426C-39.4264 477.531 -37.4466 501.536 -17.0758 513.783C-9.65098 518.241 -0.44421 520.797 10.2753 521.38C34.6156 522.693 60.5232 513.545 87.2627 494.202C99.2148 485.538 110.271 475.822 119.18 466.07C141.764 441.421 172.653 407.671 226.935 405.071C253.074 403.854 275.554 411.22 297.332 418.333C320.86 426.034 343.104 433.301 369.061 430.388C395.2 427.448 416.062 414.94 438.139 401.668C446.028 396.925 454.19 392.03 462.608 387.611C496.864 369.645 541.82 357.301 596.243 350.965C606.982 349.711 618.446 348.616 630.242 347.763C649.744 346.356 669.509 345.47 688.617 344.637C724.632 343.057 761.857 341.428 799.036 336.048C813.562 333.956 827.944 331.148 841.833 327.765C874.88 319.693 919.544 304.662 944.618 278.901C958.617 264.447 964.447 249.183 970.621 233.017C976.848 216.709 983.252 199.86 998.863 184.09C1001.21 181.746 1003.74 179.42 1006.39 177.186C1042.54 146.987 1112.5 126.391 1193.48 122.066C1220.06 120.647 1246.64 120.618 1272.33 120.609C1316.26 120.571 1357.71 120.524 1400.47 114.237C1400.94 114.167 1401.37 114.102 1401.84 114.031C1534.23 94.1545 1653.15 4.22342 1656.64 -78.9409L1667.52 -79.7902C1665.77 -38.1069 1635.89 7.5747 1585.59 45.5596C1534.43 84.1887 1469.01 110.973 1401.38 120.813C1357.35 127.268 1313.32 127.322 1270.69 127.368C1245.22 127.387 1218.9 127.423 1192.75 128.798C1115.22 132.942 1048.69 152.307 1014.77 180.649C1012.35 182.692 1010.01 184.811 1007.9 186.963C993.378 201.651 987.476 217.172 981.193 233.601C975.071 249.624 968.74 266.217 953.717 281.719C926.657 309.502 879.335 325.513 844.398 334.026C829.941 337.561 814.945 340.462 799.917 342.651C761.832 348.145 724.167 349.795 687.712 351.397C668.716 352.235 649.095 353.1 629.849 354.49C618.309 355.327 607.134 356.379 596.651 357.617C543.607 363.791 501.834 375.21 468.841 392.493C460.801 396.721 452.81 401.524 445.051 406.157C422.532 419.675 399.234 433.668 369.358 437.034C339.842 440.347 315.11 432.245 291.159 424.429C269.651 417.387 249.31 410.752 226.066 411.825C182.083 413.93 154.754 439.919 128.4 468.714C119.077 478.908 107.499 489.083 95.0157 498.14C72.9067 514.147 50.882 523.832 29.365 527.062L29.4766 527.068Z" fill="#007190"/>
<path d="M21.4231 532.931C13.8777 534.064 6.32235 534.393 -1.1708 533.907C-14.2206 533.047 -25.272 529.76 -34.0165 524.136C-56.8591 509.44 -58.0384 482.899 -49.0814 463.138C-44.4126 452.927 -37.7483 442.729 -31.3268 432.881C-28.5049 428.564 -25.683 424.246 -23.0481 419.912C-15.8031 408.173 -8.37467 394.213 -8.06192 379.823C-7.64185 359.262 -23.4483 339.795 -51.4076 326.427C-70.2155 317.458 -92.9911 311.814 -117.282 310.091C-156.353 307.297 -200.533 312.767 -248.512 326.37C-265.118 331.079 -282.24 336.782 -299.382 343.339C-345.749 361.042 -390.073 383.495 -431.089 410.039C-484.45 444.59 -528.92 483.534 -559.664 522.678L-569.294 520.499C-537.959 480.617 -492.679 440.925 -438.34 405.757C-396.517 378.689 -351.336 355.794 -303.991 337.721C-286.396 330.984 -268.782 325.117 -251.716 320.272C-201.719 306.097 -155.54 300.417 -114.454 303.356C-88.4825 305.208 -64.0987 311.236 -44.0172 320.819C-13.7931 335.257 3.30025 356.411 2.79844 378.886C2.46945 394.398 -5.36256 409.112 -12.9948 421.469C-15.6985 425.835 -18.5106 430.218 -21.362 434.585C-27.6621 444.258 -34.1722 454.253 -38.6803 464.06C-48.3328 485.336 -43.0121 507.988 -25.6906 519.105C-18.4167 523.786 -9.25915 526.506 1.55225 527.21C26.2701 528.825 52.0956 519.621 78.3263 499.84C90.0322 491.011 100.812 480.934 109.538 470.696C130.306 446.252 161.71 409.291 216.915 405.948C243.624 404.355 266.423 411.874 288.52 419.141C311.86 426.825 333.92 434.098 359.698 431.212C386.016 428.245 406.859 415.606 428.988 402.191C437.107 397.257 445.499 392.171 454.156 387.626C488.819 369.421 534.609 357.22 590.214 351.378C601.189 350.222 612.857 349.254 624.895 348.543C644.434 347.377 664.202 346.759 683.343 346.145C720.381 344.992 758.631 343.792 796.748 338.517C811.429 336.469 826.041 333.716 840.107 330.284C873.551 322.152 918.615 306.838 943.528 280.004C957.409 265.009 962.78 249.142 968.491 232.352C974.222 215.447 980.16 197.952 995.577 181.629C997.87 179.204 1000.39 176.789 1003.07 174.485C1039.19 143.126 1109.87 122.153 1192.14 118.328C1219.56 117.052 1246.95 117.303 1273.42 117.558C1315.64 117.955 1359.3 118.338 1402.41 112.424C1538.86 93.7505 1660.09 2.75596 1662.01 -82.2976L1672.87 -83.2345C1670.91 4.01788 1547.88 97.3183 1408.31 118.274C1406.58 118.534 1404.88 118.789 1403.14 119.005C1358.76 125.087 1314.44 124.692 1271.59 124.3C1245.35 124.056 1218.21 123.811 1191.27 125.06C1112.59 128.705 1045.41 148.435 1011.54 177.822C1009.13 179.93 1006.8 182.137 1004.73 184.349C990.367 199.552 984.889 215.681 979.109 232.75C973.45 249.398 967.617 266.609 952.752 282.67C925.902 311.607 878.071 327.918 842.668 336.523C827.994 340.091 812.812 342.975 797.514 345.093C758.491 350.482 719.726 351.692 682.248 352.866C663.251 353.458 643.594 354.082 624.312 355.232C612.569 355.943 601.154 356.874 590.435 358.013C536.284 363.704 493.753 374.991 460.423 392.481C452.142 396.835 443.918 401.807 435.966 406.626C413.398 420.308 390.123 434.454 360.06 437.804C330.761 441.084 306.18 433.004 282.409 425.161C260.621 417.982 240.038 411.204 216.365 412.61C171.587 415.327 144.803 442.733 119.043 473.028C109.914 483.775 98.6155 494.332 86.3452 503.581C64.7548 519.846 43.0419 529.641 21.4887 532.877L21.4231 532.931Z" fill="#007495"/>
<path d="M12.8572 538.827C5.13126 539.987 -2.53896 540.288 -10.1568 539.709C-23.3019 538.706 -34.3107 535.212 -42.9141 529.299C-65.3498 513.87 -64.9276 485.947 -55.0352 466.516C-49.7527 456.212 -42.5074 445.95 -35.5411 436.042C-32.4369 431.638 -29.2081 427.08 -26.2254 422.605C-18.2681 410.691 -10.0553 396.547 -9.14853 381.932C-7.91124 361.16 -23.2124 341.371 -51.1585 327.598C-69.8516 318.41 -92.5911 312.515 -116.909 310.617C-156.101 307.505 -200.464 312.734 -248.768 326.14C-265.496 330.777 -282.7 336.426 -299.996 342.939C-347.131 360.69 -391.646 383.104 -432.261 409.61C-485.692 444.44 -529.413 484.19 -558.758 524.534L-568.579 522.562C-538.659 481.371 -494.058 440.841 -439.584 405.339C-398.126 378.304 -352.685 355.415 -304.536 337.288C-286.82 330.622 -269.088 324.805 -251.9 320.031C-201.575 306.076 -155.173 300.653 -114.002 303.915C-88.0005 305.963 -63.6888 312.248 -43.6828 322.067C-13.5013 336.959 3.05715 358.483 1.70203 381.176C0.742912 396.917 -7.90629 411.843 -16.2868 424.38C-19.3319 428.932 -22.5542 433.533 -25.6911 437.965C-32.5722 447.703 -39.6665 457.741 -44.7456 467.678C-55.747 489.313 -51.506 512.642 -34.3813 524.415C-27.2583 529.32 -18.1468 532.226 -7.27954 533.056C17.7764 534.956 43.5559 525.692 69.2845 505.516C80.7441 496.523 91.2879 486.101 99.7868 475.337C125.464 442.772 154.936 410.644 206.75 406.848C233.991 404.861 257.148 412.551 279.526 419.977C302.683 427.666 324.595 434.938 350.153 432.063C376.544 429.086 397.475 416.298 419.657 402.742C428.009 397.639 436.594 392.367 445.527 387.691C481.112 368.989 526.42 357.264 584.003 351.818C595.215 350.761 607.122 349.913 619.401 349.323C639.011 348.393 658.851 348.01 678.029 347.637C716.016 346.901 755.329 346.145 794.316 341.008C809.23 339.037 823.989 336.284 838.24 332.847C886.045 321.283 922.976 302.939 942.3 281.173C956.027 265.641 960.977 249.189 966.222 231.753C971.491 214.224 976.926 196.088 992.189 179.229C994.469 176.716 996.94 174.241 999.608 171.849C1035.67 139.337 1107.11 117.982 1190.67 114.677C1218.85 113.578 1247.06 114.109 1274.31 114.628C1316.78 115.435 1360.72 116.289 1404.22 110.72C1544.04 92.8387 1666.97 1.14091 1667.28 -85.5503L1678.17 -86.5583C1677.86 1.6317 1555.34 94.8343 1413.82 116.082C1410.82 116.532 1407.85 116.955 1404.85 117.317C1360.04 123.059 1315.47 122.211 1272.37 121.364C1245.38 120.851 1217.43 120.326 1189.76 121.393C1128.14 123.819 1048.09 139.195 1008.29 175.066C1005.85 177.246 1003.57 179.534 1001.51 181.812C987.262 197.557 982.24 214.266 976.925 231.981C971.762 249.226 966.392 267.061 951.688 283.702C930.883 307.167 891.53 326.837 840.84 339.102C825.986 342.697 810.577 345.548 795.049 347.611C755.084 352.873 715.295 353.655 676.793 354.401C657.724 354.758 638.031 355.141 618.68 356.077C606.694 356.646 595.042 357.478 584.123 358.513C528.83 363.727 485.613 374.87 451.908 392.574C443.389 397.053 434.971 402.21 426.822 407.193C404.201 421.017 380.805 435.338 350.636 438.726C321.521 442.001 297.121 433.894 273.501 426.073C251.434 418.757 230.608 411.836 206.544 413.592C160.976 416.943 133.673 447.044 109.571 477.56C100.669 488.832 89.613 499.779 77.5593 509.242C56.6516 525.628 34.6794 535.662 12.9819 538.92L12.8572 538.827Z" fill="#007799"/>
<path d="M4.77003 544.718C-3.2086 545.915 -11.1808 546.173 -19.1105 545.483C-32.3507 544.339 -43.3563 540.62 -51.7431 534.428C-70.6963 520.558 -74.498 494.007 -60.9533 469.888C-55.0964 459.475 -47.2702 449.148 -39.6902 439.149C-36.2381 434.603 -32.6647 429.881 -29.3341 425.264C-20.6614 413.198 -11.6313 398.842 -10.1666 384.009C-8.10885 363.046 -22.9472 342.897 -50.8442 328.714C-69.4258 319.285 -92.1226 313.183 -116.473 311.065C-155.747 307.653 -200.301 312.597 -248.93 325.806C-265.78 330.372 -283.138 335.977 -300.519 342.413C-348.392 360.163 -393.091 382.582 -433.381 409.04C-486.776 444.11 -529.788 484.649 -557.761 526.263L-567.696 524.51C-539.119 481.999 -495.201 440.609 -440.698 404.812C-399.568 377.804 -353.907 354.904 -304.987 336.751C-287.117 330.129 -269.299 324.389 -251.954 319.681C-201.303 305.923 -154.675 300.779 -113.382 304.358C-87.3482 306.626 -63.0759 313.141 -43.2142 323.227C-13.0786 338.551 2.94818 360.469 0.703632 383.384C-0.882326 399.376 -10.3882 414.498 -19.4841 427.186C-22.841 431.875 -26.4472 436.623 -29.9288 441.219C-37.3547 451.016 -45.0627 461.147 -50.7162 471.192C-63.0632 493.208 -59.8987 517.236 -42.9806 529.599C-36.0086 534.728 -26.9462 537.799 -16.0231 538.754C15.6563 541.494 43.0002 525.193 60.3308 511.045C74.3797 499.626 84.2996 487.754 90.1569 479.803C113.917 447.258 143.71 412.105 196.706 407.572C224.515 405.187 247.953 413.036 270.614 420.621C293.623 428.31 315.352 435.587 340.729 432.739C367.264 429.74 388.248 416.81 410.443 403.095C418.992 397.828 427.807 392.365 436.979 387.564C472.971 368.622 519.073 357.024 577.842 352.094C589.254 351.141 601.401 350.414 613.922 349.966C633.638 349.244 653.55 349.096 672.8 348.958C711.739 348.661 752.007 348.367 791.861 343.345C806.968 341.435 821.918 338.72 836.345 335.234C884.692 323.589 921.879 304.736 941.007 282.15C954.615 266.077 959.319 248.229 963.885 230.94C968.654 212.792 973.626 194.032 988.731 176.615C990.966 174.041 993.46 171.474 996.079 169C1038.49 129.358 1123.59 112.955 1189.16 110.786C1218.11 109.841 1247.06 110.663 1275.06 111.472C1317.84 112.702 1362.04 113.987 1405.96 108.758C1546.75 92.0053 1673.8 -2.27964 1672.47 -89.0606L1683.35 -90.1562C1684.03 -46.7793 1653.94 0.701574 1600.84 40.1376C1547.73 79.5736 1476.87 106.995 1406.4 115.383C1361.21 120.758 1316.31 119.466 1272.93 118.214C1245.2 117.41 1216.5 116.594 1188.1 117.523C1125.58 119.571 1044.61 134.994 1004.89 172.108C1002.46 174.374 1000.19 176.729 998.145 179.073C984.047 195.332 979.488 212.665 974.637 231.004C969.936 248.873 965.065 267.327 950.518 284.526C929.884 308.883 890.246 329.111 838.906 341.473C823.872 345.096 808.239 347.935 792.479 349.921C751.611 355.072 710.791 355.383 671.334 355.668C652.196 355.811 632.395 355.965 612.935 356.671C600.673 357.124 588.815 357.808 577.699 358.761C521.3 363.492 477.324 374.503 443.246 392.419C434.487 397.024 425.872 402.345 417.493 407.519C394.823 421.507 371.411 435.965 341.061 439.38C312.091 442.633 287.874 434.521 264.435 426.673C242.125 419.214 221.056 412.151 196.602 414.256C149.954 418.284 122.301 451.213 99.9805 481.797C93.8476 490.125 83.4257 502.587 68.6548 514.606C48.3018 531.245 26.6087 541.416 4.83896 544.685L4.77003 544.718Z" fill="#007B9D"/>
<path d="M-3.93712 550.635C-11.7713 551.811 -19.8519 552.085 -28.1295 551.291C-45.2132 549.627 -58.6511 543.477 -66.9827 533.472C-79.8938 518.046 -79.8615 494.41 -66.9367 473.293C-60.4726 462.745 -52.0294 452.347 -43.8717 442.261C-28.4226 423.203 -13.8464 405.216 -11.2861 386.125C-5.91319 346.18 -60.3748 316.853 -116.099 311.569C-182.908 305.242 -253.575 324.602 -301.134 341.991C-416.306 384.077 -509.523 451.912 -556.856 528.097L-566.948 526.524C-518.576 448.662 -423.298 379.308 -305.536 336.274C-256.297 318.275 -182.925 298.241 -112.933 304.873C-43.5023 311.455 4.82921 346.179 -0.468306 385.642C-3.22525 406.128 -19.0485 425.645 -34.3401 444.522C-42.3436 454.406 -50.6293 464.623 -56.8538 474.8C-68.535 493.873 -68.6562 515.933 -57.1829 529.651C-50.0725 538.161 -39.2013 543.197 -24.8911 544.584C19.579 548.917 59.6185 514.889 80.3697 484.429C97.098 459.875 128.261 414.179 186.504 408.455C214.842 405.655 238.563 413.663 261.506 421.407C284.334 429.123 305.915 436.4 331.109 433.558C357.792 430.558 378.788 417.47 401.072 403.608C409.814 398.155 418.862 392.523 428.271 387.574C471.723 364.715 530.602 352.653 608.312 350.697C628.136 350.204 648.157 350.287 667.512 350.357C707.403 350.499 748.626 350.665 789.274 345.77C842.614 339.351 910.154 319.566 939.624 283.253C953.114 266.638 957.352 248.145 961.462 230.275C965.771 211.525 970.206 192.129 985.153 174.154C1023.87 127.615 1115.06 108.978 1187.49 107.053C1217.17 106.268 1246.87 107.403 1275.61 108.503C1318.68 110.159 1363.24 111.861 1407.57 106.95C1551.81 91.0222 1680.49 -3.99892 1677.51 -92.4122L1688.37 -93.5734C1691.34 -4.9796 1567.09 90.0038 1423.8 111.517C1418.49 112.314 1413.17 113.002 1407.83 113.602C1362.19 118.642 1317 116.923 1273.26 115.255C1244.82 114.177 1215.38 113.048 1186.26 113.818C1117.31 115.643 1030.74 133.072 994.622 176.491C980.643 193.292 976.54 211.206 972.155 230.191C967.914 248.662 963.545 267.757 949.117 285.498C922.264 318.598 862.672 343.612 789.676 352.378C747.938 357.392 706.163 357.242 665.754 357.088C646.511 357.023 626.601 356.947 607.033 357.423C532.08 359.301 475.62 370.754 434.462 392.418C425.5 397.143 416.652 402.633 408.113 407.966C385.393 422.118 361.859 436.75 331.362 440.166C302.575 443.414 278.467 435.285 255.172 427.415C232.62 419.814 211.347 412.625 186.502 415.079C139.211 419.741 112.011 454.213 90.2295 486.17C71.2929 513.964 36.8488 544.444 -4.01914 550.58L-3.93712 550.635Z" fill="#007EA1"/>
</g>
</g>
<defs>
<clipPath id="clip0_85_5475">
<rect width="1440" height="686" fill="white"/>
</clipPath>
<clipPath id="clip1_85_5475">
<rect width="2337.29" height="386.221" fill="white" transform="translate(-623 253.032) rotate(-8.53862)"/>
</clipPath>
</defs>
</svg>
